<svg xmlns="http://www.w3.org/2000/svg" width="14" height="13" viewBox="0 0 14 13"><g><g><path fill="#fff" d="M11.842 13.106H1.312a1.323 1.323 0 0 1-1.316-1.322V1.206c0-.727.592-1.322 1.316-1.322h10.53c.725 0 1.317.595 1.317 1.322v10.578c0 .727-.592 1.322-1.317 1.322zM6.577 3.85a2.646 2.646 0 0 0 0 5.29 2.646 2.646 0 0 0 0-5.29zm5.265-2.313c0-.198-.131-.33-.329-.33h-1.316c-.197 0-.329.132-.329.33V2.86c0 .197.132.328.33.328h1.315c.198 0 .33-.13.33-.328zm0 4.296H10.46c.066.2.066.464.066.662 0 2.182-1.777 3.967-3.949 3.967-2.172 0-3.949-1.785-3.949-3.967 0-.198 0-.462.066-.662H1.312v5.62c0 .2.132.33.33.33h9.871c.198 0 .33-.13.33-.33z"/><path fill="#f9fbf7" d="M11.842 13.106H1.312a1.323 1.323 0 0 1-1.316-1.322V1.206c0-.727.592-1.322 1.316-1.322h10.53c.725 0 1.317.595 1.317 1.322v10.578c0 .727-.592 1.322-1.317 1.322zM6.577 3.85a2.646 2.646 0 0 0 0 5.29 2.646 2.646 0 0 0 0-5.29zm5.265-2.313c0-.198-.131-.33-.329-.33h-1.316c-.197 0-.329.132-.329.33V2.86c0 .197.132.328.33.328h1.315c.198 0 .33-.13.33-.328zm0 4.296H10.46c.066.2.066.464.066.662 0 2.182-1.777 3.967-3.949 3.967-2.172 0-3.949-1.785-3.949-3.967 0-.198 0-.462.066-.662H1.312v5.62c0 .2.132.33.33.33h9.871c.198 0 .33-.13.33-.33z"/></g></g></svg>