<svg xmlns="http://www.w3.org/2000/svg" width="15" height="9" viewBox="0 0 15 9"><g><g><path fill="#fff" d="M7.49 8.425h.879s.265-.03.401-.177c.125-.135.12-.39.12-.39s-.016-1.189.531-1.366c.54-.171 1.234 1.15 1.968 1.66.556.385.978.3.978.3l1.965-.027s1.028-.064.54-.879c-.04-.067-.284-.603-1.46-1.705-1.233-1.154-1.067-.965.417-2.96.903-1.216 1.265-1.958 1.152-2.275-.108-.303-.773-.223-.773-.223l-2.212.014s-.164-.022-.286.05a.623.623 0 0 0-.195.24s-.35.94-.817 1.74c-.985 1.687-1.379 1.776-1.54 1.671-.375-.245-.28-.981-.28-1.504 0-1.636.245-2.316-.48-2.493-.24-.059-.417-.098-1.032-.104-.79-.01-1.458.002-1.836.19-.252.124-.446.401-.328.417.147.02.478.09.653.332.227.31.22 1.009.22 1.009s.13 1.924-.305 2.163c-.298.164-.707-.17-1.586-1.7-.45-.786-.79-1.651-.79-1.651S3.33.594 3.213.508C3.071.402 2.872.37 2.872.37L.77.383S.455.39.34.53C.236.654.331.909.331.909S1.976 4.792 3.84 6.748c1.709 1.795 3.65 1.677 3.65 1.677z"/><path fill="#fafdf6" d="M7.49 8.425h.879s.265-.03.401-.177c.125-.135.12-.39.12-.39s-.016-1.189.531-1.366c.54-.171 1.234 1.15 1.968 1.66.556.385.978.3.978.3l1.965-.027s1.028-.064.54-.879c-.04-.067-.284-.603-1.46-1.705-1.233-1.154-1.067-.965.417-2.96.903-1.216 1.265-1.958 1.152-2.275-.108-.303-.773-.223-.773-.223l-2.212.014s-.164-.022-.286.05a.623.623 0 0 0-.195.24s-.35.94-.817 1.74c-.985 1.687-1.379 1.776-1.54 1.671-.375-.245-.28-.981-.28-1.504 0-1.636.245-2.316-.48-2.493-.24-.059-.417-.098-1.032-.104-.79-.01-1.458.002-1.836.19-.252.124-.446.401-.328.417.147.02.478.09.653.332.227.31.22 1.009.22 1.009s.13 1.924-.305 2.163c-.298.164-.707-.17-1.586-1.7-.45-.786-.79-1.651-.79-1.651S3.33.594 3.213.508C3.071.402 2.872.37 2.872.37L.77.383S.455.39.34.53C.236.654.331.909.331.909S1.976 4.792 3.84 6.748c1.709 1.795 3.65 1.677 3.65 1.677z"/></g></g></svg>