<svg width="30" height="30" viewBox="0 0 30 30" fill="none" xmlns="http://www.w3.org/2000/svg">
<path d="M29.1349 18.1847C29.3505 17.207 29.4648 16.1965 29.4648 15.157C29.4648 7.36666 23.0608 1.04982 15.1589 1.04982C14.3256 1.04982 13.5082 1.12107 12.7133 1.25606C11.4349 0.461176 9.92196 0 8.30039 0C3.71674 0 0.00292969 3.66315 0.00292969 8.18306C0.00292969 9.69221 0.420037 11.1057 1.14274 12.3215C0.952464 13.2373 0.853103 14.1859 0.853103 15.157C0.853103 22.9502 7.25715 29.0317 15.1581 29.0317C16.0533 29.0317 16.9288 28.9502 17.7771 28.7955C18.9459 29.4141 20.2808 30 21.6999 30C26.2826 30 29.9964 26.3378 29.9964 21.8179C29.9964 20.514 29.6861 19.2795 29.1349 18.1847Z" fill="#00AFF0"/>
<path d="M21.6839 20.9151C21.1318 21.6997 20.3238 22.3165 19.2599 22.7598C18.196 23.2069 16.9363 23.4282 15.4787 23.4282C13.7306 23.4282 12.2889 23.1244 11.1518 22.5161C10.3476 22.0793 9.69243 21.4944 9.18811 20.7651C8.68565 20.0358 8.43359 19.3254 8.43359 18.6345C8.43359 18.2352 8.58454 17.8921 8.88633 17.608C9.18811 17.3202 9.5734 17.1788 10.0393 17.1788C10.418 17.1788 10.7395 17.2884 11.0001 17.5125C11.2625 17.7347 11.4866 18.0636 11.6703 18.5013C11.8962 19.0216 12.139 19.4556 12.4023 19.8033C12.6629 20.151 13.0323 20.4397 13.5065 20.6657C13.9827 20.8897 14.6079 21.004 15.3803 21.004C16.4433 21.004 17.3074 20.7772 17.973 20.3206C18.6366 19.866 18.9703 19.2952 18.9703 18.6137C18.9703 18.0737 18.7903 17.6322 18.4322 17.2976C18.0732 16.9602 17.6102 16.7024 17.0421 16.5253C16.475 16.3462 15.7157 16.1569 14.7634 15.9572C13.4914 15.6845 12.4256 15.362 11.5689 14.9965C10.7113 14.628 10.0289 14.1285 9.52645 13.4958C9.02214 12.8603 8.7709 12.0729 8.7709 11.1327C8.7709 10.2348 9.03614 9.43897 9.56857 8.74253C10.1001 8.04515 10.8678 7.50994 11.8763 7.13495C12.883 6.76006 14.0679 6.57349 15.4279 6.57349C16.5152 6.57349 17.4563 6.69818 18.2503 6.94467C19.0442 7.19405 19.7014 7.52395 20.2243 7.93549C20.7483 8.34704 21.1316 8.77815 21.3726 9.23088C21.6144 9.68084 21.7353 10.1251 21.7353 10.5525C21.7353 10.9452 21.5853 11.3015 21.2835 11.6155C20.9817 11.9305 20.6049 12.0889 20.154 12.0889C19.7424 12.0889 19.4304 11.9932 19.2166 11.8049C19.0028 11.6155 18.7714 11.3062 18.5229 10.8759C18.1995 10.261 17.8143 9.78112 17.3625 9.43712C16.9107 9.09219 16.1871 8.91973 15.1878 8.91973C14.2627 8.91973 13.5147 9.10537 12.9466 9.48119C12.3786 9.85423 12.0937 10.306 12.0937 10.8319C12.0937 11.1562 12.1921 11.4393 12.3842 11.6764C12.5763 11.9154 12.8426 12.117 13.1828 12.2866C13.5193 12.4573 13.8624 12.5904 14.2082 12.6887C14.5541 12.7853 15.1269 12.9249 15.9255 13.1106C16.9228 13.3252 17.8273 13.5633 18.6372 13.822C19.4462 14.0817 20.1361 14.3976 20.7041 14.7659C21.2712 15.1371 21.7155 15.6076 22.0333 16.1757C22.351 16.7419 22.5113 17.4364 22.5113 18.2595C22.5117 19.2438 22.2343 20.1296 21.6839 20.9151Z" fill="white"/>
</svg>
