<svg width="30" height="30" viewBox="0 0 30 30" fill="none" xmlns="http://www.w3.org/2000/svg">
<g clip-path="url(#clip0)">
<path d="M28.9436 17.3662C29.8386 9.83248 28.5136 5.07622 26.1236 2.92497L26.1249 2.92372C22.2674 -0.750031 9.23986 -1.29378 4.62486 3.08872C2.55236 5.23247 1.82236 8.37873 1.74236 12.2737C1.66236 16.17 1.56736 23.4687 8.36861 25.4487H8.37486L8.36861 28.4725C8.36861 28.4725 8.32236 29.6975 9.10486 29.9437C9.99986 30.2337 10.4049 29.665 13.1886 26.34C17.8436 26.7437 21.4186 25.8187 21.8249 25.6837C22.7649 25.3687 28.0836 24.665 28.9436 17.3662ZM13.6474 24.2125C13.6474 24.2125 10.7011 27.8862 9.78486 28.84C9.48486 29.15 9.15611 29.1212 9.16111 28.5062C9.16111 28.1025 9.18361 23.4862 9.18361 23.4862C3.41736 21.8337 3.75736 15.6187 3.81986 12.3675C3.88236 9.11498 4.47736 6.45123 6.23236 4.65747C10.2811 0.861221 21.7024 1.70997 24.6124 4.44497C28.1699 7.59873 26.9036 16.5087 26.9111 16.8125C26.1799 22.905 21.8699 23.2912 21.0774 23.555C20.7386 23.6675 17.5949 24.4762 13.6474 24.2125Z" fill="#8E24AA"/>
<path d="M15.277 5.37128C14.7957 5.37128 14.7957 6.12128 15.277 6.12753C19.0107 6.15628 22.0857 8.75878 22.1195 13.5325C22.1195 14.0363 22.857 14.03 22.8507 13.5263H22.8495C22.8095 8.38253 19.452 5.40003 15.277 5.37128Z" fill="#8E24AA"/>
<path d="M20.1882 12.7412C20.1769 13.2387 20.9132 13.2624 20.9195 12.7587C20.9807 9.92242 19.2319 7.58617 15.9457 7.33992C15.4644 7.30492 15.4144 8.06117 15.8944 8.09617C18.7444 8.31242 20.2457 10.2574 20.1882 12.7412Z" fill="#8E24AA"/>
<path d="M19.4017 15.9674C18.7842 15.6099 18.1555 15.8324 17.8955 16.1837L17.3518 16.8874C17.0755 17.2449 16.5593 17.1974 16.5593 17.1974C12.7918 16.2012 11.7843 12.2587 11.7843 12.2587C11.7843 12.2587 11.738 11.7249 12.083 11.4387L12.763 10.8762C13.103 10.6062 13.318 9.9562 12.9718 9.31745C12.0468 7.6462 11.4255 7.06995 11.1093 6.62745C10.7768 6.2112 10.2768 6.11745 9.75676 6.3987H9.74551C8.66426 7.0312 7.48051 8.21495 7.85926 9.4337C8.50551 10.7187 9.69301 14.8149 13.478 17.9099C15.2568 19.3737 18.0718 20.8737 19.2667 21.2199L19.278 21.2374C20.4555 21.6299 21.6005 20.3999 22.2117 19.2862V19.2774C22.483 18.7387 22.393 18.2287 21.9967 17.8949C21.2942 17.2099 20.2342 16.4537 19.4017 15.9674Z" fill="#8E24AA"/>
<path d="M16.4607 10.13C17.662 10.2 18.2445 10.8275 18.307 12.1162C18.3295 12.62 19.0607 12.585 19.0382 12.0812C18.9582 10.3987 18.0807 9.46122 16.5007 9.37372C16.0194 9.34497 15.9744 10.1012 16.4607 10.13Z" fill="#8E24AA"/>
</g>
<defs>
<clipPath id="clip0">
<rect width="30" height="30" fill="white"/>
</clipPath>
</defs>
</svg>
