<svg xmlns="http://www.w3.org/2000/svg" width="101.539" height="21.586" viewBox="0 0 101.539 21.586">
    <defs>
        <style>
            .prefix__cls-1{fill:#fff;fill-rule:evenodd}
        </style>
    </defs>
    <g id="prefix__switchere" transform="translate(-.015 -.002)">
        <g id="prefix__Group_3514" data-name="Group 3514" transform="translate(.015 .002)">
            <path id="prefix__Path_17639" d="M396.761 19.183a10.222 10.222 0 0 1-3.32 7.583 9.745 9.745 0 0 1-2.345 1.587 9.732 9.732 0 0 1-2.345-1.587 7.379 7.379 0 0 0 2.345-1.051 7.942 7.942 0 0 0 0-13.065 7.406 7.406 0 0 0-4.151-1.275 7.25 7.25 0 0 0-1.418.139l-.143.029a1.035 1.035 0 0 1-.15.011 1.139 1.139 0 0 1-1.122-1.156 1.225 1.225 0 0 1 .064-.393c.011-.031.024-.063.037-.091a1.224 1.224 0 0 1 .148-.246.734.734 0 0 1 .064-.072 1.289 1.289 0 0 1 .139-.127 1.049 1.049 0 0 1 .335-.176c.03-.01.064-.019.092-.026l.058-.011h.015a9.562 9.562 0 0 1 6.032.759 9.755 9.755 0 0 1 2.344 1.585 10.222 10.222 0 0 1 3.321 7.583z" class="prefix__cls-1" data-name="Path 17639" transform="translate(-383.455 -8.391)"/>
            <path id="prefix__Path_17640" d="M390.717 28.712l-.279-.134a10.377 10.377 0 0 1-2.5-1.693l-.945-.862 1.226-.306a6.705 6.705 0 0 0 2.139-.958 7.25 7.25 0 0 0 0-11.929 6.742 6.742 0 0 0-5.079-1.037h-.017c-.036.006-.072.013-.107.022l-.055.01a1.778 1.778 0 0 1-2.018-1.818 1.885 1.885 0 0 1 .1-.62l.007-.019.051-.127a1.909 1.909 0 0 1 .234-.389l.008-.011a1.5 1.5 0 0 1 .1-.117 1.741 1.741 0 0 1 .214-.19 1.7 1.7 0 0 1 .536-.279c.05-.015.1-.03.149-.041.013 0 .034-.007.055-.011l.044-.008a10.208 10.208 0 0 1 6.42.816 10.376 10.376 0 0 1 2.5 1.693 11.012 11.012 0 0 1 0 16.184 10.38 10.38 0 0 1-2.5 1.691zm-.965-2.09a9.165 9.165 0 0 0 .965.585 9.108 9.108 0 0 0 1.909-1.339 9.626 9.626 0 0 0 0-14.148 9.062 9.062 0 0 0-2.188-1.479 8.922 8.922 0 0 0-5.626-.709l-.067.013-.032.01a.381.381 0 0 0-.127.068.537.537 0 0 0-.063.057l-.024.027a.532.532 0 0 0-.064.1c-.006.012-.011.027-.017.043a.526.526 0 0 0-.025.157.472.472 0 0 0 .464.478h.041c.045-.01.09-.019.135-.026a8.03 8.03 0 0 1 6.046 1.238 8.631 8.631 0 0 1 0 14.2 8.137 8.137 0 0 1-1.326.723z" class="prefix__cls-1" data-name="Path 17640" transform="translate(-383.078 -8.002)"/>
            <path id="prefix__Path_17641" d="M398.69 28.509a1.168 1.168 0 0 1-.806 1.114H397.849c-.038.008-.077.017-.116.022h-.013l-.025.006a9.57 9.57 0 0 1-5.987-.768 9.745 9.745 0 0 1-2.345-1.587 10.32 10.32 0 0 1 0-15.166 9.718 9.718 0 0 1 2.345-1.587 9.756 9.756 0 0 1 2.345 1.587 7.372 7.372 0 0 0-2.345 1.051 7.941 7.941 0 0 0 0 13.065 7.385 7.385 0 0 0 5.592 1.133.731.731 0 0 0 .084-.018h.015a1.025 1.025 0 0 1 .171-.013 1.137 1.137 0 0 1 1.119 1.159z" class="prefix__cls-1" data-name="Path 17641" transform="translate(-384.16 -8.931)"/>
            <path id="prefix__Path_17642" d="M395.477 30.092a10.127 10.127 0 0 1-4.429-1.01 10.38 10.38 0 0 1-2.5-1.693 11.011 11.011 0 0 1 0-16.181 10.356 10.356 0 0 1 2.5-1.691l.279-.134.279.134a10.38 10.38 0 0 1 2.5 1.693l.945.862-1.226.306a6.7 6.7 0 0 0-2.138.958 7.248 7.248 0 0 0 0 11.928 6.749 6.749 0 0 0 5.1 1.034l.032-.006.029-.008a.613.613 0 0 1 .083-.015 1.615 1.615 0 0 1 .254-.019 1.81 1.81 0 0 1 1.778 1.834 1.871 1.871 0 0 1-.1.6 1.8 1.8 0 0 1-1.182 1.167l-.072.018-.036.007-.09.018h-.023l-.039.008a10.342 10.342 0 0 1-1.944.19zm-4.151-19.207a9.109 9.109 0 0 0-1.909 1.339 9.627 9.627 0 0 0 0 14.148 9.107 9.107 0 0 0 2.188 1.479 8.862 8.862 0 0 0 3.873.883 8.974 8.974 0 0 0 1.693-.161l.064-.022h.044l.037-.007.032-.007a.487.487 0 0 0 .3-.452.47.47 0 0 0-.462-.476.4.4 0 0 0-.057 0c-.036.008-.068.015-.1.02a8.032 8.032 0 0 1-6.066-1.234 8.631 8.631 0 0 1 0-14.2 8.087 8.087 0 0 1 1.326-.729 9.33 9.33 0 0 0-.968-.587z" class="prefix__cls-1" data-name="Path 17642" transform="translate(-383.78 -8.506)"/>
        </g>
        <g id="prefix__Group_3515" data-name="Group 3515" transform="translate(19.203 3.198)">
            <path id="prefix__Path_17643" d="M417.354 27.881a7.166 7.166 0 0 1-1.959-.244 6.035 6.035 0 0 1-1.443-.592 1.152 1.152 0 0 1-.653-1.021.942.942 0 0 1 .328-.719 1.123 1.123 0 0 1 .789-.3 1.714 1.714 0 0 1 .789.237 6.273 6.273 0 0 0 1.057.456 3.936 3.936 0 0 0 1.231.182 2.058 2.058 0 0 0 1.086-.227.682.682 0 0 0 .356-.592.549.549 0 0 0-.26-.483 2.794 2.794 0 0 0-1.086-.265l-1.016-.109a3.937 3.937 0 0 1-2.278-.857 2.369 2.369 0 0 1-.762-1.841 2.476 2.476 0 0 1 1-2.077 4.6 4.6 0 0 1 2.846-.762 7.619 7.619 0 0 1 1.509.146 5.4 5.4 0 0 1 1.317.437 1.143 1.143 0 0 1 .789 1 .973.973 0 0 1-.288.71 1.031 1.031 0 0 1-.769.292 1.3 1.3 0 0 1-.328-.046 2.718 2.718 0 0 1-.444-.173 4.612 4.612 0 0 0-1.884-.381 1.621 1.621 0 0 0-.895.19.583.583 0 0 0-.279.5.553.553 0 0 0 .25.483 2.444 2.444 0 0 0 1.038.246l1.02.109a4.03 4.03 0 0 1 2.375.875 2.387 2.387 0 0 1 .721 1.8 2.631 2.631 0 0 1-1.086 2.2 5 5 0 0 1-3.071.826z" class="prefix__cls-1" data-name="Path 17643" transform="translate(-413.299 -15.088)"/>
            <path id="prefix__Path_17644" d="M438.057 27.843a1.484 1.484 0 0 1-1.519-1.184l-1.326-4.228h-.037l-1.346 4.228a1.5 1.5 0 0 1-1.48 1.184 1.543 1.543 0 0 1-1.519-1.184l-2.173-6.105a1.818 1.818 0 0 1-.1-.529 1.139 1.139 0 0 1 .375-.875 1.323 1.323 0 0 1 .933-.346 1.294 1.294 0 0 1 1.288 1.075l1.345 4.464h.038l1.326-4.444a1.34 1.34 0 0 1 2.634 0l1.4 4.444h.038l1.288-4.464a1.339 1.339 0 0 1 2.211-.729 1.155 1.155 0 0 1 .365.875 1.84 1.84 0 0 1-.1.529l-2.171 6.105a1.524 1.524 0 0 1-1.47 1.184z" class="prefix__cls-1" data-name="Path 17644" transform="translate(-418.87 -15.141)"/>
            <path id="prefix__Path_17645" d="M453.724 15.916a1.506 1.506 0 0 1-1.079-.419 1.4 1.4 0 0 1 0-2.042 1.593 1.593 0 0 1 2.154 0 1.4 1.4 0 0 1 0 2.042 1.509 1.509 0 0 1-1.075.419zm0 9.822a1.354 1.354 0 0 1-.971-.356 1.3 1.3 0 0 1-.375-.994v-6.34a1.3 1.3 0 0 1 .375-.994 1.493 1.493 0 0 1 1.933 0 1.288 1.288 0 0 1 .385.994v6.342a1.288 1.288 0 0 1-.385.994 1.366 1.366 0 0 1-.962.354z" class="prefix__cls-1" data-name="Path 17645" transform="translate(-427.501 -13.036)"/>
            <path id="prefix__Path_17646" d="M463.079 26.313a3.059 3.059 0 0 1-2.317-.719 3.213 3.213 0 0 1-.663-2.232V19.39a.109.109 0 0 0-.135-.109h-.077a1.116 1.116 0 0 1-.8-.265.976.976 0 0 1 0-1.367 1.116 1.116 0 0 1 .8-.264h.077a.109.109 0 0 0 .135-.109v-1.313a1.3 1.3 0 0 1 .375-.994 1.351 1.351 0 0 1 .971-.355 1.333 1.333 0 0 1 .952.355 1.3 1.3 0 0 1 .376.994v1.312a.1.1 0 0 0 .115.109h.73a1.117 1.117 0 0 1 .8.265.977.977 0 0 1 0 1.367 1.115 1.115 0 0 1-.8.264h-.73a.1.1 0 0 0-.115.109v3.9a.862.862 0 0 0 .163.583.814.814 0 0 0 .548.219 1.38 1.38 0 0 1 .913.392 1.089 1.089 0 0 1 .279.738.994.994 0 0 1-.356.783 1.69 1.69 0 0 1-1.126.31h-.115z" class="prefix__cls-1" data-name="Path 17646" transform="translate(-429.914 -13.612)"/>
            <path id="prefix__Path_17647" d="M474.1 27.884a4.665 4.665 0 0 1-2.509-.635 3.423 3.423 0 0 1-1.451-1.877 4.346 4.346 0 0 1-.231-.9 9.309 9.309 0 0 1 0-2.387 4.366 4.366 0 0 1 .231-.9 3.429 3.429 0 0 1 1.451-1.877 4.665 4.665 0 0 1 2.509-.635 5.055 5.055 0 0 1 1.731.273 3.416 3.416 0 0 1 1.192.692 2.083 2.083 0 0 1 .413.508 1.085 1.085 0 0 1 .127.508 1.02 1.02 0 0 1-.336.784 1.185 1.185 0 0 1-.836.31 1.143 1.143 0 0 1-.558-.137 3.092 3.092 0 0 1-.538-.392 1.651 1.651 0 0 0-1.154-.4 1.322 1.322 0 0 0-1.4.966 2.479 2.479 0 0 0-.135.6 10.666 10.666 0 0 0 0 1.787 2.491 2.491 0 0 0 .135.6 1.322 1.322 0 0 0 1.4.966 1.656 1.656 0 0 0 1.154-.4 3.049 3.049 0 0 1 .538-.392 1.139 1.139 0 0 1 .558-.137 1.185 1.185 0 0 1 .836.31 1.02 1.02 0 0 1 .337.784 1.073 1.073 0 0 1-.127.508 2.1 2.1 0 0 1-.413.508 3.4 3.4 0 0 1-1.192.692 5.051 5.051 0 0 1-1.731.277z" class="prefix__cls-1" data-name="Path 17647" transform="translate(-433.939 -15.091)"/>
            <path id="prefix__Path_17648" d="M491.948 25.788a1.359 1.359 0 0 1-.961-.356 1.286 1.286 0 0 1-.385-.994v-4.01a1.765 1.765 0 0 0-.365-1.167 1.347 1.347 0 0 0-1.1-.437 1.318 1.318 0 0 0-1.086.437 1.791 1.791 0 0 0-.356 1.167v4.009a1.288 1.288 0 0 1-.385.994 1.49 1.49 0 0 1-1.933 0 1.3 1.3 0 0 1-.375-.994v-9.913a1.3 1.3 0 0 1 .375-.994 1.49 1.49 0 0 1 1.933 0 1.288 1.288 0 0 1 .385.994V17.6h.019a3.036 3.036 0 0 1 .913-.657 3.336 3.336 0 0 1 1.491-.291 3.551 3.551 0 0 1 1.365.246 2.794 2.794 0 0 1 1 .683 2.835 2.835 0 0 1 .605 1.038 4.1 4.1 0 0 1 .2 1.312v4.5a1.305 1.305 0 0 1-.375.994 1.354 1.354 0 0 1-.973.358z" class="prefix__cls-1" data-name="Path 17648" transform="translate(-439.477 -13.087)"/>
            <path id="prefix__Path_17649" d="M505.489 27.883a5.031 5.031 0 0 1-2.692-.656 3.393 3.393 0 0 1-1.46-1.859 4.738 4.738 0 0 1-.23-.911 7.693 7.693 0 0 1-.077-1.184 8.969 8.969 0 0 1 .068-1.194 4.312 4.312 0 0 1 .222-.921 3.446 3.446 0 0 1 1.471-1.85 5.42 5.42 0 0 1 5.134 0 3.386 3.386 0 0 1 1.432 1.832 6.351 6.351 0 0 1 .23.957 7.132 7.132 0 0 1 .077 1.1.826.826 0 0 1-.231.6.869.869 0 0 1-.653.237h-4.942a.1.1 0 0 0-.115.109 1.548 1.548 0 0 0 .1.508 1.524 1.524 0 0 0 .693.857 2.4 2.4 0 0 0 1.231.291 3.32 3.32 0 0 0 .922-.127 4.4 4.4 0 0 0 .825-.328 1.877 1.877 0 0 1 .924-.273.983.983 0 0 1 .7.265.9.9 0 0 1 .279.683 1.042 1.042 0 0 1-.539.911 6.073 6.073 0 0 1-1.471.692 6.293 6.293 0 0 1-1.898.261zm1.4-5.54a.1.1 0 0 0 .114-.109 1.892 1.892 0 0 0-.029-.364c-.019-.1-.041-.194-.067-.291a1.255 1.255 0 0 0-.568-.719 1.9 1.9 0 0 0-.99-.246 1.847 1.847 0 0 0-.98.246 1.279 1.279 0 0 0-.558.719c-.027.1-.048.195-.068.291a1.885 1.885 0 0 0-.029.364.1.1 0 0 0 .115.109h3.059z" class="prefix__cls-1" data-name="Path 17649" transform="translate(-445.327 -15.09)"/>
            <path id="prefix__Path_17650" d="M519.057 27.793a1.355 1.355 0 0 1-.971-.356 1.3 1.3 0 0 1-.376-.994V20.1a1.3 1.3 0 0 1 .376-.994 1.352 1.352 0 0 1 .971-.355 1.4 1.4 0 0 1 .836.254 1.215 1.215 0 0 1 .471.729v.018h.019a2.82 2.82 0 0 1 .933-.762 3.269 3.269 0 0 1 1.971-.282 1.767 1.767 0 0 1 .422.137 1.187 1.187 0 0 1 .539.437 1.1 1.1 0 0 1 .173.6 1.259 1.259 0 0 1-.366.93 1.3 1.3 0 0 1-.961.364 2.166 2.166 0 0 1-.576-.091 2.568 2.568 0 0 0-.693-.091 1.23 1.23 0 0 0-1.086.483 2.394 2.394 0 0 0-.336 1.375v3.59a1.288 1.288 0 0 1-.385.994 1.376 1.376 0 0 1-.962.35z" class="prefix__cls-1" data-name="Path 17650" transform="translate(-451.416 -15.092)"/>
            <path id="prefix__Path_17651" d="M533.863 27.883a5.03 5.03 0 0 1-2.692-.656 3.4 3.4 0 0 1-1.46-1.859 4.833 4.833 0 0 1-.231-.911 7.778 7.778 0 0 1-.077-1.184 8.847 8.847 0 0 1 .068-1.194 4.345 4.345 0 0 1 .222-.921 3.444 3.444 0 0 1 1.471-1.85 5.42 5.42 0 0 1 5.134 0 3.379 3.379 0 0 1 1.432 1.832 6.424 6.424 0 0 1 .231.957 7.216 7.216 0 0 1 .075 1.1.825.825 0 0 1-.231.6.871.871 0 0 1-.653.237h-4.942a.1.1 0 0 0-.114.109 1.546 1.546 0 0 0 .1.508 1.524 1.524 0 0 0 .693.857 2.4 2.4 0 0 0 1.231.291 3.323 3.323 0 0 0 .923-.127 4.408 4.408 0 0 0 .825-.328 1.872 1.872 0 0 1 .922-.273.981.981 0 0 1 .7.265.9.9 0 0 1 .279.683 1.042 1.042 0 0 1-.539.911 6.086 6.086 0 0 1-1.471.692 6.29 6.29 0 0 1-1.896.261zm1.4-5.54a.1.1 0 0 0 .115-.109 1.939 1.939 0 0 0-.029-.364c-.019-.1-.041-.194-.068-.291a1.259 1.259 0 0 0-.567-.719 1.9 1.9 0 0 0-.99-.246 1.85 1.85 0 0 0-.981.246 1.283 1.283 0 0 0-.558.719c-.026.1-.048.195-.067.291a1.885 1.885 0 0 0-.029.364.1.1 0 0 0 .114.109z" class="prefix__cls-1" data-name="Path 17651" transform="translate(-455.686 -15.09)"/>
        </g>
    </g>
</svg>
