<svg xmlns="http://www.w3.org/2000/svg" id="prefix__tg2" width="31.902" height="25.379" viewBox="0 0 31.902 25.379">
    <defs>
        <style>
            .prefix__cls-1{fill:#636363}
        </style>
    </defs>
    <g id="prefix__tg1" transform="translate(5.451)">
        <path id="prefix__TG" d="M10.936 19.119l2.413 6.081 3.128-3.128 5.451 4.289L25.77 9.2 6.2 17.332zm9.2-5l-5.987 5.451-.715 2.86-1.34-3.4z" class="prefix__cls-1" transform="translate(-6.2 -.979)"/>
        <g id="prefix__Group_1922" transform="translate(7.412)">
            <path id="prefix__Path_9872" d="M14.5 2.5A2.4 2.4 0 0 1 16.823 0h.268a2.477 2.477 0 0 1 2.055 1.162l-.894.447a1.987 1.987 0 0 0-1.161-.715 1.566 1.566 0 0 0-1.519 1.519V2.5A1.637 1.637 0 0 0 17 4.111h.089a1.2 1.2 0 0 0 1.164-.711l.894.447A2.364 2.364 0 0 1 17.091 5 2.41 2.41 0 0 1 14.5 2.77z" class="prefix__cls-1" transform="translate(-14.494)"/>
            <path id="prefix__Path_9873" d="M23.7 4.926V2.87h-2.328v2.056H20.3V.1h1.072v1.877H23.7V.1h.983v4.826z" class="prefix__cls-1" transform="translate(-15.112 -.011)"/>
            <path id="prefix__Path_9874" d="M29.553 4.926l-.268-.8H27.23l-.268.8H25.8L27.677.1h1.34l1.877 4.826zm-1.34-3.843L27.5 3.138h1.519z" class="prefix__cls-1" transform="translate(-15.697 -.011)"/>
            <path id="prefix__Path_9875" d="M32.93 4.926V.994H31.5V.1h3.843v.894h-1.43v3.932z" class="prefix__cls-1" transform="translate(-16.303 -.011)"/>
        </g>
    </g>
    <g id="prefix__Group_3445" data-name="Group 3445" transform="translate(0 .082)">
        <path id="prefix__Path_17791" d="M3.228 4.926l-.894-1.34H1.262v1.34H.1V.1h2.055a3.333 3.333 0 0 1 1.073.179A1.768 1.768 0 0 1 4.121.9a1.51 1.51 0 0 1 .268.894 1.51 1.51 0 0 1-.268.894 1.577 1.577 0 0 1-.8.715l1.068 1.523zM2.96 1.262a1.092 1.092 0 0 0-.8-.268h-.898v1.7h.894a1.784 1.784 0 0 0 .8-.179.811.811 0 0 0 .268-.626.7.7 0 0 0-.264-.627z" class="prefix__cls-1" data-name="Path 17791" transform="translate(-.1 -.1)"/>
        <path id="prefix__Path_17792" d="M6.336 4.479a2.577 2.577 0 0 1-.536-1.7V.1h1.072v2.681q0 1.34 1.072 1.34a.871.871 0 0 0 .8-.357 1.437 1.437 0 0 0 .268-.983V.1h1.072v2.681a2.185 2.185 0 0 1-.536 1.609 1.912 1.912 0 0 1-1.609.626 2.5 2.5 0 0 1-1.603-.537z" class="prefix__cls-1" data-name="Path 17792" transform="translate(-.706 -.1)"/>
    </g>
</svg>
