<svg xmlns="http://www.w3.org/2000/svg" id="prefix__Лого" width="150.733" height="48.814" viewBox="0 0 150.733 48.814">
    <defs>
        <style>
            .prefix__cls-1{fill:#f7b638}.prefix__cls-2{fill:#ff9745}.prefix__cls-3{fill:#1c1c1c}
        </style>
    </defs>
    <g id="prefix__Group_134" data-name="Group 134">
        <g id="prefix__Group_133" data-name="Group 133">
            <g id="prefix__Group_132" data-name="Group 132">
                <g id="prefix__Group_123" data-name="Group 123" transform="translate(22.5 22.596)">
                    <path id="prefix__Path_4381" d="M42 25.411a1.81 1.81 0 0 0-1.815-1.811H29.792v1.907a4.374 4.374 0 0 1-4.386 4.386H23.5v10.3A1.81 1.81 0 0 0 25.311 42h10.2v-2.1a4.374 4.374 0 0 1 4.389-4.382H42z" class="prefix__cls-1" data-name="Path 4381" transform="translate(-23.5 -23.6)"/>
                </g>
                <g id="prefix__Group_124" data-name="Group 124" transform="translate(7.818 7.818)">
                    <path id="prefix__Path_4382" d="M8.1 14.583v10.2A1.81 1.81 0 0 0 9.911 26.6H20.3v-1.911a4.374 4.374 0 0 1 4.389-4.389H26.6V9.911A1.81 1.81 0 0 0 24.785 8.1h-10.2v2.1a4.374 4.374 0 0 1-4.385 4.383z" class="prefix__cls-1" data-name="Path 4382" transform="translate(-8.1 -8.1)"/>
                </g>
                <g id="prefix__Group_125" data-name="Group 125" transform="translate(.095)">
                    <path id="prefix__Path_4383" d="M5.244 9.529a4.374 4.374 0 0 1 4.385-4.385h2.1A5.228 5.228 0 0 0 6.483-.1H3.051A3.155 3.155 0 0 0 0 3.046v3.433a5.29 5.29 0 0 0 5.244 5.244z" class="prefix__cls-1" data-name="Path 4383" transform="translate(0 .1)"/>
                </g>
                <g id="prefix__Group_126" data-name="Group 126" transform="translate(14.301 .095)">
                    <path id="prefix__Path_4384" d="M46.267 0H20.144A5.228 5.228 0 0 0 14.9 5.244h10.2a4.374 4.374 0 0 1 4.386 4.386v10.392h10.3a4.374 4.374 0 0 1 4.386 4.386v10.2a5.29 5.29 0 0 0 5.244-5.244V3.051A3.155 3.155 0 0 0 46.267 0z" class="prefix__cls-2" data-name="Path 4384" transform="translate(-14.9)"/>
                </g>
                <g id="prefix__Group_127" data-name="Group 127" transform="translate(0 14.301)">
                    <path id="prefix__Path_4385" d="M24.307 44.17a4.374 4.374 0 0 1-4.386-4.386V29.392H9.529a4.374 4.374 0 0 1-4.386-4.386V14.9A5.228 5.228 0 0 0-.1 20.144v26.123a3.155 3.155 0 0 0 3.146 3.051H29.17a5.228 5.228 0 0 0 5.244-5.244l-10.106.1z" class="prefix__cls-2" data-name="Path 4385" transform="translate(.1 -14.9)"/>
                </g>
                <g id="prefix__Group_128" data-name="Group 128" transform="translate(37.087 37.087)">
                    <path id="prefix__Path_4386" d="M45.283 40.9a4.374 4.374 0 0 1-4.383 4.383h-2.1a5.228 5.228 0 0 0 5.244 5.244h3.432a3.012 3.012 0 0 0 3.051-3.051v-3.432a5.29 5.29 0 0 0-5.244-5.244z" class="prefix__cls-1" data-name="Path 4386" transform="translate(-38.8 -38.8)"/>
                </g>
                <g id="prefix__Group_129" data-name="Group 129" transform="translate(22.596 22.596)">
                    <path id="prefix__Path_4387" d="M27.318 25.507V23.6h-1.907a1.81 1.81 0 0 0-1.811 1.811v1.907h1.907a1.875 1.875 0 0 0 1.811-1.811z" class="prefix__cls-1" data-name="Path 4387" transform="translate(-23.6 -23.6)"/>
                </g>
                <g id="prefix__Group_130" data-name="Group 130" transform="translate(7.818 7.818)">
                    <path id="prefix__Path_4388" d="M12.1 10.293V8.1H9.911A1.875 1.875 0 0 0 8.1 9.911v2.1h2.1a1.758 1.758 0 0 0 1.9-1.718z" class="prefix__cls-1" data-name="Path 4388" transform="translate(-8.1 -8.1)"/>
                </g>
                <g id="prefix__Group_131" data-name="Group 131" transform="translate(37.087 37.087)">
                    <path id="prefix__Path_4389" d="M38.8 40.611v2.1h2.1a1.81 1.81 0 0 0 1.809-1.811v-2.1h-2.1a1.753 1.753 0 0 0-1.809 1.811z" class="prefix__cls-1" data-name="Path 4389" transform="translate(-38.8 -38.8)"/>
                </g>
            </g>
        </g>
    </g>
    <g id="prefix__Group_135" data-name="Group 135" transform="translate(59.111 11.06)">
        <path id="prefix__Path_4390" d="M74.962 24.862h-2.956v-7.628l-3.337 5.53h-.381l-3.432-5.53v7.627H61.9V11.8h2.956l3.528 5.816 3.527-5.816h2.956v13.062z" class="prefix__cls-3" data-name="Path 4390" transform="translate(-61.9 -11.514)"/>
        <path id="prefix__Path_4391" d="M80.956 11.8v13.062H78V11.8z" class="prefix__cls-3" data-name="Path 4391" transform="translate(-62.65 -11.514)"/>
        <path id="prefix__Path_4392" d="M93.7 11.8v13.062h-2.191l-5.053-7.055v7.055H83.5V11.8h2.193l5.053 7.055V11.8H93.7z" class="prefix__cls-3" data-name="Path 4392" transform="translate(-62.906 -11.514)"/>
        <path id="prefix__Path_4393" d="M99.556 11.8v13.062H96.6V11.8z" class="prefix__cls-3" data-name="Path 4393" transform="translate(-63.517 -11.514)"/>
        <path id="prefix__Path_4394" d="M112.3 11.8v13.062h-2.2l-5.053-7.055v7.055H102V11.8h2.193l5.053 7.055V11.8h3.054z" class="prefix__cls-3" data-name="Path 4394" transform="translate(-63.768 -11.514)"/>
        <path id="prefix__Path_4395" d="M128.043 18.651a6.053 6.053 0 0 1-6.388 6.388 6.8 6.8 0 0 1-7.055-6.769 6.7 6.7 0 0 1 6.865-6.769 6.854 6.854 0 0 1 5.72 2.956l-2.574 1.43a3.877 3.877 0 0 0-6.96 2.384c0 2.193 1.525 3.814 4.1 3.814a3.271 3.271 0 0 0 3.337-2h-3.528v-2.579h6.579v1.144z" class="prefix__cls-3" data-name="Path 4395" transform="translate(-64.356 -11.5)"/>
        <path id="prefix__Path_4396" d="M135.2 20.667V11.8h2.956v8.581c0 .953.477 1.811 2.1 1.811s2.1-.858 2.1-1.811V11.8h2.956v8.867c0 2.765-2.193 4.481-5.053 4.481s-5.059-1.716-5.059-4.481z" class="prefix__cls-3" data-name="Path 4396" transform="translate(-65.315 -11.514)"/>
        <path id="prefix__Path_4397" d="M157.534 16.281a4.5 4.5 0 0 1-4.576 4.481h-2v4.1H148V11.8h4.958a4.5 4.5 0 0 1 4.576 4.481zm-2.956 0a1.631 1.631 0 0 0-1.621-1.716h-2V17.9h2a1.5 1.5 0 0 0 1.622-1.619z" class="prefix__cls-3" data-name="Path 4397" transform="translate(-65.912 -11.514)"/>
    </g>
    <g id="prefix__Group_136" data-name="Group 136" transform="translate(59.016 29.46)">
        <path id="prefix__Path_4398" d="M62.467 30.8v8.581H61.8V30.8z" class="prefix__cls-2" data-name="Path 4398" transform="translate(-61.8 -30.8)"/>
        <path id="prefix__Path_4399" d="M70.006 31.472h-2.67v8.009h-.666v-8.009H64V30.9h6.1v.572z" class="prefix__cls-2" data-name="Path 4399" transform="translate(-61.903 -30.805)"/>
        <path id="prefix__Path_4400" d="M71.3 30.8h.667l-.1 2.288H71.4z" class="prefix__cls-2" data-name="Path 4400" transform="translate(-62.243 -30.8)"/>
        <path id="prefix__Path_4401" d="M73.2 37.569l.572-.286A2.386 2.386 0 0 0 76.346 39c1.43 0 2.193-.763 2.193-1.716 0-1.049-.953-1.43-2.193-1.811-1.43-.477-2.765-.858-2.765-2.384a2.336 2.336 0 0 1 2.575-2.289 2.9 2.9 0 0 1 2.765 1.811l-.572.286a2.236 2.236 0 0 0-2.193-1.525c-1.239 0-1.907.667-1.907 1.621 0 1.049.858 1.335 2.1 1.716 1.525.477 2.86.953 2.86 2.479 0 1.43-1.144 2.384-2.86 2.384a3.312 3.312 0 0 1-3.149-2.003z" class="prefix__cls-2" data-name="Path 4401" transform="translate(-62.331 -30.8)"/>
        <path id="prefix__Path_4402" d="M83.7 30.8h.763l2.86 7.818 2.86-7.818h.667l-3.242 8.581h-.667z" class="prefix__cls-2" data-name="Path 4402" transform="translate(-62.82 -30.8)"/>
        <path id="prefix__Path_4403" d="M97.458 38.809v.572H92.5V30.8h4.862v.572h-4.29V34.8h3.909v.572h-3.909v3.432h4.386z" class="prefix__cls-2" data-name="Path 4403" transform="translate(-63.23 -30.8)"/>
        <path id="prefix__Path_4404" d="M102.732 35.853h-2.765v3.528H99.3V30.8h3.432a2.57 2.57 0 0 1 .667 5.053l2.1 3.623h-.763zm-2.765-.572h2.765a1.907 1.907 0 0 0 0-3.814h-2.765z" class="prefix__cls-2" data-name="Path 4404" transform="translate(-63.547 -30.8)"/>
        <path id="prefix__Path_4405" d="M109.814 35.853v3.528h-.667v-3.528L106 30.8h.763l2.765 4.481 2.765-4.481h.763z" class="prefix__cls-2" data-name="Path 4405" transform="translate(-63.859 -30.8)"/>
        <path id="prefix__Path_4406" d="M117.4 37.569l.572-.286A2.386 2.386 0 0 0 120.546 39c1.43 0 2.193-.763 2.193-1.716 0-1.049-.953-1.43-2.193-1.811-1.43-.477-2.765-.858-2.765-2.384a2.336 2.336 0 0 1 2.574-2.288 2.9 2.9 0 0 1 2.765 1.811l-.572.286a2.236 2.236 0 0 0-2.193-1.525c-1.239 0-1.907.667-1.907 1.621 0 1.049.858 1.335 2.1 1.716 1.525.477 2.86.953 2.86 2.479 0 1.43-1.144 2.384-2.86 2.384a3.313 3.313 0 0 1-3.148-2.004z" class="prefix__cls-2" data-name="Path 4406" transform="translate(-64.391 -30.8)"/>
        <path id="prefix__Path_4407" d="M125.967 30.8v8.581h-.667V30.8z" class="prefix__cls-2" data-name="Path 4407" transform="translate(-64.759 -30.8)"/>
        <path id="prefix__Path_4408" d="M136.023 39.481h-.667v-7.628l-3.146 5.339h-.1l-3.146-5.339v7.627h-.664V30.9h.858l3.051 5.148 3.051-5.148h.858v8.581z" class="prefix__cls-2" data-name="Path 4408" transform="translate(-64.898 -30.805)"/>
        <path id="prefix__Path_4409" d="M144.325 33.474a2.607 2.607 0 0 1-2.67 2.67h-2.288v3.336h-.667V30.9h2.956a2.477 2.477 0 0 1 2.669 2.574zm-.667 0a1.98 1.98 0 0 0-2-2.1h-2.288v4.1h2.288a1.852 1.852 0 0 0 2-2z" class="prefix__cls-2" data-name="Path 4409" transform="translate(-65.383 -30.804)"/>
        <path id="prefix__Path_4410" d="M150.967 38.809v.572H146.2V30.8h.667v8.009h4.1z" class="prefix__cls-2" data-name="Path 4410" transform="translate(-65.733 -30.8)"/>
        <path id="prefix__Path_4411" d="M157.558 38.809v.572H152.6V30.8h4.862v.572h-4.29V34.8h3.909v.572h-3.909v3.432h4.386z" class="prefix__cls-2" data-name="Path 4411" transform="translate(-66.031 -30.8)"/>
    </g>
</svg>
