<svg width="32" height="32" viewBox="0 0 32 32" fill="none" xmlns="http://www.w3.org/2000/svg">
<path d="M22.5938 8.7597H3.16806L5.88863 6.02783C6.254 5.66096 6.25275 5.06733 5.88588 4.70196C5.51894 4.33652 4.92537 4.33783 4.56006 4.70471L0.27325 9.00939C0.0876875 9.19577 -0.0028125 9.44058 0.0006875 9.68439C0.0005625 9.6887 0 9.69289 0 9.6972C0 10.0223 0.165563 10.3085 0.416813 10.4767L4.56006 14.6372C4.9255 15.0041 5.519 15.0053 5.88588 14.64C6.25275 14.2746 6.254 13.681 5.88863 13.3141L3.22038 10.6347H22.5938C26.7465 10.6347 30.125 14.0132 30.125 18.166C30.125 22.3187 26.7465 25.6972 22.5938 25.6972H0.9375C0.41975 25.6972 0 26.117 0 26.6347C0 27.1525 0.41975 27.5722 0.9375 27.5722H22.5938C27.7804 27.5722 32 23.3526 32 18.166C32 12.9793 27.7804 8.7597 22.5938 8.7597Z" fill="white"/>
</svg>
