<svg xmlns="http://www.w3.org/2000/svg" id="prefix__INST" width="16.656" height="16.656" viewBox="0 0 16.656 16.656">
    <defs>
        <style>
            .prefix__cls-1{fill:#636363}
        </style>
    </defs>
    <path id="prefix__Path_3166" d="M14.216 0H2.44A2.443 2.443 0 0 0 0 2.44v11.776a2.443 2.443 0 0 0 2.44 2.44h11.776a2.443 2.443 0 0 0 2.44-2.44V2.44A2.443 2.443 0 0 0 14.216 0zM8.361 12.687A4.392 4.392 0 1 1 12.752 8.3a4.4 4.4 0 0 1-4.391 4.387zM13.24 4.88a1.464 1.464 0 1 1 1.46-1.464 1.464 1.464 0 0 1-1.46 1.464z" class="prefix__cls-1" data-name="Path 3166"/>
    <path id="prefix__Path_3167" d="M392.488 90a.488.488 0 1 0 .488.488.488.488 0 0 0-.488-.488z" class="prefix__cls-1" data-name="Path 3167" transform="translate(-379.248 -87.072)"/>
    <path id="prefix__Path_3168" d="M155.416 150a3.416 3.416 0 1 0 3.416 3.416 3.416 3.416 0 0 0-3.416-3.416z" class="prefix__cls-1" data-name="Path 3168" transform="translate(-147.055 -145.12)"/>
</svg>
