<svg xmlns="http://www.w3.org/2000/svg" width="29.47" height="15.541" viewBox="0 0 29.47 15.541">
    <path id="prefix__vk-social-network-logo" d="M26.347 5.5C29.4 1.367 28.722 1.29 29.47 0h-5.844s-.415 1.442-.542 1.7c-1.122 2.283-3.639 5.707-5.162 6.058-1.5.345-1.3-3.2-1.209-4.733a11.692 11.692 0 0 0 .03-2.166.827.827 0 0 0-.723-.667 21.5 21.5 0 0 0-3.612-.157l-1.357.044c.534 1.195.9.829 1.094 2.211.222 1.619.135 5.557-1.46 5.557C8.13 7.848 5.261.173 5.17 0H0l.473 1.184c3.813 9.544 8.581 13.965 15.105 14.332l.849.025.06-.824c.092-1.274.73-3.108 1.864-3.108 1.674 0 2.157.488 3.261 1.852 1.061 1.309 1.793 2.081 3.506 2.081h4.352l-.62-1.248c-.969-1.945-2.913-3.614-3.672-4.581a1.622 1.622 0 0 1-.266-1.636A13.936 13.936 0 0 1 26.347 5.5z" style="fill:#636363"/>
</svg>
