<svg width="30" height="30" viewBox="0 0 30 30" fill="none" xmlns="http://www.w3.org/2000/svg">
<g clip-path="url(#clip0)">
<path d="M3.12498 11.875H6.24997C6.05748 11.875 5.8762 11.7862 5.75748 11.635C5.63872 11.4838 5.59747 11.2863 5.64375 11.0988L6.03252 9.54502C6.24129 8.70877 6.99 8.125 7.85127 8.125H11.875C12.9088 8.125 13.75 8.96623 13.75 10V11.25C13.75 11.595 13.47 11.875 13.125 11.875H16.875C16.53 11.875 16.25 11.595 16.25 11.25V10C16.25 8.96623 17.0912 8.125 18.125 8.125H22.1487C23.01 8.125 23.7587 8.70877 23.9675 9.54502L24.3563 11.0988C24.4038 11.285 24.3612 11.4838 24.2425 11.635C24.1238 11.7862 23.9425 11.875 23.75 11.875H26.875C27.22 11.875 27.5001 11.595 27.5001 11.25V7.49998C27.5001 5.7775 26.0976 4.375 24.3751 4.375H5.625C3.90252 4.375 2.50002 5.7775 2.50002 7.49998V11.25C2.50002 11.595 2.77998 11.875 3.12498 11.875Z" fill="#FECA36"/>
<path d="M26.875 13.125H3.12498C1.4025 13.125 0 14.5275 0 16.25V25C0 25.345 0.28002 25.625 0.62502 25.625C0.97002 25.625 1.25004 25.345 1.25004 25V23.125H28.75V25C28.75 25.345 29.03 25.625 29.375 25.625C29.72 25.625 30.0001 25.345 30.0001 25V16.25C30 14.5275 28.5975 13.125 26.875 13.125ZM28.75 21.875H1.24998V20.625H28.75V21.875H28.75Z" fill="#FECA36"/>
</g>
<defs>
<clipPath id="clip0">
<rect width="30" height="30" fill="white"/>
</clipPath>
</defs>
</svg>
