<svg width="24" height="25" viewBox="0 0 24 25" fill="none" xmlns="http://www.w3.org/2000/svg">
<path d="M1.19 22.1C1.19 22.73 1.73 23.3 2.39 23.3C3.05 23.3 3.59 22.73 3.59 22.1V2.75C3.59 2.12 3.05 1.55 2.39 1.55C1.73 1.55 1.19 2.12 1.19 2.75V22.1ZM22.5369 15.08V9.47C22.5369 5.45 20.4369 1.82 14.3169 1.82H10.9269C10.1469 1.82 9.48688 2.48 9.48688 3.26V21.56C9.48688 22.34 10.1469 23 10.9269 23H14.3169C20.4669 23 22.5369 19.19 22.5369 15.08ZM20.1369 15.08C20.1369 18.17 18.7869 20.66 14.8269 20.66H11.8869V4.16H14.8269C18.7269 4.16 20.1369 6.5 20.1369 9.47V15.08Z" fill="#FECA36"/>
<path d="M0.19 22.1C0.19 23.2661 1.16167 24.3 2.39 24.3V22.3C2.35436 22.3 2.3043 22.2847 2.25562 22.2352C2.20459 22.1833 2.19 22.129 2.19 22.1H0.19ZM2.39 24.3C3.61833 24.3 4.59 23.2661 4.59 22.1H2.59C2.59 22.129 2.57541 22.1833 2.52438 22.2352C2.4757 22.2847 2.42564 22.3 2.39 22.3V24.3ZM4.59 22.1V2.75H2.59V22.1H4.59ZM4.59 2.75C4.59 1.5839 3.61833 0.549999 2.39 0.549999V2.55C2.42564 2.55 2.4757 2.56527 2.52438 2.61479C2.57541 2.6667 2.59 2.72105 2.59 2.75H4.59ZM2.39 0.549999C1.16167 0.549999 0.19 1.5839 0.19 2.75H2.19C2.19 2.72105 2.20459 2.6667 2.25562 2.61479C2.3043 2.56527 2.35436 2.55 2.39 2.55V0.549999ZM0.19 2.75V22.1H2.19V2.75H0.19ZM11.8869 20.66H10.8869V21.66H11.8869V20.66ZM11.8869 4.16V3.16H10.8869V4.16H11.8869ZM23.5369 15.08V9.47H21.5369V15.08H23.5369ZM23.5369 9.47C23.5369 7.29939 22.9702 5.11352 21.4597 3.46249C19.9333 1.79408 17.5794 0.819999 14.3169 0.819999V2.82C17.1743 2.82 18.9305 3.66092 19.9841 4.81251C21.0536 5.98148 21.5369 7.62061 21.5369 9.47H23.5369ZM14.3169 0.819999H10.9269V2.82H14.3169V0.819999ZM10.9269 0.819999C9.59459 0.819999 8.48688 1.92771 8.48688 3.26H10.4869C10.4869 3.03228 10.6992 2.82 10.9269 2.82V0.819999ZM8.48688 3.26V21.56H10.4869V3.26H8.48688ZM8.48688 21.56C8.48688 22.8923 9.59459 24 10.9269 24V22C10.6992 22 10.4869 21.7877 10.4869 21.56H8.48688ZM10.9269 24H14.3169V22H10.9269V24ZM14.3169 24C17.6081 24 19.9661 22.972 21.4849 21.2407C22.9823 19.5337 23.5369 17.2868 23.5369 15.08H21.5369C21.5369 16.9832 21.0564 18.6963 19.9814 19.9218C18.9277 21.123 17.1756 22 14.3169 22V24ZM19.1369 15.08C19.1369 16.5015 18.8233 17.6317 18.1956 18.3922C17.597 19.1176 16.5851 19.66 14.8269 19.66V21.66C17.0287 21.66 18.6718 20.9574 19.7381 19.6653C20.7754 18.4083 21.1369 16.7485 21.1369 15.08H19.1369ZM14.8269 19.66H11.8869V21.66H14.8269V19.66ZM12.8869 20.66V4.16H10.8869V20.66H12.8869ZM11.8869 5.16H14.8269V3.16H11.8869V5.16ZM14.8269 5.16C16.5708 5.16 17.5909 5.67567 18.1931 6.36121C18.8162 7.07054 19.1369 8.12564 19.1369 9.47H21.1369C21.1369 7.84436 20.7526 6.24446 19.6957 5.04129C18.6179 3.81433 16.9829 3.16 14.8269 3.16V5.16ZM19.1369 9.47V15.08H21.1369V9.47H19.1369Z" fill="#FECA36"/>
</svg>
