<svg width="800" height="800" viewBox="0 0 800 800" fill="none" xmlns="http://www.w3.org/2000/svg">
<path d="M498.314 380.13H504.056C505.532 380.13 506.636 380.442 507.368 381.066C508.052 381.642 508.394 382.452 508.394 383.496V383.568C508.394 385.044 507.668 385.968 506.216 386.34C507.932 386.628 508.79 387.63 508.79 389.346V389.418C508.79 391.806 507.23 393 504.11 393H498.314V380.13ZM503.444 390.534C504.584 390.534 505.154 390.036 505.154 389.04V388.968C505.154 388.464 505.01 388.092 504.722 387.852C504.434 387.612 503.972 387.492 503.336 387.492H501.914V390.534H503.444ZM503.318 385.242C503.894 385.242 504.302 385.14 504.542 384.936C504.782 384.732 504.902 384.396 504.902 383.928V383.856C504.902 383.412 504.776 383.088 504.524 382.884C504.284 382.68 503.882 382.578 503.318 382.578H501.914V385.242H503.318ZM510.459 393V380.13H514.167V388.14L518.667 380.13H522.357V393H518.667V384.864L514.167 393H510.459ZM528.888 386.88C528.756 388.26 528.516 389.34 528.168 390.12H532.038V383.01H529.068C528.984 385.254 528.924 386.544 528.888 386.88ZM526.674 395.34H523.434V390.12H524.244C524.628 389.94 524.922 389.574 525.126 389.022C525.342 388.458 525.504 387.678 525.612 386.682C525.696 385.722 525.738 383.538 525.738 380.13H535.728V390.12H537.366V395.34H534.126L534.036 393H526.764L526.674 395.34ZM538.673 380.13H547.565V382.974H542.345V385.188H546.503V387.816H542.345V390.156H547.853V393H538.673V380.13ZM553.479 389.346C554.019 389.994 554.745 390.318 555.657 390.318C556.569 390.318 557.289 389.988 557.817 389.328C558.345 388.668 558.609 387.762 558.609 386.61V386.466C558.609 385.326 558.339 384.438 557.799 383.802C557.271 383.154 556.551 382.83 555.639 382.83C554.715 382.83 553.989 383.148 553.461 383.784C552.945 384.42 552.687 385.32 552.687 386.484V386.628C552.687 387.792 552.951 388.698 553.479 389.346ZM555.585 393.216C553.545 393.216 551.901 392.604 550.653 391.38C549.441 390.192 548.835 388.614 548.835 386.646V386.502C548.835 384.57 549.489 382.986 550.797 381.75C552.069 380.55 553.683 379.95 555.639 379.95C557.619 379.95 559.251 380.526 560.535 381.678C561.819 382.89 562.461 384.468 562.461 386.412V386.556C562.461 388.572 561.837 390.174 560.589 391.362C559.317 392.598 557.649 393.216 555.585 393.216ZM568.227 389.346C568.767 389.994 569.493 390.318 570.405 390.318C571.317 390.318 572.037 389.988 572.565 389.328C573.093 388.668 573.357 387.762 573.357 386.61V386.466C573.357 385.326 573.087 384.438 572.547 383.802C572.019 383.154 571.299 382.83 570.387 382.83C569.463 382.83 568.737 383.148 568.209 383.784C567.693 384.42 567.435 385.32 567.435 386.484V386.628C567.435 387.792 567.699 388.698 568.227 389.346ZM570.333 393.216C568.293 393.216 566.649 392.604 565.401 391.38C564.189 390.192 563.583 388.614 563.583 386.646V386.502C563.583 384.57 564.237 382.986 565.545 381.75C566.817 380.55 568.431 379.95 570.387 379.95C572.367 379.95 573.999 380.526 575.283 381.678C576.567 382.89 577.209 384.468 577.209 386.412V386.556C577.209 388.572 576.585 390.174 575.337 391.362C574.065 392.598 572.397 393.216 570.333 393.216ZM589.005 388.86C589.005 390.18 588.573 391.2 587.709 391.92C586.857 392.64 585.567 393 583.839 393H578.943V380.13H587.799V382.974H582.633L582.615 384.828H584.001C585.621 384.828 586.857 385.17 587.709 385.854C588.573 386.526 589.005 387.504 589.005 388.788V388.86ZM583.695 390.228C584.895 390.228 585.495 389.766 585.495 388.842V388.77C585.495 387.822 584.889 387.348 583.677 387.348H582.615V390.228H583.695ZM595.419 393.216C593.907 393.216 592.641 392.814 591.621 392.01C590.613 391.194 590.019 390 589.839 388.428H593.331C593.571 389.652 594.285 390.264 595.473 390.264C596.613 390.264 597.183 389.802 597.183 388.878C597.183 387.99 596.679 387.546 595.671 387.546H594.447V385.188H595.563C596.043 385.188 596.391 385.098 596.607 384.918C596.823 384.726 596.931 384.414 596.931 383.982C596.931 383.61 596.793 383.328 596.517 383.136C596.253 382.944 595.923 382.848 595.527 382.848C594.939 382.848 594.501 382.998 594.213 383.298C593.925 383.598 593.727 384.036 593.619 384.612H590.091C590.271 383.076 590.841 381.912 591.801 381.12C592.773 380.328 594.033 379.932 595.581 379.932C597.093 379.932 598.317 380.274 599.253 380.958C600.201 381.63 600.675 382.476 600.675 383.496C600.675 385.02 599.949 385.968 598.497 386.34C599.313 386.484 599.943 386.802 600.387 387.294C600.843 387.774 601.071 388.416 601.071 389.22C601.071 390.456 600.549 391.434 599.505 392.154C598.473 392.862 597.111 393.216 595.419 393.216ZM606.934 389.346C607.474 389.994 608.2 390.318 609.112 390.318C610.024 390.318 610.744 389.988 611.272 389.328C611.8 388.668 612.064 387.762 612.064 386.61V386.466C612.064 385.326 611.794 384.438 611.254 383.802C610.726 383.154 610.006 382.83 609.094 382.83C608.17 382.83 607.444 383.148 606.916 383.784C606.4 384.42 606.142 385.32 606.142 386.484V386.628C606.142 387.792 606.406 388.698 606.934 389.346ZM609.04 393.216C607 393.216 605.356 392.604 604.108 391.38C602.896 390.192 602.29 388.614 602.29 386.646V386.502C602.29 384.57 602.944 382.986 604.252 381.75C605.524 380.55 607.138 379.95 609.094 379.95C611.074 379.95 612.706 380.526 613.99 381.678C615.274 382.89 615.916 384.468 615.916 386.412V386.556C615.916 388.572 615.292 390.174 614.044 391.362C612.772 392.598 611.104 393.216 609.04 393.216ZM617.722 380.13H622.618C624.358 380.13 625.654 380.502 626.506 381.246C627.358 381.978 627.784 383.04 627.784 384.432V384.504C627.784 385.86 627.352 386.892 626.488 387.6C625.636 388.308 624.4 388.662 622.78 388.662H621.394V393H617.722V380.13ZM622.456 386.142C623.668 386.142 624.274 385.602 624.274 384.522V384.45C624.274 383.418 623.674 382.902 622.474 382.902H621.394V386.142H622.456ZM633.015 380.13H637.911C639.651 380.13 640.947 380.502 641.799 381.246C642.651 381.978 643.077 383.04 643.077 384.432V384.504C643.077 385.86 642.645 386.892 641.781 387.6C640.929 388.308 639.693 388.662 638.073 388.662H636.687V393H633.015V380.13ZM637.749 386.142C638.961 386.142 639.567 385.602 639.567 384.522V384.45C639.567 383.418 638.967 382.902 637.767 382.902H636.687V386.142H637.749ZM646.975 380.13H651.745L655.831 393H651.925L651.241 390.606H646.975L646.291 393H642.853L646.975 380.13ZM647.695 388.068H650.521L649.117 383.118L647.695 388.068ZM663.122 379.464C662.198 379.464 661.484 379.224 660.98 378.744C660.488 378.264 660.212 377.586 660.152 376.71H662.33C662.39 377.322 662.654 377.628 663.122 377.628C663.602 377.628 663.884 377.322 663.968 376.71H666.128C666.056 377.586 665.756 378.264 665.228 378.744C664.712 379.224 664.01 379.464 663.122 379.464ZM657.236 393V380.13H660.944V388.14L665.444 380.13H669.134V393H665.444V384.864L660.944 393H657.236ZM675.647 389.346C676.187 389.994 676.913 390.318 677.825 390.318C678.737 390.318 679.457 389.988 679.985 389.328C680.513 388.668 680.777 387.762 680.777 386.61V386.466C680.777 385.326 680.507 384.438 679.967 383.802C679.439 383.154 678.719 382.83 677.807 382.83C676.883 382.83 676.157 383.148 675.629 383.784C675.113 384.42 674.855 385.32 674.855 386.484V386.628C674.855 387.792 675.119 388.698 675.647 389.346ZM677.753 393.216C675.713 393.216 674.069 392.604 672.821 391.38C671.609 390.192 671.003 388.614 671.003 386.646V386.502C671.003 384.57 671.657 382.986 672.965 381.75C674.237 380.55 675.851 379.95 677.807 379.95C679.787 379.95 681.419 380.526 682.703 381.678C683.987 382.89 684.629 384.468 684.629 386.412V386.556C684.629 388.572 684.005 390.174 682.757 391.362C681.485 392.598 679.817 393.216 677.753 393.216ZM686.435 380.13H690.143V385.044H694.373V380.13H698.063V393H694.373V387.924H690.143V393H686.435V380.13ZM704.51 389.346C705.05 389.994 705.776 390.318 706.688 390.318C707.6 390.318 708.32 389.988 708.848 389.328C709.376 388.668 709.64 387.762 709.64 386.61V386.466C709.64 385.326 709.37 384.438 708.83 383.802C708.302 383.154 707.582 382.83 706.67 382.83C705.746 382.83 705.02 383.148 704.492 383.784C703.976 384.42 703.718 385.32 703.718 386.484V386.628C703.718 387.792 703.982 388.698 704.51 389.346ZM706.616 393.216C704.576 393.216 702.932 392.604 701.684 391.38C700.472 390.192 699.866 388.614 699.866 386.646V386.502C699.866 384.57 700.52 382.986 701.828 381.75C703.1 380.55 704.714 379.95 706.67 379.95C708.65 379.95 710.282 380.526 711.566 381.678C712.85 382.89 713.492 384.468 713.492 386.412V386.556C713.492 388.572 712.868 390.174 711.62 391.362C710.348 392.598 708.68 393.216 706.616 393.216ZM715.298 380.13H721.04C722.516 380.13 723.62 380.442 724.352 381.066C725.036 381.642 725.378 382.452 725.378 383.496V383.568C725.378 385.044 724.652 385.968 723.2 386.34C724.916 386.628 725.774 387.63 725.774 389.346V389.418C725.774 391.806 724.214 393 721.094 393H715.298V380.13ZM720.428 390.534C721.568 390.534 722.138 390.036 722.138 389.04V388.968C722.138 388.464 721.994 388.092 721.706 387.852C721.418 387.612 720.956 387.492 720.32 387.492H718.898V390.534H720.428ZM720.302 385.242C720.878 385.242 721.286 385.14 721.526 384.936C721.766 384.732 721.886 384.396 721.886 383.928V383.856C721.886 383.412 721.76 383.088 721.508 382.884C721.268 382.68 720.866 382.578 720.302 382.578H718.898V385.242H720.302ZM504.362 418.216C502.142 418.216 500.462 417.616 499.322 416.416C498.206 415.288 497.648 413.698 497.648 411.646V411.502C497.648 409.546 498.272 407.956 499.52 406.732C500.744 405.532 502.31 404.932 504.218 404.932C505.91 404.932 507.29 405.328 508.358 406.12C509.438 406.972 510.05 408.226 510.194 409.882H506.396C506.252 408.526 505.532 407.848 504.236 407.848C503.396 407.848 502.736 408.166 502.256 408.802C501.776 409.426 501.536 410.32 501.536 411.484V411.628C501.536 412.792 501.77 413.692 502.238 414.328C502.718 414.952 503.402 415.264 504.29 415.264C505.694 415.264 506.492 414.562 506.684 413.158H510.356C510.236 414.766 509.624 416.026 508.52 416.938C507.452 417.79 506.066 418.216 504.362 418.216ZM514.262 407.974H510.932V405.13H521.3V407.974H517.97V418H514.262V407.974ZM524.86 405.13H529.63L533.716 418H529.81L529.126 415.606H524.86L524.176 418H520.738L524.86 405.13ZM525.58 413.068H528.406L527.002 408.118L525.58 413.068ZM535.193 405.13H539.999L542.465 411.988L544.931 405.13H549.647V418H545.975V409.99L542.825 418H541.601L538.487 409.99V418H535.193V405.13ZM562.146 413.86C562.146 415.18 561.714 416.2 560.85 416.92C559.998 417.64 558.708 418 556.98 418H552.084V405.13H560.94V407.974H555.774L555.756 409.828H557.142C558.762 409.828 559.998 410.17 560.85 410.854C561.714 411.526 562.146 412.504 562.146 413.788V413.86ZM556.836 415.228C558.036 415.228 558.636 414.766 558.636 413.842V413.77C558.636 412.822 558.03 412.348 556.818 412.348H555.756V415.228H556.836ZM565.598 418.18C564.974 418.18 564.512 418.096 564.212 417.928V415.066C564.608 415.174 564.956 415.228 565.256 415.228C565.904 415.228 566.444 414.868 566.876 414.148L562.394 405.13H566.246L568.55 410.17L570.584 405.13H574.166L569.918 414.724C569.57 415.504 569.222 416.128 568.874 416.596C568.538 417.064 568.094 417.448 567.542 417.748C567.002 418.036 566.354 418.18 565.598 418.18ZM578.658 413.122C578.454 414.814 578.046 416.092 577.434 416.956C576.834 417.808 575.904 418.234 574.644 418.234C574.512 418.234 574.38 418.222 574.248 418.198C574.116 418.186 574.002 418.168 573.906 418.144C573.822 418.132 573.744 418.114 573.672 418.09C573.6 418.066 573.546 418.048 573.51 418.036L573.456 418V415.138C573.456 415.15 573.486 415.162 573.546 415.174C573.642 415.198 573.744 415.21 573.852 415.21C574.296 415.21 574.644 414.958 574.896 414.454C575.148 413.95 575.328 413.194 575.436 412.186C575.556 411.274 575.616 408.922 575.616 405.13H585.426V418H581.736V408.01H578.946C578.874 410.494 578.778 412.198 578.658 413.122ZM591.094 405.13H595.864L599.95 418H596.044L595.36 415.606H591.094L590.41 418H586.972L591.094 405.13ZM591.814 413.068H594.64L593.236 408.118L591.814 413.068Z" fill="white"/>
<circle opacity="0.5" cx="400" cy="400" r="52" fill="#FECA36"/>
<circle opacity="0.25" cx="400" cy="400" r="62" fill="#FECA36"/>
<circle cx="400" cy="400" r="40" fill="#FECA36"/>
<circle opacity="0.2" cx="400" cy="400" r="99.5" stroke="#EEEEEE"/>
<circle opacity="0.15" cx="400" cy="400" r="199.5" stroke="#EEEEEE"/>
<circle opacity="0.1" cx="400" cy="400" r="299.5" stroke="#EEEEEE"/>
<circle opacity="0.05" cx="400" cy="400" r="399.5" stroke="#EEEEEE"/>
<path d="M408.5 399.134C409.167 399.519 409.167 400.481 408.5 400.866L396.5 407.794C395.833 408.179 395 407.698 395 406.928L395 393.072C395 392.302 395.833 391.821 396.5 392.206L408.5 399.134Z" fill="white"/>
</svg>
