<svg width="30" height="30" viewBox="0 0 30 30" fill="none" xmlns="http://www.w3.org/2000/svg">
<path d="M29.3866 26.3728L27.4308 24.4169C27.0487 24.0348 26.4296 24.0348 26.0475 24.4169C25.6654 24.7987 25.6654 25.4184 26.0475 25.8003L26.3341 26.0869H7.57903L7.86567 25.8003C8.24776 25.4185 8.24776 24.7988 7.86567 24.4169C7.48358 24.0348 6.86448 24.0348 6.48234 24.4169L4.52648 26.3728C4.33459 26.5643 4.2392 26.8257 4.2392 27.0651C4.2392 27.3097 4.33963 27.571 4.52648 27.7575L6.48234 29.7133C6.86448 30.0955 7.48347 30.0955 7.86567 29.7133C8.24776 29.3315 8.24776 28.7118 7.86567 28.33L7.57903 28.0434H26.3341L26.0475 28.33C25.6654 28.7118 25.6654 29.3315 26.0475 29.7133C26.4296 30.0955 27.0486 30.0955 27.4308 29.7133L29.3866 27.7575C29.5782 27.5663 29.6739 27.3051 29.6739 27.0651C29.6739 26.8141 29.5736 26.5593 29.3866 26.3728Z" fill="#FECA36"/>
<path d="M4.52584 20.504L4.2392 20.7906V3.33989L4.52584 3.62653C4.90799 4.00867 5.52697 4.00867 5.90918 3.62653C6.29132 3.24438 6.29132 2.6254 5.90918 2.24319L3.95262 0.286689C3.57053 -0.0954002 2.95143 -0.0954002 2.56928 0.286689L0.61278 2.24319C0.230633 2.62534 0.230633 3.24432 0.61278 3.62653C0.994869 4.00862 1.61397 4.00862 1.99612 3.62653L2.2827 3.33989V20.7906L1.99606 20.504C1.61397 20.1219 0.994869 20.1219 0.612722 20.504C0.230574 20.8861 0.230574 21.5051 0.612722 21.8873L2.56922 23.8438C2.95137 24.2259 3.57035 24.2259 3.95256 23.8438L5.90906 21.8873C6.29121 21.5052 6.29121 20.8862 5.90912 20.504C5.52703 20.1219 4.90793 20.1219 4.52584 20.504Z" fill="#FECA36"/>
<path d="M24.7826 7.82606H29.6739V0.978279C29.6739 0.43787 29.2357 0 28.6956 0H15.3261V7.82606H20.2174C20.7574 7.82606 21.1957 8.26393 21.1957 8.80434C21.1957 9.34475 20.7574 9.78262 20.2174 9.78262H15.3261V12.7174C15.3261 13.2578 14.8879 13.6957 14.3478 13.6957C13.8078 13.6957 13.3695 13.2578 13.3695 12.7174V0H9.13041C8.59035 0 8.15213 0.43787 8.15213 0.978279V21.1956C8.15213 21.736 8.59035 22.1739 9.13041 22.1739H13.3695V17.2826C13.3695 16.7422 13.8078 16.3043 14.3478 16.3043C14.8879 16.3043 15.3261 16.7422 15.3261 17.2826V22.1739H28.6956C29.2357 22.1739 29.6739 21.736 29.6739 21.1956V9.78262H24.7826C24.2426 9.78262 23.8044 9.34475 23.8044 8.80434C23.8044 8.26393 24.2425 7.82606 24.7826 7.82606Z" fill="#FECA36"/>
</svg>
