<svg width="50" height="50" viewBox="0 0 50 50" fill="none" xmlns="http://www.w3.org/2000/svg">
<path d="M48.0469 38.4114C44.8878 38.4114 42.3177 35.8413 42.3177 32.6822V21.1588C42.3177 17.9639 39.7184 15.3645 36.5234 15.3645C33.3285 15.3645 30.7292 17.9639 30.7292 21.1588V40.3646C30.7292 43.5236 28.1591 46.0938 25 46.0938H19.2708V32.6823C19.2708 31.6036 18.3964 30.7292 17.3177 30.7292H13.4766C12.4354 30.7292 11.5886 29.8822 11.5886 28.8412V21.1589C11.5886 20.1178 12.4355 19.2709 13.4766 19.2709H17.3177C18.3964 19.2709 19.2708 18.3965 19.2708 17.3178V1.95312C19.2708 0.874414 18.3964 0 17.3177 0H9.63545C4.32246 0 0 4.32246 0 9.63545V40.3647C0 45.6775 4.32246 50 9.63545 50H25C30.313 50 34.6354 45.6775 34.6354 40.3646V21.1589C34.6354 20.1179 35.4824 19.2709 36.5234 19.2709C37.5645 19.2709 38.4114 20.1179 38.4114 21.1589V32.6823C38.4114 37.9953 42.7339 42.3178 48.0469 42.3178C49.1256 42.3178 50 41.4434 50 40.3647C50 39.2859 49.1256 38.4114 48.0469 38.4114ZM3.90625 40.3646V9.63545C3.90625 6.47637 6.47637 3.90625 9.63545 3.90625H15.3646V15.3645H13.4766C10.2815 15.3645 7.68232 17.9639 7.68232 21.1588V28.8411C7.68232 32.036 10.2816 34.6353 13.4766 34.6353H15.3645V46.0938H9.63545C6.47637 46.0938 3.90625 43.5236 3.90625 40.3646Z" fill="#FECA36"/>
</svg>
