<svg width="50" height="50" viewBox="0 0 50 50" fill="none" xmlns="http://www.w3.org/2000/svg">
<path d="M19.5259 35.1463H26.1646V39.0514H19.5259V35.1463ZM12.2036 34.6584C10.8555 34.6584 9.76295 35.751 9.76295 37.0991C9.76295 38.4468 10.8555 39.5397 12.2036 39.5397C13.5517 39.5397 14.6442 38.4468 14.6442 37.0991C14.6442 35.751 13.5517 34.6584 12.2036 34.6584ZM39.2467 22.7474H19.5259V26.6525H39.2467V22.7474ZM12.2036 22.2595C10.8555 22.2595 9.76295 23.3521 9.76295 24.7002C9.76295 26.0483 10.8555 27.1408 12.2036 27.1408C13.5517 27.1408 14.6442 26.0483 14.6442 24.7002C14.6442 23.3521 13.5517 22.2595 12.2036 22.2595ZM39.2467 11.0321H19.5259V14.9372H39.2467V11.0321ZM12.2036 10.5438C10.8555 10.5438 9.76295 11.6367 9.76295 12.9845C9.76295 14.3326 10.8555 15.4255 12.2036 15.4255C13.5517 15.4255 14.6442 14.3326 14.6442 12.9845C14.6442 11.6367 13.5517 10.5438 12.2036 10.5438ZM3.90511 44.1284V5.85785C3.90511 4.78096 4.78096 3.90511 5.85785 3.90511H44.1284C45.2049 3.90511 46.0808 4.78096 46.0808 5.85785V27.9221H49.9859V5.85785C49.9859 2.62794 47.3583 0 44.1284 0H5.85785C2.62794 0 0 2.62794 0 5.85785V44.1284C0 47.3583 2.62794 49.9859 5.85785 49.9859H28.41V46.0808H5.85785C4.78096 46.0808 3.90511 45.2049 3.90511 44.1284ZM47.2385 50L43.3498 46.1113C42.0341 46.8975 40.4972 47.3499 38.8565 47.3499C34.0115 47.3499 30.0697 43.4082 30.0697 38.5635C30.0697 33.7185 34.0115 29.7768 38.8565 29.7768C43.7012 29.7768 47.6429 33.7185 47.6429 38.5635C47.6429 40.3561 47.1027 42.0246 46.1777 43.4162L50 47.2385L47.2385 50ZM38.8565 43.4448C41.5482 43.4448 43.7378 41.2552 43.7378 38.5635C43.7378 35.8719 41.5482 33.6819 38.8565 33.6819C36.1649 33.6819 33.9748 35.8719 33.9748 38.5635C33.9748 41.2552 36.1649 43.4448 38.8565 43.4448Z" fill="#FECA36"/>
</svg>
