<svg width="50" height="50" viewBox="0 0 50 50" fill="none" xmlns="http://www.w3.org/2000/svg">
<path d="M49.9999 24.9507C49.9995 24.2293 49.5746 23.5728 48.9169 23.2775L45.1144 21.5705L48.9173 19.8634C49.5749 19.5681 49.9999 18.9112 49.9999 18.1903C49.9999 17.4689 49.5749 16.8124 48.9169 16.5168L33.179 9.45234C33.1661 9.44623 33.1531 9.44013 33.1401 9.43479L25.7514 6.1183C25.2738 5.90315 24.7264 5.90353 24.2488 6.11792L24.2492 6.11753L1.08261 16.5168C0.424957 16.8124 2.56381e-07 17.4689 2.56381e-07 18.1903C2.56381e-07 18.9112 0.424957 19.5681 1.08299 19.8638L4.88547 21.5705L1.08299 23.2775C0.425338 23.5728 2.56381e-07 24.2293 2.56381e-07 24.9507C-0.000381213 25.672 0.424957 26.3285 1.08299 26.6242L4.99457 28.3801L1.08261 30.1363C0.424957 30.4316 2.56381e-07 31.0885 2.56381e-07 31.8095C2.56381e-07 32.5308 0.424957 33.1873 1.08299 33.483L24.2488 43.8818C24.4876 43.9894 24.744 44.0428 25.0003 44.0428C25.2563 44.0428 25.5123 43.989 25.7507 43.8822L48.9173 33.4826C49.5749 33.1873 49.9999 32.5304 49.9999 31.8095C49.9999 31.0881 49.5749 30.4316 48.9169 30.136L45.0053 28.3801L48.9173 26.6242C49.5749 26.3289 49.9999 25.672 49.9999 24.9507ZM17.4865 12.3645L21.4691 14.1524L17.1894 16.0739L13.2644 14.26L17.4865 12.3645ZM25.0457 15.7584L29.3769 17.7027L25.0453 19.7047L20.7141 17.7027L25.0457 15.7584ZM36.7812 14.2806L32.9017 16.0735L28.6224 14.1524L32.5591 12.3851L36.7812 14.2806ZM21.5534 21.3183L16.5889 23.6128L12.0689 21.5838L17.1718 19.2931L21.5534 21.3183ZM25.0453 22.9319L29.914 25.1822L25 27.3882L20.1316 25.2032L25.0453 22.9319ZM33.4567 23.5922L28.5369 21.3183L32.9192 19.2931L37.9764 21.5636L33.4567 23.5922ZM41.5534 19.9576L36.444 17.6638L40.3236 15.8706L45.4909 18.1903L41.5534 19.9576ZM25 8.9919L28.9821 10.7795L25.0457 12.5468L21.0636 10.7589L25 8.9919ZM9.72174 15.8503L13.6467 17.6642L8.49226 19.9782L4.50896 18.1903L9.72174 15.8503ZM45.4909 31.8095L25 41.0078L4.50896 31.8095L8.57161 29.986L24.25 37.0238C24.4884 37.1306 24.744 37.1844 25 37.184C25.2559 37.184 25.5119 37.1306 25.7507 37.0234L41.4283 29.986L45.4909 31.8095ZM25 34.149L4.50896 24.9507L8.46213 23.1761L24.2488 30.2626C24.4876 30.3698 24.744 30.4236 25.0003 30.4236C25.2563 30.4236 25.5123 30.3698 25.7507 30.2626L41.5378 23.1761L45.4909 24.9507L25 34.149Z" fill="#FECA36"/>
</svg>
