<svg width="432" height="363" viewBox="0 0 432 363" fill="none" xmlns="http://www.w3.org/2000/svg">
<path d="M84.96 243.592H67.104L61.056 284.488H26.208L32.256 243.592H12.384V202.984H38.304L41.472 181.096H19.296V142.504H47.232L52.416 107.08H87.264L82.08 142.504H99.936L105.408 107.08H140.256L134.784 142.504H155.52V181.096H129.024L125.856 202.984H148.608V243.592H119.808L113.76 284.488H78.912L84.96 243.592ZM73.152 202.984H91.008L94.176 181.096H76.32L73.152 202.984Z" fill="#F4F4F4"/>
<path opacity="0.5" d="M100.68 223.024L99.3717 224.537L100.68 223.024ZM78.216 170.32V168.32H76.1476L76.2171 170.387L78.216 170.32ZM130.632 170.32L132.617 170.072L132.398 168.32H130.632V170.32ZM139.272 191.632L137.802 192.989L137.816 193.003L137.829 193.017L139.272 191.632ZM144.456 151.312H142.456V153.312H144.456V151.312ZM144.456 114.736V112.736H142.456V114.736H144.456ZM136.104 97.744V99.744H137.858L138.087 98.0055L136.104 97.744ZM83.976 97.744L81.9791 97.632L81.8607 99.744H83.976V97.744ZM106.152 48.208L104.841 46.6979L104.821 46.7151L104.801 46.7328L106.152 48.208ZM221.928 44.464L223.153 42.8829L223.118 42.856L223.082 42.8307L221.928 44.464ZM207.528 130L206.943 128.087L207.13 131.96L207.528 130ZM236.616 145.84L235.115 147.162L235.124 147.172L235.133 147.182L236.616 145.84ZM225.672 224.176L226.921 225.738L226.924 225.736L225.672 224.176ZM164.04 239.456C136.259 239.456 115.691 233.362 101.988 221.511L99.3717 224.537C114.085 237.262 135.757 243.456 164.04 243.456V239.456ZM101.988 221.511C88.2913 209.665 80.9685 192.674 80.2149 170.253L76.2171 170.387C76.9995 193.662 84.6527 211.807 99.3717 224.537L101.988 221.511ZM78.216 172.32H130.632V168.32H78.216V172.32ZM128.647 170.568C129.833 180.049 132.824 187.595 137.802 192.989L140.742 190.275C136.504 185.685 133.735 179.023 132.617 170.072L128.647 170.568ZM137.829 193.017C142.962 198.363 150.793 200.832 160.872 200.832V196.832C151.367 196.832 144.798 194.501 140.715 190.247L137.829 193.017ZM160.872 200.832C170.137 200.832 177.46 198.842 182.482 194.515C187.56 190.139 189.944 183.672 189.944 175.504H185.944C185.944 182.888 183.816 188.085 179.87 191.485C175.868 194.934 169.655 196.832 160.872 196.832V200.832ZM189.944 175.504C189.944 167.07 187.574 160.395 182.509 155.869C177.486 151.38 170.152 149.312 160.872 149.312V153.312C169.64 153.312 175.842 155.276 179.843 158.851C183.802 162.389 185.944 167.81 185.944 175.504H189.944ZM160.872 149.312H144.456V153.312H160.872V149.312ZM146.456 151.312V114.736H142.456V151.312H146.456ZM144.456 116.736H159.72V112.736H144.456V116.736ZM159.72 116.736C169.068 116.736 176.451 114.8 181.519 110.586C186.658 106.312 189.08 99.9832 189.08 91.984H185.08C185.08 99.1527 182.942 104.199 178.961 107.51C174.909 110.88 168.612 112.736 159.72 112.736V116.736ZM189.08 91.984C189.08 85.1854 186.895 79.6158 182.374 75.5249L179.69 78.4911C183.233 81.6962 185.08 86.1106 185.08 91.984H189.08ZM182.374 75.5249C177.847 71.429 171.436 69.536 163.464 69.536V73.536C170.852 73.536 176.153 75.291 179.69 78.4911L182.374 75.5249ZM163.464 69.536C155.122 69.536 148.312 71.8321 143.289 76.6437C138.292 81.4302 135.309 88.4712 134.121 97.4825L138.087 98.0055C139.203 89.5448 141.932 83.4818 146.055 79.5323C150.152 75.6079 155.87 73.536 163.464 73.536V69.536ZM136.104 95.744H83.976V99.744H136.104V95.744ZM85.9729 97.856C87.0992 77.7689 94.3008 61.7693 107.503 49.6832L104.801 46.7328C90.7392 59.6067 83.1568 76.6311 81.9791 97.632L85.9729 97.856ZM107.463 49.7181C121.601 37.4403 140.675 31.2 164.904 31.2V27.2C139.981 27.2 119.887 33.6316 104.841 46.6979L107.463 49.7181ZM164.904 31.2C188.245 31.2 206.809 36.2288 220.774 46.0973L223.082 42.8307C208.247 32.3471 188.795 27.2 164.904 27.2V31.2ZM220.703 46.0451C233.858 56.2354 240.376 69.3853 240.376 85.648H244.376C244.376 68.1187 237.262 53.8126 223.153 42.8829L220.703 46.0451ZM240.376 85.648C240.376 96.5223 237.571 105.374 232.091 112.348C226.6 119.337 218.282 124.62 206.943 128.087L208.113 131.913C220.006 128.276 229.112 122.615 235.237 114.82C241.373 107.01 244.376 97.2377 244.376 85.648H240.376ZM207.13 131.96C219.065 134.384 228.346 139.478 235.115 147.162L238.117 144.518C230.678 136.074 220.567 130.608 207.926 128.04L207.13 131.96ZM235.133 147.182C242.047 154.824 245.56 164.594 245.56 176.656H249.56C249.56 163.758 245.777 152.984 238.099 144.498L235.133 147.182ZM245.56 176.656C245.56 196.064 238.504 211.312 224.42 222.616L226.924 225.736C242.024 213.616 249.56 197.184 249.56 176.656H245.56ZM224.423 222.614C210.506 233.748 190.471 239.456 164.04 239.456V243.456C190.985 243.456 212.038 237.644 226.921 225.738L224.423 222.614Z" fill="#FECA36"/>
</svg>
