<svg width="415" height="363" viewBox="0 0 415 363" fill="none" xmlns="http://www.w3.org/2000/svg">
<path d="M85.2259 243.592H67.3699L61.3219 284.488H26.4739L32.5219 243.592H12.6499V202.984H38.5699L41.7379 181.096H19.5619V142.504H47.4979L52.6819 107.08H87.5299L82.3459 142.504H100.202L105.674 107.08H140.522L135.05 142.504H155.786V181.096H129.29L126.122 202.984H148.874V243.592H120.074L114.026 284.488H79.1779L85.2259 243.592ZM73.4179 202.984H91.2739L94.4419 181.096H76.5859L73.4179 202.984Z" fill="#F4F4F4"/>
<path opacity="0.5" d="M101.478 212.944L103.033 211.687L103.022 211.673L103.011 211.66L101.478 212.944ZM107.238 56.848L105.756 55.505L105.751 55.5103L105.746 55.5157L107.238 56.848ZM228.198 44.464L229.416 42.8779L228.198 44.464ZM251.238 89.968V91.968H253.458L253.227 89.7596L251.238 89.968ZM197.094 89.968L195.133 90.3602L195.454 91.968H197.094V89.968ZM148.998 86.8L147.323 85.7064L147.318 85.7149L148.998 86.8ZM139.206 127.12L137.207 127.055L136.973 134.219L140.882 128.211L139.206 127.12ZM235.398 119.92L234.055 121.402L234.06 121.407L235.398 119.92ZM233.382 221.584L234.688 223.098L234.702 223.086L234.716 223.073L233.382 221.584ZM190.758 191.344L192.247 192.679L190.758 191.344ZM190.758 148.432L189.243 149.738L189.267 149.766L189.292 149.793L190.758 148.432ZM150.438 148.432L148.974 147.069L148.972 147.071L150.438 148.432ZM150.438 191.344L148.949 192.679L150.438 191.344ZM171.462 239.456C140.586 239.456 117.911 230.099 103.033 211.687L99.9221 214.201C115.764 233.805 139.746 243.456 171.462 243.456V239.456ZM103.011 211.66C89.6024 195.644 82.7417 172.081 82.7417 140.656H78.7417C78.7417 172.591 85.7049 197.22 99.9442 214.228L103.011 211.66ZM82.7417 140.656V135.184H78.7417V140.656H82.7417ZM82.7417 135.184C82.7417 103.112 91.462 77.5122 108.729 58.1803L105.746 55.5157C87.6854 75.7358 78.7417 102.359 78.7417 135.184H82.7417ZM108.72 58.191C125.006 40.2203 146.43 31.2 173.19 31.2V27.2C145.422 27.2 122.878 36.6117 105.756 55.505L108.72 58.191ZM173.19 31.2C196.346 31.2 214.197 36.2318 226.979 46.0501L229.416 42.8779C215.702 32.3442 196.881 27.2 173.19 27.2V31.2ZM226.979 46.0501C239.702 55.8223 247.181 70.4367 249.249 90.1764L253.227 89.7596C251.071 69.1793 243.19 53.4576 229.416 42.8779L226.979 46.0501ZM251.238 87.968H197.094V91.968H251.238V87.968ZM199.055 89.5758C197.835 83.4763 195.244 78.6836 191.133 75.4382C187.033 72.2013 181.654 70.688 175.206 70.688V74.688C181.045 74.688 185.459 76.0547 188.654 78.5778C191.84 81.0924 194.048 84.9397 195.133 90.3602L199.055 89.5758ZM175.206 70.688C163.209 70.688 153.84 75.7273 147.323 85.7064L150.672 87.8936C156.443 79.0566 164.546 74.688 175.206 74.688V70.688ZM147.318 85.7149C141.083 95.3686 137.788 109.228 137.207 127.055L141.205 127.185C141.775 109.684 145.008 96.6634 150.678 87.885L147.318 85.7149ZM140.882 128.211C150.824 112.93 166.17 105.216 187.302 105.216V101.216C165.041 101.216 148.323 109.438 137.529 126.029L140.882 128.211ZM187.302 105.216C206.682 105.216 222.203 110.661 234.055 121.402L236.741 118.438C224.016 106.907 207.473 101.216 187.302 101.216V105.216ZM234.06 121.407C247.015 133.066 253.558 148.907 253.558 169.168H257.558C257.558 147.957 250.661 130.966 236.736 118.433L234.06 121.407ZM253.558 169.168C253.558 190.355 246.365 207.264 232.047 220.095L234.716 223.073C249.966 209.408 257.558 191.373 257.558 169.168H253.558ZM232.075 220.07C217.17 232.925 197.039 239.456 171.462 239.456V243.456C197.725 243.456 218.873 236.739 234.688 223.098L232.075 220.07ZM170.886 201.696C179.644 201.696 186.833 198.717 192.247 192.679L189.269 190.009C184.698 195.107 178.639 197.696 170.886 197.696V201.696ZM192.247 192.679C197.626 186.68 200.246 178.974 200.246 169.744H196.246C196.246 178.178 193.874 184.872 189.269 190.009L192.247 192.679ZM200.246 169.744C200.246 160.516 197.626 152.89 192.223 147.071L189.292 149.793C193.873 154.726 196.246 161.308 196.246 169.744H200.246ZM192.273 147.126C187.034 141.049 179.819 138.08 170.886 138.08V142.08C178.848 142.08 184.882 144.679 189.243 149.738L192.273 147.126ZM170.886 138.08C161.95 138.08 154.58 141.048 148.974 147.069L151.901 149.795C156.663 144.68 162.925 142.08 170.886 142.08V138.08ZM148.972 147.071C143.585 152.873 140.95 160.297 140.95 169.168H144.95C144.95 161.143 147.307 154.743 151.903 149.793L148.972 147.071ZM140.95 169.168C140.95 178.757 143.556 186.664 148.949 192.679L151.927 190.009C147.336 184.888 144.95 178.011 144.95 169.168H140.95ZM148.949 192.679C154.38 198.738 161.775 201.696 170.886 201.696V197.696C162.717 197.696 156.479 195.086 151.927 190.009L148.949 192.679Z" fill="#FECA36"/>
</svg>
