<svg width="461" height="363" viewBox="0 0 461 363" fill="none" xmlns="http://www.w3.org/2000/svg">
<path d="M84.96 243.592H67.104L61.056 284.488H26.208L32.256 243.592H12.384V202.984H38.304L41.472 181.096H19.296V142.504H47.232L52.416 107.08H87.264L82.08 142.504H99.936L105.408 107.08H140.256L134.784 142.504H155.52V181.096H129.024L125.856 202.984H148.608V243.592H119.808L113.76 284.488H78.912L84.96 243.592ZM73.152 202.984H91.008L94.176 181.096H76.32L73.152 202.984Z" fill="#F4F4F4"/>
<path opacity="0.5" d="M175.516 198.544H177.516V196.544H175.516V198.544ZM75.2918 198.544H73.2918V200.544H75.2918V198.544ZM75.2918 176.368L73.5729 175.346L73.2918 175.818V176.368H75.2918ZM161.116 32.08V30.08H159.978L159.397 31.0576L161.116 32.08ZM232.252 32.08H234.252V30.08H232.252V32.08ZM232.252 157.936H230.252V159.936H232.252V157.936ZM258.748 157.936H260.748V155.936H258.748V157.936ZM258.748 198.544V200.544H260.748V198.544H258.748ZM232.252 198.544V196.544H230.252V198.544H232.252ZM232.252 238V240H234.252V238H232.252ZM175.516 238H173.516V240H175.516V238ZM176.956 157.936V159.936H178.956V157.936H176.956ZM176.956 76.432H178.956V68.8308L175.215 75.4477L176.956 76.432ZM130.876 157.936L129.135 156.952L127.448 159.936H130.876V157.936ZM175.516 196.544H75.2918V200.544H175.516V196.544ZM77.2918 198.544V176.368H73.2918V198.544H77.2918ZM77.0107 177.39L162.835 33.1024L159.397 31.0576L73.5729 175.346L77.0107 177.39ZM161.116 34.08H232.252V30.08H161.116V34.08ZM230.252 32.08V157.936H234.252V32.08H230.252ZM232.252 159.936H258.748V155.936H232.252V159.936ZM256.748 157.936V198.544H260.748V157.936H256.748ZM258.748 196.544H232.252V200.544H258.748V196.544ZM230.252 198.544V238H234.252V198.544H230.252ZM232.252 236H175.516V240H232.252V236ZM177.516 238V198.544H173.516V238H177.516ZM178.956 157.936V76.432H174.956V157.936H178.956ZM175.215 75.4477L129.135 156.952L132.617 158.92L178.697 77.4163L175.215 75.4477ZM130.876 159.936H176.956V155.936H130.876V159.936Z" fill="#FECA36"/>
</svg>
