<svg width="461" height="363" viewBox="0 0 461 363" fill="none" xmlns="http://www.w3.org/2000/svg">
<path d="M84.96 243.592H67.104L61.056 284.488H26.208L32.256 243.592H12.384V202.984H38.304L41.472 181.096H19.296V142.504H47.232L52.416 107.08H87.264L82.08 142.504H99.936L105.408 107.08H140.256L134.784 142.504H155.52V181.096H129.024L125.856 202.984H148.608V243.592H119.808L113.76 284.488H78.912L84.96 243.592ZM73.152 202.984H91.008L94.176 181.096H76.32L73.152 202.984Z" fill="#F4F4F4"/>
<path opacity="0.5" d="M118.536 90.256H120.536V86.67L117.485 88.5544L118.536 90.256ZM79.368 114.448H77.368V118.034L80.419 116.15L79.368 114.448ZM79.368 65.2L78.2197 63.5625L77.368 64.1597V65.2H79.368ZM126.6 32.08V30.08H125.969L125.452 30.4425L126.6 32.08ZM177.576 32.08H179.576V30.08H177.576V32.08ZM177.576 238V240H179.576V238H177.576ZM118.536 238H116.536V240H118.536V238ZM117.485 88.5544L78.317 112.746L80.419 116.15L119.587 91.9576L117.485 88.5544ZM81.368 114.448V65.2H77.368V114.448H81.368ZM80.5163 66.8375L127.748 33.7175L125.452 30.4425L78.2197 63.5625L80.5163 66.8375ZM126.6 34.08H177.576V30.08H126.6V34.08ZM175.576 32.08V238H179.576V32.08H175.576ZM177.576 236H118.536V240H177.576V236ZM120.536 238V90.256H116.536V238H120.536Z" fill="#FECA36"/>
</svg>
