<svg width="461" height="363" viewBox="0 0 461 363" fill="none" xmlns="http://www.w3.org/2000/svg">
<path d="M84.96 243.592H67.104L61.056 284.488H26.208L32.256 243.592H12.384V202.984H38.304L41.472 181.096H19.296V142.504H47.232L52.416 107.08H87.264L82.08 142.504H99.936L105.408 107.08H140.256L134.784 142.504H155.52V181.096H129.024L125.856 202.984H148.608V243.592H119.808L113.76 284.488H78.912L84.96 243.592ZM73.152 202.984H91.008L94.176 181.096H76.32L73.152 202.984Z" fill="#F4F4F4"/>
<path opacity="0.5" d="M72.456 229.648L71.0012 228.276L70.456 228.853V229.648H72.456ZM144.456 153.328L145.911 154.7L145.916 154.695L144.456 153.328ZM169.8 121.936L168.125 120.843L168.116 120.856L168.108 120.869L169.8 121.936ZM172.68 79.888L171.166 81.1952L171.198 81.2321L171.232 81.2673L172.68 79.888ZM130.056 106.96V108.96H131.86L132.045 107.166L130.056 106.96ZM76.488 106.96L74.4894 106.884L74.4108 108.96H76.488V106.96ZM99.528 49.072L98.1836 47.5912L98.1739 47.6001L99.528 49.072ZM217.032 47.632L218.38 46.1541L218.37 46.1456L218.361 46.1372L217.032 47.632ZM225.96 132.304L227.69 133.307L227.691 133.305L225.96 132.304ZM197.736 166L199.129 167.436L199.129 167.435L197.736 166ZM168.936 193.936L167.543 192.5L164.002 195.936H168.936V193.936ZM238.056 193.936H240.056V191.936H238.056V193.936ZM238.056 238V240H240.056V238H238.056ZM72.456 238H70.456V240H72.456V238ZM73.9108 231.02L145.911 154.7L143.001 151.956L71.0012 228.276L73.9108 231.02ZM145.916 154.695C157.286 142.554 165.829 131.985 171.492 123.003L168.108 120.869C162.635 129.551 154.282 139.91 142.996 151.961L145.916 154.695ZM171.475 123.029C177.383 113.97 180.44 105.147 180.44 96.592H176.44C176.44 104.165 173.737 112.238 168.125 120.843L171.475 123.029ZM180.44 96.592C180.44 89.122 178.413 83.0072 174.128 78.5087L171.232 81.2673C174.627 84.8328 176.44 89.854 176.44 96.592H180.44ZM174.194 78.5808C170.067 73.8024 164.067 71.552 156.552 71.552V75.552C163.245 75.552 167.997 77.5256 171.166 81.1952L174.194 78.5808ZM156.552 71.552C148.318 71.552 141.67 74.5722 136.841 80.6612C132.089 86.6533 129.237 95.439 128.067 106.754L132.045 107.166C133.179 96.209 135.895 88.2907 139.975 83.1468C143.978 78.0998 149.426 75.552 156.552 75.552V71.552ZM130.056 104.96H76.488V108.96H130.056V104.96ZM78.4866 107.036C79.4326 82.0596 86.9811 63.3328 100.882 50.5439L98.1739 47.6001C83.2749 61.3072 75.4634 81.1724 74.4894 106.884L78.4866 107.036ZM100.872 50.5528C115.001 37.7258 134.439 31.2 159.432 31.2V27.2C133.737 27.2 113.239 33.9222 98.1836 47.5912L100.872 50.5528ZM159.432 31.2C183.682 31.2 202.352 37.2587 215.703 49.1268L218.361 46.1372C204.064 33.4293 184.334 27.2 159.432 27.2V31.2ZM215.684 49.1099C228.286 60.5997 234.616 75.5959 234.616 94.288H238.616C238.616 74.5801 231.89 58.4723 218.38 46.1541L215.684 49.1099ZM234.616 94.288C234.616 106.962 231.172 119.292 224.229 131.303L227.691 133.305C234.956 120.74 238.616 107.726 238.616 94.288H234.616ZM224.23 131.301C218.795 140.672 209.534 151.756 196.343 164.565L199.129 167.435C212.434 154.516 221.989 143.136 227.69 133.307L224.23 131.301ZM196.343 164.564L167.543 192.5L170.329 195.372L199.129 167.436L196.343 164.564ZM168.936 195.936H238.056V191.936H168.936V195.936ZM236.056 193.936V238H240.056V193.936H236.056ZM238.056 236H72.456V240H238.056V236ZM74.456 238V229.648H70.456V238H74.456Z" fill="#FECA36"/>
</svg>
