<svg width="462" height="363" viewBox="0 0 462 363" fill="none" xmlns="http://www.w3.org/2000/svg">
<path d="M85.5929 243.592H67.7369L61.6889 284.488H26.8409L32.8889 243.592H13.0169V202.984H38.9369L42.1049 181.096H19.9289V142.504H47.8649L53.0489 107.08H87.8969L82.7129 142.504H100.569L106.041 107.08H140.889L135.417 142.504H156.153V181.096H129.657L126.489 202.984H149.241V243.592H120.441L114.393 284.488H79.5449L85.5929 243.592ZM73.7849 202.984H91.6409L94.8089 181.096H76.9529L73.7849 202.984Z" fill="#F4F4F4"/>
<path opacity="0.5" d="M98.9647 221.872L100.348 220.428L100.33 220.41L100.311 220.393L98.9647 221.872ZM78.2287 173.2V171.2H76.134L76.2309 173.292L78.2287 173.2ZM131.797 173.2L133.77 172.871L133.491 171.2H131.797V173.2ZM138.997 190.48L140.506 189.168L140.46 189.115L140.411 189.066L138.997 190.48ZM177.013 189.04L175.44 187.804L175.426 187.822L175.413 187.84L177.013 189.04ZM176.149 146.416L174.681 147.775H174.681L176.149 146.416ZM121.429 153.328V155.328H122.345L122.943 154.634L121.429 153.328ZM86.2927 153.328L84.294 153.257L84.2202 155.328H86.2927V153.328ZM90.6127 32.08V30.08H88.6827L88.614 32.0088L90.6127 32.08ZM229.429 32.08H231.429V30.08H229.429V32.08ZM229.429 75.28V77.28H231.429V75.28H229.429ZM133.237 75.28V73.28H131.287L131.237 75.2294L133.237 75.28ZM132.085 120.784L130.085 120.733L129.917 127.389L133.725 121.928L132.085 120.784ZM225.685 117.04L227.166 115.696L227.15 115.678L227.133 115.661L225.685 117.04ZM220.501 221.584L221.807 223.098L221.821 223.086L221.835 223.073L220.501 221.584ZM159.157 239.456C132.967 239.456 113.48 233.004 100.348 220.428L97.5814 223.316C111.714 236.852 132.355 243.456 159.157 243.456V239.456ZM100.311 220.393C87.9142 209.106 81.1671 193.423 80.2266 173.107L76.2309 173.292C77.2103 194.449 84.2873 211.214 97.6183 223.351L100.311 220.393ZM78.2287 175.2H131.797V171.2H78.2287V175.2ZM129.824 173.529C131.195 181.754 133.693 188.004 137.583 191.894L140.411 189.066C137.389 186.044 135.087 180.774 133.77 172.871L129.824 173.529ZM137.488 191.792C141.88 196.844 149.115 199.104 158.581 199.104V195.104C149.614 195.104 143.793 192.948 140.506 189.168L137.488 191.792ZM158.581 199.104C167.306 199.104 174.116 196.236 178.613 190.24L175.413 187.84C171.845 192.596 166.368 195.104 158.581 195.104V199.104ZM178.585 190.276C183.152 184.463 185.349 176.984 185.349 168.016H181.349C181.349 176.328 179.321 182.865 175.44 187.804L178.585 190.276ZM185.349 168.016C185.349 158.454 182.853 150.712 177.616 145.057L174.681 147.775C179.045 152.488 181.349 159.146 181.349 168.016H185.349ZM177.616 145.057C172.339 139.358 164.83 136.64 155.413 136.64V140.64C164.044 140.64 170.358 143.106 174.681 147.775L177.616 145.057ZM155.413 136.64C140.688 136.64 128.783 141.743 119.914 152.022L122.943 154.634C130.971 145.329 141.722 140.64 155.413 140.64V136.64ZM121.429 151.328H86.2927V155.328H121.429V151.328ZM88.2915 153.399L92.6115 32.1512L88.614 32.0088L84.294 153.257L88.2915 153.399ZM90.6127 34.08H229.429V30.08H90.6127V34.08ZM227.429 32.08V75.28H231.429V32.08H227.429ZM229.429 73.28H133.237V77.28H229.429V73.28ZM131.237 75.2294L130.085 120.733L134.084 120.835L135.236 75.3306L131.237 75.2294ZM133.725 121.928C143.439 107.998 158.776 100.896 180.181 100.896V96.896C157.809 96.896 141.082 104.386 130.444 119.64L133.725 121.928ZM180.181 100.896C198.525 100.896 213.143 106.772 224.236 118.419L227.133 115.661C215.186 103.116 199.468 96.896 180.181 96.896V100.896ZM224.204 118.384C235.105 130.394 240.677 147.139 240.677 168.88H244.677C244.677 146.461 238.92 128.646 227.166 115.696L224.204 118.384ZM240.677 168.88C240.677 190.265 233.48 207.267 219.166 220.095L221.835 223.073C237.089 209.405 244.677 191.271 244.677 168.88H240.677ZM219.195 220.07C204.284 232.93 184.341 239.456 159.157 239.456V243.456C185.044 243.456 205.997 236.734 221.807 223.098L219.195 220.07Z" fill="#FECA36"/>
</svg>
