<svg width="24" height="24" viewBox="0 0 24 24" fill="none" xmlns="http://www.w3.org/2000/svg">
<path d="M21.8906 2.85938H2.10938C1.78467 2.85938 1.48069 2.9392 1.20567 3.07078L11.9531 13.8182L14.362 11.5032C14.362 11.5032 14.3622 11.503 14.3622 11.5029C14.3623 11.5028 14.3624 11.5027 14.3624 11.5027L22.7947 3.07097C22.5196 2.9393 22.2154 2.85938 21.8906 2.85938Z" fill="#FECA36"/>
<path d="M23.7889 4.06543L15.8537 12.0001L23.7886 19.935C23.9202 19.66 24 19.356 24 19.0313V4.9688C24 4.64429 23.9204 4.34035 23.7889 4.06543Z" fill="#FECA36"/>
<path d="M0.211406 4.06519C0.0798281 4.3402 0 4.64419 0 4.96889V19.0314C0 19.3559 0.0797344 19.6599 0.211219 19.9349L8.14636 12.0001L0.211406 4.06519Z" fill="#FECA36"/>
<path d="M14.8595 12.9945L12.4503 15.3098C12.3129 15.4471 12.133 15.5158 11.9532 15.5158C11.7733 15.5158 11.5934 15.4471 11.4561 15.3098L9.14063 12.9944L1.20534 20.9291C1.4804 21.0608 1.78458 21.1407 2.10937 21.1407H21.8906C22.2153 21.1407 22.5193 21.0609 22.7943 20.9293L14.8595 12.9945Z" fill="#FECA36"/>
</svg>
