<svg xmlns="http://www.w3.org/2000/svg" width="144.343" height="45.709" viewBox="0 0 144.343 45.709">
    <defs>
        <style>
            .prefix__cls-1{fill:#e7e6e1}
        </style>
    </defs>
    <g id="prefix__Group_2798" data-name="Group 2798" transform="translate(.112 .029)">
        <path id="prefix__Path_17616" d="M29.9 11.78a17.285 17.285 0 0 0-12.661 5.52l.351.19a17.276 17.276 0 0 1 4.436 11.584 17.208 17.208 0 0 1-4.49 11.611l-.216.244A17.287 17.287 0 1 0 29.9 11.78z" class="prefix__cls-1" data-name="Path 17616" transform="translate(12.561 -11.78)"/>
        <path id="prefix__Path_17617" d="M31.417 40.945a17.361 17.361 0 0 1-.054-23.655l.027.027c.027-.027.027-.054.054-.081a17.337 17.337 0 1 0-.027 23.709z" class="prefix__cls-1" data-name="Path 17617" transform="translate(-1.555 -11.767)"/>
        <path id="prefix__Path_17618" d="M3.336 18.6h1.515L6.8 23.45l1.731-4.845h1.6v6.442h-1.25v-4.791l-1.65 4.791h-.947l-1.65-4.71v4.71h-1.3z" class="prefix__cls-1" data-name="Path 17618" transform="translate(.048 20.362)"/>
        <path id="prefix__Path_17619" d="M10.75 24.327V19.4H9.7v4.926z" class="prefix__cls-1" data-name="Path 17619" transform="translate(5.772 21.079)"/>
        <path id="prefix__Path_17620" d="M15.543 20.08h-.73v-1.435H13.7v1.435h-.649v1.164h.649v3.762h1.109v-3.762h.73z" class="prefix__cls-1" data-name="Path 17620" transform="translate(8.795 20.398)"/>
        <path id="prefix__Path_17621" d="M26.809 24.327V19.4h-1.055v4.926z" class="prefix__cls-1" data-name="Path 17621" transform="translate(20.225 21.079)"/>
        <path id="prefix__Path_17622" d="M31.848 24.918v-6.171h-1.055v6.171z" class="prefix__cls-1" data-name="Path 17622" transform="translate(24.76 20.49)"/>
        <path id="prefix__Path_17623" d="M19.25 19.428h-1.109v4.926h1.109v-3.275a1.507 1.507 0 0 1 1.163-.65v-1.055c-.271 0-1.163.189-1.19.677z" class="prefix__cls-1" data-name="Path 17623" transform="translate(13.373 21.054)"/>
        <path id="prefix__Path_17624" d="M28.117 19.428h-1.109v4.926h1.136v-3.275c.244-.541 1.055-.65 1.163-.65v-1.055c-.243 0-1.136.189-1.19.677z" class="prefix__cls-1" data-name="Path 17624" transform="translate(21.353 21.054)"/>
        <path id="prefix__Path_17625" d="M13.027 20.8h1.082a1.3 1.3 0 0 0-1.461-1.38 1.457 1.457 0 0 0-1.623 1.543c0 1.055 1.109 1.218 1.3 1.272.216.054.839.135.839.812 0 .244-.3.325-.568.325a.508.508 0 0 1-.514-.487h-1.219a1.539 1.539 0 0 0 1.731 1.543 1.663 1.663 0 0 0 1.677-1.543c0-.812-.811-1.3-1.434-1.408-.947-.135-.865-.974-.3-.974.517-.031.49.213.49.297z" class="prefix__cls-1" data-name="Path 17625" transform="translate(6.823 21.093)"/>
        <path id="prefix__Path_17626" d="M24.848 23.288a2.184 2.184 0 0 1-1.677.812 2.138 2.138 0 1 1 0-4.276 2.1 2.1 0 0 1 1.677.812h1.379a3.312 3.312 0 0 0-3.057-2.03 3.356 3.356 0 1 0 0 6.712 3.408 3.408 0 0 0 3.084-2.03z" class="prefix__cls-1" data-name="Path 17626" transform="translate(14.881 20.362)"/>
        <path id="prefix__Path_17627" d="M31.226 24.487a2.571 2.571 0 0 0 0-5.143v1.083a1.5 1.5 0 0 1 1.488 1.489 1.478 1.478 0 0 1-1.488 1.461zm0 0V23.4a1.475 1.475 0 0 1 0-2.95v-1.078a2.558 2.558 0 1 0 0 5.116z" class="prefix__cls-1" data-name="Path 17627" transform="translate(22.837 21.028)"/>
        <path id="prefix__Path_17628" d="M24.973 19.345v1.083a1.5 1.5 0 0 1 1.488 1.489 1.478 1.478 0 0 1-1.488 1.461v1.11a2.571 2.571 0 0 0 0-5.143z" class="prefix__cls-1" data-name="Path 17628" transform="translate(19.522 21.028)"/>
        <path id="prefix__Path_17629" d="M24.7 21.943a1.5 1.5 0 0 1 1.488-1.488v-1.11a2.571 2.571 0 1 0 0 5.143V23.4a1.5 1.5 0 0 1-1.488-1.457z" class="prefix__cls-1" data-name="Path 17629" transform="translate(18.305 21.028)"/>
        <path id="prefix__Path_17630" d="M10.128 19.345a2.57 2.57 0 1 0 2.57 2.56 2.593 2.593 0 0 0-2.57-2.56zm0 4.033v.022a1.475 1.475 0 0 1 0-2.95v-.027a1.5 1.5 0 0 1 1.488 1.489 1.478 1.478 0 0 1-1.488 1.465z" class="prefix__cls-1" data-name="Path 17630" transform="translate(3.849 21.028)"/>
        <g id="prefix__Group_2799" data-name="Group 2799" transform="translate(69.046 12.261)">
            <path id="prefix__Path_17631" d="M15.576.3l-3.845 21.516h6.086L21.529.3z" class="prefix__cls-1" data-name="Path 17631" transform="translate(15.825 .404)"/>
            <path id="prefix__Path_17632" d="M33.051 15.158c0-2.51-1.538-4.417-5.116-5.956-2.14-1.071-3.445-1.673-3.445-2.744 0-.97 1.07-1.907 3.445-1.907a11.226 11.226 0 0 1 4.548.837l.6.234.971-4.652A15.039 15.039 0 0 0 28.5 0c-5.95 0-10.264 2.978-10.264 7.3 0 3.212 2.976 4.885 5.384 5.956a6.655 6.655 0 0 1 2.88 1.907l-.368-.335a3.2 3.2 0 0 1 .468.569 1.359 1.359 0 0 1 .134.636c0 1.439-1.906 2.142-3.578 2.142a12.889 12.889 0 0 1-5.719-1.2L16.6 16.6l-.836 4.885h.036l-.034.1a19.144 19.144 0 0 0 6.789 1.2c3.812 0 6.922-1.071 8.728-2.978l-.067-.067a6.449 6.449 0 0 0 1.835-4.582z" class="prefix__cls-1" data-name="Path 17632" transform="translate(21.263)"/>
            <path id="prefix__Path_17633" d="M20.4 19.842L29.128.434h-6.454l-4.147 10.172-.033-.033-1.906 4.551-.468-2.978c-.1-.335-.2-.636-.334-.97l-1.94-9.068C13.477.668 12.407.3 11.1.3H0l1.07.234a25.017 25.017 0 0 1 6.655 2.543l5.284 18.839h6.454l.067-.134h.07z" class="prefix__cls-1" data-name="Path 17633" transform="translate(0 .404)"/>
            <path id="prefix__Path_17634" d="M42.467 13.082L39.49.3h-4.648c-1.438 0-2.508.134-3.11 1.539L22.77 21.782h6.454l1.2-3.58h7.625l.7 3.58h5.719zM35.645 8.2s1.137 5.053 1.4 6.458h-4.979c.468-1.2 2.374-6.324 2.374-6.324s.134-.335.268-.77c.034-.067.034-.1.067-.167.067-.167.134-.368.2-.535a6.051 6.051 0 0 0 .268-.7z" class="prefix__cls-1" data-name="Path 17634" transform="translate(30.717 .404)"/>
        </g>
        <path id="prefix__Path_17635" d="M17.531 24.591a2.509 2.509 0 0 1-2.57-2.653 2.465 2.465 0 0 1 2.57-2.652 2.394 2.394 0 0 1 2.488 2.514 3.1 3.1 0 0 1-.027.514H16.07a1.413 1.413 0 0 0 1.461 1.353 1.249 1.249 0 0 0 1.217-.731h1.136a2.329 2.329 0 0 1-2.353 1.655zm-1.461-3.112h2.84a1.349 1.349 0 0 0-1.434-1.3 1.408 1.408 0 0 0-1.406 1.3z" class="prefix__cls-1" data-name="Path 17635" transform="translate(10.511 20.975)"/>
    </g>
</svg>
