<svg xmlns="http://www.w3.org/2000/svg" id="prefix__Artboard" width="171.595" height="55.79" viewBox="0 0 171.595 55.79">
    <defs>
        <style>
            .prefix__cls-1{fill:#fff}
        </style>
    </defs>
    <g id="prefix___" data-name="">
        <g id="prefix__Group_2794" data-name="Group 2794">
            <path id="prefix__Path_17595" d="M38.038 18.692a5.258 5.258 0 0 1 3.764 1.53 4.942 4.942 0 0 1 1.594 3.7v26.651a4.942 4.942 0 0 1-1.594 3.7 5.258 5.258 0 0 1-3.764 1.527H6.156a5.258 5.258 0 0 1-3.764-1.528A4.942 4.942 0 0 1 .8 50.573V23.919a4.942 4.942 0 0 1 1.594-3.7 5.258 5.258 0 0 1 3.764-1.53h2.613v-5.353a13.047 13.047 0 0 1 1.785-6.686A13.248 13.248 0 0 1 15.4 1.795a13.452 13.452 0 0 1 13.39 0 13.248 13.248 0 0 1 4.848 4.855 13.063 13.063 0 0 1 1.784 6.7v5.347zm-7.716 0v-5.356a7.97 7.97 0 0 0-1.107-4.08 8.278 8.278 0 0 0-3.029-3.029 8.019 8.019 0 0 0-8.161 0 8.278 8.278 0 0 0-3.038 3.029 7.97 7.97 0 0 0-1.107 4.08v5.356zM22.1 42.6a5.314 5.314 0 0 0 3.764-9.117 5.236 5.236 0 0 0-7.528 0A5.356 5.356 0 0 0 22.1 42.6z" class="prefix__cls-1" data-name="Path 17595" transform="translate(-.798 -.01)"/>
        </g>
    </g>
    <circle id="prefix__Oval-Copy" cx="13.062" cy="13.062" r="13.062" transform="translate(12.664 28.779)" style="fill:#ffd500"/>
    <g id="prefix__check---material-copy" transform="translate(9.474 27.894)">
        <g id="prefix__Group_2795" data-name="Group 2795">
            <path id="prefix__Path_17596" d="M50.987 140.094L65.046 126l1.882 1.88-15.941 15.94-7.4-7.392 1.849-1.882z" data-name="Path 17596" transform="translate(-43.59 -126)" style="fill:#59b724"/>
        </g>
    </g>
    <g id="prefix__SECURE-SSL-ENCRYPTIO" transform="translate(48.854 17.114)">
        <g id="prefix__Group_2796" data-name="Group 2796">
            <path id="prefix__Path_17597" d="M224.394 93.379s2.584 2.358 5.451 2.358c1.149 0 2.391-.443 2.391-1.815 0-2.71-10.264-2.615-10.264-9.629 0-4.207 3.542-6.983 8.066-6.983a10.341 10.341 0 0 1 7.333 2.584l-2.36 4.559a8.7 8.7 0 0 0-5.037-2.008c-1.147 0-2.422.509-2.422 1.784 0 2.878 10.264 2.36 10.264 9.564 0 3.795-2.9 7.085-8.032 7.085a11.774 11.774 0 0 1-8.322-3.252z" class="prefix__cls-1" data-name="Path 17597" transform="translate(-221.46 -77.31)"/>
            <path id="prefix__Path_17598" d="M312.61 79h14.282v4.782h-8.7v4.145h6.952v4.8h-6.952v4.3h9.15v4.773H312.61z" class="prefix__cls-1" data-name="Path 17598" transform="translate(-292.43 -78.626)"/>
            <path id="prefix__Path_17599" d="M402.217 77.31a11.872 11.872 0 0 1 8.544 3.221l-2.581 4.207a9.563 9.563 0 0 0-5.708-2.329c-4.368 0-6.44 3.221-6.44 6.5 0 3.379 2.232 6.863 6.44 6.863 3.443 0 6.057-2.805 6.057-2.805l2.878 4.08a12.505 12.505 0 0 1-9.181 3.826c-7.142 0-11.955-5.07-11.955-11.829a11.585 11.585 0 0 1 11.946-11.734z" class="prefix__cls-1" data-name="Path 17599" transform="translate(-352.896 -77.31)"/>
            <path id="prefix__Path_17600" d="M499.52 79h5.58v14.411c0 2.391 1.563 3.666 3.954 3.666s3.952-1.275 3.952-3.666V79h5.579v14.411c0 5.132-3.764 8.767-9.5 8.767-5.8 0-9.564-3.635-9.564-8.767z" class="prefix__cls-1" data-name="Path 17600" transform="translate(-437.958 -78.626)"/>
            <path id="prefix__Path_17601" d="M608.39 79h7.937a11.751 11.751 0 0 1 4.428.542c2.581.987 4.207 3.321 4.207 6.642a6.939 6.939 0 0 1-3.41 6.217v.064a12.877 12.877 0 0 1 .859 1.37l4.428 7.97h-6.208l-4.049-7.683h-2.615v7.68h-5.577zm8 10.33a2.609 2.609 0 0 0 2.9-2.805c0-1.722-.638-2.743-3.443-2.743h-1.882v5.557z" class="prefix__cls-1" data-name="Path 17601" transform="translate(-522.725 -78.626)"/>
            <path id="prefix__Path_17602" d="M706.59 79h14.285v4.782h-8.705v4.145h6.952v4.8h-6.952v4.3h9.15v4.773h-14.73z" class="prefix__cls-1" data-name="Path 17602" transform="translate(-599.183 -78.626)"/>
        </g>
        <g id="prefix__Group_2797" data-name="Group 2797" transform="translate(1.736 27.369)">
            <path id="prefix__Path_17603" d="M230.622 208.185a4.259 4.259 0 0 0 2.46 1.065c.518 0 1.08-.2 1.08-.821 0-1.222-4.634-1.18-4.634-4.346 0-1.9 1.6-3.153 3.64-3.153a4.716 4.716 0 0 1 3.321 1.167l-1.065 2.059a3.924 3.924 0 0 0-2.274-.908c-.518 0-1.094.221-1.094.806 0 1.3 4.634 1.065 4.634 4.317 0 1.714-1.308 3.195-3.626 3.195a5.314 5.314 0 0 1-3.764-1.466z" class="prefix__cls-1" data-name="Path 17603" transform="translate(-229.3 -200.93)"/>
            <path id="prefix__Path_17604" d="M268.321 208.185a4.269 4.269 0 0 0 2.462 1.065c.518 0 1.08-.2 1.08-.821 0-1.222-4.636-1.18-4.636-4.346 0-1.9 1.6-3.153 3.642-3.153a4.671 4.671 0 0 1 3.31 1.167l-1.065 2.059a3.924 3.924 0 0 0-2.274-.908c-.518 0-1.094.221-1.094.806 0 1.3 4.634 1.065 4.634 4.317 0 1.714-1.308 3.195-3.626 3.195a5.314 5.314 0 0 1-3.764-1.468z" class="prefix__cls-1" data-name="Path 17604" transform="translate(-258.646 -200.93)"/>
            <path id="prefix__Path_17605" d="M308.13 201.72h2.517v8.13h4.207v2.159h-6.724z" class="prefix__cls-1" data-name="Path 17605" transform="translate(-290.677 -201.545)"/>
            <path id="prefix__Path_17606" d="M359.61 201.72h6.447v2.159h-3.925v1.871h3.137v2.159h-3.137v1.942h4.131v2.159h-6.642z" class="prefix__cls-1" data-name="Path 17606" transform="translate(-330.76 -201.545)"/>
            <path id="prefix__Path_17607" d="M397.83 201.72h2.546l2.849 4.807a18.271 18.271 0 0 1 .863 1.756h.029s-.115-1.107-.115-1.756v-4.807h2.52v10.288h-2.533l-2.865-4.791a18.55 18.55 0 0 1-.863-1.756h-.029s.115 1.107.115 1.756v4.791h-2.517z" class="prefix__cls-1" data-name="Path 17607" transform="translate(-360.518 -201.545)"/>
            <path id="prefix__Path_17608" d="M450.218 200.93a5.363 5.363 0 0 1 3.857 1.455l-1.167 1.9a4.319 4.319 0 0 0-2.575-1.049 2.779 2.779 0 0 0-2.907 2.936 2.932 2.932 0 0 0 2.907 3.1 4.233 4.233 0 0 0 2.734-1.272l1.3 1.842a5.65 5.65 0 0 1-4.145 1.727 5.162 5.162 0 0 1-5.4-5.338 5.238 5.238 0 0 1 5.396-5.301z" class="prefix__cls-1" data-name="Path 17608" transform="translate(-397.104 -200.93)"/>
            <path id="prefix__Path_17609" d="M494.8 201.72h3.587a5.267 5.267 0 0 1 1.993.244 2.99 2.99 0 0 1 1.9 2.993 3.123 3.123 0 0 1-1.55 2.807v.029a5.862 5.862 0 0 1 .39.618l1.993 3.6h-2.783l-1.829-3.467h-1.18v3.467H494.8zm3.613 4.663a1.177 1.177 0 0 0 1.311-1.266c0-.777-.288-1.238-1.55-1.238h-.85v2.5z" class="prefix__cls-1" data-name="Path 17609" transform="translate(-436.019 -201.545)"/>
            <path id="prefix__Path_17610" d="M535.966 207.793l-3.4-6.073h2.865l1.169 2.48c.332.7.62 1.481.62 1.481h.029s.288-.777.618-1.481l1.151-2.475h2.865l-3.4 6.073V212h-2.52z" class="prefix__cls-1" data-name="Path 17610" transform="translate(-465.427 -201.545)"/>
            <path id="prefix__Path_17611" d="M579.82 201.72h4.28a3.562 3.562 0 0 1 0 7.111h-1.756v3.179h-2.524zm3.764 4.95a1.25 1.25 0 0 0 1.311-1.41 1.226 1.226 0 0 0-1.266-1.382h-1.289v2.792z" class="prefix__cls-1" data-name="Path 17611" transform="translate(-502.216 -201.545)"/>
            <path id="prefix__Path_17612" d="M618.954 203.879h-3.124v-2.159h8.77v2.159h-3.124v8.13h-2.517z" class="prefix__cls-1" data-name="Path 17612" transform="translate(-530.253 -201.545)"/>
            <path id="prefix__Path_17613" d="M661.14 201.72h2.517v10.288h-2.517z" class="prefix__cls-1" data-name="Path 17613" transform="translate(-565.532 -201.545)"/>
            <path id="prefix__Path_17614" d="M685.632 200.93a5.211 5.211 0 0 1 5.382 5.254 5.382 5.382 0 1 1-10.764 0 5.206 5.206 0 0 1 5.382-5.254zm0 8.333a2.9 2.9 0 0 0 2.776-3.08 2.783 2.783 0 1 0-5.557 0 2.9 2.9 0 0 0 2.781 3.08z" class="prefix__cls-1" data-name="Path 17614" transform="translate(-580.411 -200.93)"/>
            <path id="prefix__Path_17615" d="M736.6 201.72h2.548l2.852 4.807a18.279 18.279 0 0 1 .863 1.756h.022s-.115-1.107-.115-1.756v-4.807h2.517v10.288h-2.531l-2.863-4.791a18.535 18.535 0 0 1-.863-1.756H739s.115 1.107.115 1.756v4.791H736.6z" class="prefix__cls-1" data-name="Path 17615" transform="translate(-624.285 -201.545)"/>
        </g>
    </g>
</svg>
