<?xml version="1.0" standalone="no"?>
<!DOCTYPE svg PUBLIC "-//W3C//DTD SVG 1.1//EN" "http://www.w3.org/Graphics/SVG/1.1/DTD/svg11.dtd" >
<svg>
<metadata>
Created by FontForge 20090914 at Fri Jun 26 22:21:11 2020
 By www-data
Copyright &#194;&#169; 2012 Christian Schwartz for Commercial Type.
</metadata>
<defs>
<font id="GraphikLCG-Black" horiz-adv-x="600" >
  <font-face 
    font-family="Graphik LCG"
    font-weight="900"
    font-stretch="normal"
    units-per-em="1000"
    panose-1="2 11 10 3 3 2 2 6 2 3"
    ascent="826"
    descent="-174"
    x-height="523"
    cap-height="715"
    bbox="-255 -233.002 1217 1142"
    underline-thickness="50"
    underline-position="-150"
    unicode-range="U+000D-U+FB02"
  />
<missing-glyph horiz-adv-x="523" 
 />
    <glyph glyph-name="f_f" unicode="ff" horiz-adv-x="731" 
d="M75 391l-64 -0.000976562v132h64v33c0 66 19 115.167 57 147.5s90 48.5 156 48.5c31.333 0 59 -3.66699 83 -11v-142c-14 4.66699 -28.667 7 -44 7c-36.667 0 -55 -17 -55 -51v-32h141v39c0 66 19.167 115.167 57.5 147.5s90.833 48.5 157.5 48.5
c30.667 0 59 -3.66699 85 -11v-141c-16 4 -31.667 6 -47 6c-18.667 0 -32.667 -4.66699 -42 -14s-14 -21.666 -14 -36.999v-38h102v-132h-102v-391h-197v391h-141v-391h-197v391z" />
    <glyph glyph-name=".notdef" horiz-adv-x="523" 
 />
    <glyph glyph-name="NULL" horiz-adv-x="0" 
 />
    <glyph glyph-name="NULL" horiz-adv-x="0" 
 />
    <glyph glyph-name="CR" unicode="&#xd;" horiz-adv-x="185" 
 />
    <glyph glyph-name="space" unicode=" " horiz-adv-x="185" 
 />
    <glyph glyph-name="exclam" unicode="!" horiz-adv-x="342" 
d="M171 -12c-31.333 0 -58.166 10.167 -80.499 30.5s-33.5 45.166 -33.5 74.499s11.167 54.333 33.5 75s49.166 31 80.499 31s58.333 -10.333 81 -31s34 -45.667 34 -75s-11.167 -54.166 -33.5 -74.499s-49.5 -30.5 -81.5 -30.5zM61 715h221l-29 -474h-164z" />
    <glyph glyph-name="quotedbl" unicode="&#x22;" horiz-adv-x="478" 
d="M37 715h183l-22 -281h-139zM258 715h183l-22 -281h-139z" />
    <glyph glyph-name="numbersign" unicode="#" horiz-adv-x="589" 
d="M294 234h-57l-20 -135h-130l20 135h-66v154h89l9 65h-75v146h97l18 116h130l-18 -116h56l18 116h131l-18 -116h70v-146h-92l-9 -65h78v-154h-101l-20 -135h-130zM260 388h56l10 65h-57z" />
    <glyph glyph-name="dollar" unicode="$" horiz-adv-x="651" 
d="M289 -10c-85.333 6 -150.67 29.665 -196.003 70.998s-69.666 96.666 -72.999 165.999h199c4.66699 -46.667 28 -75 70 -85v130c-91.333 12 -156.666 35.667 -195.999 71s-59 87.666 -59 156.999c0 62.667 22.833 114.334 68.5 155.001s107.834 63.667 186.501 69v89h81
v-90c155.333 -12.667 238.333 -86 249 -220h-195c-4 36 -22 58.667 -54 68v-123c85.333 -11.333 149.833 -33.166 193.5 -65.499s65.5 -83.166 65.5 -152.499c0 -66 -21.667 -121.167 -65 -165.5s-108 -69.166 -194 -74.499v-125h-81v125zM226.996 516.998
c0 -16 4.5 -28.333 13.5 -37s25.167 -15.667 48.5 -21v115c-41.333 -7.33301 -62 -26.333 -62 -57zM429.996 202.998c0 14.667 -4.5 26.168 -13.5 34.501s-24.5 15.166 -46.5 20.499v-118c40 8.66699 60 29.667 60 63z" />
    <glyph glyph-name="percent" unicode="%" horiz-adv-x="835" 
d="M218 472c34.667 0 52 24 52 72c0 47.333 -17.333 71 -52 71c-35.333 0 -53 -23.333 -53 -70c0 -48.667 17.667 -73 53 -73zM217 360c-60.667 0 -108.167 17.333 -142.5 52s-51.5 78.667 -51.5 132c0 51.333 18.5 94 55.5 128s83.5 51 139.5 51
c55.333 0 101.333 -16.5 138 -49.5s55 -75.167 55 -126.5c0 -54 -17.667 -98.667 -53 -134s-82.333 -53 -141 -53zM622 715h102l-508 -715h-101zM618 99c34.667 0 52 24 52 72c0 47.333 -17.333 71 -52 71c-35.333 0 -53 -23.333 -53 -70c0 -48.667 17.667 -73 53 -73z
M617 -13c-60 0 -107.168 17.167 -141.501 51.5s-51.5 78.5 -51.5 132.5c0 51.333 18.333 94 55 128s83 51 139 51s102.333 -16.333 139 -49s55 -75 55 -127c0 -54 -17.667 -98.667 -53 -134s-82.666 -53 -141.999 -53z" />
    <glyph glyph-name="ampersand" unicode="&#x26;" horiz-adv-x="777" 
d="M649 146l119.001 -146h-255l-37 46c-53.333 -39.333 -117.333 -59 -192 -59c-78.667 0 -141 19.333 -187 58s-69 92.667 -69 162c0 88.667 52 157.334 156 206.001c-26.667 39.333 -40 79.666 -40 120.999c0 60 22.833 106.833 68.5 140.5s103.167 50.5 172.5 50.5
c63.333 0 116.666 -14.833 159.999 -44.5s65 -71.5 65 -125.5c0 -76 -47.333 -134.667 -142 -176l79 -97l46 91h171zM321.001 145c22.667 0 41.668 7.33301 57.001 22l-105 127c-24 -18.667 -36 -40.667 -36 -66c0 -24.667 7.16699 -44.667 21.5 -60s35.166 -23 62.499 -23z
M335.002 531c0 -19.333 13 -43.668 39 -73.001c42.667 20.667 64 46.667 64 78c0 16 -4.33301 28.667 -13 38s-20.667 14 -36 14c-16 0 -29 -5.16699 -39 -15.5s-15 -24.166 -15 -41.499z" />
    <glyph glyph-name="quotesingle" unicode="'" horiz-adv-x="264" 
d="M37 715h190l-22 -281h-146z" />
    <glyph glyph-name="parenleft" unicode="(" horiz-adv-x="362" 
d="M202 -148c-111.333 135.333 -167 289.333 -167 462c0 172 55.667 325.667 167 461h150c-86.667 -143.333 -130 -297 -130 -461c0 -168 43.333 -322 130 -462h-150z" />
    <glyph glyph-name="parenright" unicode=")" horiz-adv-x="362" 
d="M10 -148c86.667 140 130 293.667 130 461c0 165.333 -43.333 319.333 -130 462h150c111.333 -135.333 167 -289.333 167 -462c0 -172 -55.667 -325.667 -167 -461h-150z" />
    <glyph glyph-name="asterisk" unicode="*" horiz-adv-x="444" 
d="M52 446l90 86l-116 10l37 134l108 -54l-26 121h154l-26 -121l108 54l36 -134l-116 -10l90 -86l-117 -83l-53 114l-52 -114z" />
    <glyph glyph-name="plus" unicode="+" horiz-adv-x="579" 
d="M211 269h-173v142h173v189h157v-189h174v-142h-174v-190h-157v190z" />
    <glyph glyph-name="comma" unicode="," horiz-adv-x="311" 
d="M13 -79l81 272l182 -63l-148 -252z" />
    <glyph glyph-name="hyphen" unicode="-" horiz-adv-x="390" 
d="M49 360h292v-146h-292v146z" />
    <glyph glyph-name="period" unicode="." horiz-adv-x="302" 
d="M150 -12c-31.333 0 -57.5 10.5 -78.5 31.5s-31.5 46.5 -31.5 76.5s10.333 55.333 31 76s47 31 79 31s58.667 -10.333 80 -31s32 -46 32 -76s-10.667 -55.5 -32 -76.5s-48 -31.5 -80 -31.5z" />
    <glyph glyph-name="slash" unicode="/" horiz-adv-x="440" 
d="M292 776h155l-322 -924h-155z" />
    <glyph glyph-name="zero" unicode="0" horiz-adv-x="741" 
d="M373 162c39.333 0 67.667 14.6689 85 44.002s26 75.666 26 138.999v26c0 63.333 -9 109.666 -27 138.999s-46.667 44 -86 44c-40 0 -69 -14.5 -87 -43.5s-27 -75.167 -27 -138.5v-28c0 -63.333 9 -109.5 27 -138.5s47.667 -43.5 89 -43.5zM366.001 -12.998
c-104 0 -185.666 31.167 -244.999 93.5s-89 149.833 -89 262.5v28c0 110.667 31.667 197.5 95 260.5s144.333 94.5 243 94.5c99.333 0 180.666 -30 243.999 -90s95 -146.667 95 -260v-27c0 -114 -30.833 -202.833 -92.5 -266.5s-145.167 -95.5 -250.5 -95.5z" />
    <glyph glyph-name="one" unicode="1" horiz-adv-x="459" 
d="M163 492l-132 -79v188l164 114h195v-715h-227v492z" />
    <glyph glyph-name="two" unicode="2" horiz-adv-x="626" 
d="M7 31l243.001 258.003c41.333 44 71.666 80.667 90.999 110s29 58 29 86c0 21.333 -5.5 38.5 -16.5 51.5s-27.167 19.5 -48.5 19.5c-24 0 -42.667 -8.33301 -56 -25s-22.333 -44.334 -27 -83.001h-204c3.33301 92 30.833 161.333 82.5 208s123.5 70 215.5 70
c88.667 0 157 -21.333 205 -64s72 -98.334 72 -167.001c0 -46.667 -11.167 -89.334 -33.5 -128.001s-55.5 -78.667 -99.5 -120l-82 -79h221v-168h-592v31z" />
    <glyph glyph-name="three" unicode="3" horiz-adv-x="661" 
d="M333 -13c-197.333 0 -299.668 84.332 -307.001 252.999h201c2.66699 -30 11 -52.667 25 -68s36.333 -23 67 -23c54 0 81 24 81 72c0 48.667 -28 73 -84 73h-57v137h54c58 0 87 24 87 72c0 19.333 -6.16699 34.5 -18.5 45.5s-30.166 16.5 -53.499 16.5
c-48 0 -76 -28 -84 -84h-200c6 76 33.167 135.833 81.5 179.5s117.833 65.5 208.5 65.5c87.333 0 155.5 -17.5 204.5 -52.5s73.5 -83.5 73.5 -145.5c0 -78 -41 -129.333 -123 -154c42.667 -7.33301 76.667 -25.166 102 -53.499s38 -63.5 38 -105.5
c0 -70 -25.5 -125.5 -76.5 -166.5s-124.167 -61.5 -219.5 -61.5z" />
    <glyph glyph-name="four" unicode="4" horiz-adv-x="689" 
d="M360 134h-346v86l294 495h270v-426h90v-155h-90v-134h-218v134zM366 289v255l-144 -255h144z" />
    <glyph glyph-name="five" unicode="5" horiz-adv-x="639" 
d="M311 -13c-94 0 -165.169 22.3311 -213.502 66.998s-73.166 103.334 -74.499 176.001h205c2.66699 -24 10 -42.167 22 -54.5s32 -18.5 60 -18.5c24.667 0 42.834 8.16699 54.501 24.5s17.5 37.5 17.5 63.5c0 28.667 -7.33301 50.834 -22 66.501s-36 23.5 -64 23.5
c-48.667 0 -85 -16 -109 -48h-139l18 428h497v-164h-335l-5 -146c36 53.333 93 80 171 80c66.667 0 119.167 -21.333 157.5 -64s57.5 -102.667 57.5 -180s-26.333 -139 -79 -185s-125.667 -69 -219 -69z" />
    <glyph glyph-name="six" unicode="6" horiz-adv-x="685" 
d="M358 -13c-112.667 0 -195.165 31.499 -247.498 94.499s-78.5 149.833 -78.5 260.5v19c0 111.333 31 200 93 266s140.333 99 235 99c173.333 0 267.666 -73 282.999 -219h-208c-2.66699 17.333 -8.66699 30.333 -18 39s-25 13 -47 13c-72 0 -110 -57 -114 -171
c18 26.667 39.333 46.834 64 60.501s58 20.5 100 20.5c68 0 124.667 -19.667 170 -59s68 -96 68 -170c0 -76 -26.833 -137.167 -80.5 -183.5s-126.834 -69.5 -219.501 -69.5zM354.002 145.999c25.333 0 45.668 8.66699 61.001 26s23 39.666 23 66.999
c0 26.667 -7.5 48.5 -22.5 65.5s-35.167 25.5 -60.5 25.5s-45.833 -8.66699 -61.5 -26s-23.5 -39 -23.5 -65c0 -27.333 7.66699 -49.666 23 -66.999s35.666 -26 60.999 -26z" />
    <glyph glyph-name="seven" unicode="7" horiz-adv-x="586" 
d="M297 531h-274v184h557v-23l-244 -692h-231z" />
    <glyph glyph-name="eight" unicode="8" horiz-adv-x="666" 
d="M333 -13c-96.667 0 -172.168 18.5 -226.501 55.5s-81.5 89.833 -81.5 158.5c0 86 43.333 144.333 130 175c-66.667 28.667 -100 77.334 -100 146.001c0 63.333 26.5 113.166 79.5 149.499s119.833 54.5 200.5 54.5c82.667 0 149.834 -17.833 201.501 -53.5
s77.5 -85.167 77.5 -148.5c0 -68.667 -33.333 -117.667 -100 -147c84.667 -30 127 -86.667 127 -170c0 -68.667 -27.333 -122.5 -82 -161.5s-130 -58.5 -226 -58.5zM333.999 145c26 0 46.833 7.16699 62.5 21.5s23.5 34.166 23.5 59.499c0 24.667 -7.83301 44.5 -23.5 59.5
s-36.5 22.5 -62.5 22.5s-47 -7.33301 -63 -22s-24 -34.667 -24 -60s8 -45.166 24 -59.499s37 -21.5 63 -21.5zM334.999 431c22 0 40.333 6.66699 55 20s22 30.666 22 51.999s-7.33301 38.666 -22 51.999s-33 20 -55 20c-21.333 0 -39.333 -6.66699 -54 -20
s-22 -30.666 -22 -51.999s7.33301 -38.666 22 -51.999s32.667 -20 54 -20z" />
    <glyph glyph-name="nine" unicode="9" horiz-adv-x="685" 
d="M327 -12c-87.333 0 -155.834 18.833 -205.501 56.5s-77.834 91.834 -84.501 162.501h207c5.33301 -34.667 29 -52 71 -52c38.667 0 66.834 13.833 84.501 41.5s27.167 70.167 28.5 127.5c-18 -27.333 -38.5 -47.833 -61.5 -61.5s-55.167 -20.5 -96.5 -20.5
c-72 0 -130.5 19.667 -175.5 59s-67.5 96.333 -67.5 171c0 76 27.167 137.5 81.5 184.5s127.833 70.5 220.5 70.5c106.667 0 187.334 -32.5 242.001 -97.5s82 -151.167 82 -258.5v-20c0 -116.667 -28 -206.334 -84 -269.001s-136.667 -94 -242 -94zM325.999 385
c25.333 0 46 8.50195 62 25.502s24 38.5 24 64.5c0 27.333 -7.83301 49.666 -23.5 66.999s-36.5 26 -62.5 26c-25.333 0 -45.666 -8.83301 -60.999 -26.5s-23 -39.834 -23 -66.501c0 -26 7.66699 -47.5 23 -64.5s35.666 -25.5 60.999 -25.5z" />
    <glyph glyph-name="colon" unicode=":" horiz-adv-x="308" 
d="M152 -12c-32 0 -58.167 10.333 -78.5 31s-30.5 46.334 -30.5 77.001s10.167 56.167 30.5 76.5s46.5 30.5 78.5 30.5s58.833 -10.333 80.5 -31s32.5 -46 32.5 -76c0 -30.667 -10.667 -56.334 -32 -77.001s-48.333 -31 -81 -31zM152 272c-32 0 -58.167 10.332 -78.5 30.999
s-30.5 46 -30.5 76c0 30.667 10.333 56.334 31 77.001s46.667 31 78 31c32 0 58.833 -10.5 80.5 -31.5s32.5 -46.5 32.5 -76.5s-10.833 -55.333 -32.5 -76s-48.5 -31 -80.5 -31z" />
    <glyph glyph-name="semicolon" unicode=";" horiz-adv-x="326" 
d="M8 -79l81 272l182 -63l-148 -252zM178 272c-31.333 0 -57.5 10.333 -78.5 31s-31.5 46 -31.5 76s10.5 55.5 31.5 76.5s47.167 31.5 78.5 31.5c32 0 58.667 -10.5 80 -31.5s32 -46.5 32 -76.5s-10.667 -55.333 -32 -76s-48 -31 -80 -31z" />
    <glyph glyph-name="less" unicode="&#x3c;" horiz-adv-x="514" 
d="M40 304v37l428 251v-178l-177 -90l177 -99v-172z" />
    <glyph glyph-name="equal" unicode="=" horiz-adv-x="570" 
d="M38 293h493v-131h-493v131zM38 492h493v-131h-493v131z" />
    <glyph glyph-name="greater" unicode="&#x3e;" horiz-adv-x="514" 
d="M46 231l177 91l-177 99v172l428 -252v-36l-428 -251v177z" />
    <glyph glyph-name="question" unicode="?" horiz-adv-x="569" 
d="M167 254c0 23.333 5.83398 46.3271 17.501 68.9941s22.5 39.334 32.5 50.001s25.667 26.334 47 47.001c14.667 13.333 25.667 23.833 33 31.5s14.333 17.334 21 29.001s10 22.834 10 33.501c0 34.667 -17.667 52 -53 52c-38.667 0 -61.667 -26.667 -69 -80h-192
c2.66699 76.667 29 135.834 79 177.501s116 62.5 198 62.5c80 0 141.833 -16.667 185.5 -50s65.5 -81 65.5 -143c0 -52.667 -22.667 -101.667 -68 -147c-9.33301 -9.33301 -22 -21.166 -38 -35.499l-38 -34.5c-9.33301 -8.66699 -18.333 -19.167 -27 -31.5
s-14.334 -23.833 -17.001 -34.5v-9h-187v13zM261.001 -12.0059c-32.667 0 -60.167 10.167 -82.5 30.5s-33.5 45.166 -33.5 74.499s11.167 54.333 33.5 75s49.833 31 82.5 31c31.333 0 58.166 -10.333 80.499 -31s33.5 -45.667 33.5 -75s-11.167 -54.166 -33.5 -74.499
s-49.166 -30.5 -80.499 -30.5z" />
    <glyph glyph-name="at" unicode="@" horiz-adv-x="922" 
d="M461 -160c-132.667 0 -238.334 38.833 -317.001 116.5s-118 175.5 -118 293.5c0 86 21.5 163.167 64.5 231.5s98.833 120.333 167.5 156s142.667 53.5 222 53.5c120.667 0 220.167 -33.333 298.5 -100s117.5 -154.667 117.5 -264c0 -93.333 -21.333 -162.833 -64 -208.5
s-95 -68.5 -157 -68.5c-86 0 -137 26.667 -153 80c-26 -54.667 -69.667 -82 -131 -82c-50 0 -89.833 16.833 -119.5 50.5s-44.5 79.5 -44.5 137.5c0 70 19 126.667 57 170s85 65 141 65c53.333 0 89 -19 107 -57l7 49h159l-34 -276c-7.33301 -42.667 6.66699 -64 42 -64
c30.667 0 56.334 17.167 77.001 51.5s31 86.166 31 155.499c0 86.667 -30.333 156.834 -91 210.501s-141 80.5 -241 80.5c-105.333 0 -193.333 -34.167 -264 -102.5s-106 -158.5 -106 -270.5c0 -100 30.5 -181.333 91.5 -244s147.833 -94 260.5 -94
c55.333 0 106.166 8.5 152.499 25.5s82.5 38.5 108.5 64.5h94c-35.333 -48.667 -84.666 -87.5 -147.999 -116.5s-133.333 -43.5 -210 -43.5zM444 175c20.667 0 37.833 10.168 51.5 30.501s20.5 46.5 20.5 78.5c0 42 -19.333 63 -58 63c-20.667 0 -37.167 -9.66699 -49.5 -29
s-18.5 -44 -18.5 -74c0 -20.667 4.5 -37.334 13.5 -50.001s22.5 -19 40.5 -19z" />
    <glyph glyph-name="A" unicode="A" horiz-adv-x="760" 
d="M234 715h293l224 -715h-240l-33 119h-226l-32 -119h-211zM295 273h141l-70 259z" />
    <glyph glyph-name="B" unicode="B" horiz-adv-x="690" 
d="M65 715l338 -0.000976562c83.333 0 144.833 -17 184.5 -51s59.5 -79.333 59.5 -136v-4c0 -83.333 -41.333 -134.666 -124 -153.999c44 -8 78.833 -25.833 104.5 -53.5s38.5 -65.5 38.5 -113.5v-4c0 -132.667 -88.333 -199 -265 -199h-336v715zM358 148.999
c56.667 0 85 25 85 75v4c0 48.667 -30 73 -90 73h-67v-152h72zM355 435.999c28 0 48 5 60 15s18 26 18 48v4c0 42.667 -26.333 64 -79 64h-68v-131h69z" />
    <glyph glyph-name="C" unicode="C" horiz-adv-x="764" 
d="M408 -13c-126 0 -220.833 32.668 -284.5 98.001s-95.5 154.666 -95.5 267.999v8c0 109.333 34.833 197.5 104.5 264.5s158.167 100.5 265.5 100.5c99.333 0 178.833 -23.5 238.5 -70.5s93.5 -117.5 101.5 -211.5h-234c-7.33301 68.667 -42.333 103 -105 103
c-42 0 -74.5 -15.833 -97.5 -47.5s-34.5 -77.5 -34.5 -137.5v-8c0 -60 11.667 -105.833 35 -137.5s57 -47.5 101 -47.5c70.667 0 110 35 118 105h226c-6.66699 -92 -40.5 -162.833 -101.5 -212.5s-140.167 -74.5 -237.5 -74.5z" />
    <glyph glyph-name="D" unicode="D" horiz-adv-x="751" 
d="M330 174c56 0 96.332 14.332 120.999 42.999s37 74.334 37 137.001v8c0 64.667 -12.667 110.667 -38 138s-65.666 41 -120.999 41h-37v-367h38zM64.999 714.999h273c128 0 224.333 -29.5 289 -88.5s97 -145.833 97 -260.5v-7c0 -115.333 -32.833 -204 -98.5 -266
s-161.5 -93 -287.5 -93h-273v715z" />
    <glyph glyph-name="E" unicode="E" horiz-adv-x="620" 
d="M65 715h508v-174h-282v-101h224v-159h-224v-107h298v-174h-524v715z" />
    <glyph glyph-name="F" unicode="F" horiz-adv-x="585" 
d="M65 715h495v-175h-268v-133h216v-167h-216v-240h-227v715z" />
    <glyph glyph-name="G" unicode="G" horiz-adv-x="791" 
d="M407 -13c-121.333 0 -215.002 33.3311 -281.002 99.998s-99 155.334 -99 266.001v8c0 108.667 36 196.667 108 264s162.667 101 272 101c60.667 0 115 -9 163 -27s88.5 -47.667 121.5 -89s51.5 -92.666 55.5 -153.999h-224c-8 61.333 -46.333 92 -115 92
c-45.333 0 -80.833 -16.667 -106.5 -50s-38.5 -80.333 -38.5 -141v-8c0 -126.667 50.333 -190 151 -190c42 0 73.333 8.5 94 25.5s32.334 38.833 35.001 65.5h-122v149h343v-92c0 -93.333 -30.667 -170 -92 -230s-149.666 -90 -264.999 -90z" />
    <glyph glyph-name="H" unicode="H" horiz-adv-x="794" 
d="M65 715h227v-264h210v264h227v-715h-227v275h-210v-275h-227v715z" />
    <glyph glyph-name="I" unicode="I" horiz-adv-x="366" 
d="M68 715h229v-715h-229v715z" />
    <glyph glyph-name="J" unicode="J" horiz-adv-x="489" 
d="M168 -9c-56 0 -101.333 8.33301 -136 25v167c28.667 -8.66699 57 -13 85 -13c60 0 90 31 90 93v452h227v-453c0 -180.667 -88.667 -271 -266 -271z" />
    <glyph glyph-name="K" unicode="K" horiz-adv-x="745" 
d="M65 715h227v-271l198 271h235l-251 -330l265 -385h-261l-186 286v-286h-227v715z" />
    <glyph glyph-name="L" unicode="L" horiz-adv-x="582" 
d="M65 715h227v-540h260v-175h-487v715z" />
    <glyph glyph-name="M" unicode="M" horiz-adv-x="958" 
d="M65 715h294l121 -347l123 347h288v-715h-225v422l-163 -422h-76l-160 422v-422h-202v715z" />
    <glyph glyph-name="N" unicode="N" horiz-adv-x="787" 
d="M65 715h254l203 -378v378h199v-715h-217l-239 428v-428h-200v715z" />
    <glyph glyph-name="O" unicode="O" horiz-adv-x="820" 
d="M411 165c44.667 0 80.167 16.6689 106.5 50.002s39.5 79.666 39.5 138.999v8c0 60 -13.167 106.167 -39.5 138.5s-62.5 48.5 -108.5 48.5c-44.667 0 -80 -16 -106 -48s-39 -78.333 -39 -139v-8c0 -60.667 13 -107.334 39 -140.001s62 -49 108 -49zM405 -12.998
c-116 0 -208.001 33.5 -276.001 100.5s-102 155.5 -102 265.5v8c0 108.667 36.333 196.667 109 264s163.667 101 273 101c112.667 0 204.834 -32.167 276.501 -96.5s107.5 -151.833 107.5 -262.5v-8c0 -112 -35.333 -202 -106 -270s-164.667 -102 -282 -102z" />
    <glyph glyph-name="P" unicode="P" horiz-adv-x="664" 
d="M65 715h285c196 0 294 -81.667 294 -245v-4c0 -75.333 -24.167 -133 -72.5 -173s-118.833 -60 -211.5 -60h-69v-233h-226v715zM338 385c60.667 0 91.001 26.667 91.001 80v4c0 27.333 -7.33301 47 -22 59s-37.334 18 -68.001 18h-48v-161h47z" />
    <glyph glyph-name="Q" unicode="Q" horiz-adv-x="820" 
d="M487 -6c-31.333 -4.66699 -58.667 -7 -82 -7c-116 0 -208 33.5 -276 100.5s-102 155.5 -102 265.5v8c0 108 36.333 195.667 109 263s163.667 101 273 101c112.667 0 205 -32 277 -96s108 -151.333 108 -262v-8c0 -126.667 -44 -224 -132 -292l67 -67l-124 -126z
M262.999 354c0 -97.333 30 -158.333 90 -183l110 98l55 -57c26 34 39 81.667 39 143v8c0 60 -13.167 106 -39.5 138s-62.5 48 -108.5 48c-45.333 0 -81 -16 -107 -48s-39 -78.333 -39 -139v-8z" />
    <glyph glyph-name="R" unicode="R" horiz-adv-x="710" 
d="M65 715h292c199.333 0 299 -77.333 299 -232v-4c0 -88 -40.333 -150.333 -121 -187l163 -292h-238l-133 245h-36v-245h-226v715zM344 391c62 0 93 26.001 93 78.001v4c0 25.333 -7.5 43.666 -22.5 54.999s-38.167 17 -69.5 17h-54v-154h53z" />
    <glyph glyph-name="S" unicode="S" horiz-adv-x="653" 
d="M334 -13c-204.667 0 -309.668 80.666 -315.001 241.999h215c3.33301 -54.667 36.666 -82 99.999 -82c26 0 45.667 5.33301 59 16s20 25 20 43s-7.16699 31.333 -21.5 40s-41.166 15.667 -80.499 21c-103.333 12 -175.166 34.833 -215.499 68.5s-60.5 87.5 -60.5 161.5
c0 67.333 25.667 122.166 77 164.499s121 63.5 209 63.5c180.667 0 276.667 -76 288 -228h-210c-5.33301 46 -31.333 69 -78 69c-22.667 0 -40.167 -4.66699 -52.5 -14s-18.5 -22 -18.5 -38c0 -18 6.83301 -31.167 20.5 -39.5s40.167 -15.166 79.5 -20.499
c96.667 -10 167.5 -31 212.5 -63s67.5 -85.667 67.5 -161c0 -69.333 -26.333 -127.166 -79 -173.499s-125 -69.5 -217 -69.5z" />
    <glyph glyph-name="T" unicode="T" horiz-adv-x="629" 
d="M200 541h-180v174h589v-174h-181v-541h-228v541z" />
    <glyph glyph-name="U" unicode="U" horiz-adv-x="776" 
d="M388 -13c-106 0 -187 25.833 -243 77.5s-84 128.5 -84 230.5v420h226v-411c0 -49.333 7.16699 -84.833 21.5 -106.5s40.833 -32.5 79.5 -32.5s65 10.833 79 32.5s21 57.5 21 107.5v410h228v-418c0 -104.667 -28.833 -182.5 -86.5 -233.5s-138.167 -76.5 -241.5 -76.5z
" />
    <glyph glyph-name="V" unicode="V" horiz-adv-x="741" 
d="M9 715h245l133 -479l133 479h212l-231 -715h-256z" />
    <glyph glyph-name="W" unicode="W" horiz-adv-x="1009" 
d="M10 715h229l82 -427l86 427h197l97 -432l87 432h210l-166 -715h-229l-100 427l-101 -427h-226z" />
    <glyph glyph-name="X" unicode="X" horiz-adv-x="772" 
d="M236 368l-202 347h259l100 -201l98 201h232l-187 -339l219 -376h-258l-123 235l-123 -235h-233z" />
    <glyph glyph-name="Y" unicode="Y" horiz-adv-x="692" 
d="M237 305l-232 410h246l109 -224l110 224h217l-222 -409v-306h-228v305z" />
    <glyph glyph-name="Z" unicode="Z" horiz-adv-x="627" 
d="M10 24l286 521h-246v170h563v-24l-283 -520h266v-171h-586v24z" />
    <glyph glyph-name="bracketleft" unicode="[" horiz-adv-x="419" 
d="M61 776h321v-142h-122v-640h122v-142h-321v924z" />
    <glyph glyph-name="backslash" unicode="\" horiz-adv-x="440" 
d="M-7 776h154l323 -924h-155z" />
    <glyph glyph-name="bracketright" unicode="]" horiz-adv-x="419" 
d="M38 -6h120v640h-120v142h319v-924h-319v142z" />
    <glyph glyph-name="asciicircum" unicode="^" horiz-adv-x="535" 
d="M183 715h169l164 -324h-166l-84 165l-85 -165h-162z" />
    <glyph glyph-name="underscore" unicode="_" horiz-adv-x="441" 
d="M-1 -72h443v-89h-443v89z" />
    <glyph glyph-name="grave" unicode="`" horiz-adv-x="400" 
d="M32 747h193l52 -169h-141z" />
    <glyph glyph-name="a" unicode="a" horiz-adv-x="585" 
d="M198 -13c-51.333 0 -93.834 13.167 -127.501 39.5s-50.5 65.833 -50.5 118.5c0 60 23.5 103.5 70.5 130.5s117.167 40.5 210.5 40.5h45v9c0 25.333 -4 44.333 -12 57s-24.333 19 -49 19c-37.333 0 -58 -18.667 -62 -56h-184c4 62.667 28.833 110.5 74.5 143.5
s106.834 49.5 183.501 49.5c78 0 138.167 -16.667 180.5 -50s63.5 -83.333 63.5 -150v-338h-190v60c-27.333 -48.667 -78.333 -73 -153 -73zM268.999 119c22.667 0 41.166 5.83301 55.499 17.5s21.5 27.167 21.5 46.5v27h-42c-33.333 0 -56.666 -3.66699 -69.999 -11
s-20 -20.333 -20 -39c0 -27.333 18.333 -41 55 -41z" />
    <glyph glyph-name="b" unicode="b" horiz-adv-x="646" 
d="M403 -13c-76 0 -128.998 30.999 -158.998 92.999v-80h-197v750h197v-303c35.333 60 88.666 90 159.999 90c63.333 0 115.666 -23.5 156.999 -70.5s62 -114.167 62 -201.5v-8c0 -87.333 -20.667 -154.166 -62 -200.499s-94 -69.5 -158 -69.5zM331.002 136.999
c61.333 0 92 40.667 92 122v8c0 82.667 -31 124 -93 124c-29.333 0 -51.833 -10.667 -67.5 -32s-23.5 -52 -23.5 -92v-8c0 -81.333 30.667 -122 92 -122z" />
    <glyph glyph-name="c" unicode="c" horiz-adv-x="586" 
d="M300 -13c-82 0 -148.83 23 -200.497 69s-77.5 112 -77.5 198v8c0 86 26.667 153.333 80 202s121 73 203 73c72.667 0 133.167 -17.5 181.5 -52.5s75.166 -90.833 80.499 -167.5h-185c-4 23.333 -11.333 40.666 -22 51.999s-27.334 17 -50.001 17
c-58.667 0 -88 -40 -88 -120v-8c0 -85.333 30.333 -128 91 -128c22.667 0 41 6.83301 55 20.5s22.333 33.167 25 58.5h177c-2.66699 -69.333 -26.834 -123.666 -72.501 -162.999s-111.5 -59 -197.5 -59z" />
    <glyph glyph-name="d" unicode="d" horiz-adv-x="645" 
d="M241 -13c-62.667 0 -114.666 23.001 -155.999 69.001s-62 112.667 -62 200v8c0 87.333 20.667 154.666 62 201.999s93.333 71 156 71c75.333 0 128.666 -28.667 159.999 -86v299h197v-750h-197v84c-32 -64.667 -85.333 -97 -160 -97zM314.001 137.001
c61.333 0 92 41 92 123v8c0 82 -30.333 123 -91 123c-61.333 0 -92 -41.333 -92 -124v-8c0 -81.333 30.333 -122 91 -122z" />
    <glyph glyph-name="e" unicode="e" horiz-adv-x="604" 
d="M311 -13c-86 0 -155.832 23.667 -209.499 71s-80.5 113 -80.5 197v8c0 83.333 27.667 150 83 200s124.333 75 207 75c78.667 0 143.667 -23 195 -69s77 -113.667 77 -203v-48h-363c2.66699 -31.333 12.5 -55.333 29.5 -72s39.833 -25 68.5 -25c46 0 73.333 18.667 82 56
h184c-8 -61.333 -34.833 -108.333 -80.5 -141s-109.834 -49 -192.501 -49zM393.001 321c-3.33301 60 -30.666 89.999 -81.999 89.999c-24.667 0 -44.834 -7.66699 -60.501 -23s-25.5 -37.666 -29.5 -66.999h172z" />
    <glyph glyph-name="f" unicode="f" horiz-adv-x="393" 
d="M75 391l-64 -0.000976562v132h64v39c0 66 19.167 115.167 57.5 147.5s90.833 48.5 157.5 48.5c30.667 0 59 -3.66699 85 -11v-141c-16 4 -31.667 6 -47 6c-18.667 0 -32.667 -4.66699 -42 -14s-14 -21.666 -14 -36.999v-38h102v-132h-102v-391h-197v391z" />
    <glyph glyph-name="g" unicode="g" horiz-adv-x="644" 
d="M299 -194c-172.667 0 -265.999 66 -279.999 198h195c4.66699 -19.333 13.167 -34.5 25.5 -45.5s32.5 -16.5 60.5 -16.5c66.667 0 100 33.333 100 100v81c-32.667 -61.333 -85.667 -92 -159 -92c-62.667 0 -114.834 21.833 -156.501 65.5s-62.5 104.5 -62.5 182.5v8
c0 76 21 136.833 63 182.5s93.667 68.5 155 68.5c74.667 0 128 -29 160 -87v72h197v-478c0 -78.667 -25.167 -138.167 -75.5 -178.5s-124.5 -60.5 -222.5 -60.5zM314.001 171c29.333 0 52 9.5 68 28.5s24 45.5 24 79.5v7c0 32.667 -8 58.5 -24 77.5s-38.667 28.5 -68 28.5
c-30 0 -52.833 -9.33301 -68.5 -28s-23.5 -45 -23.5 -79v-8c0 -32.667 8 -58.5 24 -77.5s38.667 -28.5 68 -28.5z" />
    <glyph glyph-name="h" unicode="h" horiz-adv-x="629" 
d="M47 750h197.001v-311c34 65.333 91.667 98 173 98c51.333 0 92.166 -16.333 122.499 -49s45.5 -80.667 45.5 -144v-344h-197v300c0 53.333 -22 80 -66 80c-52 0 -78 -30.333 -78 -91v-289h-197v750z" />
    <glyph glyph-name="i" unicode="i" horiz-adv-x="303" 
d="M53 523h196v-523h-196v523zM151 562c-30.667 0 -56.167 9.33301 -76.5 28s-30.5 42.334 -30.5 71.001c0 29.333 10.167 53.333 30.5 72s45.833 28 76.5 28c30 0 55.167 -9.33301 75.5 -28s30.5 -42.667 30.5 -72c0 -28.667 -10.167 -52.334 -30.5 -71.001
s-45.5 -28 -75.5 -28z" />
    <glyph glyph-name="j" unicode="j" horiz-adv-x="303" 
d="M-9 -42c22 1.33301 37.667 6.33301 47 15s14 23 14 43v507h197v-512c0 -63.333 -19 -111.5 -57 -144.5s-105 -49.5 -201 -49.5v141zM151 562c-30.667 0 -56.167 9.33301 -76.5 28s-30.5 42.334 -30.5 71.001c0 29.333 10.167 53.333 30.5 72s45.833 28 76.5 28
c30 0 55.167 -9.33301 75.5 -28s30.5 -42.667 30.5 -72c0 -28.667 -10.167 -52.334 -30.5 -71.001s-45.5 -28 -75.5 -28z" />
    <glyph glyph-name="k" unicode="k" horiz-adv-x="589" 
d="M47 750h197v-425l127 198h202l-161 -234l174 -289h-218l-124 218v-218h-197v750z" />
    <glyph glyph-name="l" unicode="l" horiz-adv-x="300" 
d="M52 750h196v-750h-196v750z" />
    <glyph glyph-name="m" unicode="m" horiz-adv-x="935" 
d="M47 523h196.999v-80c16 28 38 50.667 66 68s61 26 99 26c68.667 0 115.334 -28 140.001 -84c44 56 101.333 84 172 84c51.333 0 92.5 -16.5 123.5 -49.5s46.5 -80.5 46.5 -142.5v-345h-196v309c0 46.667 -19.667 70 -59 70c-22 0 -39 -6.83301 -51 -20.5
s-18 -33.167 -18 -58.5v-300h-195v309c0 22.667 -5.16699 40 -15.5 52s-24.5 18 -42.5 18c-46.667 0 -70 -26.333 -70 -79v-300h-197v523z" />
    <glyph glyph-name="n" unicode="n" horiz-adv-x="629" 
d="M47 523h197.001v-84c34 65.333 91.667 98 173 98c51.333 0 92.166 -16.333 122.499 -49s45.5 -80.667 45.5 -144v-344h-197v300c0 53.333 -22 80 -66 80c-52 0 -78 -30.333 -78 -91v-289h-197v523z" />
    <glyph glyph-name="o" unicode="o" horiz-adv-x="626" 
d="M314 132c60 0 90 42.333 90 127v7c0 84 -30 126 -90 126c-62 0 -93 -41 -93 -123v-8c0 -86 31 -129 93 -129zM313 -13c-84.667 0 -154.333 23.833 -209 71.5s-82 113.167 -82 196.5v8c0 83.333 27.5 149.833 82.5 199.5s124.833 74.5 209.5 74.5
c84 0 153.333 -24.333 208 -73s82 -114 82 -196v-8c0 -84 -27.5 -150.5 -82.5 -199.5s-124.5 -73.5 -208.5 -73.5z" />
    <glyph glyph-name="p" unicode="p" horiz-adv-x="646" 
d="M47 523l197.002 -0.000976562v-76c35.333 60 88.666 90 159.999 90c63.333 0 115.666 -23.5 156.999 -70.5s62 -114.167 62 -201.5v-8c0 -87.333 -20.667 -154.166 -62 -200.499s-94 -69.5 -158 -69.5c-74.667 0 -127.667 29.333 -159 88v-249h-197v697zM331.002 136.999
c61.333 0 92 40.667 92 122v8c0 82.667 -31 124 -93 124c-29.333 0 -51.833 -10.667 -67.5 -32s-23.5 -52 -23.5 -92v-8c0 -81.333 30.667 -122 92 -122z" />
    <glyph glyph-name="q" unicode="q" horiz-adv-x="645" 
d="M401 79c-34 -61.333 -87.332 -91.999 -159.999 -91.999c-62.667 0 -114.667 23 -156 69s-62 112.667 -62 200v8c0 87.333 20.667 154.666 62 201.999s93.333 71 156 71c75.333 0 128.666 -28.667 159.999 -86v72h197v-697h-197v253zM314.001 137.001
c61.333 0 92 41 92 123v8c0 82 -30.333 123 -91 123c-61.333 0 -92 -41.333 -92 -124v-8c0 -81.333 30.333 -122 91 -122z" />
    <glyph glyph-name="r" unicode="r" horiz-adv-x="438" 
d="M47 523h197.001v-106c31.333 76.667 87.333 114.334 168 113.001v-184c-54.667 3.33301 -96.334 -3.83398 -125.001 -21.501s-43 -45.5 -43 -83.5v-241h-197v523z" />
    <glyph glyph-name="s" unicode="s" horiz-adv-x="523" 
d="M261 -13c-77.333 0 -137.334 15.502 -180.001 46.502s-64.667 75.833 -66 134.5h180c4 -18.667 10.5 -32.334 19.5 -41.001s24.167 -13 45.5 -13c36.667 0 55 12.333 55 37c0 12 -6.66699 21.167 -20 27.5s-37.333 11.833 -72 16.5c-72.667 8 -124.667 24 -156 48
s-47 63.333 -47 118c0 57.333 21.833 101.166 65.5 131.499s99.5 45.5 167.5 45.5c72 0 128.333 -13.5 169 -40.5s64 -71.167 70 -132.5h-177c-7.33301 32.667 -27 49 -59 49c-34.667 0 -52 -12 -52 -36c0 -12 6.16699 -20.833 18.5 -26.5s33.5 -10.167 63.5 -13.5
c79.333 -10 136 -26.833 170 -50.5s51 -62.5 51 -116.5c0 -62 -21.667 -108.167 -65 -138.5s-103.666 -45.5 -180.999 -45.5z" />
    <glyph glyph-name="t" unicode="t" horiz-adv-x="396" 
d="M265 -12c-128.667 0 -193 62.333 -193 187v216h-61v132h61v107h197v-107h100v-132h-100v-197c0 -34 17 -51 51 -51c16.667 0 33 2.66699 49 8v-148c-34 -10 -68.667 -15 -104 -15z" />
    <glyph glyph-name="u" unicode="u" horiz-adv-x="628" 
d="M218 -13c-52 0 -94.167 16.5 -126.5 49.5s-48.5 80.833 -48.5 143.5v343h197v-309c0 -53.333 22 -80 66 -80c52 0 78 30.333 78 91v298h197v-523h-197v81c-32.667 -62.667 -88 -94 -166 -94z" />
    <glyph glyph-name="v" unicode="v" horiz-adv-x="604" 
d="M5 523h210l99 -318l100 318h185l-191 -523h-211z" />
    <glyph glyph-name="w" unicode="w" horiz-adv-x="854" 
d="M5 523h205l68 -293l80 293h158l70 -293l79 293h184l-166 -523h-185l-73 273l-72 -273h-191z" />
    <glyph glyph-name="x" unicode="x" horiz-adv-x="613" 
d="M180 265l-161 258h226l71 -128l71 128h201l-163 -243l180 -280h-226l-84 146l-88 -146h-199z" />
    <glyph glyph-name="y" unicode="y" 
d="M214 52l-209 471h213l99 -261l92 261h186l-279 -697h-187z" />
    <glyph glyph-name="z" unicode="z" horiz-adv-x="513" 
d="M8 19l214 357h-191v147h471v-20l-224 -357h210v-146h-480v19z" />
    <glyph glyph-name="braceleft" unicode="{" horiz-adv-x="425" 
d="M388 -148c-107.333 0 -184 19.001 -230 57.001s-62.333 97.667 -49 179l13 81c4 23.333 -1.66699 42.166 -17 56.499s-40.666 21.5 -75.999 21.5v137c35.333 0 60.666 7 75.999 21s21 32.667 17 56l-13 80c-14 82.667 2 142.667 48 180s123 56 231 56v-143
c-36.667 -2 -61 -9 -73 -21s-16 -33.667 -12 -65l12 -99c4 -33.333 -3 -61.5 -21 -84.5s-45.667 -38.833 -83 -47.5c37.333 -8 65 -23.667 83 -47s25 -52 21 -86l-12 -98c-4 -32 0.166992 -54.667 12.5 -68s36.5 -21 72.5 -23v-143z" />
    <glyph glyph-name="bar" unicode="|" horiz-adv-x="270" 
d="M67 776h136v-924h-136v924z" />
    <glyph glyph-name="braceright" unicode="}" horiz-adv-x="425" 
d="M37 -5c36 2 60.167 9.66699 72.5 23s16.5 36 12.5 68l-12 98c-4 34 3 62.667 21 86s45.667 39 83 47c-37.333 8.66699 -65 24.5 -83 47.5s-25 51.167 -21 84.5l12 99c4 31.333 0 53 -12 65s-36.333 19 -73 21v143c108 0 185 -18.667 231 -56s62 -97.333 48 -180l-13 -80
c-4 -24 1.5 -42.833 16.5 -56.5s40.5 -20.5 76.5 -20.5v-137c-36 0 -61.5 -7 -76.5 -21s-20.5 -33 -16.5 -57l13 -81c13.333 -81.333 -3 -141 -49 -179s-122.667 -57 -230 -57v143z" />
    <glyph glyph-name="asciitilde" unicode="~" horiz-adv-x="532" 
d="M25 213c4 71.333 20.5 124.333 49.5 159s64.167 52 105.5 52c27.333 0 58 -7.33301 92 -22s55.333 -22 64 -22c24.667 0 39.667 15 45 45h125c-2.66699 -67.333 -18.667 -119.333 -48 -156s-64.666 -55 -105.999 -55c-28 0 -58.833 7.16699 -92.5 21.5
s-54.834 21.5 -63.501 21.5c-25.333 0 -40.333 -14.667 -45 -44h-126z" />
    <glyph glyph-name="uni00A0" unicode="&#xa0;" horiz-adv-x="253" 
 />
    <glyph glyph-name="exclamdown" unicode="&#xa1;" horiz-adv-x="343" 
d="M171 609c32 0 58.999 -10 80.999 -30s33 -44.667 33 -74s-11.167 -54.333 -33.5 -75s-49.166 -31 -80.499 -31s-58.333 10.333 -81 31s-34 45.667 -34 75s11.167 54 33.5 74s49.5 30 81.5 30zM280.999 -117h-221l29 474h164z" />
    <glyph glyph-name="cent" unicode="&#xa2;" 
d="M279 -11c-77.333 6 -139.668 31.8359 -187.001 77.5029s-71 108.5 -71 188.5v8c0 77.333 24 140.166 72 188.499s110 76.5 186 84.5v93h75v-93c64.667 -6 117.834 -27.333 159.501 -64s64.5 -88.334 68.5 -155.001h-177c-4.66699 38.667 -21.667 63 -51 73v-266
c36.667 11.333 57 39.666 61 84.999h170c-2 -63.333 -23 -114.333 -63 -153s-96 -61 -168 -67v-124h-75v124zM214.998 257.003c0 -72.667 21.333 -116.333 64 -131v264c-42.667 -16 -64 -57.667 -64 -125v-8z" />
    <glyph glyph-name="sterling" unicode="&#xa3;" horiz-adv-x="668" 
d="M32 409h47.998c-7.33301 27.333 -11 55 -11 83c0 73.333 26.667 130.5 80 171.5s121.666 61.5 204.999 61.5c181.333 0 276.333 -83.333 285 -250h-206c-3.33301 28.667 -10.666 49.334 -21.999 62.001s-27.666 19 -48.999 19s-38.166 -6.83301 -50.499 -20.5
s-18.5 -32.5 -18.5 -56.5c0 -20 1.66699 -43.333 5 -70h170v-124h-153c1.33301 -20 2 -35.333 2 -46c0 -18.667 -2.66699 -37 -8 -55c41.333 -12 67.666 -18 78.999 -18c36 0 55.333 18 58 54h204c-2.66699 -68 -22.667 -123.167 -60 -165.5s-89.666 -63.5 -156.999 -63.5
c-39.333 0 -81 8.33301 -125 25s-71.667 25 -83 25c-26.667 0 -41.667 -13.667 -45 -41h-166c6 90.667 40.333 152 103 184c4.66699 17.333 7 35.666 7 54.999c0 14 -1.66699 29.333 -5 46h-87v124z" />
    <glyph glyph-name="yen" unicode="&#xa5;" horiz-adv-x="659" 
d="M61 370h134l-187 345h245l91 -216l91 216h216l-178 -345h136v-73h-160v-47h160v-74h-160v-176h-228v176h-160v74h160v47h-160v73z" />
    <glyph glyph-name="brokenbar" unicode="&#xa6;" horiz-adv-x="272" 
d="M67 302h136v-450h-136v450zM67 776h136v-403h-136v403z" />
    <glyph glyph-name="section" unicode="&#xa7;" horiz-adv-x="618" 
d="M297 -137c-71.333 0 -126.501 16.501 -165.501 49.501s-59.833 78.833 -62.5 137.5h177c3.33301 -38 22 -57 56 -57c33.333 0 50 12.667 50 38c0 13.333 -7 23.666 -21 30.999s-40.667 15.333 -80 24c-79.333 20 -138 44 -176 72s-57 70.667 -57 128
c0 64 35.667 110 107 138c-27.333 30 -41 67.667 -41 113c0 58 22 103.833 66 137.5s101.333 50.5 172 50.5s125.334 -16.5 164.001 -49.5s59.334 -79.167 62.001 -138.5h-176c-4 36.667 -22.667 55 -56 55c-32.667 0 -49 -12.333 -49 -37
c0 -14.667 6.16699 -25.334 18.5 -32.001s39.166 -15 80.499 -25c38.667 -8.66699 70.667 -17.667 96 -27s49.333 -21.5 72 -36.5s39.5 -33.5 50.5 -55.5s16.5 -48.333 16.5 -79c0 -62.667 -35.667 -109 -107 -139c27.333 -29.333 41 -66.666 41 -111.999
c0 -56 -21.833 -101 -65.5 -135s-101.167 -51 -172.5 -51zM375.999 231.001c24 4.66699 36 17.667 36 39c0 15.333 -11 28 -33 38c-9.33301 4 -30 11 -62 21l-73 24c-24 -4 -36 -17 -36 -39c0 -12.667 6.5 -22.5 19.5 -29.5s38.167 -16.5 75.5 -28.5z" />
    <glyph glyph-name="dieresis" unicode="&#xa8;" horiz-adv-x="400" 
d="M91 570c-25.333 0 -46.833 8.66699 -64.5 26s-26.5 38.333 -26.5 63s8.83301 45.667 26.5 63s39.167 26 64.5 26c26 0 47.833 -8.66699 65.5 -26s26.5 -38.333 26.5 -63s-8.83301 -45.667 -26.5 -63s-39.5 -26 -65.5 -26zM308 570c-25.333 0 -46.666 8.66699 -63.999 26
s-26 38.333 -26 63s8.66699 45.667 26 63s38.666 26 63.999 26c26 0 47.833 -8.66699 65.5 -26s26.5 -38.333 26.5 -63s-8.83301 -45.667 -26.5 -63s-39.5 -26 -65.5 -26z" />
    <glyph glyph-name="copyright" unicode="&#xa9;" horiz-adv-x="842" 
d="M429 150c-71.333 0 -125.001 18.168 -161.001 54.501s-54 86.166 -54 149.499v8c0 61.333 19.833 110.5 59.5 147.5s89.834 55.5 150.501 55.5c119.333 0 183.333 -53.333 192 -160h-137c-4 36 -22.333 54 -55 54c-22 0 -39.167 -8.16699 -51.5 -24.5
s-18.5 -40.5 -18.5 -72.5v-7c0 -66 24 -99 72 -99c38 0 59 19 63 57h132c-2.66699 -52 -21.5 -92.167 -56.5 -120.5s-80.167 -42.5 -135.5 -42.5zM419.999 31.001c90.667 0 167.167 30.667 229.5 92s93.5 140 93.5 236c0 95.333 -30.667 173.333 -92 234
s-137.666 91 -228.999 91c-92 0 -168.833 -30.5 -230.5 -91.5s-92.5 -139.5 -92.5 -235.5s31.167 -174.333 93.5 -235s138.166 -91 227.499 -91zM419.999 -20.999c-107.333 0 -198.5 36.332 -273.5 108.999s-112.5 162.334 -112.5 269.001c0 106 37.5 195.667 112.5 269
s166.833 110 275.5 110c110 0 202 -36.333 276 -109s111 -162 111 -268c0 -107.333 -37.667 -197.5 -113 -270.5s-167.333 -109.5 -276 -109.5z" />
    <glyph glyph-name="ordfeminine" unicode="&#xaa;" horiz-adv-x="495" 
d="M168 287c-40.667 0 -74.333 10.333 -101 31s-40 52 -40 94c0 48.667 17.5 83 52.5 103s90.833 30 167.5 30h37v13c0 32 -13.333 48 -40 48c-24.667 0 -39 -13.333 -43 -40h-160c3.33301 50.667 23.5 89.5 60.5 116.5s87.5 40.5 151.5 40.5c134 0 201 -53.333 201 -160
v-265h-166v47c-21.333 -38.667 -61.333 -58 -120 -58zM233.001 401c15.333 0 27.666 3.83203 36.999 11.499s14 17.834 14 30.501v18h-31c-21.333 0 -36.166 -2.5 -44.499 -7.5s-12.5 -13.167 -12.5 -24.5c0 -18.667 12.333 -28 37 -28z" />
    <glyph glyph-name="guillemotleft" unicode="&#xab;" horiz-adv-x="477" 
d="M25 261l124 194h121l-119 -194l119 -194h-121zM206 261l124 194h121l-119 -194l119 -194h-121z" />
    <glyph glyph-name="uni00AD" unicode="&#xad;" horiz-adv-x="390" 
d="M49 360h292v-146h-292v146z" />
    <glyph glyph-name="registered" unicode="&#xae;" horiz-adv-x="517" 
d="M172 615h91c62 0 93 -24 93 -72v-1c0 -26.667 -11.667 -46 -35 -58l48 -88h-76l-38 73h-10v-73h-73v219zM259 516c17.333 0 26 7.33301 26 22v1c0 13.333 -8.66699 20 -26 20h-14v-43h14zM259 320c52.667 0 96.667 17.168 132 51.501s53 78.166 53 131.499
c0 54 -17.333 98 -52 132s-79 51 -133 51c-54.667 0 -99.334 -17.167 -134.001 -51.5s-52 -78.5 -52 -132.5c0 -53.333 17.833 -97 53.5 -131s79.834 -51 132.501 -51zM259 280.001c-64 0 -118.501 21.5 -163.501 64.5s-67.5 95.5 -67.5 157.5s22.333 114.833 67 158.5
s99.334 65.5 164.001 65.5c65.333 0 120 -21.5 164 -64.5s66 -95.833 66 -158.5s-22.333 -115.5 -67 -158.5s-99 -64.5 -163 -64.5z" />
    <glyph glyph-name="macron" unicode="&#xaf;" horiz-adv-x="400" 
d="M42 712h316v-107h-316v107z" />
    <glyph glyph-name="degree" unicode="&#xb0;" horiz-adv-x="457" 
d="M230 448c26 0 47.502 9.66699 64.502 29s25.5 43.333 25.5 72c0 30 -8.33301 54.667 -25 74s-38.334 29 -65.001 29c-28 0 -50.5 -9.66699 -67.5 -29s-25.5 -44 -25.5 -74c0 -28.667 8.66699 -52.667 26 -72s39.666 -29 66.999 -29zM230.002 376
c-49.333 0 -91.668 17.167 -127.001 51.5s-53 74.833 -53 121.5c0 48 17.5 89.167 52.5 123.5s77.5 51.5 127.5 51.5c48.667 0 90.334 -17.167 125.001 -51.5s52 -75.5 52 -123.5c0 -46.667 -17.5 -87.167 -52.5 -121.5s-76.5 -51.5 -124.5 -51.5z" />
    <glyph glyph-name="plusminus" unicode="&#xb1;" horiz-adv-x="579" 
d="M211 343h-173v142h173v162h157v-162h174v-142h-174v-161h-157v161zM38 126h507v-126h-507v126z" />
    <glyph glyph-name="twosuperior" unicode="&#xb2;" horiz-adv-x="366" 
d="M4 351l129 132.001c24.667 25.333 42.5 45.5 53.5 60.5s16.5 29.167 16.5 42.5c0 20 -9.33301 30 -28 30c-20 0 -32 -17 -36 -51h-131c1.33301 51.333 17.5 90.166 48.5 116.499s73.167 39.5 126.5 39.5s93.5 -11.5 120.5 -34.5s40.5 -52.833 40.5 -89.5
c0 -24.667 -6.5 -47.167 -19.5 -67.5s-32.5 -42.833 -58.5 -67.5l-28 -26h108v-103h-342v18z" />
    <glyph glyph-name="threesuperior" unicode="&#xb3;" horiz-adv-x="385" 
d="M193 326c-114 0 -172.665 45.666 -175.998 136.999h127c3.33301 -25.333 16.666 -38 39.999 -38c22.667 0 34 10.333 34 31c0 19.333 -13.667 29 -41 29h-31v79h31c28.667 0 43 10.333 43 31c0 18 -10.333 27 -31 27c-21.333 0 -34 -11.667 -38 -35h-126
c4 40.667 20 73.167 48 97.5s68 36.5 120 36.5c51.333 0 91.166 -9.33301 119.499 -28s42.5 -45 42.5 -79c0 -43.333 -23 -70.666 -69 -81.999c22.667 -3.33301 41.167 -12.5 55.5 -27.5s21.5 -33.167 21.5 -54.5c0 -38 -14.333 -68.167 -43 -90.5s-71 -33.5 -127 -33.5z
" />
    <glyph glyph-name="acute" unicode="&#xb4;" horiz-adv-x="400" 
d="M175 747h193l-104 -169h-141z" />
    <glyph glyph-name="mu" unicode="&#xb5;" horiz-adv-x="630" 
d="M47 523h197.001v-314c0 -52 22 -78 66 -78c52 0 78 30 78 90v302h197v-523h-193v69c-16 -45.333 -44.667 -68 -86 -68c-26.667 0 -47.334 11.333 -62.001 34v-209h-197v697z" />
    <glyph glyph-name="paragraph" unicode="&#xb6;" horiz-adv-x="544" 
d="M253 326l-7 0.000976562c-69.333 0 -123.5 16.167 -162.5 48.5s-58.5 79.833 -58.5 142.5c0 65.333 19.833 114.666 59.5 147.999s93.5 50 161.5 50h232v-815h-76v750h-74v-750h-75v426z" />
    <glyph glyph-name="periodcentered" unicode="&#xb7;" horiz-adv-x="302" 
d="M150 219c-31.333 0 -57.5 10.333 -78.5 31s-31.5 46 -31.5 76s10.5 55.5 31.5 76.5s47.167 31.5 78.5 31.5c32 0 58.667 -10.5 80 -31.5s32 -46.5 32 -76.5s-10.667 -55.333 -32 -76s-48 -31 -80 -31z" />
    <glyph glyph-name="cedilla" unicode="&#xb8;" horiz-adv-x="400" 
d="M203 -228c-76.667 0 -120.668 31.333 -132.001 94h90c4 -17.333 15.667 -26 35 -26c20 0 30 9.66699 30 29c0 20 -11 30 -33 30c-14 0 -24.667 -4 -32 -12l-40 41l48 72h76l-31 -44c32.667 2.66699 59.834 -3.33301 81.501 -18s32.5 -37.667 32.5 -69
c0 -30 -11.333 -53.667 -34 -71s-53 -26 -91 -26z" />
    <glyph glyph-name="onesuperior" unicode="&#xb9;" horiz-adv-x="297" 
d="M102 576l-83 -45v116l104 68h124v-382h-145v243z" />
    <glyph glyph-name="ordmasculine" unicode="&#xba;" horiz-adv-x="527" 
d="M264 413c40 0 60 30 60 90v6c0 59.333 -20 89 -60 89c-40.667 0 -61 -29 -61 -87v-6c0 -61.333 20.333 -92 61 -92zM263 287c-68.667 0 -125 18.334 -169 55.001s-66 88.667 -66 156v6c0 67.333 22.333 120.666 67 159.999s101 59 169 59s124.167 -19 168.5 -57
s66.5 -90 66.5 -156v-6c0 -67.333 -22.333 -120.333 -67 -159s-101 -58 -169 -58z" />
    <glyph glyph-name="guillemotright" unicode="&#xbb;" horiz-adv-x="477" 
d="M145 261l-119 194h121l124 -194l-124 -194h-121zM325 261l-119 194h121l124 -194l-124 -194h-121z" />
    <glyph glyph-name="onequarter" unicode="&#xbc;" horiz-adv-x="817" 
d="M104 576l-83 -45v116l104 68h124v-382h-145v243zM638 715h99l-569 -715h-100zM606 70h-190v54l157 258h172v-218h48v-94h-48v-70h-139v70zM610 164v124l-72 -124h72z" />
    <glyph glyph-name="onehalf" unicode="&#xbd;" horiz-adv-x="831" 
d="M105 576l-83 -45v116l104 68h124v-382h-145v243zM624 715h99l-569 -715h-100zM464 18l129 132.001c24.667 25.333 42.5 45.5 53.5 60.5s16.5 29.167 16.5 42.5c0 20 -9.33301 30 -28 30c-20 0 -32 -17 -36 -51h-131c1.33301 51.333 17.5 90.166 48.5 116.499
s73.167 39.5 126.5 39.5s93.5 -11.5 120.5 -34.5s40.5 -52.833 40.5 -89.5c0 -24.667 -6.5 -47.167 -19.5 -67.5s-32.5 -42.833 -58.5 -67.5l-28 -26h108v-103h-342v18z" />
    <glyph glyph-name="threequarters" unicode="&#xbe;" horiz-adv-x="852" 
d="M196 326c-114 0 -172.665 45.666 -175.998 136.999h127c3.33301 -25.333 16.666 -38 39.999 -38c22.667 0 34 10.333 34 31c0 19.333 -13.667 29 -41 29h-31v79h31c28.667 0 43 10.333 43 31c0 18 -10.333 27 -31 27c-21.333 0 -34 -11.667 -38 -35h-126
c4 40.667 20 73.167 48 97.5s68 36.5 120 36.5c51.333 0 91.166 -9.33301 119.499 -28s42.5 -45 42.5 -79c0 -43.333 -23 -70.666 -69 -81.999c22.667 -3.33301 41.167 -12.5 55.5 -27.5s21.5 -33.167 21.5 -54.5c0 -38 -14.333 -68.167 -43 -90.5s-71 -33.5 -127 -33.5z
M688.002 714.999h99l-569 -715h-100zM640.002 69.999h-190v54l157 258h172v-218h48v-94h-48v-70h-139v70zM644.002 163.999v124l-72 -124h72z" />
    <glyph glyph-name="questiondown" unicode="&#xbf;" horiz-adv-x="569" 
d="M402 345c0 -23.333 -5.83398 -46.3271 -17.501 -68.9941s-22.5 -39.334 -32.5 -50.001s-25.667 -26.334 -47 -47.001c-14.667 -13.333 -25.667 -23.833 -33 -31.5s-14.333 -17.334 -21 -29.001s-10 -22.834 -10 -33.501c0 -34.667 17.667 -52 53 -52
c38.667 0 61.667 26.667 69 80h192c-2.66699 -76.667 -29 -135.834 -79 -177.501s-116 -62.5 -198 -62.5c-80 0 -141.833 16.667 -185.5 50s-65.5 81 -65.5 143c0 52.667 22.667 101.667 68 147c9.33301 9.33301 22 21.166 38 35.499l38 34.5
c9.33301 8.66699 18.333 19.167 27 31.5s14.334 23.833 17.001 34.5v9h187v-13zM307.999 610.006c32.667 0 60.166 -10 82.499 -30s33.5 -44.667 33.5 -74s-11.167 -54.333 -33.5 -75s-49.833 -31 -82.5 -31c-31.333 0 -58.166 10.333 -80.499 31s-33.5 45.667 -33.5 75
s11 54 33 74s49 30 81 30z" />
    <glyph glyph-name="Agrave" unicode="&#xc0;" horiz-adv-x="760" 
d="M234 715h293l224 -715h-240l-33 119h-226l-32 -119h-211zM295 273h141l-70 259zM212 906h202l47 -149h-149z" />
    <glyph glyph-name="Aacute" unicode="&#xc1;" horiz-adv-x="760" 
d="M234 715h293l224 -715h-240l-33 119h-226l-32 -119h-211zM295 273h141l-70 259zM346 906h201l-103 -149h-149z" />
    <glyph glyph-name="Acircumflex" unicode="&#xc2;" horiz-adv-x="760" 
d="M234 715h293l224 -715h-240l-33 119h-226l-32 -119h-211zM295 273h141l-70 259zM298 906h164l110 -149h-142l-54 47l-54 -47h-139z" />
    <glyph glyph-name="Atilde" unicode="&#xc3;" horiz-adv-x="760" 
d="M234 715h293l224 -715h-240l-33 119h-226l-32 -119h-211zM295 273h141l-70 259zM444 755c-21.333 0 -44.833 5.33301 -70.5 16s-42.5 16 -50.5 16c-16.667 0 -26.667 -10 -30 -30h-109c4 53.333 17.5 93.333 40.5 120s51.5 40 85.5 40c20.667 0 44.167 -5.33301 70.5 -16
s44.166 -16 53.499 -16c16 0 25.667 10 29 30h110c-4 -52.667 -18.167 -92.5 -42.5 -119.5s-53.166 -40.5 -86.499 -40.5z" />
    <glyph glyph-name="Adieresis" unicode="&#xc4;" horiz-adv-x="760" 
d="M234 715h293l224 -715h-240l-33 119h-226l-32 -119h-211zM295 273h141l-70 259zM264 752c-25.333 0 -46.833 8.66699 -64.5 26s-26.5 38.333 -26.5 63s8.83301 45.667 26.5 63s39.167 26 64.5 26c26 0 47.833 -8.5 65.5 -25.5s26.5 -38.167 26.5 -63.5
c0 -24.667 -8.83301 -45.667 -26.5 -63s-39.5 -26 -65.5 -26zM491 752c-25.333 0 -46.833 8.66699 -64.5 26s-26.5 38.333 -26.5 63s8.83301 45.667 26.5 63s39.167 26 64.5 26c26 0 47.833 -8.5 65.5 -25.5s26.5 -38.167 26.5 -63.5c0 -24.667 -8.83301 -45.667 -26.5 -63
s-39.5 -26 -65.5 -26z" />
    <glyph glyph-name="Aring" unicode="&#xc5;" horiz-adv-x="760" 
d="M234 715h293l224 -715h-240l-33 119h-226l-32 -119h-211zM295 273h141l-70 259zM378 810c13.333 0 24.166 4.66699 32.499 14s12.5 21.333 12.5 36c0 15.333 -4.16699 27.5 -12.5 36.5s-19.166 13.5 -32.499 13.5s-24.166 -4.5 -32.499 -13.5s-12.5 -21.167 -12.5 -36.5
c0 -14.667 4.16699 -26.667 12.5 -36s19.166 -14 32.499 -14zM378 742c-34 0 -62.833 11.667 -86.5 35s-35.5 51 -35.5 83s11.833 59.667 35.5 83s52.5 35 86.5 35s62.833 -11.667 86.5 -35s35.5 -51 35.5 -83s-11.833 -59.667 -35.5 -83s-52.5 -35 -86.5 -35z" />
    <glyph glyph-name="AE" unicode="&#xc6;" horiz-adv-x="1012" 
d="M320 715h645v-174h-275v-101h217v-159h-217v-107h291v-174h-516v135h-187l-56 -135h-215zM340 285h125v256h-18z" />
    <glyph glyph-name="Ccedilla" unicode="&#xc7;" horiz-adv-x="764" 
d="M379 -228c-76.667 0 -120.668 31.3311 -132.001 93.998h90c4 -17.333 15.667 -26 35 -26c20 0 30 9.66699 30 29c0 20 -11 30 -33 30c-14 0 -24.667 -4 -32 -12l-40 41l42 63c-103.333 12 -181 49.667 -233 113s-78 146.333 -78 249v8
c0 109.333 34.833 197.5 104.5 264.5s158.167 100.5 265.5 100.5c99.333 0 178.833 -23.5 238.5 -70.5s93.5 -117.5 101.5 -211.5h-234c-7.33301 68.667 -42.333 103 -105 103c-42 0 -74.5 -15.833 -97.5 -47.5s-34.5 -77.5 -34.5 -137.5v-8
c0 -60 11.667 -105.833 35 -137.5s57 -47.5 101 -47.5c70.667 0 110 35 118 105h226c-6.66699 -91.333 -40 -161.666 -100 -210.999s-138.333 -74.666 -235 -75.999l-22 -31c32.667 2.66699 59.834 -3.33301 81.501 -18s32.5 -37.667 32.5 -69
c0 -30 -11.333 -53.667 -34 -71s-53 -26 -91 -26z" />
    <glyph glyph-name="Egrave" unicode="&#xc8;" horiz-adv-x="620" 
d="M65 715h508v-174h-282v-101h224v-159h-224v-107h298v-174h-524v715zM161 906h202l47 -149h-149z" />
    <glyph glyph-name="Eacute" unicode="&#xc9;" horiz-adv-x="620" 
d="M65 715h508v-174h-282v-101h224v-159h-224v-107h298v-174h-524v715zM295 906h201l-103 -149h-149z" />
    <glyph glyph-name="Ecircumflex" unicode="&#xca;" horiz-adv-x="620" 
d="M65 715h508v-174h-282v-101h224v-159h-224v-107h298v-174h-524v715zM247 906h164l110 -149h-142l-54 47l-54 -47h-139z" />
    <glyph glyph-name="Edieresis" unicode="&#xcb;" horiz-adv-x="620" 
d="M65 715h508v-174h-282v-101h224v-159h-224v-107h298v-174h-524v715zM213 752c-25.333 0 -46.833 8.66699 -64.5 26s-26.5 38.333 -26.5 63s8.83301 45.667 26.5 63s39.167 26 64.5 26c26 0 47.833 -8.5 65.5 -25.5s26.5 -38.167 26.5 -63.5
c0 -24.667 -8.83301 -45.667 -26.5 -63s-39.5 -26 -65.5 -26zM440 752c-25.333 0 -46.833 8.66699 -64.5 26s-26.5 38.333 -26.5 63s8.83301 45.667 26.5 63s39.167 26 64.5 26c26 0 47.833 -8.5 65.5 -25.5s26.5 -38.167 26.5 -63.5c0 -24.667 -8.83301 -45.667 -26.5 -63
s-39.5 -26 -65.5 -26z" />
    <glyph glyph-name="Igrave" unicode="&#xcc;" horiz-adv-x="366" 
d="M68 715h229v-715h-229v715zM17 906h202l47 -149h-149z" />
    <glyph glyph-name="Iacute" unicode="&#xcd;" horiz-adv-x="366" 
d="M68 715h229v-715h-229v715zM151 906h201l-103 -149h-149z" />
    <glyph glyph-name="Icircumflex" unicode="&#xce;" horiz-adv-x="366" 
d="M68 715h229v-715h-229v715zM103 906h164l110 -149h-142l-54 47l-54 -47h-139z" />
    <glyph glyph-name="Idieresis" unicode="&#xcf;" horiz-adv-x="366" 
d="M68 715h229v-715h-229v715zM69 752c-25.333 0 -46.833 8.66699 -64.5 26s-26.5 38.333 -26.5 63s8.83301 45.667 26.5 63s39.167 26 64.5 26c26 0 47.833 -8.5 65.5 -25.5s26.5 -38.167 26.5 -63.5c0 -24.667 -8.83301 -45.667 -26.5 -63s-39.5 -26 -65.5 -26zM296 752
c-25.333 0 -46.833 8.66699 -64.5 26s-26.5 38.333 -26.5 63s8.83301 45.667 26.5 63s39.167 26 64.5 26c26 0 47.833 -8.5 65.5 -25.5s26.5 -38.167 26.5 -63.5c0 -24.667 -8.83301 -45.667 -26.5 -63s-39.5 -26 -65.5 -26z" />
    <glyph glyph-name="Eth" unicode="&#xd0;" horiz-adv-x="785" 
d="M29 435h54.001v280h273c128 0 224.5 -29.5 289.5 -88.5s97.5 -145.833 97.5 -260.5v-7c0 -115.333 -32.833 -204 -98.5 -266s-161.834 -93 -288.501 -93h-273v284h-54v151zM349.001 174c55.333 0 95.332 14.332 119.999 42.999s37 74.334 37 137.001v8
c0 64.667 -12.667 110.667 -38 138s-65.666 41 -120.999 41h-41v-106h104v-151h-104v-110h43z" />
    <glyph glyph-name="Ntilde" unicode="&#xd1;" horiz-adv-x="787" 
d="M65 715h254l203 -378v378h199v-715h-217l-239 428v-428h-200v715zM479 755c-21.333 0 -44.833 5.33301 -70.5 16s-42.5 16 -50.5 16c-16.667 0 -26.667 -10 -30 -30h-109c4 53.333 17.5 93.333 40.5 120s51.5 40 85.5 40c20.667 0 44.167 -5.33301 70.5 -16
s44.166 -16 53.499 -16c16 0 25.667 10 29 30h110c-4 -52.667 -18.167 -92.5 -42.5 -119.5s-53.166 -40.5 -86.499 -40.5z" />
    <glyph glyph-name="Ograve" unicode="&#xd2;" horiz-adv-x="820" 
d="M411 165c44.667 0 80.167 16.6689 106.5 50.002s39.5 79.666 39.5 138.999v8c0 60 -13.167 106.167 -39.5 138.5s-62.5 48.5 -108.5 48.5c-44.667 0 -80 -16 -106 -48s-39 -78.333 -39 -139v-8c0 -60.667 13 -107.334 39 -140.001s62 -49 108 -49zM405 -12.998
c-116 0 -208.001 33.5 -276.001 100.5s-102 155.5 -102 265.5v8c0 108.667 36.333 196.667 109 264s163.667 101 273 101c112.667 0 204.834 -32.167 276.501 -96.5s107.5 -151.833 107.5 -262.5v-8c0 -112 -35.333 -202 -106 -270s-164.667 -102 -282 -102z
M242.999 906.002h202l47 -149h-149z" />
    <glyph glyph-name="Oacute" unicode="&#xd3;" horiz-adv-x="820" 
d="M411 165c44.667 0 80.167 16.6689 106.5 50.002s39.5 79.666 39.5 138.999v8c0 60 -13.167 106.167 -39.5 138.5s-62.5 48.5 -108.5 48.5c-44.667 0 -80 -16 -106 -48s-39 -78.333 -39 -139v-8c0 -60.667 13 -107.334 39 -140.001s62 -49 108 -49zM405 -12.998
c-116 0 -208.001 33.5 -276.001 100.5s-102 155.5 -102 265.5v8c0 108.667 36.333 196.667 109 264s163.667 101 273 101c112.667 0 204.834 -32.167 276.501 -96.5s107.5 -151.833 107.5 -262.5v-8c0 -112 -35.333 -202 -106 -270s-164.667 -102 -282 -102z
M376.999 906.002h201l-103 -149h-149z" />
    <glyph glyph-name="Ocircumflex" unicode="&#xd4;" horiz-adv-x="820" 
d="M411 165c44.667 0 80.167 16.6689 106.5 50.002s39.5 79.666 39.5 138.999v8c0 60 -13.167 106.167 -39.5 138.5s-62.5 48.5 -108.5 48.5c-44.667 0 -80 -16 -106 -48s-39 -78.333 -39 -139v-8c0 -60.667 13 -107.334 39 -140.001s62 -49 108 -49zM405 -12.998
c-116 0 -208.001 33.5 -276.001 100.5s-102 155.5 -102 265.5v8c0 108.667 36.333 196.667 109 264s163.667 101 273 101c112.667 0 204.834 -32.167 276.501 -96.5s107.5 -151.833 107.5 -262.5v-8c0 -112 -35.333 -202 -106 -270s-164.667 -102 -282 -102z
M328.999 906.002h164l110 -149h-142l-54 47l-54 -47h-139z" />
    <glyph glyph-name="Otilde" unicode="&#xd5;" horiz-adv-x="820" 
d="M411 165c44.667 0 80.167 16.6689 106.5 50.002s39.5 79.666 39.5 138.999v8c0 60 -13.167 106.167 -39.5 138.5s-62.5 48.5 -108.5 48.5c-44.667 0 -80 -16 -106 -48s-39 -78.333 -39 -139v-8c0 -60.667 13 -107.334 39 -140.001s62 -49 108 -49zM405 -12.998
c-116 0 -208.001 33.5 -276.001 100.5s-102 155.5 -102 265.5v8c0 108.667 36.333 196.667 109 264s163.667 101 273 101c112.667 0 204.834 -32.167 276.501 -96.5s107.5 -151.833 107.5 -262.5v-8c0 -112 -35.333 -202 -106 -270s-164.667 -102 -282 -102z
M474.999 755.002c-21.333 0 -44.833 5.33301 -70.5 16s-42.5 16 -50.5 16c-16.667 0 -26.667 -10 -30 -30h-109c4 53.333 17.5 93.333 40.5 120s51.5 40 85.5 40c20.667 0 44.167 -5.33301 70.5 -16s44.166 -16 53.499 -16c16 0 25.667 10 29 30h110
c-4 -52.667 -18.167 -92.5 -42.5 -119.5s-53.166 -40.5 -86.499 -40.5z" />
    <glyph glyph-name="Odieresis" unicode="&#xd6;" horiz-adv-x="820" 
d="M411 165c44.667 0 80.167 16.6689 106.5 50.002s39.5 79.666 39.5 138.999v8c0 60 -13.167 106.167 -39.5 138.5s-62.5 48.5 -108.5 48.5c-44.667 0 -80 -16 -106 -48s-39 -78.333 -39 -139v-8c0 -60.667 13 -107.334 39 -140.001s62 -49 108 -49zM405 -12.998
c-116 0 -208.001 33.5 -276.001 100.5s-102 155.5 -102 265.5v8c0 108.667 36.333 196.667 109 264s163.667 101 273 101c112.667 0 204.834 -32.167 276.501 -96.5s107.5 -151.833 107.5 -262.5v-8c0 -112 -35.333 -202 -106 -270s-164.667 -102 -282 -102z
M294.999 752.002c-25.333 0 -46.833 8.66699 -64.5 26s-26.5 38.333 -26.5 63s8.83301 45.667 26.5 63s39.167 26 64.5 26c26 0 47.833 -8.5 65.5 -25.5s26.5 -38.167 26.5 -63.5c0 -24.667 -8.83301 -45.667 -26.5 -63s-39.5 -26 -65.5 -26zM521.999 752.002
c-25.333 0 -46.833 8.66699 -64.5 26s-26.5 38.333 -26.5 63s8.83301 45.667 26.5 63s39.167 26 64.5 26c26 0 47.833 -8.5 65.5 -25.5s26.5 -38.167 26.5 -63.5c0 -24.667 -8.83301 -45.667 -26.5 -63s-39.5 -26 -65.5 -26z" />
    <glyph glyph-name="multiply" unicode="&#xd7;" horiz-adv-x="589" 
d="M40 185l152 152l-155 154l103 104l154 -156l153 152l102 -102l-152 -152l155 -154l-104 -104l-154 156l-152 -152z" />
    <glyph glyph-name="Oslash" unicode="&#xd8;" horiz-adv-x="820" 
d="M34 23l78 81.999c-56.667 64.667 -85 147.334 -85 248.001v8c0 108 36.333 195.667 109 263s163.667 101 273 101c88 0 165 -20.667 231 -62l73 78l57 -56l-68 -72c61.333 -62.667 92 -144.667 92 -246v-8c0 -112 -35.5 -202 -106.5 -270s-165.167 -102 -282.5 -102
c-94 0 -171.667 21.667 -233 65l-81 -85zM410 164.999c46.667 0 83.167 16.666 109.5 49.999s39.5 80 39.5 140v8c0 32.667 -4 61.334 -12 86.001l-235 -248c25.333 -24 58 -36 98 -36zM261 353.998c0 -33.333 3.33301 -60.333 10 -81l231 245
c-25.333 20.667 -56.333 31 -93 31c-46.667 0 -83 -16 -109 -48s-39 -78.333 -39 -139v-8z" />
    <glyph glyph-name="Ugrave" unicode="&#xd9;" horiz-adv-x="776" 
d="M388 -13c-106 0 -187 25.833 -243 77.5s-84 128.5 -84 230.5v420h226v-411c0 -49.333 7.16699 -84.833 21.5 -106.5s40.833 -32.5 79.5 -32.5s65 10.833 79 32.5s21 57.5 21 107.5v410h228v-418c0 -104.667 -28.833 -182.5 -86.5 -233.5s-138.167 -76.5 -241.5 -76.5z
M220 906h202l47 -149h-149z" />
    <glyph glyph-name="Uacute" unicode="&#xda;" horiz-adv-x="776" 
d="M388 -13c-106 0 -187 25.833 -243 77.5s-84 128.5 -84 230.5v420h226v-411c0 -49.333 7.16699 -84.833 21.5 -106.5s40.833 -32.5 79.5 -32.5s65 10.833 79 32.5s21 57.5 21 107.5v410h228v-418c0 -104.667 -28.833 -182.5 -86.5 -233.5s-138.167 -76.5 -241.5 -76.5z
M354 906h201l-103 -149h-149z" />
    <glyph glyph-name="Ucircumflex" unicode="&#xdb;" horiz-adv-x="776" 
d="M388 -13c-106 0 -187 25.833 -243 77.5s-84 128.5 -84 230.5v420h226v-411c0 -49.333 7.16699 -84.833 21.5 -106.5s40.833 -32.5 79.5 -32.5s65 10.833 79 32.5s21 57.5 21 107.5v410h228v-418c0 -104.667 -28.833 -182.5 -86.5 -233.5s-138.167 -76.5 -241.5 -76.5z
M306 906h164l110 -149h-142l-54 47l-54 -47h-139z" />
    <glyph glyph-name="Udieresis" unicode="&#xdc;" horiz-adv-x="776" 
d="M388 -13c-106 0 -187 25.833 -243 77.5s-84 128.5 -84 230.5v420h226v-411c0 -49.333 7.16699 -84.833 21.5 -106.5s40.833 -32.5 79.5 -32.5s65 10.833 79 32.5s21 57.5 21 107.5v410h228v-418c0 -104.667 -28.833 -182.5 -86.5 -233.5s-138.167 -76.5 -241.5 -76.5z
M272 752c-25.333 0 -46.833 8.66699 -64.5 26s-26.5 38.333 -26.5 63s8.83301 45.667 26.5 63s39.167 26 64.5 26c26 0 47.833 -8.5 65.5 -25.5s26.5 -38.167 26.5 -63.5c0 -24.667 -8.83301 -45.667 -26.5 -63s-39.5 -26 -65.5 -26zM499 752
c-25.333 0 -46.833 8.66699 -64.5 26s-26.5 38.333 -26.5 63s8.83301 45.667 26.5 63s39.167 26 64.5 26c26 0 47.833 -8.5 65.5 -25.5s26.5 -38.167 26.5 -63.5c0 -24.667 -8.83301 -45.667 -26.5 -63s-39.5 -26 -65.5 -26z" />
    <glyph glyph-name="Yacute" unicode="&#xdd;" horiz-adv-x="692" 
d="M237 305l-232 410h246l109 -224l110 224h217l-222 -409v-306h-228v305zM321 906h201l-103 -149h-149z" />
    <glyph glyph-name="Thorn" unicode="&#xde;" horiz-adv-x="664" 
d="M65 715l226 -0.000976562v-114h59c102 0 176.5 -19.167 223.5 -57.5s70.5 -97.166 70.5 -176.499v-4c0 -75.333 -24.167 -133 -72.5 -173s-118.833 -60 -211.5 -60h-69v-130h-226v715zM338 281.999c60.667 0 91.001 26.667 91.001 80v4c0 26.667 -7.33301 46 -22 58
s-37.334 18 -68.001 18h-48v-160h47z" />
    <glyph glyph-name="germandbls" unicode="&#xdf;" horiz-adv-x="644" 
d="M389 -10c-38 0 -70.334 3.33203 -97.001 9.99902v147c14.667 -5.33301 29 -8 43 -8c59.333 0 89 36.667 89 110v6c0 43.333 -10.833 73 -32.5 89s-53.5 24 -95.5 24v137c28 0.666992 49.167 7.83398 63.5 21.501s21.5 30.167 21.5 49.5v2c0 20 -5.66699 35.833 -17 47.5
s-27.666 17.5 -48.999 17.5c-22 0 -39.333 -7.33301 -52 -22s-19 -36 -19 -64v-557h-197v540c0 78.667 26 136.667 78 174s119.333 56 202 56c76 0 135 -15.5 177 -46.5s63 -76.5 63 -136.5v-2c0 -34 -10.833 -63 -32.5 -87s-50.167 -41.333 -85.5 -52
c51.333 -12 93.333 -35 126 -69s49 -79.333 49 -136v-7c0 -78.667 -21.333 -139 -64 -181s-99.667 -63 -171 -63z" />
    <glyph glyph-name="agrave" unicode="&#xe0;" horiz-adv-x="585" 
d="M198 -13c-51.333 0 -93.834 13.167 -127.501 39.5s-50.5 65.833 -50.5 118.5c0 60 23.5 103.5 70.5 130.5s117.167 40.5 210.5 40.5h45v9c0 25.333 -4 44.333 -12 57s-24.333 19 -49 19c-37.333 0 -58 -18.667 -62 -56h-184c4 62.667 28.833 110.5 74.5 143.5
s106.834 49.5 183.501 49.5c78 0 138.167 -16.667 180.5 -50s63.5 -83.333 63.5 -150v-338h-190v60c-27.333 -48.667 -78.333 -73 -153 -73zM268.999 119c22.667 0 41.166 5.83301 55.499 17.5s21.5 27.167 21.5 46.5v27h-42c-33.333 0 -56.666 -3.66699 -69.999 -11
s-20 -20.333 -20 -39c0 -27.333 18.333 -41 55 -41zM124.998 747h193l52 -169h-141z" />
    <glyph glyph-name="aacute" unicode="&#xe1;" horiz-adv-x="585" 
d="M198 -13c-51.333 0 -93.834 13.167 -127.501 39.5s-50.5 65.833 -50.5 118.5c0 60 23.5 103.5 70.5 130.5s117.167 40.5 210.5 40.5h45v9c0 25.333 -4 44.333 -12 57s-24.333 19 -49 19c-37.333 0 -58 -18.667 -62 -56h-184c4 62.667 28.833 110.5 74.5 143.5
s106.834 49.5 183.501 49.5c78 0 138.167 -16.667 180.5 -50s63.5 -83.333 63.5 -150v-338h-190v60c-27.333 -48.667 -78.333 -73 -153 -73zM268.999 119c22.667 0 41.166 5.83301 55.499 17.5s21.5 27.167 21.5 46.5v27h-42c-33.333 0 -56.666 -3.66699 -69.999 -11
s-20 -20.333 -20 -39c0 -27.333 18.333 -41 55 -41zM271.998 747h193l-104 -169h-141z" />
    <glyph glyph-name="acircumflex" unicode="&#xe2;" horiz-adv-x="585" 
d="M198 -13c-51.333 0 -93.834 13.167 -127.501 39.5s-50.5 65.833 -50.5 118.5c0 60 23.5 103.5 70.5 130.5s117.167 40.5 210.5 40.5h45v9c0 25.333 -4 44.333 -12 57s-24.333 19 -49 19c-37.333 0 -58 -18.667 -62 -56h-184c4 62.667 28.833 110.5 74.5 143.5
s106.834 49.5 183.501 49.5c78 0 138.167 -16.667 180.5 -50s63.5 -83.333 63.5 -150v-338h-190v60c-27.333 -48.667 -78.333 -73 -153 -73zM268.999 119c22.667 0 41.166 5.83301 55.499 17.5s21.5 27.167 21.5 46.5v27h-42c-33.333 0 -56.666 -3.66699 -69.999 -11
s-20 -20.333 -20 -39c0 -27.333 18.333 -41 55 -41zM224.998 746h138l120 -166h-137l-56 53l-56 -53h-134z" />
    <glyph glyph-name="atilde" unicode="&#xe3;" horiz-adv-x="585" 
d="M198 -13c-51.333 0 -93.834 13.167 -127.501 39.5s-50.5 65.833 -50.5 118.5c0 60 23.5 103.5 70.5 130.5s117.167 40.5 210.5 40.5h45v9c0 25.333 -4 44.333 -12 57s-24.333 19 -49 19c-37.333 0 -58 -18.667 -62 -56h-184c4 62.667 28.833 110.5 74.5 143.5
s106.834 49.5 183.501 49.5c78 0 138.167 -16.667 180.5 -50s63.5 -83.333 63.5 -150v-338h-190v60c-27.333 -48.667 -78.333 -73 -153 -73zM268.999 119c22.667 0 41.166 5.83301 55.499 17.5s21.5 27.167 21.5 46.5v27h-42c-33.333 0 -56.666 -3.66699 -69.999 -11
s-20 -20.333 -20 -39c0 -27.333 18.333 -41 55 -41zM360.998 581c-22 0 -45.333 5.33301 -70 16s-40.667 16 -48 16c-16.667 0 -26.667 -10 -30 -30h-104c3.33301 54 15.5 94.5 36.5 121.5s48.167 40.5 81.5 40.5c20 0 42.833 -5.33301 68.5 -16s43.167 -16 52.5 -16
c17.333 0 27.333 10.333 30 31h104c-4 -53.333 -17 -93.833 -39 -121.5s-49.333 -41.5 -82 -41.5z" />
    <glyph glyph-name="adieresis" unicode="&#xe4;" horiz-adv-x="585" 
d="M198 -13c-51.333 0 -93.834 13.167 -127.501 39.5s-50.5 65.833 -50.5 118.5c0 60 23.5 103.5 70.5 130.5s117.167 40.5 210.5 40.5h45v9c0 25.333 -4 44.333 -12 57s-24.333 19 -49 19c-37.333 0 -58 -18.667 -62 -56h-184c4 62.667 28.833 110.5 74.5 143.5
s106.834 49.5 183.501 49.5c78 0 138.167 -16.667 180.5 -50s63.5 -83.333 63.5 -150v-338h-190v60c-27.333 -48.667 -78.333 -73 -153 -73zM268.999 119c22.667 0 41.166 5.83301 55.499 17.5s21.5 27.167 21.5 46.5v27h-42c-33.333 0 -56.666 -3.66699 -69.999 -11
s-20 -20.333 -20 -39c0 -27.333 18.333 -41 55 -41zM185.998 570c-25.333 0 -46.833 8.66699 -64.5 26s-26.5 38.333 -26.5 63s8.83301 45.667 26.5 63s39.167 26 64.5 26c26 0 47.833 -8.66699 65.5 -26s26.5 -38.333 26.5 -63s-8.83301 -45.667 -26.5 -63
s-39.5 -26 -65.5 -26zM402.998 570c-25.333 0 -46.666 8.66699 -63.999 26s-26 38.333 -26 63s8.66699 45.667 26 63s38.666 26 63.999 26c26 0 47.833 -8.66699 65.5 -26s26.5 -38.333 26.5 -63s-8.83301 -45.667 -26.5 -63s-39.5 -26 -65.5 -26z" />
    <glyph glyph-name="aring" unicode="&#xe5;" horiz-adv-x="585" 
d="M198 -13c-51.333 0 -93.834 13.167 -127.501 39.5s-50.5 65.833 -50.5 118.5c0 60 23.5 103.5 70.5 130.5s117.167 40.5 210.5 40.5h45v9c0 25.333 -4 44.333 -12 57s-24.333 19 -49 19c-37.333 0 -58 -18.667 -62 -56h-184c4 62.667 28.833 110.5 74.5 143.5
s106.834 49.5 183.501 49.5c78 0 138.167 -16.667 180.5 -50s63.5 -83.333 63.5 -150v-338h-190v60c-27.333 -48.667 -78.333 -73 -153 -73zM268.999 119c22.667 0 41.166 5.83301 55.499 17.5s21.5 27.167 21.5 46.5v27h-42c-33.333 0 -56.666 -3.66699 -69.999 -11
s-20 -20.333 -20 -39c0 -27.333 18.333 -41 55 -41zM294.998 642c13.333 0 24 4.5 32 13.5s12 20.5 12 34.5c0 14.667 -4 26.5 -12 35.5s-18.667 13.5 -32 13.5s-24 -4.5 -32 -13.5s-12 -20.833 -12 -35.5c0 -14 4 -25.5 12 -34.5s18.667 -13.5 32 -13.5zM294.998 574
c-33.333 0 -61.6699 11.333 -85.0029 34s-35 50 -35 82s11.833 59.5 35.5 82.5s51.834 34.5 84.501 34.5s60.834 -11.5 84.501 -34.5s35.5 -50.5 35.5 -82.5s-11.667 -59.333 -35 -82s-51.666 -34 -84.999 -34z" />
    <glyph glyph-name="ae" unicode="&#xe6;" horiz-adv-x="913" 
d="M626 -13c-94.667 0 -163.331 29.333 -205.998 88c-44 -58.667 -111.667 -88 -203 -88c-58.667 0 -106.334 13 -143.001 39s-55 65.667 -55 119c0 60 23.5 104 70.5 132s116.833 42 209.5 42h49v6c0 25.333 -4.5 44.333 -13.5 57s-25.5 19 -49.5 19
c-37.333 0 -58.333 -18.667 -63 -56h-184c4 62.667 28.667 110.5 74 143.5s105.333 49.5 180 49.5c78.667 0 134 -19 166 -57c42.667 38 97.667 57 165 57c78.667 0 143.167 -22.833 193.5 -68.5s75.5 -113.5 75.5 -203.5v-47h-357c5.33301 -65.333 36.666 -98 93.999 -98
c45.333 0 72.333 18.667 81 56h182c-7.33301 -61.333 -33.5 -108.333 -78.5 -141s-107.5 -49 -187.5 -49zM703.003 319c-3.33301 61.333 -30.001 92 -80.001 92c-24 0 -43.667 -7.83301 -59 -23.5s-24.666 -38.5 -27.999 -68.5h167zM269.002 119
c24.667 0 44 5.83398 58 17.501s21 27.167 21 46.5v33h-46c-31.333 0 -54 -3.83301 -68 -11.5s-21 -20.834 -21 -39.501c0 -30.667 18.667 -46 56 -46z" />
    <glyph glyph-name="ccedilla" unicode="&#xe7;" horiz-adv-x="586" 
d="M280 -228c-76.667 0 -120.665 31.333 -131.998 94h90c4 -17.333 15.667 -26 35 -26c20 0 30 9.66699 30 29c0 20 -11 30 -33 30c-14.667 0 -25.334 -4 -32.001 -12l-40 41l42 64c-66.667 10 -119.667 37.333 -159 82s-59 104.667 -59 180v8c0 86 26.667 153.333 80 202
s121 73 203 73c72.667 0 133.167 -17.5 181.5 -52.5s75.166 -90.833 80.499 -167.5h-185c-4 23.333 -11.333 40.666 -22 51.999s-27.334 17 -50.001 17c-58.667 0 -88 -40 -88 -120v-8c0 -85.333 30.333 -128 91 -128c22.667 0 41 6.83301 55 20.5s22.333 33.167 25 58.5
h177c-2.66699 -67.333 -25.667 -120.666 -69 -159.999s-106 -60 -188 -62l-22 -31c32.667 2.66699 59.834 -3.33301 81.501 -18s32.5 -37.667 32.5 -69c0 -30 -11.333 -53.667 -34 -71s-53 -26 -91 -26z" />
    <glyph glyph-name="egrave" unicode="&#xe8;" horiz-adv-x="604" 
d="M311 -13c-86 0 -155.832 23.667 -209.499 71s-80.5 113 -80.5 197v8c0 83.333 27.667 150 83 200s124.333 75 207 75c78.667 0 143.667 -23 195 -69s77 -113.667 77 -203v-48h-363c2.66699 -31.333 12.5 -55.333 29.5 -72s39.833 -25 68.5 -25c46 0 73.333 18.667 82 56
h184c-8 -61.333 -34.833 -108.333 -80.5 -141s-109.834 -49 -192.501 -49zM393.001 321c-3.33301 60 -30.666 89.999 -81.999 89.999c-24.667 0 -44.834 -7.66699 -60.501 -23s-25.5 -37.666 -29.5 -66.999h172zM136.001 746.999h193l52 -169h-141z" />
    <glyph glyph-name="eacute" unicode="&#xe9;" horiz-adv-x="604" 
d="M311 -13c-86 0 -155.832 23.667 -209.499 71s-80.5 113 -80.5 197v8c0 83.333 27.667 150 83 200s124.333 75 207 75c78.667 0 143.667 -23 195 -69s77 -113.667 77 -203v-48h-363c2.66699 -31.333 12.5 -55.333 29.5 -72s39.833 -25 68.5 -25c46 0 73.333 18.667 82 56
h184c-8 -61.333 -34.833 -108.333 -80.5 -141s-109.834 -49 -192.501 -49zM393.001 321c-3.33301 60 -30.666 89.999 -81.999 89.999c-24.667 0 -44.834 -7.66699 -60.501 -23s-25.5 -37.666 -29.5 -66.999h172zM283.001 746.999h193l-104 -169h-141z" />
    <glyph glyph-name="ecircumflex" unicode="&#xea;" horiz-adv-x="604" 
d="M311 -13c-86 0 -155.832 23.667 -209.499 71s-80.5 113 -80.5 197v8c0 83.333 27.667 150 83 200s124.333 75 207 75c78.667 0 143.667 -23 195 -69s77 -113.667 77 -203v-48h-363c2.66699 -31.333 12.5 -55.333 29.5 -72s39.833 -25 68.5 -25c46 0 73.333 18.667 82 56
h184c-8 -61.333 -34.833 -108.333 -80.5 -141s-109.834 -49 -192.501 -49zM393.001 321c-3.33301 60 -30.666 89.999 -81.999 89.999c-24.667 0 -44.834 -7.66699 -60.501 -23s-25.5 -37.666 -29.5 -66.999h172zM239.001 745.999h138l120 -166h-137l-56 53l-56 -53h-134z
" />
    <glyph glyph-name="edieresis" unicode="&#xeb;" horiz-adv-x="604" 
d="M311 -13c-86 0 -155.832 23.667 -209.499 71s-80.5 113 -80.5 197v8c0 83.333 27.667 150 83 200s124.333 75 207 75c78.667 0 143.667 -23 195 -69s77 -113.667 77 -203v-48h-363c2.66699 -31.333 12.5 -55.333 29.5 -72s39.833 -25 68.5 -25c46 0 73.333 18.667 82 56
h184c-8 -61.333 -34.833 -108.333 -80.5 -141s-109.834 -49 -192.501 -49zM393.001 321c-3.33301 60 -30.666 89.999 -81.999 89.999c-24.667 0 -44.834 -7.66699 -60.501 -23s-25.5 -37.666 -29.5 -66.999h172zM197.001 569.999c-25.333 0 -46.833 8.66699 -64.5 26
s-26.5 38.333 -26.5 63s8.83301 45.667 26.5 63s39.167 26 64.5 26c26 0 47.833 -8.66699 65.5 -26s26.5 -38.333 26.5 -63s-8.83301 -45.667 -26.5 -63s-39.5 -26 -65.5 -26zM414.001 569.999c-25.333 0 -46.666 8.66699 -63.999 26s-26 38.333 -26 63
s8.66699 45.667 26 63s38.666 26 63.999 26c26 0 47.833 -8.66699 65.5 -26s26.5 -38.333 26.5 -63s-8.83301 -45.667 -26.5 -63s-39.5 -26 -65.5 -26z" />
    <glyph glyph-name="igrave" unicode="&#xec;" horiz-adv-x="303" 
d="M53 523h196v-523h-196v523zM-18 747h193l52 -169h-141z" />
    <glyph glyph-name="iacute" unicode="&#xed;" horiz-adv-x="303" 
d="M53 523h196v-523h-196v523zM129 747h193l-104 -169h-141z" />
    <glyph glyph-name="icircumflex" unicode="&#xee;" horiz-adv-x="303" 
d="M53 523h196v-523h-196v523zM85 746h138l120 -166h-137l-56 53l-56 -53h-134z" />
    <glyph glyph-name="idieresis" unicode="&#xef;" horiz-adv-x="303" 
d="M43 570c-25.333 0 -46.833 8.66699 -64.5 26s-26.5 38.333 -26.5 63s8.83301 45.667 26.5 63s39.167 26 64.5 26c26 0 47.833 -8.66699 65.5 -26s26.5 -38.333 26.5 -63s-8.83301 -45.667 -26.5 -63s-39.5 -26 -65.5 -26zM258 570c-25.333 0 -46.666 8.66699 -63.999 26
s-26 38.333 -26 63s8.66699 45.667 26 63s38.666 26 63.999 26c26 0 47.833 -8.66699 65.5 -26s26.5 -38.333 26.5 -63s-8.83301 -45.667 -26.5 -63s-39.5 -26 -65.5 -26zM53 523h196v-523h-196v523z" />
    <glyph glyph-name="eth" unicode="&#xf0;" horiz-adv-x="627" 
d="M101 618l111.002 37c-30.667 26 -71.334 57.333 -122.001 94h222c14 -8 34 -21.333 60 -40l111 38l23 -62l-73 -25c114 -104 171 -222.333 171 -355v-22c0 -91.333 -26.667 -163.5 -80 -216.5s-125 -79.5 -215 -79.5c-84.667 0 -153.834 24.5 -207.501 73.5
s-80.5 116.833 -80.5 203.5v12c0 77.333 23.5 138.833 70.5 184.5s100.5 68.5 160.5 68.5c24.667 0 44.5 -3.33301 59.5 -10s30.167 -17.667 45.5 -33c-19.333 38 -49.333 77.333 -90 118l-143 -48zM314.002 132c60 0 90 42 90 126v8c0 84 -30 126 -90 126
c-61.333 0 -92 -41 -92 -123v-8c0 -86 30.667 -129 92 -129z" />
    <glyph glyph-name="ntilde" unicode="&#xf1;" horiz-adv-x="629" 
d="M47 523h197.001v-84c34 65.333 91.667 98 173 98c51.333 0 92.166 -16.333 122.499 -49s45.5 -80.667 45.5 -144v-344h-197v300c0 53.333 -22 80 -66 80c-52 0 -78 -30.333 -78 -91v-289h-197v523zM381.001 581c-22 0 -45.333 5.33301 -70 16s-40.667 16 -48 16
c-16.667 0 -26.667 -10 -30 -30h-104c3.33301 54 15.5 94.5 36.5 121.5s48.167 40.5 81.5 40.5c20 0 42.833 -5.33301 68.5 -16s43.167 -16 52.5 -16c17.333 0 27.333 10.333 30 31h104c-4 -53.333 -17 -93.833 -39 -121.5s-49.333 -41.5 -82 -41.5z" />
    <glyph glyph-name="ograve" unicode="&#xf2;" horiz-adv-x="626" 
d="M314 132c60 0 90 42.333 90 127v7c0 84 -30 126 -90 126c-62 0 -93 -41 -93 -123v-8c0 -86 31 -129 93 -129zM313 -13c-84.667 0 -154.333 23.833 -209 71.5s-82 113.167 -82 196.5v8c0 83.333 27.5 149.833 82.5 199.5s124.833 74.5 209.5 74.5
c84 0 153.333 -24.333 208 -73s82 -114 82 -196v-8c0 -84 -27.5 -150.5 -82.5 -199.5s-124.5 -73.5 -208.5 -73.5zM142.001 747h193l52 -169h-141z" />
    <glyph glyph-name="oacute" unicode="&#xf3;" horiz-adv-x="626" 
d="M314 132c60 0 90 42.333 90 127v7c0 84 -30 126 -90 126c-62 0 -93 -41 -93 -123v-8c0 -86 31 -129 93 -129zM313 -13c-84.667 0 -154.333 23.833 -209 71.5s-82 113.167 -82 196.5v8c0 83.333 27.5 149.833 82.5 199.5s124.833 74.5 209.5 74.5
c84 0 153.333 -24.333 208 -73s82 -114 82 -196v-8c0 -84 -27.5 -150.5 -82.5 -199.5s-124.5 -73.5 -208.5 -73.5zM289.001 747h193l-104 -169h-141z" />
    <glyph glyph-name="ocircumflex" unicode="&#xf4;" horiz-adv-x="626" 
d="M314 132c60 0 90 42.333 90 127v7c0 84 -30 126 -90 126c-62 0 -93 -41 -93 -123v-8c0 -86 31 -129 93 -129zM313 -13c-84.667 0 -154.333 23.833 -209 71.5s-82 113.167 -82 196.5v8c0 83.333 27.5 149.833 82.5 199.5s124.833 74.5 209.5 74.5
c84 0 153.333 -24.333 208 -73s82 -114 82 -196v-8c0 -84 -27.5 -150.5 -82.5 -199.5s-124.5 -73.5 -208.5 -73.5zM245.001 746h138l120 -166h-137l-56 53l-56 -53h-134z" />
    <glyph glyph-name="otilde" unicode="&#xf5;" horiz-adv-x="626" 
d="M314 132c60 0 90 42.333 90 127v7c0 84 -30 126 -90 126c-62 0 -93 -41 -93 -123v-8c0 -86 31 -129 93 -129zM313 -13c-84.667 0 -154.333 23.833 -209 71.5s-82 113.167 -82 196.5v8c0 83.333 27.5 149.833 82.5 199.5s124.833 74.5 209.5 74.5
c84 0 153.333 -24.333 208 -73s82 -114 82 -196v-8c0 -84 -27.5 -150.5 -82.5 -199.5s-124.5 -73.5 -208.5 -73.5zM378.001 581c-22 0 -45.333 5.33301 -70 16s-40.667 16 -48 16c-16.667 0 -26.667 -10 -30 -30h-104c3.33301 54 15.5 94.5 36.5 121.5
s48.167 40.5 81.5 40.5c20 0 42.833 -5.33301 68.5 -16s43.167 -16 52.5 -16c17.333 0 27.333 10.333 30 31h104c-4 -53.333 -17 -93.833 -39 -121.5s-49.333 -41.5 -82 -41.5z" />
    <glyph glyph-name="odieresis" unicode="&#xf6;" horiz-adv-x="626" 
d="M314 132c60 0 90 42.333 90 127v7c0 84 -30 126 -90 126c-62 0 -93 -41 -93 -123v-8c0 -86 31 -129 93 -129zM313 -13c-84.667 0 -154.333 23.833 -209 71.5s-82 113.167 -82 196.5v8c0 83.333 27.5 149.833 82.5 199.5s124.833 74.5 209.5 74.5
c84 0 153.333 -24.333 208 -73s82 -114 82 -196v-8c0 -84 -27.5 -150.5 -82.5 -199.5s-124.5 -73.5 -208.5 -73.5zM203.001 570c-25.333 0 -46.833 8.66699 -64.5 26s-26.5 38.333 -26.5 63s8.83301 45.667 26.5 63s39.167 26 64.5 26c26 0 47.833 -8.66699 65.5 -26
s26.5 -38.333 26.5 -63s-8.83301 -45.667 -26.5 -63s-39.5 -26 -65.5 -26zM420.001 570c-25.333 0 -46.666 8.66699 -63.999 26s-26 38.333 -26 63s8.66699 45.667 26 63s38.666 26 63.999 26c26 0 47.833 -8.66699 65.5 -26s26.5 -38.333 26.5 -63
s-8.83301 -45.667 -26.5 -63s-39.5 -26 -65.5 -26z" />
    <glyph glyph-name="divide" unicode="&#xf7;" horiz-adv-x="582" 
d="M291 34c-28 0 -51.667 9.33301 -71 28s-29 42 -29 70c0 26.667 9.83301 49.5 29.5 68.5s43.167 28.5 70.5 28.5s50.833 -9.5 70.5 -28.5s29.5 -41.833 29.5 -68.5c0 -28 -9.66699 -51.333 -29 -70s-43 -28 -71 -28zM38 407h507v-134h-507v134zM291 450
c-27.333 0 -50.833 9.5 -70.5 28.5s-29.5 41.833 -29.5 68.5c0 28 9.66699 51.333 29 70s43 28 71 28s51.667 -9.33301 71 -28s29 -42 29 -70c0 -26.667 -9.83301 -49.5 -29.5 -68.5s-43.167 -28.5 -70.5 -28.5z" />
    <glyph glyph-name="oslash" unicode="&#xf8;" horiz-adv-x="626" 
d="M22 7l64.001 68c-43.333 47.333 -65 107.333 -65 180v8c0 83.333 27.667 150 83 200s125.333 75 210 75c64 0 119.667 -14.333 167 -43l65 69l50 -46l-62 -66c46.667 -48 70 -109.333 70 -184v-8c0 -84 -27.5 -150.5 -82.5 -199.5s-124.5 -73.5 -208.5 -73.5
c-68.667 0 -126.334 15 -173.001 45l-67 -71zM314.001 131c62 0 93.001 42.334 93.001 127.001v8c0 17.333 -1.33301 32.666 -4 45.999l-150 -160c15.333 -14 35.666 -21 60.999 -21zM219.002 261.001c0 -15.333 0.999023 -29.333 2.99902 -42l147 157
c-15.333 11.333 -33.666 17 -54.999 17c-63.333 0 -95 -41.333 -95 -124v-8z" />
    <glyph glyph-name="ugrave" unicode="&#xf9;" horiz-adv-x="628" 
d="M218 -13c-52 0 -94.167 16.5 -126.5 49.5s-48.5 80.833 -48.5 143.5v343h197v-309c0 -53.333 22 -80 66 -80c52 0 78 30.333 78 91v298h197v-523h-197v81c-32.667 -62.667 -88 -94 -166 -94zM142 747h193l52 -169h-141z" />
    <glyph glyph-name="uacute" unicode="&#xfa;" horiz-adv-x="628" 
d="M218 -13c-52 0 -94.167 16.5 -126.5 49.5s-48.5 80.833 -48.5 143.5v343h197v-309c0 -53.333 22 -80 66 -80c52 0 78 30.333 78 91v298h197v-523h-197v81c-32.667 -62.667 -88 -94 -166 -94zM289 747h193l-104 -169h-141z" />
    <glyph glyph-name="ucircumflex" unicode="&#xfb;" horiz-adv-x="628" 
d="M218 -13c-52 0 -94.167 16.5 -126.5 49.5s-48.5 80.833 -48.5 143.5v343h197v-309c0 -53.333 22 -80 66 -80c52 0 78 30.333 78 91v298h197v-523h-197v81c-32.667 -62.667 -88 -94 -166 -94zM245 746h138l120 -166h-137l-56 53l-56 -53h-134z" />
    <glyph glyph-name="udieresis" unicode="&#xfc;" horiz-adv-x="628" 
d="M218 -13c-52 0 -94.167 16.5 -126.5 49.5s-48.5 80.833 -48.5 143.5v343h197v-309c0 -53.333 22 -80 66 -80c52 0 78 30.333 78 91v298h197v-523h-197v81c-32.667 -62.667 -88 -94 -166 -94zM203 570c-25.333 0 -46.833 8.66699 -64.5 26s-26.5 38.333 -26.5 63
s8.83301 45.667 26.5 63s39.167 26 64.5 26c26 0 47.833 -8.66699 65.5 -26s26.5 -38.333 26.5 -63s-8.83301 -45.667 -26.5 -63s-39.5 -26 -65.5 -26zM420 570c-25.333 0 -46.666 8.66699 -63.999 26s-26 38.333 -26 63s8.66699 45.667 26 63s38.666 26 63.999 26
c26 0 47.833 -8.66699 65.5 -26s26.5 -38.333 26.5 -63s-8.83301 -45.667 -26.5 -63s-39.5 -26 -65.5 -26z" />
    <glyph glyph-name="yacute" unicode="&#xfd;" 
d="M214 52l-209 471h213l99 -261l92 261h186l-279 -697h-187zM288 747h193l-104 -169h-141z" />
    <glyph glyph-name="thorn" unicode="&#xfe;" horiz-adv-x="646" 
d="M47 750l197.002 -0.000976562v-303c35.333 60 88.666 90 159.999 90c63.333 0 115.666 -23.5 156.999 -70.5s62 -114.167 62 -201.5v-8c0 -87.333 -20.667 -154.166 -62 -200.499s-94 -69.5 -158 -69.5c-74.667 0 -127.667 29.333 -159 88v-249h-197v924z
M331.002 136.999c61.333 0 92 40.667 92 122v8c0 82.667 -31 124 -93 124c-29.333 0 -51.833 -10.667 -67.5 -32s-23.5 -52 -23.5 -92v-8c0 -81.333 30.667 -122 92 -122z" />
    <glyph glyph-name="ydieresis" unicode="&#xff;" 
d="M214 52l-209 471h213l99 -261l92 261h186l-279 -697h-187zM202 570c-25.333 0 -46.833 8.66699 -64.5 26s-26.5 38.333 -26.5 63s8.83301 45.667 26.5 63s39.167 26 64.5 26c26 0 47.833 -8.66699 65.5 -26s26.5 -38.333 26.5 -63s-8.83301 -45.667 -26.5 -63
s-39.5 -26 -65.5 -26zM419 570c-25.333 0 -46.666 8.66699 -63.999 26s-26 38.333 -26 63s8.66699 45.667 26 63s38.666 26 63.999 26c26 0 47.833 -8.66699 65.5 -26s26.5 -38.333 26.5 -63s-8.83301 -45.667 -26.5 -63s-39.5 -26 -65.5 -26z" />
    <glyph glyph-name="Amacron" unicode="&#x100;" horiz-adv-x="760" 
d="M234 715h293l224 -715h-240l-33 119h-226l-32 -119h-211zM295 273h141l-70 259zM211 884h333v-115h-333v115z" />
    <glyph glyph-name="amacron" unicode="&#x101;" horiz-adv-x="585" 
d="M198 -13c-51.333 0 -93.834 13.167 -127.501 39.5s-50.5 65.833 -50.5 118.5c0 60 23.5 103.5 70.5 130.5s117.167 40.5 210.5 40.5h45v9c0 25.333 -4 44.333 -12 57s-24.333 19 -49 19c-37.333 0 -58 -18.667 -62 -56h-184c4 62.667 28.833 110.5 74.5 143.5
s106.834 49.5 183.501 49.5c78 0 138.167 -16.667 180.5 -50s63.5 -83.333 63.5 -150v-338h-190v60c-27.333 -48.667 -78.333 -73 -153 -73zM268.999 119c22.667 0 41.166 5.83301 55.499 17.5s21.5 27.167 21.5 46.5v27h-42c-33.333 0 -56.666 -3.66699 -69.999 -11
s-20 -20.333 -20 -39c0 -27.333 18.333 -41 55 -41zM136.998 712h316v-107h-316v107z" />
    <glyph glyph-name="Abreve" unicode="&#x102;" horiz-adv-x="760" 
d="M234 715h293l224 -715h-240l-33 119h-226l-32 -119h-211zM295 273h141l-70 259zM378 749c-52 0 -92.6689 13.667 -122.002 41s-45.666 66 -48.999 116h124c3.33301 -28 19 -42 47 -42s43.667 14 47 42h124c-3.33301 -50 -20.166 -88.667 -50.499 -116
s-70.5 -41 -120.5 -41z" />
    <glyph glyph-name="abreve" unicode="&#x103;" horiz-adv-x="585" 
d="M198 -13c-51.333 0 -93.834 13.167 -127.501 39.5s-50.5 65.833 -50.5 118.5c0 60 23.5 103.5 70.5 130.5s117.167 40.5 210.5 40.5h45v9c0 25.333 -4 44.333 -12 57s-24.333 19 -49 19c-37.333 0 -58 -18.667 -62 -56h-184c4 62.667 28.833 110.5 74.5 143.5
s106.834 49.5 183.501 49.5c78 0 138.167 -16.667 180.5 -50s63.5 -83.333 63.5 -150v-338h-190v60c-27.333 -48.667 -78.333 -73 -153 -73zM268.999 119c22.667 0 41.166 5.83301 55.499 17.5s21.5 27.167 21.5 46.5v27h-42c-33.333 0 -56.666 -3.66699 -69.999 -11
s-20 -20.333 -20 -39c0 -27.333 18.333 -41 55 -41zM294.998 581c-51.333 0 -91.668 14 -121.001 42s-45.333 68.333 -48 121h119c3.33301 -30 20 -45 50 -45c30.667 0 47.667 15 51 45h118c-3.33301 -52.667 -20.166 -93 -50.499 -121s-69.833 -42 -118.5 -42z" />
    <glyph glyph-name="Aogonek" unicode="&#x104;" horiz-adv-x="760" 
d="M646 -182c-40 0 -71.333 7.33301 -94 22s-34 34.667 -34 60c0 36 29 69.333 87 100h-94l-33 119h-226l-32 -119h-211l225 715h293l219 -700c-18.667 -10 -33.167 -21.667 -43.5 -35s-15.5 -25 -15.5 -35c0 -16 9.33301 -24 28 -24c11.333 0 19.666 1.33301 24.999 4v-90
c-21.333 -11.333 -52.666 -17 -93.999 -17zM295 273h141l-70 259z" />
    <glyph glyph-name="aogonek" unicode="&#x105;" horiz-adv-x="585" 
d="M450 -182c-36.667 0 -65.668 7.16797 -87.001 21.501s-32 34.166 -32 59.499c0 24 7.66699 43.333 23 58s37 29 65 43h-68v60c-27.333 -48.667 -78.333 -73 -153 -73c-51.333 0 -93.833 13.167 -127.5 39.5s-50.5 65.833 -50.5 118.5c0 60 23.5 103.5 70.5 130.5
s117.167 40.5 210.5 40.5h45v9c0 25.333 -4 44.333 -12 57s-24.333 19 -49 19c-37.333 0 -58 -18.667 -62 -56h-184c4 62.667 28.833 110.5 74.5 143.5s106.834 49.5 183.501 49.5c78 0 138.167 -16.667 180.5 -50s63.5 -83.333 63.5 -150v-326
c-34.667 -26 -52 -49.667 -52 -71c0 -17.333 9.66699 -26 29 -26c11.333 0 20 1.33301 26 4v-84c-24 -11.333 -55.333 -17 -94 -17zM268.999 119.001c22.667 0 41.166 5.83301 55.499 17.5s21.5 27.167 21.5 46.5v27h-42c-33.333 0 -56.666 -3.66699 -69.999 -11
s-20 -20.333 -20 -39c0 -27.333 18.333 -41 55 -41z" />
    <glyph glyph-name="Cacute" unicode="&#x106;" horiz-adv-x="764" 
d="M408 -13c-126 0 -220.833 32.668 -284.5 98.001s-95.5 154.666 -95.5 267.999v8c0 109.333 34.833 197.5 104.5 264.5s158.167 100.5 265.5 100.5c99.333 0 178.833 -23.5 238.5 -70.5s93.5 -117.5 101.5 -211.5h-234c-7.33301 68.667 -42.333 103 -105 103
c-42 0 -74.5 -15.833 -97.5 -47.5s-34.5 -77.5 -34.5 -137.5v-8c0 -60 11.667 -105.833 35 -137.5s57 -47.5 101 -47.5c70.667 0 110 35 118 105h226c-6.66699 -92 -40.5 -162.833 -101.5 -212.5s-140.167 -74.5 -237.5 -74.5zM364 906.001h201l-103 -149h-149z" />
    <glyph glyph-name="cacute" unicode="&#x107;" horiz-adv-x="586" 
d="M300 -13c-82 0 -148.83 23 -200.497 69s-77.5 112 -77.5 198v8c0 86 26.667 153.333 80 202s121 73 203 73c72.667 0 133.167 -17.5 181.5 -52.5s75.166 -90.833 80.499 -167.5h-185c-4 23.333 -11.333 40.666 -22 51.999s-27.334 17 -50.001 17
c-58.667 0 -88 -40 -88 -120v-8c0 -85.333 30.333 -128 91 -128c22.667 0 41 6.83301 55 20.5s22.333 33.167 25 58.5h177c-2.66699 -69.333 -26.834 -123.666 -72.501 -162.999s-111.5 -59 -197.5 -59zM276.003 747h193l-104 -169h-141z" />
    <glyph glyph-name="Ccircumflex" unicode="&#x108;" horiz-adv-x="764" 
d="M408 -13c-126 0 -220.833 32.668 -284.5 98.001s-95.5 154.666 -95.5 267.999v8c0 109.333 34.833 197.5 104.5 264.5s158.167 100.5 265.5 100.5c99.333 0 178.833 -23.5 238.5 -70.5s93.5 -117.5 101.5 -211.5h-234c-7.33301 68.667 -42.333 103 -105 103
c-42 0 -74.5 -15.833 -97.5 -47.5s-34.5 -77.5 -34.5 -137.5v-8c0 -60 11.667 -105.833 35 -137.5s57 -47.5 101 -47.5c70.667 0 110 35 118 105h226c-6.66699 -92 -40.5 -162.833 -101.5 -212.5s-140.167 -74.5 -237.5 -74.5zM316 906.001h164l110 -149h-142l-54 47
l-54 -47h-139z" />
    <glyph glyph-name="ccircumflex" unicode="&#x109;" horiz-adv-x="586" 
d="M300 -13c-82 0 -148.83 23 -200.497 69s-77.5 112 -77.5 198v8c0 86 26.667 153.333 80 202s121 73 203 73c72.667 0 133.167 -17.5 181.5 -52.5s75.166 -90.833 80.499 -167.5h-185c-4 23.333 -11.333 40.666 -22 51.999s-27.334 17 -50.001 17
c-58.667 0 -88 -40 -88 -120v-8c0 -85.333 30.333 -128 91 -128c22.667 0 41 6.83301 55 20.5s22.333 33.167 25 58.5h177c-2.66699 -69.333 -26.834 -123.666 -72.501 -162.999s-111.5 -59 -197.5 -59zM233.003 746h138l120 -166h-137l-56 53l-56 -53h-134z" />
    <glyph glyph-name="Cdotaccent" unicode="&#x10a;" horiz-adv-x="764" 
d="M408 -13c-126 0 -220.833 32.668 -284.5 98.001s-95.5 154.666 -95.5 267.999v8c0 109.333 34.833 197.5 104.5 264.5s158.167 100.5 265.5 100.5c99.333 0 178.833 -23.5 238.5 -70.5s93.5 -117.5 101.5 -211.5h-234c-7.33301 68.667 -42.333 103 -105 103
c-42 0 -74.5 -15.833 -97.5 -47.5s-34.5 -77.5 -34.5 -137.5v-8c0 -60 11.667 -105.833 35 -137.5s57 -47.5 101 -47.5c70.667 0 110 35 118 105h226c-6.66699 -92 -40.5 -162.833 -101.5 -212.5s-140.167 -74.5 -237.5 -74.5zM396 752.001c-30 0 -54.667 9 -74 27
s-29 40.667 -29 68c0 28 9.66699 51 29 69s44 27 74 27c29.333 0 53.666 -9 72.999 -27s29 -41 29 -69c0 -27.333 -9.66699 -50 -29 -68s-43.666 -27 -72.999 -27z" />
    <glyph glyph-name="cdotaccent" unicode="&#x10b;" horiz-adv-x="586" 
d="M300 -13c-82 0 -148.83 23 -200.497 69s-77.5 112 -77.5 198v8c0 86 26.667 153.333 80 202s121 73 203 73c72.667 0 133.167 -17.5 181.5 -52.5s75.166 -90.833 80.499 -167.5h-185c-4 23.333 -11.333 40.666 -22 51.999s-27.334 17 -50.001 17
c-58.667 0 -88 -40 -88 -120v-8c0 -85.333 30.333 -128 91 -128c22.667 0 41 6.83301 55 20.5s22.333 33.167 25 58.5h177c-2.66699 -69.333 -26.834 -123.666 -72.501 -162.999s-111.5 -59 -197.5 -59zM303.003 570c-30 0 -54.667 8.83301 -74 26.5s-29 40.5 -29 68.5
s9.66699 51 29 69s44 27 74 27c29.333 0 53.833 -9 73.5 -27s29.5 -41 29.5 -69s-9.66699 -50.833 -29 -68.5s-44 -26.5 -74 -26.5z" />
    <glyph glyph-name="Ccaron" unicode="&#x10c;" horiz-adv-x="764" 
d="M408 -13c-126 0 -220.833 32.668 -284.5 98.001s-95.5 154.666 -95.5 267.999v8c0 109.333 34.833 197.5 104.5 264.5s158.167 100.5 265.5 100.5c99.333 0 178.833 -23.5 238.5 -70.5s93.5 -117.5 101.5 -211.5h-234c-7.33301 68.667 -42.333 103 -105 103
c-42 0 -74.5 -15.833 -97.5 -47.5s-34.5 -77.5 -34.5 -137.5v-8c0 -60 11.667 -105.833 35 -137.5s57 -47.5 101 -47.5c70.667 0 110 35 118 105h226c-6.66699 -92 -40.5 -162.833 -101.5 -212.5s-140.167 -74.5 -237.5 -74.5zM200 906.001h142l54 -47l54 47h139l-115 -149
h-164z" />
    <glyph glyph-name="ccaron" unicode="&#x10d;" horiz-adv-x="586" 
d="M300 -13c-82 0 -148.83 23 -200.497 69s-77.5 112 -77.5 198v8c0 86 26.667 153.333 80 202s121 73 203 73c72.667 0 133.167 -17.5 181.5 -52.5s75.166 -90.833 80.499 -167.5h-185c-4 23.333 -11.333 40.666 -22 51.999s-27.334 17 -50.001 17
c-58.667 0 -88 -40 -88 -120v-8c0 -85.333 30.333 -128 91 -128c22.667 0 41 6.83301 55 20.5s22.333 33.167 25 58.5h177c-2.66699 -69.333 -26.834 -123.666 -72.501 -162.999s-111.5 -59 -197.5 -59zM108.003 746h137l56 -52l56 52h134l-125 -166h-138z" />
    <glyph glyph-name="Dcaron" unicode="&#x10e;" horiz-adv-x="751" 
d="M330 174c56 0 96.332 14.332 120.999 42.999s37 74.334 37 137.001v8c0 64.667 -12.667 110.667 -38 138s-65.666 41 -120.999 41h-37v-367h38zM64.999 714.999h273c128 0 224.333 -29.5 289 -88.5s97 -145.833 97 -260.5v-7c0 -115.333 -32.833 -204 -98.5 -266
s-161.5 -93 -287.5 -93h-273v715zM143.999 905.999h142l54 -47l54 47h139l-115 -149h-164z" />
    <glyph glyph-name="dcaron" unicode="&#x10f;" horiz-adv-x="645" 
d="M241 -13c-62.667 0 -114.666 23.001 -155.999 69.001s-62 112.667 -62 200v8c0 87.333 20.667 154.666 62 201.999s93.333 71 156 71c75.333 0 128.666 -28.667 159.999 -86v299h197v-750h-197v84c-32 -64.667 -85.333 -97 -160 -97zM314.001 137.001
c61.333 0 92 41 92 123v8c0 82 -30.333 123 -91 123c-61.333 0 -92 -41.333 -92 -124v-8c0 -81.333 30.333 -122 91 -122zM640.001 750.001h140l-50 -175h-98z" />
    <glyph glyph-name="Dcroat" unicode="&#x110;" horiz-adv-x="785" 
d="M29 435h54.001v280h273c128 0 224.5 -29.5 289.5 -88.5s97.5 -145.833 97.5 -260.5v-7c0 -115.333 -32.833 -204 -98.5 -266s-161.834 -93 -288.501 -93h-273v284h-54v151zM349.001 174c55.333 0 95.332 14.332 119.999 42.999s37 74.334 37 137.001v8
c0 64.667 -12.667 110.667 -38 138s-65.666 41 -120.999 41h-41v-106h104v-151h-104v-110h43z" />
    <glyph glyph-name="dcroat" unicode="&#x111;" horiz-adv-x="645" 
d="M250 684l151.001 0.000976562v66h197v-66h53v-103h-53v-581h-197v84c-32 -64.667 -85.333 -97 -160 -97c-62.667 0 -114.667 23 -156 69s-62 112.667 -62 200v8c0 87.333 20.667 154.666 62 201.999s93.333 71 156 71c75.333 0 128.666 -28.667 159.999 -86v130h-151v103
zM314.001 137.001c61.333 0 92 41 92 123v8c0 82 -30.333 123 -91 123c-61.333 0 -92 -41.333 -92 -124v-8c0 -81.333 30.333 -122 91 -122z" />
    <glyph glyph-name="Emacron" unicode="&#x112;" horiz-adv-x="620" 
d="M65 715h508v-174h-282v-101h224v-159h-224v-107h298v-174h-524v715zM160 884h333v-115h-333v115z" />
    <glyph glyph-name="emacron" unicode="&#x113;" horiz-adv-x="604" 
d="M311 -13c-86 0 -155.832 23.667 -209.499 71s-80.5 113 -80.5 197v8c0 83.333 27.667 150 83 200s124.333 75 207 75c78.667 0 143.667 -23 195 -69s77 -113.667 77 -203v-48h-363c2.66699 -31.333 12.5 -55.333 29.5 -72s39.833 -25 68.5 -25c46 0 73.333 18.667 82 56
h184c-8 -61.333 -34.833 -108.333 -80.5 -141s-109.834 -49 -192.501 -49zM393.001 321c-3.33301 60 -30.666 89.999 -81.999 89.999c-24.667 0 -44.834 -7.66699 -60.501 -23s-25.5 -37.666 -29.5 -66.999h172zM148.001 711.999h316v-107h-316v107z" />
    <glyph glyph-name="Ebreve" unicode="&#x114;" horiz-adv-x="620" 
d="M65 715h508v-174h-282v-101h224v-159h-224v-107h298v-174h-524v715zM325 749c-52 0 -92.6689 13.667 -122.002 41s-45.666 66 -48.999 116h124c3.33301 -28 19 -42 47 -42s43.667 14 47 42h124c-3.33301 -50 -20.166 -88.667 -50.499 -116s-70.5 -41 -120.5 -41z" />
    <glyph glyph-name="ebreve" unicode="&#x115;" horiz-adv-x="604" 
d="M311 -13c-86 0 -155.832 23.667 -209.499 71s-80.5 113 -80.5 197v8c0 83.333 27.667 150 83 200s124.333 75 207 75c78.667 0 143.667 -23 195 -69s77 -113.667 77 -203v-48h-363c2.66699 -31.333 12.5 -55.333 29.5 -72s39.833 -25 68.5 -25c46 0 73.333 18.667 82 56
h184c-8 -61.333 -34.833 -108.333 -80.5 -141s-109.834 -49 -192.501 -49zM393.001 321c-3.33301 60 -30.666 89.999 -81.999 89.999c-24.667 0 -44.834 -7.66699 -60.501 -23s-25.5 -37.666 -29.5 -66.999h172zM301.001 580.999c-51.333 0 -91.668 14 -121.001 42
s-45.333 68.333 -48 121h119c3.33301 -30 20 -45 50 -45c30.667 0 47.667 15 51 45h118c-3.33301 -52.667 -20.166 -93 -50.499 -121s-69.833 -42 -118.5 -42z" />
    <glyph glyph-name="Edotaccent" unicode="&#x116;" horiz-adv-x="620" 
d="M65 715h508v-174h-282v-101h224v-159h-224v-107h298v-174h-524v715zM327 752c-30 0 -54.667 9 -74 27s-29 40.667 -29 68c0 28 9.66699 51 29 69s44 27 74 27c29.333 0 53.666 -9 72.999 -27s29 -41 29 -69c0 -27.333 -9.66699 -50 -29 -68s-43.666 -27 -72.999 -27z" />
    <glyph glyph-name="edotaccent" unicode="&#x117;" horiz-adv-x="604" 
d="M311 -13c-86 0 -155.832 23.667 -209.499 71s-80.5 113 -80.5 197v8c0 83.333 27.667 150 83 200s124.333 75 207 75c78.667 0 143.667 -23 195 -69s77 -113.667 77 -203v-48h-363c2.66699 -31.333 12.5 -55.333 29.5 -72s39.833 -25 68.5 -25c46 0 73.333 18.667 82 56
h184c-8 -61.333 -34.833 -108.333 -80.5 -141s-109.834 -49 -192.501 -49zM393.001 321c-3.33301 60 -30.666 89.999 -81.999 89.999c-24.667 0 -44.834 -7.66699 -60.501 -23s-25.5 -37.666 -29.5 -66.999h172zM307.001 569.999c-30 0 -54.667 8.83301 -74 26.5
s-29 40.5 -29 68.5s9.66699 51 29 69s44 27 74 27c29.333 0 53.833 -9 73.5 -27s29.5 -41 29.5 -69s-9.66699 -50.833 -29 -68.5s-44 -26.5 -74 -26.5z" />
    <glyph glyph-name="Eogonek" unicode="&#x118;" horiz-adv-x="620" 
d="M470 -182c-39.333 0 -70 7.33203 -92 21.999s-33 34.667 -33 60c0 36 28.667 69.333 86 100h-366v715h508v-174h-282v-101h224v-159h-224v-107h298v-174h-40c-24 -21.333 -36 -39.666 -36 -54.999c0 -16 9.33301 -24 28 -24c11.333 0 20 1.33301 26 4v-90
c-24 -11.333 -56.333 -17 -97 -17z" />
    <glyph glyph-name="eogonek" unicode="&#x119;" horiz-adv-x="604" 
d="M408 -182c-37.333 0 -66.833 6.83301 -88.5 20.5s-32.5 33.167 -32.5 58.5c0 13.333 4.83301 26.333 14.5 39s19.167 22.334 28.5 29.001s23.333 15.667 42 27c-18.667 -3.33301 -39 -5 -61 -5c-86 0 -155.833 23.667 -209.5 71s-80.5 113 -80.5 197v8
c0 83.333 27.667 150 83 200s124.333 75 207 75c78.667 0 143.667 -23 195 -69s77 -113.667 77 -203v-48h-363c2.66699 -31.333 12.5 -55.333 29.5 -72s39.833 -25 68.5 -25c46 0 73.333 18.667 82 56h184c-6 -48.667 -28.667 -93.334 -68 -134.001l-39.5 -41
c-7 -7.33301 -14 -16.833 -21 -28.5s-10.5 -22.5 -10.5 -32.5c0 -17.333 9.66699 -26 29 -26c11.333 0 20 1.33301 26 4v-84c-24 -11.333 -54.667 -17 -92 -17zM393 321c-3.33301 60 -30.666 89.999 -81.999 89.999c-24.667 0 -44.834 -7.66699 -60.501 -23
s-25.5 -37.666 -29.5 -66.999h172z" />
    <glyph glyph-name="Ecaron" unicode="&#x11a;" horiz-adv-x="620" 
d="M65 715h508v-174h-282v-101h224v-159h-224v-107h298v-174h-524v715zM131 906h142l54 -47l54 47h139l-115 -149h-164z" />
    <glyph glyph-name="ecaron" unicode="&#x11b;" horiz-adv-x="604" 
d="M311 -13c-86 0 -155.832 23.667 -209.499 71s-80.5 113 -80.5 197v8c0 83.333 27.667 150 83 200s124.333 75 207 75c78.667 0 143.667 -23 195 -69s77 -113.667 77 -203v-48h-363c2.66699 -31.333 12.5 -55.333 29.5 -72s39.833 -25 68.5 -25c46 0 73.333 18.667 82 56
h184c-8 -61.333 -34.833 -108.333 -80.5 -141s-109.834 -49 -192.501 -49zM393.001 321c-3.33301 60 -30.666 89.999 -81.999 89.999c-24.667 0 -44.834 -7.66699 -60.501 -23s-25.5 -37.666 -29.5 -66.999h172zM114.001 745.999h137l56 -52l56 52h134l-125 -166h-138z" />
    <glyph glyph-name="Gcircumflex" unicode="&#x11c;" horiz-adv-x="791" 
d="M407 -13c-121.333 0 -215.002 33.3311 -281.002 99.998s-99 155.334 -99 266.001v8c0 108.667 36 196.667 108 264s162.667 101 272 101c60.667 0 115 -9 163 -27s88.5 -47.667 121.5 -89s51.5 -92.666 55.5 -153.999h-224c-8 61.333 -46.333 92 -115 92
c-45.333 0 -80.833 -16.667 -106.5 -50s-38.5 -80.333 -38.5 -141v-8c0 -126.667 50.333 -190 151 -190c42 0 73.333 8.5 94 25.5s32.334 38.833 35.001 65.5h-122v149h343v-92c0 -93.333 -30.667 -170 -92 -230s-149.666 -90 -264.999 -90zM324.998 905.998h164l110 -149
h-142l-54 47l-54 -47h-139z" />
    <glyph glyph-name="gcircumflex" unicode="&#x11d;" horiz-adv-x="644" 
d="M299 -194c-172.667 0 -265.999 66 -279.999 198h195c4.66699 -19.333 13.167 -34.5 25.5 -45.5s32.5 -16.5 60.5 -16.5c66.667 0 100 33.333 100 100v81c-32.667 -61.333 -85.667 -92 -159 -92c-62.667 0 -114.834 21.833 -156.501 65.5s-62.5 104.5 -62.5 182.5v8
c0 76 21 136.833 63 182.5s93.667 68.5 155 68.5c74.667 0 128 -29 160 -87v72h197v-478c0 -78.667 -25.167 -138.167 -75.5 -178.5s-124.5 -60.5 -222.5 -60.5zM314.001 171c29.333 0 52 9.5 68 28.5s24 45.5 24 79.5v7c0 32.667 -8 58.5 -24 77.5s-38.667 28.5 -68 28.5
c-30 0 -52.833 -9.33301 -68.5 -28s-23.5 -45 -23.5 -79v-8c0 -32.667 8 -58.5 24 -77.5s38.667 -28.5 68 -28.5zM240.001 746h138l120 -166h-137l-56 53l-56 -53h-134z" />
    <glyph glyph-name="Gbreve" unicode="&#x11e;" horiz-adv-x="791" 
d="M407 -13c-121.333 0 -215.002 33.3311 -281.002 99.998s-99 155.334 -99 266.001v8c0 108.667 36 196.667 108 264s162.667 101 272 101c60.667 0 115 -9 163 -27s88.5 -47.667 121.5 -89s51.5 -92.666 55.5 -153.999h-224c-8 61.333 -46.333 92 -115 92
c-45.333 0 -80.833 -16.667 -106.5 -50s-38.5 -80.333 -38.5 -141v-8c0 -126.667 50.333 -190 151 -190c42 0 73.333 8.5 94 25.5s32.334 38.833 35.001 65.5h-122v149h343v-92c0 -93.333 -30.667 -170 -92 -230s-149.666 -90 -264.999 -90zM404.998 748.998
c-52 0 -92.6689 13.667 -122.002 41s-45.666 66 -48.999 116h124c3.33301 -28 19 -42 47 -42s43.667 14 47 42h124c-3.33301 -50 -20.166 -88.667 -50.499 -116s-70.5 -41 -120.5 -41z" />
    <glyph glyph-name="gbreve" unicode="&#x11f;" horiz-adv-x="644" 
d="M299 -194c-172.667 0 -265.999 66 -279.999 198h195c4.66699 -19.333 13.167 -34.5 25.5 -45.5s32.5 -16.5 60.5 -16.5c66.667 0 100 33.333 100 100v81c-32.667 -61.333 -85.667 -92 -159 -92c-62.667 0 -114.834 21.833 -156.501 65.5s-62.5 104.5 -62.5 182.5v8
c0 76 21 136.833 63 182.5s93.667 68.5 155 68.5c74.667 0 128 -29 160 -87v72h197v-478c0 -78.667 -25.167 -138.167 -75.5 -178.5s-124.5 -60.5 -222.5 -60.5zM314.001 171c29.333 0 52 9.5 68 28.5s24 45.5 24 79.5v7c0 32.667 -8 58.5 -24 77.5s-38.667 28.5 -68 28.5
c-30 0 -52.833 -9.33301 -68.5 -28s-23.5 -45 -23.5 -79v-8c0 -32.667 8 -58.5 24 -77.5s38.667 -28.5 68 -28.5zM307.001 581c-51.333 0 -91.668 14 -121.001 42s-45.333 68.333 -48 121h119c3.33301 -30 20 -45 50 -45c30.667 0 47.667 15 51 45h118
c-3.33301 -52.667 -20.166 -93 -50.499 -121s-69.833 -42 -118.5 -42z" />
    <glyph glyph-name="Gdotaccent" unicode="&#x120;" horiz-adv-x="791" 
d="M407 -13c-121.333 0 -215.002 33.3311 -281.002 99.998s-99 155.334 -99 266.001v8c0 108.667 36 196.667 108 264s162.667 101 272 101c60.667 0 115 -9 163 -27s88.5 -47.667 121.5 -89s51.5 -92.666 55.5 -153.999h-224c-8 61.333 -46.333 92 -115 92
c-45.333 0 -80.833 -16.667 -106.5 -50s-38.5 -80.333 -38.5 -141v-8c0 -126.667 50.333 -190 151 -190c42 0 73.333 8.5 94 25.5s32.334 38.833 35.001 65.5h-122v149h343v-92c0 -93.333 -30.667 -170 -92 -230s-149.666 -90 -264.999 -90zM404.998 751.998
c-30 0 -54.667 9 -74 27s-29 40.667 -29 68c0 28 9.66699 51 29 69s44 27 74 27c29.333 0 53.666 -9 72.999 -27s29 -41 29 -69c0 -27.333 -9.66699 -50 -29 -68s-43.666 -27 -72.999 -27z" />
    <glyph glyph-name="gdotaccent" unicode="&#x121;" horiz-adv-x="644" 
d="M299 -194c-172.667 0 -265.999 66 -279.999 198h195c4.66699 -19.333 13.167 -34.5 25.5 -45.5s32.5 -16.5 60.5 -16.5c66.667 0 100 33.333 100 100v81c-32.667 -61.333 -85.667 -92 -159 -92c-62.667 0 -114.834 21.833 -156.501 65.5s-62.5 104.5 -62.5 182.5v8
c0 76 21 136.833 63 182.5s93.667 68.5 155 68.5c74.667 0 128 -29 160 -87v72h197v-478c0 -78.667 -25.167 -138.167 -75.5 -178.5s-124.5 -60.5 -222.5 -60.5zM314.001 171c29.333 0 52 9.5 68 28.5s24 45.5 24 79.5v7c0 32.667 -8 58.5 -24 77.5s-38.667 28.5 -68 28.5
c-30 0 -52.833 -9.33301 -68.5 -28s-23.5 -45 -23.5 -79v-8c0 -32.667 8 -58.5 24 -77.5s38.667 -28.5 68 -28.5zM308.001 570c-30 0 -54.667 8.83301 -74 26.5s-29 40.5 -29 68.5s9.66699 51 29 69s44 27 74 27c29.333 0 53.833 -9 73.5 -27s29.5 -41 29.5 -69
s-9.66699 -50.833 -29 -68.5s-44 -26.5 -74 -26.5z" />
    <glyph glyph-name="uni0122" unicode="&#x122;" horiz-adv-x="790" 
d="M407 -13c-121.333 0 -215.002 33.3311 -281.002 99.998s-99 155.334 -99 266.001v8c0 108.667 36 196.667 108 264s162.667 101 272 101c60.667 0 115 -9 163 -27s88.5 -47.667 121.5 -89s51.5 -92.666 55.5 -153.999h-224c-8 61.333 -46.333 92 -115 92
c-45.333 0 -80.833 -16.667 -106.5 -50s-38.5 -80.333 -38.5 -141v-8c0 -126.667 50.333 -190 151 -190c42 0 73.333 8.5 94 25.5s32.334 38.833 35.001 65.5h-122v149h343v-92c0 -93.333 -30.667 -170 -92 -230s-149.666 -90 -264.999 -90zM282.998 -206.002l39 175
l172 -12l-101 -190z" />
    <glyph glyph-name="uni0123" unicode="&#x123;" horiz-adv-x="644" 
d="M299 -194c-172.667 0 -265.999 66 -279.999 198h195c4.66699 -19.333 13.167 -34.5 25.5 -45.5s32.5 -16.5 60.5 -16.5c66.667 0 100 33.333 100 100v81c-32.667 -61.333 -85.667 -92 -159 -92c-62.667 0 -114.834 21.833 -156.501 65.5s-62.5 104.5 -62.5 182.5v8
c0 76 21 136.833 63 182.5s93.667 68.5 155 68.5c74.667 0 128 -29 160 -87v72h197v-478c0 -78.667 -25.167 -138.167 -75.5 -178.5s-124.5 -60.5 -222.5 -60.5zM314.001 171c29.333 0 52 9.5 68 28.5s24 45.5 24 79.5v7c0 32.667 -8 58.5 -24 77.5s-38.667 28.5 -68 28.5
c-30 0 -52.833 -9.33301 -68.5 -28s-23.5 -45 -23.5 -79v-8c0 -32.667 8 -58.5 24 -77.5s38.667 -28.5 68 -28.5zM227.001 577l101 190l110 -27l-39 -175z" />
    <glyph glyph-name="Hcircumflex" unicode="&#x124;" horiz-adv-x="794" 
d="M65 715h227v-264h210v264h227v-715h-227v275h-210v-275h-227v715zM316 906h164l110 -149h-142l-54 47l-54 -47h-139z" />
    <glyph glyph-name="hcircumflex" unicode="&#x125;" horiz-adv-x="629" 
d="M47 750h197.001v-311c34 65.333 91.667 98 173 98c51.333 0 92.166 -16.333 122.499 -49s45.5 -80.667 45.5 -144v-344h-197v300c0 53.333 -22 80 -66 80c-52 0 -78 -30.333 -78 -91v-289h-197v750zM238.001 928h164l110 -149h-142l-54 47l-54 -47h-139z" />
    <glyph glyph-name="Hbar" unicode="&#x126;" horiz-adv-x="794" 
d="M7 627h58v88h227v-88h210v88h227v-88h58v-101h-58v-526h-227v275h-210v-275h-227v526h-58v101zM502 451v75h-210v-75h210z" />
    <glyph glyph-name="hbar" unicode="&#x127;" horiz-adv-x="629" 
d="M-6 684h53.001v66h197v-66h151v-103h-151v-142c34 65.333 91.667 98 173 98c51.333 0 92.166 -16.333 122.499 -49s45.5 -80.667 45.5 -144v-344h-197v300c0 53.333 -22 80 -66 80c-52 0 -78 -30.333 -78 -91v-289h-197v581h-53v103z" />
    <glyph glyph-name="Itilde" unicode="&#x128;" horiz-adv-x="366" 
d="M68 715h229v-715h-229v715zM249 755c-21.333 0 -44.833 5.33301 -70.5 16s-42.5 16 -50.5 16c-16.667 0 -26.667 -10 -30 -30h-109c4 53.333 17.5 93.333 40.5 120s51.5 40 85.5 40c20.667 0 44.167 -5.33301 70.5 -16s44.166 -16 53.499 -16c16 0 25.667 10 29 30h110
c-4 -52.667 -18.167 -92.5 -42.5 -119.5s-53.166 -40.5 -86.499 -40.5z" />
    <glyph glyph-name="itilde" unicode="&#x129;" horiz-adv-x="303" 
d="M53 523h196v-523h-196v523zM218 581c-22 0 -45.333 5.33301 -70 16s-40.667 16 -48 16c-16.667 0 -26.667 -10 -30 -30h-104c3.33301 54 15.5 94.5 36.5 121.5s48.167 40.5 81.5 40.5c20 0 42.833 -5.33301 68.5 -16s43.167 -16 52.5 -16c17.333 0 27.333 10.333 30 31
h104c-4 -53.333 -17 -93.833 -39 -121.5s-49.333 -41.5 -82 -41.5z" />
    <glyph glyph-name="Imacron" unicode="&#x12a;" horiz-adv-x="366" 
d="M68 715h229v-715h-229v715zM16 884h333v-115h-333v115z" />
    <glyph glyph-name="imacron" unicode="&#x12b;" horiz-adv-x="303" 
d="M24 712h255v-107h-255v107zM53 523h196v-523h-196v523z" />
    <glyph glyph-name="Ibreve" unicode="&#x12c;" horiz-adv-x="366" 
d="M68 715h229v-715h-229v715zM183 749c-52 0 -92.6689 13.667 -122.002 41s-45.666 66 -48.999 116h124c3.33301 -28 19 -42 47 -42s43.667 14 47 42h124c-3.33301 -50 -20.166 -88.667 -50.499 -116s-70.5 -41 -120.5 -41z" />
    <glyph glyph-name="ibreve" unicode="&#x12d;" horiz-adv-x="303" 
d="M53 523h196v-523h-196v523zM152 581c-51.333 0 -91.668 14 -121.001 42s-45.333 68.333 -48 121h119c3.33301 -30 20 -45 50 -45c30.667 0 47.667 15 51 45h118c-3.33301 -52.667 -20.166 -93 -50.499 -121s-69.833 -42 -118.5 -42z" />
    <glyph glyph-name="Iogonek" unicode="&#x12e;" horiz-adv-x="366" 
d="M205 -182c-40 0 -71.166 7.33496 -93.499 22.002s-33.5 34.667 -33.5 60c0 37.333 29 70.666 87 99.999h-97v715h229v-702c-33.333 -24.667 -50 -47.334 -50 -68.001c0 -16 9.33301 -24 28 -24c11.333 0 19.666 1.33301 24.999 4v-90c-21.333 -11.333 -53 -17 -95 -17z
" />
    <glyph glyph-name="iogonek" unicode="&#x12f;" horiz-adv-x="303" 
d="M161 -182c-36.667 0 -65.665 7.33301 -86.998 22s-32 34.667 -32 60c0 24 7.66699 43.333 23 58s36.666 28.667 63.999 42h-76v523h196v-513c-32.667 -25.333 -49 -48.333 -49 -69c0 -17.333 9.66699 -26 29 -26c11.333 0 19.666 1.33301 24.999 4v-84
c-21.333 -11.333 -52.333 -17 -93 -17zM151.002 562c-30.667 0 -56.167 9.33301 -76.5 28s-30.5 42.334 -30.5 71.001c0 29.333 10.167 53.333 30.5 72s45.833 28 76.5 28c30 0 55.167 -9.33301 75.5 -28s30.5 -42.667 30.5 -72c0 -28.667 -10.167 -52.334 -30.5 -71.001
s-45.5 -28 -75.5 -28z" />
    <glyph glyph-name="Idotaccent" unicode="&#x130;" horiz-adv-x="366" 
d="M68 715h229v-715h-229v715zM184 752c-30 0 -54.667 9 -74 27s-29 40.667 -29 68c0 28 9.66699 51 29 69s44 27 74 27c29.333 0 53.666 -9 72.999 -27s29 -41 29 -69c0 -27.333 -9.66699 -50 -29 -68s-43.666 -27 -72.999 -27z" />
    <glyph glyph-name="dotlessi" unicode="&#x131;" horiz-adv-x="303" 
d="M53 523h196v-523h-196v523z" />
    <glyph glyph-name="IJ" unicode="&#x132;" horiz-adv-x="830" 
d="M68 715h229v-715h-229v715zM509 -9c-56 0 -101.333 8.33301 -136 25v167c28.667 -8.66699 57 -13 85 -13c60 0 90 31 90 93v452h227v-453c0 -180.667 -88.667 -271 -266 -271z" />
    <glyph glyph-name="ij" unicode="&#x133;" horiz-adv-x="303" 
d="M53 523h196v-523h-196v523zM151 562c-30.667 0 -56.167 9.33301 -76.5 28s-30.5 42.334 -30.5 71.001c0 29.333 10.167 53.333 30.5 72s45.833 28 76.5 28c30 0 55.167 -9.33301 75.5 -28s30.5 -42.667 30.5 -72c0 -28.667 -10.167 -52.334 -30.5 -71.001
s-45.5 -28 -75.5 -28zM293 -42c22 1.33301 37.667 6.33301 47 15s14 23 14 43v507h197v-512c0 -63.333 -19 -111.5 -57 -144.5s-105 -49.5 -201 -49.5v141zM453 562c-30.667 0 -56.167 9.33301 -76.5 28s-30.5 42.334 -30.5 71.001c0 29.333 10.167 53.333 30.5 72
s45.833 28 76.5 28c30 0 55.167 -9.33301 75.5 -28s30.5 -42.667 30.5 -72c0 -28.667 -10.167 -52.334 -30.5 -71.001s-45.5 -28 -75.5 -28z" />
    <glyph glyph-name="Jcircumflex" unicode="&#x134;" horiz-adv-x="489" 
d="M168 -9c-56 0 -101.333 8.33301 -136 25v167c28.667 -8.66699 57 -13 85 -13c60 0 90 31 90 93v452h227v-453c0 -180.667 -88.667 -271 -266 -271zM239 906h164l110 -149h-142l-54 47l-54 -47h-139z" />
    <glyph glyph-name="jcircumflex" unicode="&#x135;" horiz-adv-x="303" 
d="M-9 -42c22 1.33301 37.667 6.33301 47 15s14 23 14 43v507h197v-512c0 -63.333 -19 -111.5 -57 -144.5s-105 -49.5 -201 -49.5v141zM84 746h138l120 -166h-137l-56 53l-56 -53h-134z" />
    <glyph glyph-name="uni0136" unicode="&#x136;" horiz-adv-x="745" 
d="M65 715h227v-271l198 271h235l-251 -330l265 -385h-261l-186 286v-286h-227v715zM260 -206l39 175l172 -12l-101 -190z" />
    <glyph glyph-name="uni0137" unicode="&#x137;" horiz-adv-x="589" 
d="M47 750h197v-425l127 198h202l-161 -234l174 -289h-218l-124 218v-218h-197v750zM185 -206l39 175l172 -12l-101 -190z" />
    <glyph glyph-name="Lacute" unicode="&#x139;" horiz-adv-x="582" 
d="M65 715h227v-540h260v-175h-487v715zM150 906h201l-103 -149h-149z" />
    <glyph glyph-name="lacute" unicode="&#x13a;" horiz-adv-x="300" 
d="M52 750h196v-750h-196v750zM122 928h201l-103 -149h-149z" />
    <glyph glyph-name="uni013B" unicode="&#x13b;" horiz-adv-x="582" 
d="M65 715h227v-540h260v-175h-487v715zM183 -206l39 175l172 -12l-101 -190z" />
    <glyph glyph-name="uni013C" unicode="&#x13c;" horiz-adv-x="300" 
d="M52 750h196v-750h-196v750zM29 -206l39 175l172 -12l-101 -190z" />
    <glyph glyph-name="Lcaron" unicode="&#x13d;" horiz-adv-x="582" 
d="M368 715h158l-61 -180h-112zM65 715h227v-540h260v-175h-487v715z" />
    <glyph glyph-name="lcaron" unicode="&#x13e;" horiz-adv-x="300" 
d="M52 750h196v-750h-196v750zM291 750h140l-50 -175h-98z" />
    <glyph glyph-name="Ldot" unicode="&#x13f;" horiz-adv-x="613" 
d="M65 715h227v-540h260v-175h-487v715zM488 297c-31.333 0 -57.5 10.333 -78.5 31s-31.5 46 -31.5 76s10.5 55.5 31.5 76.5s47.167 31.5 78.5 31.5c32 0 58.667 -10.5 80 -31.5s32 -46.5 32 -76.5s-10.667 -55.333 -32 -76s-48 -31 -80 -31z" />
    <glyph glyph-name="ldot" unicode="&#x140;" horiz-adv-x="479" 
d="M52 750h196v-750h-196v750zM387 251c-31.333 0 -57.5 10.333 -78.5 31s-31.5 46 -31.5 76s10.5 55.5 31.5 76.5s47.167 31.5 78.5 31.5c32 0 58.667 -10.5 80 -31.5s32 -46.5 32 -76.5s-10.667 -55.333 -32 -76s-48 -31 -80 -31z" />
    <glyph glyph-name="Lslash" unicode="&#x141;" 
d="M22 340l61 21v354h228v-276l176 61v-116l-176 -61v-148h260v-175h-488v245l-61 -21v116z" />
    <glyph glyph-name="lslash" unicode="&#x142;" horiz-adv-x="344" 
d="M16 376l58 27v347h196v-256l61 29v-123l-61 -29v-371h-196v279l-58 -27v124z" />
    <glyph glyph-name="Nacute" unicode="&#x143;" horiz-adv-x="787" 
d="M65 715h254l203 -378v378h199v-715h-217l-239 428v-428h-200v715zM381 906h201l-103 -149h-149z" />
    <glyph glyph-name="nacute" unicode="&#x144;" horiz-adv-x="629" 
d="M47 523h197.001v-84c34 65.333 91.667 98 173 98c51.333 0 92.166 -16.333 122.499 -49s45.5 -80.667 45.5 -144v-344h-197v300c0 53.333 -22 80 -66 80c-52 0 -78 -30.333 -78 -91v-289h-197v523zM292.001 747h193l-104 -169h-141z" />
    <glyph glyph-name="uni0145" unicode="&#x145;" horiz-adv-x="787" 
d="M65 715h254l203 -378v378h199v-715h-217l-239 428v-428h-200v715zM269 -206l39 175l172 -12l-101 -190z" />
    <glyph glyph-name="uni0146" unicode="&#x146;" horiz-adv-x="629" 
d="M47 523h197.001v-84c34 65.333 91.667 98 173 98c51.333 0 92.166 -16.333 122.499 -49s45.5 -80.667 45.5 -144v-344h-197v300c0 53.333 -22 80 -66 80c-52 0 -78 -30.333 -78 -91v-289h-197v523zM193.001 -206l39 175l172 -12l-101 -190z" />
    <glyph glyph-name="Ncaron" unicode="&#x147;" horiz-adv-x="787" 
d="M65 715h254l203 -378v378h199v-715h-217l-239 428v-428h-200v715zM217 906h142l54 -47l54 47h139l-115 -149h-164z" />
    <glyph glyph-name="ncaron" unicode="&#x148;" horiz-adv-x="629" 
d="M47 523h197.001v-84c34 65.333 91.667 98 173 98c51.333 0 92.166 -16.333 122.499 -49s45.5 -80.667 45.5 -144v-344h-197v300c0 53.333 -22 80 -66 80c-52 0 -78 -30.333 -78 -91v-289h-197v523zM123.001 746h137l56 -52l56 52h134l-125 -166h-138z" />
    <glyph glyph-name="napostrophe" unicode="&#x149;" horiz-adv-x="769" 
d="M186 523h197.001v-84c34 65.333 91.667 98 173 98c51.333 0 92.166 -16.333 122.499 -49s45.5 -80.667 45.5 -144v-344h-197v300c0 53.333 -22 80 -66 80c-52 0 -78 -30.333 -78 -91v-289h-197v523zM-27.999 459l78 269l171 -55l-140 -256z" />
    <glyph glyph-name="Eng" unicode="&#x14a;" horiz-adv-x="787" 
d="M473 -192c-48.667 0 -91.333 7.66699 -128 23v159c28.667 -8.66699 53.667 -13 75 -13c41.333 0 66.333 14 75 42l-227 420v-439h-203v715h257l197 -384v384h202v-689c0 -66.667 -21 -119.667 -63 -159s-103.667 -59 -185 -59z" />
    <glyph glyph-name="eng" unicode="&#x14b;" horiz-adv-x="629" 
d="M328 -42c22 1.33301 37.501 6.33301 46.501 15s13.5 23 13.5 43v284c0 53.333 -22 80 -66 80c-52 0 -78 -30.333 -78 -91v-289h-197v523h197v-84c34 65.333 91.667 98 173 98c51.333 0 92.166 -16.333 122.499 -49s45.5 -80.667 45.5 -144v-333
c0 -63.333 -19 -111.5 -57 -144.5s-104.667 -49.5 -200 -49.5v141z" />
    <glyph glyph-name="Omacron" unicode="&#x14c;" horiz-adv-x="820" 
d="M411 165c44.667 0 80.167 16.6689 106.5 50.002s39.5 79.666 39.5 138.999v8c0 60 -13.167 106.167 -39.5 138.5s-62.5 48.5 -108.5 48.5c-44.667 0 -80 -16 -106 -48s-39 -78.333 -39 -139v-8c0 -60.667 13 -107.334 39 -140.001s62 -49 108 -49zM405 -12.998
c-116 0 -208.001 33.5 -276.001 100.5s-102 155.5 -102 265.5v8c0 108.667 36.333 196.667 109 264s163.667 101 273 101c112.667 0 204.834 -32.167 276.501 -96.5s107.5 -151.833 107.5 -262.5v-8c0 -112 -35.333 -202 -106 -270s-164.667 -102 -282 -102z
M241.999 884.002h333v-115h-333v115z" />
    <glyph glyph-name="omacron" unicode="&#x14d;" horiz-adv-x="626" 
d="M314 132c60 0 90 42.333 90 127v7c0 84 -30 126 -90 126c-62 0 -93 -41 -93 -123v-8c0 -86 31 -129 93 -129zM313 -13c-84.667 0 -154.333 23.833 -209 71.5s-82 113.167 -82 196.5v8c0 83.333 27.5 149.833 82.5 199.5s124.833 74.5 209.5 74.5
c84 0 153.333 -24.333 208 -73s82 -114 82 -196v-8c0 -84 -27.5 -150.5 -82.5 -199.5s-124.5 -73.5 -208.5 -73.5zM154.001 712h316v-107h-316v107z" />
    <glyph glyph-name="Obreve" unicode="&#x14e;" horiz-adv-x="820" 
d="M411 165c44.667 0 80.167 16.6689 106.5 50.002s39.5 79.666 39.5 138.999v8c0 60 -13.167 106.167 -39.5 138.5s-62.5 48.5 -108.5 48.5c-44.667 0 -80 -16 -106 -48s-39 -78.333 -39 -139v-8c0 -60.667 13 -107.334 39 -140.001s62 -49 108 -49zM405 -12.998
c-116 0 -208.001 33.5 -276.001 100.5s-102 155.5 -102 265.5v8c0 108.667 36.333 196.667 109 264s163.667 101 273 101c112.667 0 204.834 -32.167 276.501 -96.5s107.5 -151.833 107.5 -262.5v-8c0 -112 -35.333 -202 -106 -270s-164.667 -102 -282 -102z
M408.999 749.002c-52 0 -92.6689 13.667 -122.002 41s-45.666 66 -48.999 116h124c3.33301 -28 19 -42 47 -42s43.667 14 47 42h124c-3.33301 -50 -20.166 -88.667 -50.499 -116s-70.5 -41 -120.5 -41z" />
    <glyph glyph-name="obreve" unicode="&#x14f;" horiz-adv-x="626" 
d="M314 132c60 0 90 42.333 90 127v7c0 84 -30 126 -90 126c-62 0 -93 -41 -93 -123v-8c0 -86 31 -129 93 -129zM313 -13c-84.667 0 -154.333 23.833 -209 71.5s-82 113.167 -82 196.5v8c0 83.333 27.5 149.833 82.5 199.5s124.833 74.5 209.5 74.5
c84 0 153.333 -24.333 208 -73s82 -114 82 -196v-8c0 -84 -27.5 -150.5 -82.5 -199.5s-124.5 -73.5 -208.5 -73.5zM312.001 581c-51.333 0 -91.668 14 -121.001 42s-45.333 68.333 -48 121h119c3.33301 -30 20 -45 50 -45c30.667 0 47.667 15 51 45h118
c-3.33301 -52.667 -20.166 -93 -50.499 -121s-69.833 -42 -118.5 -42z" />
    <glyph glyph-name="Ohungarumlaut" unicode="&#x150;" horiz-adv-x="820" 
d="M411 165c44.667 0 80.167 16.6689 106.5 50.002s39.5 79.666 39.5 138.999v8c0 60 -13.167 106.167 -39.5 138.5s-62.5 48.5 -108.5 48.5c-44.667 0 -80 -16 -106 -48s-39 -78.333 -39 -139v-8c0 -60.667 13 -107.334 39 -140.001s62 -49 108 -49zM405 -12.998
c-116 0 -208.001 33.5 -276.001 100.5s-102 155.5 -102 265.5v8c0 108.667 36.333 196.667 109 264s163.667 101 273 101c112.667 0 204.834 -32.167 276.501 -96.5s107.5 -151.833 107.5 -262.5v-8c0 -112 -35.333 -202 -106 -270s-164.667 -102 -282 -102z
M271.999 906.002h163l-75 -149h-130zM472.999 906.002h164l-75 -149h-130z" />
    <glyph glyph-name="ohungarumlaut" unicode="&#x151;" horiz-adv-x="626" 
d="M314 132c60 0 90 42.333 90 127v7c0 84 -30 126 -90 126c-62 0 -93 -41 -93 -123v-8c0 -86 31 -129 93 -129zM313 -13c-84.667 0 -154.333 23.833 -209 71.5s-82 113.167 -82 196.5v8c0 83.333 27.5 149.833 82.5 199.5s124.833 74.5 209.5 74.5
c84 0 153.333 -24.333 208 -73s82 -114 82 -196v-8c0 -84 -27.5 -150.5 -82.5 -199.5s-124.5 -73.5 -208.5 -73.5zM195.001 747h148l-78 -169h-114zM376.001 747h148l-77 -169h-115z" />
    <glyph glyph-name="OE" unicode="&#x152;" horiz-adv-x="983" 
d="M27 356c0 115.333 33 204 99 266s161.333 93 286 93h525v-174h-268v-101h209v-159h-209v-107h283v-174h-540c-127.333 0 -223.333 29.5 -288 88.5s-97 145.833 -97 260.5v7zM419 541c-55.333 0 -95 -14.168 -119 -42.501s-36 -74.166 -36 -137.499v-8
c0 -64.667 12.333 -110.667 37 -138s64.667 -41 120 -41h23v367h-25z" />
    <glyph glyph-name="oe" unicode="&#x153;" horiz-adv-x="984" 
d="M313 -13c-84.667 0 -154.5 23.833 -209.5 71.5s-82.5 113.167 -82.5 196.5v8c0 83.333 27.667 150 83 200s125.333 75 210 75c77.333 0 140.333 -24.333 189 -73c48.667 48.667 111.334 73 188.001 73c78.667 0 143.667 -23 195 -69s77 -113.333 77 -202v-48h-363
c2.66699 -32 12.5 -56.333 29.5 -73s39.833 -25 68.5 -25c46 0 73.333 18.667 82 56h183c-7.33301 -61.333 -33.833 -108.333 -79.5 -141s-109.834 -49 -192.501 -49c-80.667 0 -144.667 23 -192 69c-47.333 -46 -109.333 -69 -186 -69zM314 132c60 0 90 42 90 126v8
c0 84 -30 126 -90 126c-61.333 0 -92 -41 -92 -123v-8c0 -86 30.667 -129 92 -129zM773 322c-3.33301 59.333 -30.666 89 -81.999 89c-24.667 0 -44.834 -7.66699 -60.501 -23s-25.5 -37.333 -29.5 -66h172z" />
    <glyph glyph-name="Racute" unicode="&#x154;" horiz-adv-x="710" 
d="M65 715h292c199.333 0 299 -77.333 299 -232v-4c0 -88 -40.333 -150.333 -121 -187l163 -292h-238l-133 245h-36v-245h-226v715zM344 391c62 0 93 26.001 93 78.001v4c0 25.333 -7.5 43.666 -22.5 54.999s-38.167 17 -69.5 17h-54v-154h53zM310 906.001h201l-103 -149
h-149z" />
    <glyph glyph-name="racute" unicode="&#x155;" horiz-adv-x="438" 
d="M47 523h197.001v-106c31.333 76.667 87.333 114.334 168 113.001v-184c-54.667 3.33301 -96.334 -3.83398 -125.001 -21.501s-43 -45.5 -43 -83.5v-241h-197v523zM217.001 747h193l-104 -169h-141z" />
    <glyph glyph-name="uni0156" unicode="&#x156;" horiz-adv-x="710" 
d="M65 715h292c199.333 0 299 -77.333 299 -232v-4c0 -88 -40.333 -150.333 -121 -187l163 -292h-238l-133 245h-36v-245h-226v715zM344 391c62 0 93 26.001 93 78.001v4c0 25.333 -7.5 43.666 -22.5 54.999s-38.167 17 -69.5 17h-54v-154h53zM255 -205.999l39 175l172 -12
l-101 -190z" />
    <glyph glyph-name="uni0157" unicode="&#x157;" horiz-adv-x="438" 
d="M47 523h197.001v-106c31.333 76.667 87.333 114.334 168 113.001v-184c-54.667 3.33301 -96.334 -3.83398 -125.001 -21.501s-43 -45.5 -43 -83.5v-241h-197v523zM28.001 -206l39 175l172 -12l-101 -190z" />
    <glyph glyph-name="Rcaron" unicode="&#x158;" horiz-adv-x="710" 
d="M65 715h292c199.333 0 299 -77.333 299 -232v-4c0 -88 -40.333 -150.333 -121 -187l163 -292h-238l-133 245h-36v-245h-226v715zM344 391c62 0 93 26.001 93 78.001v4c0 25.333 -7.5 43.666 -22.5 54.999s-38.167 17 -69.5 17h-54v-154h53zM146 906.001h142l54 -47l54 47
h139l-115 -149h-164z" />
    <glyph glyph-name="rcaron" unicode="&#x159;" horiz-adv-x="438" 
d="M47 523h197.001v-106c31.333 76.667 87.333 114.334 168 113.001v-184c-54.667 3.33301 -96.334 -3.83398 -125.001 -21.501s-43 -45.5 -43 -83.5v-241h-197v523zM48.001 746h137l56 -52l56 52h134l-125 -166h-138z" />
    <glyph glyph-name="Sacute" unicode="&#x15a;" horiz-adv-x="653" 
d="M334 -13c-204.667 0 -309.668 80.666 -315.001 241.999h215c3.33301 -54.667 36.666 -82 99.999 -82c26 0 45.667 5.33301 59 16s20 25 20 43s-7.16699 31.333 -21.5 40s-41.166 15.667 -80.499 21c-103.333 12 -175.166 34.833 -215.499 68.5s-60.5 87.5 -60.5 161.5
c0 67.333 25.667 122.166 77 164.499s121 63.5 209 63.5c180.667 0 276.667 -76 288 -228h-210c-5.33301 46 -31.333 69 -78 69c-22.667 0 -40.167 -4.66699 -52.5 -14s-18.5 -22 -18.5 -38c0 -18 6.83301 -31.167 20.5 -39.5s40.167 -15.166 79.5 -20.499
c96.667 -10 167.5 -31 212.5 -63s67.5 -85.667 67.5 -161c0 -69.333 -26.333 -127.166 -79 -173.499s-125 -69.5 -217 -69.5zM291.999 905.999h201l-103 -149h-149z" />
    <glyph glyph-name="sacute" unicode="&#x15b;" horiz-adv-x="523" 
d="M261 -13c-77.333 0 -137.334 15.502 -180.001 46.502s-64.667 75.833 -66 134.5h180c4 -18.667 10.5 -32.334 19.5 -41.001s24.167 -13 45.5 -13c36.667 0 55 12.333 55 37c0 12 -6.66699 21.167 -20 27.5s-37.333 11.833 -72 16.5c-72.667 8 -124.667 24 -156 48
s-47 63.333 -47 118c0 57.333 21.833 101.166 65.5 131.499s99.5 45.5 167.5 45.5c72 0 128.333 -13.5 169 -40.5s64 -71.167 70 -132.5h-177c-7.33301 32.667 -27 49 -59 49c-34.667 0 -52 -12 -52 -36c0 -12 6.16699 -20.833 18.5 -26.5s33.5 -10.167 63.5 -13.5
c79.333 -10 136 -26.833 170 -50.5s51 -62.5 51 -116.5c0 -62 -21.667 -108.167 -65 -138.5s-103.666 -45.5 -180.999 -45.5zM235.999 747.002h193l-104 -169h-141z" />
    <glyph glyph-name="Scircumflex" unicode="&#x15c;" horiz-adv-x="653" 
d="M334 -13c-204.667 0 -309.668 80.666 -315.001 241.999h215c3.33301 -54.667 36.666 -82 99.999 -82c26 0 45.667 5.33301 59 16s20 25 20 43s-7.16699 31.333 -21.5 40s-41.166 15.667 -80.499 21c-103.333 12 -175.166 34.833 -215.499 68.5s-60.5 87.5 -60.5 161.5
c0 67.333 25.667 122.166 77 164.499s121 63.5 209 63.5c180.667 0 276.667 -76 288 -228h-210c-5.33301 46 -31.333 69 -78 69c-22.667 0 -40.167 -4.66699 -52.5 -14s-18.5 -22 -18.5 -38c0 -18 6.83301 -31.167 20.5 -39.5s40.167 -15.166 79.5 -20.499
c96.667 -10 167.5 -31 212.5 -63s67.5 -85.667 67.5 -161c0 -69.333 -26.333 -127.166 -79 -173.499s-125 -69.5 -217 -69.5zM243.999 905.999h164l110 -149h-142l-54 47l-54 -47h-139z" />
    <glyph glyph-name="scircumflex" unicode="&#x15d;" horiz-adv-x="523" 
d="M261 -13c-77.333 0 -137.334 15.502 -180.001 46.502s-64.667 75.833 -66 134.5h180c4 -18.667 10.5 -32.334 19.5 -41.001s24.167 -13 45.5 -13c36.667 0 55 12.333 55 37c0 12 -6.66699 21.167 -20 27.5s-37.333 11.833 -72 16.5c-72.667 8 -124.667 24 -156 48
s-47 63.333 -47 118c0 57.333 21.833 101.166 65.5 131.499s99.5 45.5 167.5 45.5c72 0 128.333 -13.5 169 -40.5s64 -71.167 70 -132.5h-177c-7.33301 32.667 -27 49 -59 49c-34.667 0 -52 -12 -52 -36c0 -12 6.16699 -20.833 18.5 -26.5s33.5 -10.167 63.5 -13.5
c79.333 -10 136 -26.833 170 -50.5s51 -62.5 51 -116.5c0 -62 -21.667 -108.167 -65 -138.5s-103.666 -45.5 -180.999 -45.5zM189.999 746.002h138l120 -166h-137l-56 53l-56 -53h-134z" />
    <glyph glyph-name="uni015E" unicode="&#x15e;" horiz-adv-x="653" 
d="M307 -228c-76.667 0 -120.669 31.333 -132.002 94h90c4 -17.333 15.667 -26 35 -26c20 0 30 9.66699 30 29c0 20 -11 30 -33 30c-14 0 -24.667 -4 -32 -12l-40 41l41 63c-160.667 16 -243 95.333 -247 238h215c3.33301 -54.667 36.666 -82 99.999 -82
c26 0 45.667 5.33301 59 16s20 25 20 43s-7.16699 31.333 -21.5 40s-41.166 15.667 -80.499 21c-103.333 12 -175.166 34.833 -215.499 68.5s-60.5 87.5 -60.5 161.5c0 67.333 25.667 122.166 77 164.499s121 63.5 209 63.5c180.667 0 276.667 -76 288 -228h-210
c-5.33301 46 -31.333 69 -78 69c-22.667 0 -40.167 -4.66699 -52.5 -14s-18.5 -22 -18.5 -38c0 -18 6.83301 -31.167 20.5 -39.5s40.167 -15.166 79.5 -20.499c96.667 -10 167.5 -31 212.5 -63s67.5 -85.667 67.5 -161c0 -68.667 -25.667 -126 -77 -172
s-122.333 -69.667 -213 -71l-22 -31c32.667 2.66699 59.834 -3.33301 81.501 -18s32.5 -37.667 32.5 -69c0 -30 -11.333 -53.667 -34 -71s-53 -26 -91 -26z" />
    <glyph glyph-name="uni015F" unicode="&#x15f;" horiz-adv-x="523" 
d="M243 -228c-76.667 0 -120.668 31.335 -132.001 94.002h90c4 -17.333 15.667 -26 35 -26c20 0 30 9.66699 30 29c0 20 -11 30 -33 30c-14 0 -24.667 -4 -32 -12l-40 41l41 63c-59.333 7.33301 -105 26 -137 56s-48.667 70.333 -50 121h180
c4 -18.667 10.5 -32.334 19.5 -41.001s24.167 -13 45.5 -13c36.667 0 55 12.333 55 37c0 12 -6.66699 21.167 -20 27.5s-37.333 11.833 -72 16.5c-72.667 8 -124.667 24 -156 48s-47 63.333 -47 118c0 57.333 21.833 101.166 65.5 131.499s99.5 45.5 167.5 45.5
c72 0 128.333 -13.5 169 -40.5s64 -71.167 70 -132.5h-177c-7.33301 32.667 -27 49 -59 49c-34.667 0 -52 -12 -52 -36c0 -12 6.16699 -20.833 18.5 -26.5s33.5 -10.167 63.5 -13.5c79.333 -10 136 -26.833 170 -50.5s51 -62.5 51 -116.5c0 -60 -20.5 -105.333 -61.5 -136
s-97.5 -46.667 -169.5 -48l-22 -31c32.667 2.66699 59.834 -3.33301 81.501 -18s32.5 -37.667 32.5 -69c0 -30 -11.333 -53.667 -34 -71s-53 -26 -91 -26z" />
    <glyph glyph-name="Scaron" unicode="&#x160;" horiz-adv-x="653" 
d="M334 -13c-204.667 0 -309.668 80.666 -315.001 241.999h215c3.33301 -54.667 36.666 -82 99.999 -82c26 0 45.667 5.33301 59 16s20 25 20 43s-7.16699 31.333 -21.5 40s-41.166 15.667 -80.499 21c-103.333 12 -175.166 34.833 -215.499 68.5s-60.5 87.5 -60.5 161.5
c0 67.333 25.667 122.166 77 164.499s121 63.5 209 63.5c180.667 0 276.667 -76 288 -228h-210c-5.33301 46 -31.333 69 -78 69c-22.667 0 -40.167 -4.66699 -52.5 -14s-18.5 -22 -18.5 -38c0 -18 6.83301 -31.167 20.5 -39.5s40.167 -15.166 79.5 -20.499
c96.667 -10 167.5 -31 212.5 -63s67.5 -85.667 67.5 -161c0 -69.333 -26.333 -127.166 -79 -173.499s-125 -69.5 -217 -69.5zM127.999 905.999h142l54 -47l54 47h139l-115 -149h-164z" />
    <glyph glyph-name="scaron" unicode="&#x161;" horiz-adv-x="523" 
d="M261 -13c-77.333 0 -137.334 15.502 -180.001 46.502s-64.667 75.833 -66 134.5h180c4 -18.667 10.5 -32.334 19.5 -41.001s24.167 -13 45.5 -13c36.667 0 55 12.333 55 37c0 12 -6.66699 21.167 -20 27.5s-37.333 11.833 -72 16.5c-72.667 8 -124.667 24 -156 48
s-47 63.333 -47 118c0 57.333 21.833 101.166 65.5 131.499s99.5 45.5 167.5 45.5c72 0 128.333 -13.5 169 -40.5s64 -71.167 70 -132.5h-177c-7.33301 32.667 -27 49 -59 49c-34.667 0 -52 -12 -52 -36c0 -12 6.16699 -20.833 18.5 -26.5s33.5 -10.167 63.5 -13.5
c79.333 -10 136 -26.833 170 -50.5s51 -62.5 51 -116.5c0 -62 -21.667 -108.167 -65 -138.5s-103.666 -45.5 -180.999 -45.5zM61.999 746.002h137l56 -52l56 52h134l-125 -166h-138z" />
    <glyph glyph-name="Tcommaaccent" unicode="&#x162;" horiz-adv-x="629" 
d="M200 541h-180v174h589v-174h-181v-541h-228v541zM191 -206l39 175l172 -12l-101 -190z" />
    <glyph glyph-name="tcommaaccent" unicode="&#x163;" horiz-adv-x="396" 
d="M265 -12c-128.667 0 -193 62.333 -193 187v216h-61v132h61v107h197v-107h100v-132h-100v-197c0 -34 17 -51 51 -51c16.667 0 33 2.66699 49 8v-148c-34 -10 -68.667 -15 -104 -15zM90 -206l39 175l172 -12l-101 -190z" />
    <glyph glyph-name="Tcaron" unicode="&#x164;" horiz-adv-x="629" 
d="M200 541h-180v174h589v-174h-181v-541h-228v541zM117 906h142l54 -47l54 47h139l-115 -149h-164z" />
    <glyph glyph-name="tcaron" unicode="&#x165;" horiz-adv-x="396" 
d="M265 -12c-128.667 0 -193 62.333 -193 187v216h-61v132h61v107h197v-107h100v-132h-100v-197c0 -34 17 -51 51 -51c16.667 0 33 2.66699 49 8v-148c-34 -10 -68.667 -15 -104 -15zM318 750h140l-50 -175h-98z" />
    <glyph glyph-name="Tbar" unicode="&#x166;" horiz-adv-x="629" 
d="M78 408h122v133h-180v174h589v-174h-181v-133h123v-140h-123v-268h-228v268h-122v140z" />
    <glyph glyph-name="tbar" unicode="&#x167;" horiz-adv-x="396" 
d="M12 331h60v60h-60v132h60v107h197v-107h100v-132h-100v-60h100v-96h-100v-42c0 -34 17 -51 51 -51c18 0 34 3 48 9v-148c-36.667 -10.667 -71 -16 -103 -16c-128.667 0 -193 62.667 -193 188v60h-60v96z" />
    <glyph glyph-name="Utilde" unicode="&#x168;" horiz-adv-x="776" 
d="M388 -13c-106 0 -187 25.833 -243 77.5s-84 128.5 -84 230.5v420h226v-411c0 -49.333 7.16699 -84.833 21.5 -106.5s40.833 -32.5 79.5 -32.5s65 10.833 79 32.5s21 57.5 21 107.5v410h228v-418c0 -104.667 -28.833 -182.5 -86.5 -233.5s-138.167 -76.5 -241.5 -76.5z
M452 755c-21.333 0 -44.833 5.33301 -70.5 16s-42.5 16 -50.5 16c-16.667 0 -26.667 -10 -30 -30h-109c4 53.333 17.5 93.333 40.5 120s51.5 40 85.5 40c20.667 0 44.167 -5.33301 70.5 -16s44.166 -16 53.499 -16c16 0 25.667 10 29 30h110
c-4 -52.667 -18.167 -92.5 -42.5 -119.5s-53.166 -40.5 -86.499 -40.5z" />
    <glyph glyph-name="utilde" unicode="&#x169;" horiz-adv-x="628" 
d="M218 -13c-52 0 -94.167 16.5 -126.5 49.5s-48.5 80.833 -48.5 143.5v343h197v-309c0 -53.333 22 -80 66 -80c52 0 78 30.333 78 91v298h197v-523h-197v81c-32.667 -62.667 -88 -94 -166 -94zM378 581c-22 0 -45.333 5.33301 -70 16s-40.667 16 -48 16
c-16.667 0 -26.667 -10 -30 -30h-104c3.33301 54 15.5 94.5 36.5 121.5s48.167 40.5 81.5 40.5c20 0 42.833 -5.33301 68.5 -16s43.167 -16 52.5 -16c17.333 0 27.333 10.333 30 31h104c-4 -53.333 -17 -93.833 -39 -121.5s-49.333 -41.5 -82 -41.5z" />
    <glyph glyph-name="Umacron" unicode="&#x16a;" horiz-adv-x="776" 
d="M388 -13c-106 0 -187 25.833 -243 77.5s-84 128.5 -84 230.5v420h226v-411c0 -49.333 7.16699 -84.833 21.5 -106.5s40.833 -32.5 79.5 -32.5s65 10.833 79 32.5s21 57.5 21 107.5v410h228v-418c0 -104.667 -28.833 -182.5 -86.5 -233.5s-138.167 -76.5 -241.5 -76.5z
M219 884h333v-115h-333v115z" />
    <glyph glyph-name="umacron" unicode="&#x16b;" horiz-adv-x="628" 
d="M218 -13c-52 0 -94.167 16.5 -126.5 49.5s-48.5 80.833 -48.5 143.5v343h197v-309c0 -53.333 22 -80 66 -80c52 0 78 30.333 78 91v298h197v-523h-197v81c-32.667 -62.667 -88 -94 -166 -94zM154 712h316v-107h-316v107z" />
    <glyph glyph-name="Ubreve" unicode="&#x16c;" horiz-adv-x="776" 
d="M388 -13c-106 0 -187 25.833 -243 77.5s-84 128.5 -84 230.5v420h226v-411c0 -49.333 7.16699 -84.833 21.5 -106.5s40.833 -32.5 79.5 -32.5s65 10.833 79 32.5s21 57.5 21 107.5v410h228v-418c0 -104.667 -28.833 -182.5 -86.5 -233.5s-138.167 -76.5 -241.5 -76.5z
M386 749c-52 0 -92.6689 13.667 -122.002 41s-45.666 66 -48.999 116h124c3.33301 -28 19 -42 47 -42s43.667 14 47 42h124c-3.33301 -50 -20.166 -88.667 -50.499 -116s-70.5 -41 -120.5 -41z" />
    <glyph glyph-name="ubreve" unicode="&#x16d;" horiz-adv-x="628" 
d="M218 -13c-52 0 -94.167 16.5 -126.5 49.5s-48.5 80.833 -48.5 143.5v343h197v-309c0 -53.333 22 -80 66 -80c52 0 78 30.333 78 91v298h197v-523h-197v81c-32.667 -62.667 -88 -94 -166 -94zM312 581c-51.333 0 -91.668 14 -121.001 42s-45.333 68.333 -48 121h119
c3.33301 -30 20 -45 50 -45c30.667 0 47.667 15 51 45h118c-3.33301 -52.667 -20.166 -93 -50.499 -121s-69.833 -42 -118.5 -42z" />
    <glyph glyph-name="Uring" unicode="&#x16e;" horiz-adv-x="776" 
d="M388 -13c-106 0 -187 25.833 -243 77.5s-84 128.5 -84 230.5v420h226v-411c0 -49.333 7.16699 -84.833 21.5 -106.5s40.833 -32.5 79.5 -32.5s65 10.833 79 32.5s21 57.5 21 107.5v410h228v-418c0 -104.667 -28.833 -182.5 -86.5 -233.5s-138.167 -76.5 -241.5 -76.5z
M386 790c13.333 0 24.166 4.66699 32.499 14s12.5 21.333 12.5 36c0 15.333 -4.16699 27.5 -12.5 36.5s-19.166 13.5 -32.499 13.5s-24.166 -4.5 -32.499 -13.5s-12.5 -21.167 -12.5 -36.5c0 -14.667 4.16699 -26.667 12.5 -36s19.166 -14 32.499 -14zM386 722
c-34 0 -62.833 11.667 -86.5 35s-35.5 51 -35.5 83s11.833 59.667 35.5 83s52.5 35 86.5 35s62.833 -11.667 86.5 -35s35.5 -51 35.5 -83s-11.833 -59.667 -35.5 -83s-52.5 -35 -86.5 -35z" />
    <glyph glyph-name="uring" unicode="&#x16f;" horiz-adv-x="628" 
d="M218 -13c-52 0 -94.167 16.5 -126.5 49.5s-48.5 80.833 -48.5 143.5v343h197v-309c0 -53.333 22 -80 66 -80c52 0 78 30.333 78 91v298h197v-523h-197v81c-32.667 -62.667 -88 -94 -166 -94zM311 620c13.333 0 24 4.5 32 13.5s12 20.5 12 34.5c0 14.667 -4 26.5 -12 35.5
s-18.667 13.5 -32 13.5s-24 -4.5 -32 -13.5s-12 -20.833 -12 -35.5c0 -14 4 -25.5 12 -34.5s18.667 -13.5 32 -13.5zM311 552c-33.333 0 -61.6699 11.333 -85.0029 34s-35 50 -35 82s11.833 59.5 35.5 82.5s51.834 34.5 84.501 34.5s60.834 -11.5 84.501 -34.5
s35.5 -50.5 35.5 -82.5s-11.667 -59.333 -35 -82s-51.666 -34 -84.999 -34z" />
    <glyph glyph-name="Uhungarumlaut" unicode="&#x170;" horiz-adv-x="776" 
d="M388 -13c-106 0 -187 25.833 -243 77.5s-84 128.5 -84 230.5v420h226v-411c0 -49.333 7.16699 -84.833 21.5 -106.5s40.833 -32.5 79.5 -32.5s65 10.833 79 32.5s21 57.5 21 107.5v410h228v-418c0 -104.667 -28.833 -182.5 -86.5 -233.5s-138.167 -76.5 -241.5 -76.5z
M249 906h163l-75 -149h-130zM450 906h164l-75 -149h-130z" />
    <glyph glyph-name="uhungarumlaut" unicode="&#x171;" horiz-adv-x="628" 
d="M218 -13c-52 0 -94.167 16.5 -126.5 49.5s-48.5 80.833 -48.5 143.5v343h197v-309c0 -53.333 22 -80 66 -80c52 0 78 30.333 78 91v298h197v-523h-197v81c-32.667 -62.667 -88 -94 -166 -94zM195 747h148l-78 -169h-114zM376 747h148l-77 -169h-115z" />
    <glyph glyph-name="Uogonek" unicode="&#x172;" horiz-adv-x="776" 
d="M426 -182c-38 0 -68 7.16895 -90 21.502s-33 33.833 -33 58.5c0 32.667 21.333 62.667 64 90c-99.333 3.33301 -175.166 30.666 -227.499 81.999s-78.5 126.333 -78.5 225v420h226v-411c0 -49.333 7.16699 -84.833 21.5 -106.5s40.833 -32.5 79.5 -32.5
s65 10.833 79 32.5s21 57.5 21 107.5v410h228v-418c0 -138.667 -52.667 -232 -158 -280c-41.333 -18 -66.333 -32 -75 -42c-8 -8.66699 -12 -18.334 -12 -29.001c0 -16.667 9.66699 -25 29 -25c11.333 0 19.666 1.33301 24.999 4v-90c-21.333 -11.333 -54.333 -17 -99 -17z
" />
    <glyph glyph-name="uogonek" unicode="&#x173;" horiz-adv-x="628" 
d="M490 -182c-36.667 0 -65.666 7.33301 -86.999 22s-32 34.667 -32 60c0 16.667 4.83301 31.667 14.5 45s19.667 23.5 30 30.5s24.833 15.167 43.5 24.5h-75v81c-32.667 -62.667 -88 -94 -166 -94c-52 0 -94.167 16.5 -126.5 49.5s-48.5 80.833 -48.5 143.5v343h197v-309
c0 -53.333 22 -80 66 -80c52 0 78 30.333 78 91v298h197v-510c-34.667 -27.333 -52 -51.333 -52 -72c0 -17.333 10 -26 30 -26c11.333 0 19.666 1.33301 24.999 4v-84c-24 -11.333 -55.333 -17 -94 -17z" />
    <glyph glyph-name="Wcircumflex" unicode="&#x174;" horiz-adv-x="1009" 
d="M10 715h229l82 -427l86 427h197l97 -432l87 432h210l-166 -715h-229l-100 427l-101 -427h-226zM425 906h164l110 -149h-142l-54 47l-54 -47h-139z" />
    <glyph glyph-name="wcircumflex" unicode="&#x175;" horiz-adv-x="854" 
d="M5 523h205l68 -293l80 293h158l70 -293l79 293h184l-166 -523h-185l-73 273l-72 -273h-191zM359 746h138l120 -166h-137l-56 53l-56 -53h-134z" />
    <glyph glyph-name="Ycircumflex" unicode="&#x176;" horiz-adv-x="692" 
d="M237 305l-232 410h246l109 -224l110 224h217l-222 -409v-306h-228v305zM273 906h164l110 -149h-142l-54 47l-54 -47h-139z" />
    <glyph glyph-name="ycircumflex" unicode="&#x177;" 
d="M214 52l-209 471h213l99 -261l92 261h186l-279 -697h-187zM242 746h138l120 -166h-137l-56 53l-56 -53h-134z" />
    <glyph glyph-name="Ydieresis" unicode="&#x178;" horiz-adv-x="692" 
d="M237 305l-232 410h246l109 -224l110 224h217l-222 -409v-306h-228v305zM239 752c-25.333 0 -46.833 8.66699 -64.5 26s-26.5 38.333 -26.5 63s8.83301 45.667 26.5 63s39.167 26 64.5 26c26 0 47.833 -8.5 65.5 -25.5s26.5 -38.167 26.5 -63.5
c0 -24.667 -8.83301 -45.667 -26.5 -63s-39.5 -26 -65.5 -26zM466 752c-25.333 0 -46.833 8.66699 -64.5 26s-26.5 38.333 -26.5 63s8.83301 45.667 26.5 63s39.167 26 64.5 26c26 0 47.833 -8.5 65.5 -25.5s26.5 -38.167 26.5 -63.5c0 -24.667 -8.83301 -45.667 -26.5 -63
s-39.5 -26 -65.5 -26z" />
    <glyph glyph-name="Zacute" unicode="&#x179;" horiz-adv-x="627" 
d="M10 24l286 521h-246v170h563v-24l-283 -520h266v-171h-586v24zM288 906h201l-103 -149h-149z" />
    <glyph glyph-name="zacute" unicode="&#x17a;" horiz-adv-x="513" 
d="M8 19l214 357h-191v147h471v-20l-224 -357h210v-146h-480v19zM239 747h193l-104 -169h-141z" />
    <glyph glyph-name="Zdotaccent" unicode="&#x17b;" horiz-adv-x="627" 
d="M10 24l286 521h-246v170h563v-24l-283 -520h266v-171h-586v24zM321 752c-30 0 -54.667 9 -74 27s-29 40.667 -29 68c0 28 9.66699 51 29 69s44 27 74 27c29.333 0 53.666 -9 72.999 -27s29 -41 29 -69c0 -27.333 -9.66699 -50 -29 -68s-43.666 -27 -72.999 -27z" />
    <glyph glyph-name="zdotaccent" unicode="&#x17c;" horiz-adv-x="513" 
d="M8 19l214 357h-191v147h471v-20l-224 -357h210v-146h-480v19zM263 570c-30 0 -54.667 8.83301 -74 26.5s-29 40.5 -29 68.5s9.66699 51 29 69s44 27 74 27c29.333 0 53.833 -9 73.5 -27s29.5 -41 29.5 -69s-9.66699 -50.833 -29 -68.5s-44 -26.5 -74 -26.5z" />
    <glyph glyph-name="Zcaron" unicode="&#x17d;" horiz-adv-x="627" 
d="M10 24l286 521h-246v170h563v-24l-283 -520h266v-171h-586v24zM124 906h142l54 -47l54 47h139l-115 -149h-164z" />
    <glyph glyph-name="zcaron" unicode="&#x17e;" horiz-adv-x="513" 
d="M8 19l214 357h-191v147h471v-20l-224 -357h210v-146h-480v19zM70 746h137l56 -52l56 52h134l-125 -166h-138z" />
    <glyph glyph-name="uni0192" unicode="&#x192;" horiz-adv-x="456" 
d="M22 415h88.999l17 119c17.333 127.333 94 191 230 191c28.667 0 55.334 -3.66699 80.001 -11v-146c-14 4.66699 -30.333 7 -49 7c-39.333 0 -62 -19.333 -68 -58l-15 -102h111v-132h-129l-65 -465h-195l65 465h-71v132z" />
    <glyph glyph-name="Aringacute" unicode="&#x1fa;" horiz-adv-x="760" 
d="M234 715h293l224 -715h-240l-33 119h-226l-32 -119h-211zM295 273h141l-70 259zM381 808c13.333 0 24.166 4.66699 32.499 14s12.5 21.333 12.5 36c0 15.333 -4.16699 27.5 -12.5 36.5s-19.166 13.5 -32.499 13.5s-24.166 -4.5 -32.499 -13.5s-12.5 -21.167 -12.5 -36.5
c0 -14.667 4.16699 -26.667 12.5 -36s19.166 -14 32.499 -14zM381 740c-34 0 -62.833 11.667 -86.5 35s-35.5 51 -35.5 83s11.833 59.667 35.5 83s52.5 35 86.5 35s62.833 -11.667 86.5 -35s35.5 -51 35.5 -83s-11.833 -59.667 -35.5 -83s-52.5 -35 -86.5 -35zM357 1142h201
l-103 -149h-149z" />
    <glyph glyph-name="aringacute" unicode="&#x1fb;" horiz-adv-x="585" 
d="M198 -13c-51.333 0 -93.834 13.167 -127.501 39.5s-50.5 65.833 -50.5 118.5c0 60 23.5 103.5 70.5 130.5s117.167 40.5 210.5 40.5h45v9c0 25.333 -4 44.333 -12 57s-24.333 19 -49 19c-37.333 0 -58 -18.667 -62 -56h-184c4 62.667 28.833 110.5 74.5 143.5
s106.834 49.5 183.501 49.5c78 0 138.167 -16.667 180.5 -50s63.5 -83.333 63.5 -150v-338h-190v60c-27.333 -48.667 -78.333 -73 -153 -73zM268.999 119c22.667 0 41.166 5.83301 55.499 17.5s21.5 27.167 21.5 46.5v27h-42c-33.333 0 -56.666 -3.66699 -69.999 -11
s-20 -20.333 -20 -39c0 -27.333 18.333 -41 55 -41zM294.998 638c13.333 0 24 4.5 32 13.5s12 20.5 12 34.5c0 14.667 -4 26.5 -12 35.5s-18.667 13.5 -32 13.5s-24 -4.5 -32 -13.5s-12 -20.833 -12 -35.5c0 -14 4 -25.5 12 -34.5s18.667 -13.5 32 -13.5zM294.998 570
c-33.333 0 -61.6699 11.333 -85.0029 34s-35 50 -35 82s11.833 59.5 35.5 82.5s51.834 34.5 84.501 34.5s60.834 -11.5 84.501 -34.5s35.5 -50.5 35.5 -82.5s-11.667 -59.333 -35 -82s-51.666 -34 -84.999 -34zM275.994 978h201l-103 -149h-149z" />
    <glyph glyph-name="AEacute" unicode="&#x1fc;" horiz-adv-x="1012" 
d="M320 715h645v-174h-275v-101h217v-159h-217v-107h291v-174h-516v135h-187l-56 -135h-215zM340 285h125v256h-18zM582 906h201l-103 -149h-149z" />
    <glyph glyph-name="aeacute" unicode="&#x1fd;" horiz-adv-x="913" 
d="M626 -13c-94.667 0 -163.331 29.333 -205.998 88c-44 -58.667 -111.667 -88 -203 -88c-58.667 0 -106.334 13 -143.001 39s-55 65.667 -55 119c0 60 23.5 104 70.5 132s116.833 42 209.5 42h49v6c0 25.333 -4.5 44.333 -13.5 57s-25.5 19 -49.5 19
c-37.333 0 -58.333 -18.667 -63 -56h-184c4 62.667 28.667 110.5 74 143.5s105.333 49.5 180 49.5c78.667 0 134 -19 166 -57c42.667 38 97.667 57 165 57c78.667 0 143.167 -22.833 193.5 -68.5s75.5 -113.5 75.5 -203.5v-47h-357c5.33301 -65.333 36.666 -98 93.999 -98
c45.333 0 72.333 18.667 81 56h182c-7.33301 -61.333 -33.5 -108.333 -78.5 -141s-107.5 -49 -187.5 -49zM703.003 319c-3.33301 61.333 -30.001 92 -80.001 92c-24 0 -43.667 -7.83301 -59 -23.5s-24.666 -38.5 -27.999 -68.5h167zM269.002 119
c24.667 0 44 5.83398 58 17.501s21 27.167 21 46.5v33h-46c-31.333 0 -54 -3.83301 -68 -11.5s-21 -20.834 -21 -39.501c0 -30.667 18.667 -46 56 -46zM451.002 747.001h193l-104 -169h-141z" />
    <glyph glyph-name="Oslashacute" unicode="&#x1fe;" horiz-adv-x="820" 
d="M34 23l78 81.999c-56.667 64.667 -85 147.334 -85 248.001v8c0 108 36.333 195.667 109 263s163.667 101 273 101c88 0 165 -20.667 231 -62l73 78l57 -56l-68 -72c61.333 -62.667 92 -144.667 92 -246v-8c0 -112 -35.5 -202 -106.5 -270s-165.167 -102 -282.5 -102
c-94 0 -171.667 21.667 -233 65l-81 -85zM410 164.999c46.667 0 83.167 16.666 109.5 49.999s39.5 80 39.5 140v8c0 32.667 -4 61.334 -12 86.001l-235 -248c25.333 -24 58 -36 98 -36zM261 353.998c0 -33.333 3.33301 -60.333 10 -81l231 245
c-25.333 20.667 -56.333 31 -93 31c-46.667 0 -83 -16 -109 -48s-39 -78.333 -39 -139v-8zM377 905.998h201l-103 -149h-149z" />
    <glyph glyph-name="oslashacute" unicode="&#x1ff;" horiz-adv-x="626" 
d="M22 7l64.001 68c-43.333 47.333 -65 107.333 -65 180v8c0 83.333 27.667 150 83 200s125.333 75 210 75c64 0 119.667 -14.333 167 -43l65 69l50 -46l-62 -66c46.667 -48 70 -109.333 70 -184v-8c0 -84 -27.5 -150.5 -82.5 -199.5s-124.5 -73.5 -208.5 -73.5
c-68.667 0 -126.334 15 -173.001 45l-67 -71zM314.001 131c62 0 93.001 42.334 93.001 127.001v8c0 17.333 -1.33301 32.666 -4 45.999l-150 -160c15.333 -14 35.666 -21 60.999 -21zM219.002 261.001c0 -15.333 0.999023 -29.333 2.99902 -42l147 157
c-15.333 11.333 -33.666 17 -54.999 17c-63.333 0 -95 -41.333 -95 -124v-8zM289.001 747.001h193l-104 -169h-141z" />
    <glyph glyph-name="uni0218" unicode="&#x218;" horiz-adv-x="655" 
d="M334 -13c-204.667 0 -309.668 80.666 -315.001 241.999h215c3.33301 -54.667 36.666 -82 99.999 -82c26 0 45.667 5.33301 59 16s20 25 20 43s-7.16699 31.333 -21.5 40s-41.166 15.667 -80.499 21c-103.333 12 -175.166 34.833 -215.499 68.5s-60.5 87.5 -60.5 161.5
c0 67.333 25.667 122.166 77 164.499s121 63.5 209 63.5c180.667 0 276.667 -76 288 -228h-210c-5.33301 46 -31.333 69 -78 69c-22.667 0 -40.167 -4.66699 -52.5 -14s-18.5 -22 -18.5 -38c0 -18 6.83301 -31.167 20.5 -39.5s40.167 -15.166 79.5 -20.499
c96.667 -10 167.5 -31 212.5 -63s67.5 -85.667 67.5 -161c0 -69.333 -26.333 -127.166 -79 -173.499s-125 -69.5 -217 -69.5zM201.999 -206.001l39 175l172 -12l-101 -190z" />
    <glyph glyph-name="uni0219" unicode="&#x219;" horiz-adv-x="521" 
d="M259 -13c-77.333 0 -137.334 15.502 -180.001 46.502s-64.667 75.833 -66 134.5h180c4 -18.667 10.5 -32.334 19.5 -41.001s24.167 -13 45.5 -13c36.667 0 55 12.333 55 37c0 12 -6.66699 21.167 -20 27.5s-37.333 11.833 -72 16.5c-72.667 8 -124.667 24 -156 48
s-47 63.333 -47 118c0 57.333 21.833 101.166 65.5 131.499s99.5 45.5 167.5 45.5c72 0 128.333 -13.5 169 -40.5s64 -71.167 70 -132.5h-177c-7.33301 32.667 -27 49 -59 49c-34.667 0 -52 -12 -52 -36c0 -12 6.16699 -20.833 18.5 -26.5s33.5 -10.167 63.5 -13.5
c79.333 -10 136 -26.833 170 -50.5s51 -62.5 51 -116.5c0 -62 -21.667 -108.167 -65 -138.5s-103.666 -45.5 -180.999 -45.5zM134.999 -205.998l39 175l172 -12l-101 -190z" />
    <glyph glyph-name="uni021A" unicode="&#x21a;" horiz-adv-x="629" 
d="M200 541h-180v174h589v-174h-181v-541h-228v541zM191 -206l39 175l172 -12l-101 -190z" />
    <glyph glyph-name="uni021B" unicode="&#x21b;" horiz-adv-x="396" 
d="M265 -12c-128.667 0 -193 62.333 -193 187v216h-61v132h61v107h197v-107h100v-132h-100v-197c0 -34 17 -51 51 -51c16.667 0 33 2.66699 49 8v-148c-34 -10 -68.667 -15 -104 -15zM90 -206l39 175l172 -12l-101 -190z" />
    <glyph glyph-name="uni0237" unicode="&#x237;" horiz-adv-x="303" 
d="M-9 -42c22 1.33301 37.667 6.33301 47 15s14 23 14 43v507h197v-512c0 -63.333 -19 -111.5 -57 -144.5s-105 -49.5 -201 -49.5v141z" />
    <glyph glyph-name="uni02BC" unicode="&#x2bc;" horiz-adv-x="321" 
d="M42 459l78 269l171 -55l-140 -256z" />
    <glyph glyph-name="circumflex" unicode="&#x2c6;" horiz-adv-x="400" 
d="M133 746h138l120 -166h-137l-56 53l-56 -53h-134z" />
    <glyph glyph-name="caron" unicode="&#x2c7;" horiz-adv-x="400" 
d="M8 746h137l56 -52l56 52h134l-125 -166h-138z" />
    <glyph glyph-name="breve" unicode="&#x2d8;" horiz-adv-x="400" 
d="M200 581c-51.333 0 -91.668 14 -121.001 42s-45.333 68.333 -48 121h119c3.33301 -30 20 -45 50 -45c30.667 0 47.667 15 51 45h118c-3.33301 -52.667 -20.166 -93 -50.499 -121s-69.833 -42 -118.5 -42z" />
    <glyph glyph-name="dotaccent" unicode="&#x2d9;" horiz-adv-x="400" 
d="M200 570c-30 0 -54.667 8.83301 -74 26.5s-29 40.5 -29 68.5s9.66699 51 29 69s44 27 74 27c29.333 0 53.833 -9 73.5 -27s29.5 -41 29.5 -69s-9.66699 -50.833 -29 -68.5s-44 -26.5 -74 -26.5z" />
    <glyph glyph-name="ring" unicode="&#x2da;" horiz-adv-x="400" 
d="M200 642c13.333 0 24 4.5 32 13.5s12 20.5 12 34.5c0 14.667 -4 26.5 -12 35.5s-18.667 13.5 -32 13.5s-24 -4.5 -32 -13.5s-12 -20.833 -12 -35.5c0 -14 4 -25.5 12 -34.5s18.667 -13.5 32 -13.5zM200 574c-33.333 0 -61.6699 11.333 -85.0029 34s-35 50 -35 82
s11.833 59.5 35.5 82.5s51.834 34.5 84.501 34.5s60.834 -11.5 84.501 -34.5s35.5 -50.5 35.5 -82.5s-11.667 -59.333 -35 -82s-51.666 -34 -84.999 -34z" />
    <glyph glyph-name="ogonek" unicode="&#x2db;" horiz-adv-x="400" 
d="M194 -182c-34 0 -62.332 6.83203 -84.999 20.499s-34 32.834 -34 57.501c0 24 8 43.833 24 59.5s37.333 30.5 64 44.5h108c-25.333 -21.333 -38 -41 -38 -59c0 -17.333 10 -26 30 -26c11.333 0 19.666 1.33301 24.999 4v-84c-24 -11.333 -55.333 -17 -94 -17z" />
    <glyph glyph-name="tilde" unicode="&#x2dc;" horiz-adv-x="400" 
d="M266 581c-22 0 -45.333 5.33301 -70 16s-40.667 16 -48 16c-16.667 0 -26.667 -10 -30 -30h-104c3.33301 54 15.5 94.5 36.5 121.5s48.167 40.5 81.5 40.5c20 0 42.833 -5.33301 68.5 -16s43.167 -16 52.5 -16c17.333 0 27.333 10.333 30 31h104
c-4 -53.333 -17 -93.833 -39 -121.5s-49.333 -41.5 -82 -41.5z" />
    <glyph glyph-name="hungarumlaut" unicode="&#x2dd;" horiz-adv-x="400" 
d="M91 747h148l-78 -169h-114zM272 747h148l-77 -169h-115z" />
    <glyph glyph-name="uni037E" unicode="&#x37e;" horiz-adv-x="326" 
d="M8 -79l81 272l182 -63l-148 -252zM178 272c-31.333 0 -57.5 10.333 -78.5 31s-31.5 46 -31.5 76s10.5 55.5 31.5 76.5s47.167 31.5 78.5 31.5c32 0 58.667 -10.5 80 -31.5s32 -46.5 32 -76.5s-10.667 -55.333 -32 -76s-48 -31 -80 -31z" />
    <glyph glyph-name="tonos" unicode="&#x384;" horiz-adv-x="400" 
d="M175 747h193l-104 -169h-141z" />
    <glyph glyph-name="dieresistonos" unicode="&#x385;" horiz-adv-x="494" 
d="M213 768h142l-84 -185h-105zM421 578c-22 0 -40.833 7.66895 -56.5 23.002s-23.5 33.666 -23.5 54.999s7.83301 39.666 23.5 54.999s34.5 23 56.5 23c23.333 0 42.5 -7.5 57.5 -22.5s22.5 -33.5 22.5 -55.5s-7.5 -40.5 -22.5 -55.5s-34.167 -22.5 -57.5 -22.5z
M72 578.002c-22 0 -40.833 7.66699 -56.5 23s-23.5 33.666 -23.5 54.999s7.83301 39.666 23.5 54.999s34.5 23 56.5 23c22.667 0 41.834 -7.66699 57.501 -23s23.5 -33.666 23.5 -54.999s-7.83301 -39.666 -23.5 -54.999s-34.834 -23 -57.501 -23z" />
    <glyph glyph-name="Alphatonos" unicode="&#x386;" horiz-adv-x="760" 
d="M234 715h293l224 -715h-240l-33 119h-226l-32 -119h-211zM295 273h141l-70 259zM-13 716h193l-104 -169h-141z" />
    <glyph glyph-name="anoteleia" unicode="&#x387;" horiz-adv-x="302" 
d="M150 219c-31.333 0 -57.5 10.333 -78.5 31s-31.5 46 -31.5 76s10.5 55.5 31.5 76.5s47.167 31.5 78.5 31.5c32 0 58.667 -10.5 80 -31.5s32 -46.5 32 -76.5s-10.667 -55.333 -32 -76s-48 -31 -80 -31z" />
    <glyph glyph-name="Epsilontonos" unicode="&#x388;" horiz-adv-x="620" 
d="M65 715h508v-174h-282v-101h224v-159h-224v-107h298v-174h-524v715zM-155 716h193l-104 -169h-141z" />
    <glyph glyph-name="Etatonos" unicode="&#x389;" horiz-adv-x="794" 
d="M65 715h227v-264h210v264h227v-715h-227v275h-210v-275h-227v715zM-155 716h193l-104 -169h-141z" />
    <glyph glyph-name="Iotatonos" unicode="&#x38a;" horiz-adv-x="366" 
d="M68 715h229v-715h-229v715zM-155 716h193l-104 -169h-141z" />
    <glyph glyph-name="Omicrontonos" unicode="&#x38c;" horiz-adv-x="820" 
d="M411 165c44.667 0 80.167 16.6689 106.5 50.002s39.5 79.666 39.5 138.999v8c0 60 -13.167 106.167 -39.5 138.5s-62.5 48.5 -108.5 48.5c-44.667 0 -80 -16 -106 -48s-39 -78.333 -39 -139v-8c0 -60.667 13 -107.334 39 -140.001s62 -49 108 -49zM405 -12.998
c-116 0 -208.001 33.5 -276.001 100.5s-102 155.5 -102 265.5v8c0 108.667 36.333 196.667 109 264s163.667 101 273 101c112.667 0 204.834 -32.167 276.501 -96.5s107.5 -151.833 107.5 -262.5v-8c0 -112 -35.333 -202 -106 -270s-164.667 -102 -282 -102z
M-93.001 716.002h193l-104 -169h-141z" />
    <glyph glyph-name="Upsilontonos" unicode="&#x38e;" horiz-adv-x="692" 
d="M237 305l-232 410h246l109 -224l110 224h217l-222 -409v-306h-228v305zM-203 716h193l-104 -169h-141z" />
    <glyph glyph-name="Omegatonos" unicode="&#x38f;" horiz-adv-x="826" 
d="M264 351c0 -99.333 35.667 -178.334 107 -237.001v-114h-338v167h98c-28.667 20.667 -52.5 50 -71.5 88s-28.5 77 -28.5 117v6c0 100.667 35.833 183.667 107.5 249s162.834 98 273.501 98c113.333 0 205.5 -31.167 276.5 -93.5s106.5 -145.166 106.5 -248.499v-6
c0 -43.333 -9.33301 -84 -28 -122s-42.334 -67.333 -71.001 -88h97v-167h-338v114c71.333 58 107 137 107 237v8c0 62 -13 109.167 -39 141.5s-63 48.5 -111 48.5c-46.667 0 -83 -16.167 -109 -48.5s-39 -79.5 -39 -141.5v-8zM-93 715.999h193l-104 -169h-141z" />
    <glyph glyph-name="iotadieresistonos" unicode="&#x390;" horiz-adv-x="302" 
d="M53 523h196v-523h-196v523zM141 768h142l-84 -185h-105zM349 578c-22 0 -40.833 7.66895 -56.5 23.002s-23.5 33.666 -23.5 54.999s7.83301 39.666 23.5 54.999s34.5 23 56.5 23c23.333 0 42.5 -7.5 57.5 -22.5s22.5 -33.5 22.5 -55.5s-7.5 -40.5 -22.5 -55.5
s-34.167 -22.5 -57.5 -22.5zM0 578.002c-22 0 -40.833 7.66699 -56.5 23s-23.5 33.666 -23.5 54.999s7.83301 39.666 23.5 54.999s34.5 23 56.5 23c22.667 0 41.834 -7.66699 57.501 -23s23.5 -33.666 23.5 -54.999s-7.83301 -39.666 -23.5 -54.999s-34.834 -23 -57.501 -23
z" />
    <glyph glyph-name="Alpha" unicode="&#x391;" horiz-adv-x="760" 
d="M234 715h293l224 -715h-240l-33 119h-226l-32 -119h-211zM295 273h141l-70 259z" />
    <glyph glyph-name="Beta" unicode="&#x392;" horiz-adv-x="690" 
d="M65 715l338 -0.000976562c83.333 0 144.833 -17 184.5 -51s59.5 -79.333 59.5 -136v-4c0 -83.333 -41.333 -134.666 -124 -153.999c44 -8 78.833 -25.833 104.5 -53.5s38.5 -65.5 38.5 -113.5v-4c0 -132.667 -88.333 -199 -265 -199h-336v715zM358 148.999
c56.667 0 85 25 85 75v4c0 48.667 -30 73 -90 73h-67v-152h72zM355 435.999c28 0 48 5 60 15s18 26 18 48v4c0 42.667 -26.333 64 -79 64h-68v-131h69z" />
    <glyph glyph-name="Gamma" unicode="&#x393;" horiz-adv-x="575" 
d="M65 715h490v-175h-262v-540h-228v715z" />
    <glyph glyph-name="uni0394" unicode="&#x394;" horiz-adv-x="772" 
d="M16 24l215 691h312l213 -691v-24h-740v24zM266 173h215l-107 383z" />
    <glyph glyph-name="Epsilon" unicode="&#x395;" horiz-adv-x="620" 
d="M65 715h508v-174h-282v-101h224v-159h-224v-107h298v-174h-524v715z" />
    <glyph glyph-name="Zeta" unicode="&#x396;" horiz-adv-x="627" 
d="M10 24l286 521h-246v170h563v-24l-283 -520h266v-171h-586v24z" />
    <glyph glyph-name="Eta" unicode="&#x397;" horiz-adv-x="794" 
d="M65 715h227v-264h210v264h227v-715h-227v275h-210v-275h-227v715z" />
    <glyph glyph-name="Theta" unicode="&#x398;" horiz-adv-x="839" 
d="M415 -13c-120.667 0 -215.499 32.667 -284.499 98s-103.5 154.666 -103.5 267.999v8c0 112 36.667 200.667 110 266s167.333 98 282 98c117.333 0 212.166 -31.167 284.499 -93.5s108.5 -150.5 108.5 -264.5v-8c0 -115.333 -35.667 -206.166 -107 -272.499
s-168 -99.5 -290 -99.5zM420.001 160c48.667 0 87.332 17.5 115.999 52.5s43 82.5 43 142.5v8c0 60 -14.333 106.667 -43 140s-67.667 50 -117 50s-88 -16.5 -116 -49.5s-42 -80.167 -42 -141.5v-8c0 -60.667 14.333 -108.167 43 -142.5s67.334 -51.5 116.001 -51.5z
M332.999 427h173v-135h-173v135z" />
    <glyph glyph-name="Iota" unicode="&#x399;" horiz-adv-x="366" 
d="M68 715h229v-715h-229v715z" />
    <glyph glyph-name="Kappa" unicode="&#x39a;" horiz-adv-x="746" 
d="M65 715h227v-271l198 271h235l-251 -330l265 -385h-261l-186 286v-286h-227v715z" />
    <glyph glyph-name="Lambda" unicode="&#x39b;" horiz-adv-x="741" 
d="M732 0h-245l-132 471l-134 -471h-212l229 715h263z" />
    <glyph glyph-name="Mu" unicode="&#x39c;" horiz-adv-x="958" 
d="M65 715h294l121 -347l123 347h288v-715h-225v422l-163 -422h-76l-160 422v-422h-202v715z" />
    <glyph glyph-name="Nu" unicode="&#x39d;" horiz-adv-x="787" 
d="M65 715h254l203 -378v378h199v-715h-217l-239 428v-428h-200v715z" />
    <glyph glyph-name="Xi" unicode="&#x39e;" horiz-adv-x="632" 
d="M594 715v-179h-555v179h555zM547 441v-164h-462v164h462zM32 180h568v-180h-568v180z" />
    <glyph glyph-name="Omicron" unicode="&#x39f;" horiz-adv-x="820" 
d="M411 165c44.667 0 80.167 16.6689 106.5 50.002s39.5 79.666 39.5 138.999v8c0 60 -13.167 106.167 -39.5 138.5s-62.5 48.5 -108.5 48.5c-44.667 0 -80 -16 -106 -48s-39 -78.333 -39 -139v-8c0 -60.667 13 -107.334 39 -140.001s62 -49 108 -49zM405 -12.998
c-116 0 -208.001 33.5 -276.001 100.5s-102 155.5 -102 265.5v8c0 108.667 36.333 196.667 109 264s163.667 101 273 101c112.667 0 204.834 -32.167 276.501 -96.5s107.5 -151.833 107.5 -262.5v-8c0 -112 -35.333 -202 -106 -270s-164.667 -102 -282 -102z" />
    <glyph glyph-name="Pi" unicode="&#x3a0;" horiz-adv-x="788" 
d="M65 715h658v-715h-227v533h-203v-533h-228v715z" />
    <glyph glyph-name="Rho" unicode="&#x3a1;" horiz-adv-x="665" 
d="M65 715h285c196 0 294 -81.667 294 -245v-4c0 -75.333 -24.167 -133 -72.5 -173s-118.833 -60 -211.5 -60h-69v-233h-226v715zM338 385c60.667 0 91.001 26.667 91.001 80v4c0 27.333 -7.33301 47 -22 59s-37.334 18 -68.001 18h-48v-161h47z" />
    <glyph glyph-name="Sigma" unicode="&#x3a3;" horiz-adv-x="616" 
d="M42 548v167h529v-168h-268l152 -176l-151 -194h281v-177h-547v142l165 217z" />
    <glyph glyph-name="Tau" unicode="&#x3a4;" horiz-adv-x="629" 
d="M200 541h-180v174h589v-174h-181v-541h-228v541z" />
    <glyph glyph-name="Upsilon" unicode="&#x3a5;" horiz-adv-x="692" 
d="M237 305l-232 410h246l109 -224l110 224h217l-222 -409v-306h-228v305z" />
    <glyph glyph-name="Phi" unicode="&#x3a6;" horiz-adv-x="972" 
d="M383 41c-112.667 5.33301 -200.167 37.333 -262.5 96s-93.5 132.667 -93.5 222v7c0 88 32.833 161.167 98.5 219.5s151.5 90.833 257.5 97.5v60h204v-60c108.667 -6.66699 195.5 -38 260.5 -94s97.5 -128.333 97.5 -217v-7c0 -91.333 -31.5 -166.5 -94.5 -225.5
s-150.833 -91.833 -263.5 -98.5v-69h-204v69zM247 360c0 -43.333 11.667 -78.333 35 -105s57 -43.667 101 -51v317c-90.667 -14.667 -136 -66 -136 -154v-7zM725 367c0 42 -12 76.333 -36 103s-58 43.667 -102 51v-318c44 7.33301 78 24.833 102 52.5s36 62.5 36 104.5v7z
" />
    <glyph glyph-name="Chi" unicode="&#x3a7;" horiz-adv-x="773" 
d="M236 368l-202 347h259l100 -201l98 201h232l-187 -339l219 -376h-258l-123 235l-123 -235h-233z" />
    <glyph glyph-name="Psi" unicode="&#x3a8;" horiz-adv-x="920" 
d="M360 160c-104.667 5.33301 -183.833 35.334 -237.5 90.001s-80.5 125.667 -80.5 213v252h215v-237c0 -44.667 7.83301 -78.834 23.5 -102.501s42.167 -38.5 79.5 -44.5v384h205v-381c73.333 15.333 110 65.333 110 150v231h204v-237c0 -90 -26.333 -163 -79 -219
s-131 -88.667 -235 -98v-161h-205v160z" />
    <glyph glyph-name="uni03A9" unicode="&#x3a9;" horiz-adv-x="826" 
d="M264 351c0 -99.333 35.667 -178.334 107 -237.001v-114h-338v167h98c-28.667 20.667 -52.5 50 -71.5 88s-28.5 77 -28.5 117v6c0 100.667 35.833 183.667 107.5 249s162.834 98 273.501 98c113.333 0 205.5 -31.167 276.5 -93.5s106.5 -145.166 106.5 -248.499v-6
c0 -43.333 -9.33301 -84 -28 -122s-42.334 -67.333 -71.001 -88h97v-167h-338v114c71.333 58 107 137 107 237v8c0 62 -13 109.167 -39 141.5s-63 48.5 -111 48.5c-46.667 0 -83 -16.167 -109 -48.5s-39 -79.5 -39 -141.5v-8z" />
    <glyph glyph-name="Iotadieresis" unicode="&#x3aa;" horiz-adv-x="366" 
d="M68 715h229v-715h-229v715zM69 752c-25.333 0 -46.833 8.66699 -64.5 26s-26.5 38.333 -26.5 63s8.83301 45.667 26.5 63s39.167 26 64.5 26c26 0 47.833 -8.5 65.5 -25.5s26.5 -38.167 26.5 -63.5c0 -24.667 -8.83301 -45.667 -26.5 -63s-39.5 -26 -65.5 -26zM296 752
c-25.333 0 -46.833 8.66699 -64.5 26s-26.5 38.333 -26.5 63s8.83301 45.667 26.5 63s39.167 26 64.5 26c26 0 47.833 -8.5 65.5 -25.5s26.5 -38.167 26.5 -63.5c0 -24.667 -8.83301 -45.667 -26.5 -63s-39.5 -26 -65.5 -26z" />
    <glyph glyph-name="Upsilondieresis" unicode="&#x3ab;" horiz-adv-x="692" 
d="M237 305l-232 410h246l109 -224l110 224h217l-222 -409v-306h-228v305zM241 752c-25.333 0 -46.833 8.66699 -64.5 26s-26.5 38.333 -26.5 63s8.83301 45.667 26.5 63s39.167 26 64.5 26c26 0 47.833 -8.5 65.5 -25.5s26.5 -38.167 26.5 -63.5
c0 -24.667 -8.83301 -45.667 -26.5 -63s-39.5 -26 -65.5 -26zM468 752c-25.333 0 -46.833 8.66699 -64.5 26s-26.5 38.333 -26.5 63s8.83301 45.667 26.5 63s39.167 26 64.5 26c26 0 47.833 -8.5 65.5 -25.5s26.5 -38.167 26.5 -63.5c0 -24.667 -8.83301 -45.667 -26.5 -63
s-39.5 -26 -65.5 -26z" />
    <glyph glyph-name="alphatonos" unicode="&#x3ac;" horiz-adv-x="638" 
d="M310 137c28 0 49.833 10.5 65.5 31.5s23.5 51.5 23.5 91.5v8c0 82 -29 123 -87 123c-59.333 0 -89 -41.333 -89 -124v-8c0 -81.333 29 -122 87 -122zM239 -13c-61.333 0 -112.665 22.999 -153.998 68.999s-62 112.667 -62 200v8c0 86.667 20.667 153.834 62 201.501
s92.666 71.5 153.999 71.5c71.333 0 122.666 -28.667 153.999 -86v72h197v-523h-197v83c-32.667 -64 -84 -96 -154 -96zM315.001 746.999h193l-104 -169h-141z" />
    <glyph glyph-name="epsilontonos" unicode="&#x3ad;" horiz-adv-x="583" 
d="M134 273c-28.667 6 -52.5 19.333 -71.5 40s-28.5 45.334 -28.5 74.001c0 44 20.833 80.167 62.5 108.5s107.167 42.5 196.5 42.5c48 0 90.333 -5.5 127 -16.5s68 -30.167 94 -57.5s42 -62.333 48 -105h-184c-4.66699 34.667 -29 52 -73 52c-46.667 0 -70 -16 -70 -48
c0 -11.333 3.83301 -21.333 11.5 -30s20.167 -13 37.5 -13h93v-103h-91c-42.667 0 -64 -15.333 -64 -46c0 -32.667 27.667 -49 83 -49c52 0 79.667 18.667 83 56h179c-11.333 -127.333 -102.333 -191 -273 -191c-91.333 0 -159.5 14 -204.5 42s-67.5 68 -67.5 120
c0 30.667 9.83301 57.167 29.5 79.5s47.167 37.166 82.5 44.499zM287 747h193l-104 -169h-141z" />
    <glyph glyph-name="etatonos" unicode="&#x3ae;" horiz-adv-x="629" 
d="M47 523h197.001v-84c34 66 91.667 99 173 99c51.333 0 92.166 -16.5 122.499 -49.5s45.5 -81.167 45.5 -144.5v-518h-196v474c0 53.333 -22.333 80 -67 80c-52 0 -78 -30.333 -78 -91v-289h-197v523zM292.001 747h193l-104 -169h-141z" />
    <glyph glyph-name="iotatonos" unicode="&#x3af;" horiz-adv-x="302" 
d="M53 523h196v-523h-196v523zM135 747h193l-104 -169h-141z" />
    <glyph glyph-name="upsilondieresistonos" unicode="&#x3b0;" horiz-adv-x="620" 
d="M309 -13c-87.333 0 -153.832 22.499 -199.499 67.499s-68.5 106.167 -68.5 183.5v285h197v-298c0 -60.667 24 -91 72 -91s72 29.667 72 89v300h197v-281c0 -79.333 -22.833 -141.666 -68.5 -186.999s-112.834 -68 -201.501 -68zM281.001 767.999h142l-84 -185h-105z
M489.001 577.999c-22 0 -40.833 7.66895 -56.5 23.002s-23.5 33.666 -23.5 54.999s7.83301 39.666 23.5 54.999s34.5 23 56.5 23c23.333 0 42.5 -7.5 57.5 -22.5s22.5 -33.5 22.5 -55.5s-7.5 -40.5 -22.5 -55.5s-34.167 -22.5 -57.5 -22.5zM140.001 578.001
c-22 0 -40.833 7.66699 -56.5 23s-23.5 33.666 -23.5 54.999s7.83301 39.666 23.5 54.999s34.5 23 56.5 23c22.667 0 41.834 -7.66699 57.501 -23s23.5 -33.666 23.5 -54.999s-7.83301 -39.666 -23.5 -54.999s-34.834 -23 -57.501 -23z" />
    <glyph glyph-name="alpha" unicode="&#x3b1;" horiz-adv-x="638" 
d="M310 137c28 0 49.833 10.5 65.5 31.5s23.5 51.5 23.5 91.5v8c0 82 -29 123 -87 123c-59.333 0 -89 -41.333 -89 -124v-8c0 -81.333 29 -122 87 -122zM239 -13c-61.333 0 -112.665 22.999 -153.998 68.999s-62 112.667 -62 200v8c0 86.667 20.667 153.834 62 201.501
s92.666 71.5 153.999 71.5c71.333 0 122.666 -28.667 153.999 -86v72h197v-523h-197v83c-32.667 -64 -84 -96 -154 -96z" />
    <glyph glyph-name="beta" unicode="&#x3b2;" horiz-adv-x="640" 
d="M306 466c34 -1.33301 59.334 5.33105 76.001 19.998s25 34.667 25 60v5c0 20.667 -7.5 37.834 -22.5 51.501s-34.833 20.5 -59.5 20.5s-44.334 -8.5 -59.001 -25.5s-22 -40.833 -22 -71.5v-285c0 -32 8.5 -57.167 25.5 -75.5s37.5 -27.5 61.5 -27.5
c26.667 0 48 8.33301 64 25s24 41.334 24 74.001v6c0 66 -37.667 97.667 -113 95v128zM471.001 412.997c46 -11.333 82.167 -34.001 108.5 -68.001s39.5 -74.333 39.5 -121v-7c0 -66 -21.167 -119.833 -63.5 -161.5s-96.5 -62.5 -162.5 -62.5
c-31.333 0 -60.5 7.33301 -87.5 22s-47.5 35.667 -61.5 63v-252h-197v689c0 82 25 143 75 183s116.667 60 200 60c78.667 0 142 -16.833 190 -50.5s72 -80.5 72 -140.5v-4c0 -34 -10.5 -65.167 -31.5 -93.5s-48.167 -47.166 -81.5 -56.499z" />
    <glyph glyph-name="gamma" unicode="&#x3b3;" horiz-adv-x="624" 
d="M432 523h188l-210 -516v-181h-195v181l-211 516h212l108 -309z" />
    <glyph glyph-name="delta" unicode="&#x3b4;" horiz-adv-x="624" 
d="M106 749l441.001 -0.000976562v-148h-188l117 -115c45.333 -44 77.666 -82.333 96.999 -115s29 -71.667 29 -117v-8c0 -75.333 -27.833 -137.333 -83.5 -186s-124.834 -73 -207.501 -73c-84 0 -153.333 23.167 -208 69.5s-82 108.833 -82 187.5v7
c0 62.667 19.833 115.834 59.5 159.501s91.834 65.5 156.501 65.5c10 0 19 -1.33301 27 -4l-158 154v123zM402.001 255.999c0 34 -8.00098 61.332 -24.001 81.999s-38 31 -66 31c-29.333 0 -51.666 -9.66699 -66.999 -29s-23 -46.666 -23 -81.999v-7
c0 -79.333 30 -119 90 -119s90 38.667 90 116v8z" />
    <glyph glyph-name="epsilon" unicode="&#x3b5;" horiz-adv-x="583" 
d="M134 273c-28.667 6 -52.5 19.333 -71.5 40s-28.5 45.334 -28.5 74.001c0 44 20.833 80.167 62.5 108.5s107.167 42.5 196.5 42.5c48 0 90.333 -5.5 127 -16.5s68 -30.167 94 -57.5s42 -62.333 48 -105h-184c-4.66699 34.667 -29 52 -73 52c-46.667 0 -70 -16 -70 -48
c0 -11.333 3.83301 -21.333 11.5 -30s20.167 -13 37.5 -13h93v-103h-91c-42.667 0 -64 -15.333 -64 -46c0 -32.667 27.667 -49 83 -49c52 0 79.667 18.667 83 56h179c-11.333 -127.333 -102.333 -191 -273 -191c-91.333 0 -159.5 14 -204.5 42s-67.5 68 -67.5 120
c0 30.667 9.83301 57.167 29.5 79.5s47.167 37.166 82.5 44.499z" />
    <glyph glyph-name="zeta" unicode="&#x3b6;" horiz-adv-x="520" 
d="M258 0c-76.667 0 -135.332 18.832 -175.999 56.499s-61 89.834 -61 156.501c0 60 18.667 123.333 56 190s83.666 127 138.999 181h-159v165h466v-40c-82.667 -82.667 -153.167 -169.667 -211.5 -261s-87.5 -163 -87.5 -215c0 -27.333 7.16699 -46.833 21.5 -58.5
s36.166 -17.5 65.499 -17.5h39c54.667 0 95.667 -13.5 123 -40.5s41 -63.5 41 -109.5c0 -38.667 -10 -89.667 -30 -153h-151c12.667 36.667 19 66.667 19 90c0 20 -4.16699 34.333 -12.5 43s-22.166 13 -41.499 13h-40z" />
    <glyph glyph-name="eta" unicode="&#x3b7;" horiz-adv-x="629" 
d="M47 523h197.001v-84c34 66 91.667 99 173 99c51.333 0 92.166 -16.5 122.499 -49.5s45.5 -81.167 45.5 -144.5v-518h-196v474c0 53.333 -22.333 80 -67 80c-52 0 -78 -30.333 -78 -91v-289h-197v523z" />
    <glyph glyph-name="theta" unicode="&#x3b8;" horiz-adv-x="642" 
d="M607 364c0 -118 -23.833 -210.333 -71.5 -277s-119.167 -100 -214.5 -100s-167 32.667 -215 98s-72 156.333 -72 273v30c0 114 25.5 204.167 76.5 270.5s121.167 99.5 210.5 99.5s159.333 -31.667 210 -95s76 -153.333 76 -270v-29zM321 614
c-34.667 0 -59.5 -14.333 -74.5 -43s-23.167 -72.334 -24.5 -131.001h197c-1.33301 58.667 -9.5 102.334 -24.5 131.001s-39.5 43 -73.5 43zM322 130c33.333 0 57.501 14.832 72.501 44.499s23.167 72.834 24.5 129.501h-197c0.666992 -58 8.66699 -101.5 24 -130.5
s40.666 -43.5 75.999 -43.5z" />
    <glyph glyph-name="iota" unicode="&#x3b9;" horiz-adv-x="302" 
d="M53 523h196v-523h-196v523z" />
    <glyph glyph-name="kappa" unicode="&#x3ba;" horiz-adv-x="593" 
d="M244 313l139 210h203l-171 -243l176 -280h-218l-129 214v-214h-197v523h197v-210z" />
    <glyph glyph-name="lambda" unicode="&#x3bb;" horiz-adv-x="611" 
d="M185 557c-8 20 -17.3311 33.832 -27.998 41.499s-25.667 11.5 -45 11.5c-16 0 -38 -3.66699 -66 -11v141c34 12 75.667 18 125 18c42.667 0 79.667 -11.167 111 -33.5s58.666 -64.166 81.999 -125.499l157 -414c10 -25.333 25 -38 45 -38
c13.333 0 26.666 1.33301 39.999 4v-147c-24.667 -8.66699 -56.667 -13 -96 -13c-74 0 -125.667 41 -155 123l-63 179l-91 -293h-204l205 514z" />
    <glyph glyph-name="uni03BC" unicode="&#x3bc;" horiz-adv-x="630" 
d="M47 523h197.001v-314c0 -52 22 -78 66 -78c52 0 78 30 78 90v302h197v-523h-193v69c-16 -45.333 -44.667 -68 -86 -68c-26.667 0 -47.334 11.333 -62.001 34v-209h-197v697z" />
    <glyph glyph-name="nu" unicode="&#x3bd;" horiz-adv-x="604" 
d="M5 523h210l99 -318l100 318h185l-191 -523h-211z" />
    <glyph glyph-name="xi" unicode="&#x3be;" horiz-adv-x="531" 
d="M364 156c54 0 94.332 -13.5 120.999 -40.5s40 -63.5 40 -109.5c0 -35.333 -10 -86 -30 -152h-151c12.667 36.667 19 66.667 19 90c0 20 -4.16699 34.333 -12.5 43s-22.166 13 -41.499 13h-31c-79.333 -0 -142 18.333 -188 55s-69 88 -69 154c0 45.333 14 83.833 42 115.5
s63.667 51.5 107 59.5c-68.667 23.333 -103 63.333 -103 120c0 54 29.667 91 89 111h-120v134h470v-154h-144c-67.333 0 -101 -22.667 -101 -68c0 -20 7.83301 -36 23.5 -48s37.5 -18 65.5 -18h112v-157h-136c-69.333 0 -104 -26 -104 -78c0 -46.667 32 -70 96 -70h46z" />
    <glyph glyph-name="omicron" unicode="&#x3bf;" horiz-adv-x="626" 
d="M314 132c60 0 90 42.333 90 127v7c0 84 -30 126 -90 126c-62 0 -93 -41 -93 -123v-8c0 -86 31 -129 93 -129zM313 -13c-84.667 0 -154.333 23.833 -209 71.5s-82 113.167 -82 196.5v8c0 83.333 27.5 149.833 82.5 199.5s124.833 74.5 209.5 74.5
c84 0 153.333 -24.333 208 -73s82 -114 82 -196v-8c0 -84 -27.5 -150.5 -82.5 -199.5s-124.5 -73.5 -208.5 -73.5z" />
    <glyph glyph-name="pi" unicode="&#x3c0;" horiz-adv-x="666" 
d="M394 382h-123v-382h-195v382h-64v141h642v-141h-64v-382h-196v382z" />
    <glyph glyph-name="rho" unicode="&#x3c1;" horiz-adv-x="631" 
d="M321 132c58.667 0 88 42 88 126v8c0 84 -30 126 -90 126c-60.667 0 -91 -41 -91 -123v-8c0 -86 31 -129 93 -129zM364 -4c-26.667 0 -52.332 6.66602 -76.999 19.999s-43.334 32.333 -56.001 57v-247h-198v437c0 84 26.667 150.833 80 200.5s122 74.5 206 74.5
c83.333 0 152.5 -24.5 207.5 -73.5s82.5 -114.5 82.5 -196.5v-8c0 -81.333 -23.167 -145.666 -69.5 -192.999s-104.833 -71 -175.5 -71z" />
    <glyph glyph-name="uni03C2" unicode="&#x3c2;" horiz-adv-x="585" 
d="M222 264c0 -74.667 34.999 -112 104.999 -112h22c55.333 0 98.166 -13.167 128.499 -39.5s45.5 -61.833 45.5 -106.5c0 -31.333 -10.333 -82 -31 -152h-150c0.666992 4.66699 2.83398 13.834 6.50098 27.501s6.66699 26.167 9 37.5s3.5 20.666 3.5 27.999
c0 19.333 -4.33301 33 -13 41s-22.334 12 -41.001 12h-14c-80 0 -145.333 23 -196 69s-76 108 -76 186v8c0 85.333 27 152.5 81 201.5s121.667 73.5 203 73.5c72.667 0 133.334 -17.667 182.001 -53s75 -91.333 79 -168h-185c-7.33301 46 -32.666 69 -75.999 69
c-55.333 0 -83 -37.667 -83 -113v-9z" />
    <glyph glyph-name="sigma" unicode="&#x3c3;" horiz-adv-x="655" 
d="M313 -13c-84.667 0 -154.499 23.834 -209.499 71.501s-82.5 113.167 -82.5 196.5v8c0 82 26.667 145.833 80 191.5s122.666 68.5 207.999 68.5h334v-141h-114c22.667 -12 40 -29.833 52 -53.5s18 -48.834 18 -75.501v-7c0 -80 -26.833 -143.167 -80.5 -189.5
s-122.167 -69.5 -205.5 -69.5zM314.001 132.001c60 0 90 42 90 126v10c0 82 -30 123 -90 123c-61.333 0 -92 -40 -92 -120v-10c0 -86 30.667 -129 92 -129z" />
    <glyph glyph-name="tau" unicode="&#x3c4;" horiz-adv-x="498" 
d="M332 -8c-126 0 -188.999 67 -188.999 201v189h-131v141h467v-141h-139v-170c0 -25.333 4.83301 -43.333 14.5 -54s26.167 -16 49.5 -16c15.333 0 33 2 53 6v-145c-32.667 -7.33301 -74.334 -11 -125.001 -11z" />
    <glyph glyph-name="upsilon" unicode="&#x3c5;" horiz-adv-x="620" 
d="M309 -13c-87.333 0 -153.832 22.499 -199.499 67.499s-68.5 106.167 -68.5 183.5v285h197v-298c0 -60.667 24 -91 72 -91s72 29.667 72 89v300h197v-281c0 -79.333 -22.833 -141.666 -68.5 -186.999s-112.834 -68 -201.501 -68z" />
    <glyph glyph-name="phi" unicode="&#x3c6;" horiz-adv-x="842" 
d="M820 262c0 -86 -27.832 -151.833 -83.499 -197.5s-128.5 -69.167 -218.5 -70.5v-168h-194v168c-92.667 1.33301 -166.334 24.333 -221.001 69s-82 110.334 -82 197.001v8c0 72.667 21.5 132.167 64.5 178.5s105.833 74.5 188.5 84.5v-144
c-21.333 -8 -36.5 -21.667 -45.5 -41s-13.5 -47 -13.5 -83v-8c0 -40.667 8.16699 -70.834 24.5 -90.501s44.5 -31.167 84.5 -34.5v400c37.333 5.33301 84 8 140 8c109.333 0 196 -24.167 260 -72.5s96 -113.5 96 -195.5v-8zM627.001 268c0 84 -36.333 126.333 -109 127v-265
c40 0 68.167 11.333 84.5 34s24.5 54.667 24.5 96v8z" />
    <glyph glyph-name="chi" unicode="&#x3c7;" horiz-adv-x="606" 
d="M189 196l-81.999 145c-13.333 24 -32.666 36 -57.999 36c-12.667 0 -25 -2 -37 -6v141c32 14.667 66 22 102 22s66 -6.5 90 -19.5s44.667 -35.833 62 -68.5l57 -109l78 186h198l-179 -342l99 -171c13.333 -22.667 30.666 -34 51.999 -34c11.333 0 22 1.33301 32 4v-145
c-28.667 -10 -62.334 -15 -101.001 -15c-64 0 -115.667 35 -155 105l-62 117l-96 -216h-190z" />
    <glyph glyph-name="psi" unicode="&#x3c8;" horiz-adv-x="851" 
d="M234 254c0 -72.667 31.333 -112.334 94 -119.001v388h194v-388c63.333 6.66699 95 46.334 95 119.001v269h195v-265c0 -84.667 -27.167 -149 -81.5 -193s-123.833 -67.333 -208.5 -70v-169h-194v169c-88 1.33301 -158.333 23.5 -211 66.5s-79 107.833 -79 194.5v267h196
v-269z" />
    <glyph glyph-name="omega" unicode="&#x3c9;" horiz-adv-x="843" 
d="M518 214c0 -55.333 16.002 -83 48.002 -83c37.333 0 56 38.333 56 115v8c0 40.667 -6 72.5 -18 95.5s-33.333 38.167 -64 45.5v143c91.333 -4.66699 161 -32.167 209 -82.5s72 -118.166 72 -203.499v-8c0 -76.667 -20.333 -138.667 -61 -186s-96.667 -71 -168 -71
c-82 0 -139 35.333 -171 106c-12 -29.333 -32.333 -54.333 -61 -75s-64.667 -31 -108 -31c-74 0 -131 23.5 -171 70.5s-60 109.167 -60 186.5v8c0 86 24.167 154 72.5 204s118.166 77.333 209.499 82v-143c-30.667 -7.33301 -51.834 -22.333 -63.501 -45
s-17.5 -54.334 -17.5 -95.001v-8c0 -77.333 18.333 -116 55 -116c32 0 48 27.667 48 83v135h193v-135z" />
    <glyph glyph-name="iotadieresis" unicode="&#x3ca;" horiz-adv-x="302" 
d="M53 523h196v-523h-196v523zM43 570c-25.333 0 -46.833 8.66699 -64.5 26s-26.5 38.333 -26.5 63s8.83301 45.667 26.5 63s39.167 26 64.5 26c26 0 47.833 -8.66699 65.5 -26s26.5 -38.333 26.5 -63s-8.83301 -45.667 -26.5 -63s-39.5 -26 -65.5 -26zM260 570
c-25.333 0 -46.666 8.66699 -63.999 26s-26 38.333 -26 63s8.66699 45.667 26 63s38.666 26 63.999 26c26 0 47.833 -8.66699 65.5 -26s26.5 -38.333 26.5 -63s-8.83301 -45.667 -26.5 -63s-39.5 -26 -65.5 -26z" />
    <glyph glyph-name="upsilondieresis" unicode="&#x3cb;" horiz-adv-x="620" 
d="M309 -13c-87.333 0 -153.832 22.499 -199.499 67.499s-68.5 106.167 -68.5 183.5v285h197v-298c0 -60.667 24 -91 72 -91s72 29.667 72 89v300h197v-281c0 -79.333 -22.833 -141.666 -68.5 -186.999s-112.834 -68 -201.501 -68zM200.001 569.999
c-25.333 0 -46.833 8.66699 -64.5 26s-26.5 38.333 -26.5 63s8.83301 45.667 26.5 63s39.167 26 64.5 26c26 0 47.833 -8.66699 65.5 -26s26.5 -38.333 26.5 -63s-8.83301 -45.667 -26.5 -63s-39.5 -26 -65.5 -26zM417.001 569.999c-25.333 0 -46.666 8.66699 -63.999 26
s-26 38.333 -26 63s8.66699 45.667 26 63s38.666 26 63.999 26c26 0 47.833 -8.66699 65.5 -26s26.5 -38.333 26.5 -63s-8.83301 -45.667 -26.5 -63s-39.5 -26 -65.5 -26z" />
    <glyph glyph-name="omicrontonos" unicode="&#x3cc;" horiz-adv-x="626" 
d="M314 132c60 0 90 42.333 90 127v7c0 84 -30 126 -90 126c-62 0 -93 -41 -93 -123v-8c0 -86 31 -129 93 -129zM313 -13c-84.667 0 -154.333 23.833 -209 71.5s-82 113.167 -82 196.5v8c0 83.333 27.5 149.833 82.5 199.5s124.833 74.5 209.5 74.5
c84 0 153.333 -24.333 208 -73s82 -114 82 -196v-8c0 -84 -27.5 -150.5 -82.5 -199.5s-124.5 -73.5 -208.5 -73.5zM293.001 747h193l-104 -169h-141z" />
    <glyph glyph-name="upsilontonos" unicode="&#x3cd;" horiz-adv-x="620" 
d="M309 -13c-87.333 0 -153.832 22.499 -199.499 67.499s-68.5 106.167 -68.5 183.5v285h197v-298c0 -60.667 24 -91 72 -91s72 29.667 72 89v300h197v-281c0 -79.333 -22.833 -141.666 -68.5 -186.999s-112.834 -68 -201.501 -68zM289.001 746.999h193l-104 -169h-141z" />
    <glyph glyph-name="omegatonos" unicode="&#x3ce;" horiz-adv-x="843" 
d="M518 214c0 -55.333 16.002 -83 48.002 -83c37.333 0 56 38.333 56 115v8c0 40.667 -6 72.5 -18 95.5s-33.333 38.167 -64 45.5v143c91.333 -4.66699 161 -32.167 209 -82.5s72 -118.166 72 -203.499v-8c0 -76.667 -20.333 -138.667 -61 -186s-96.667 -71 -168 -71
c-82 0 -139 35.333 -171 106c-12 -29.333 -32.333 -54.333 -61 -75s-64.667 -31 -108 -31c-74 0 -131 23.5 -171 70.5s-60 109.167 -60 186.5v8c0 86 24.167 154 72.5 204s118.166 77.333 209.499 82v-143c-30.667 -7.33301 -51.834 -22.333 -63.501 -45
s-17.5 -54.334 -17.5 -95.001v-8c0 -77.333 18.333 -116 55 -116c32 0 48 27.667 48 83v135h193v-135zM404.002 747h193l-104 -169h-141z" />
    <glyph glyph-name="uni0401" unicode="&#x401;" horiz-adv-x="620" 
d="M65 715h508v-174h-282v-101h224v-159h-224v-107h298v-174h-524v715zM213 752c-25.333 0 -46.833 8.66699 -64.5 26s-26.5 38.333 -26.5 63s8.83301 45.667 26.5 63s39.167 26 64.5 26c26 0 47.833 -8.5 65.5 -25.5s26.5 -38.167 26.5 -63.5
c0 -24.667 -8.83301 -45.667 -26.5 -63s-39.5 -26 -65.5 -26zM440 752c-25.333 0 -46.833 8.66699 -64.5 26s-26.5 38.333 -26.5 63s8.83301 45.667 26.5 63s39.167 26 64.5 26c26 0 47.833 -8.5 65.5 -25.5s26.5 -38.167 26.5 -63.5c0 -24.667 -8.83301 -45.667 -26.5 -63
s-39.5 -26 -65.5 -26z" />
    <glyph glyph-name="uni0402" unicode="&#x402;" horiz-adv-x="855" 
d="M428 410c12 6.66699 26.002 13.667 42.002 21c36 14.667 76 22 120 22c75.333 0 133.666 -21.5 174.999 -64.5s62 -100.167 62 -171.5c0 -76 -19.5 -135.167 -58.5 -177.5s-97.833 -63.5 -176.5 -63.5c-42.667 0 -81 8 -115 24v156c14.667 -8.66699 35 -13 61 -13
c42 0 63 23.667 63 71c0 45.333 -27 68 -81 68c-22.667 0 -45.334 -5 -68.001 -15c-8 -3.33301 -16 -8 -24 -14v-253h-228v541h-180v174h589v-174h-181v-131z" />
    <glyph glyph-name="uni0403" unicode="&#x403;" horiz-adv-x="574" 
d="M65 715h485v-175h-257v-540h-228v715zM279 906h201l-103 -149h-149z" />
    <glyph glyph-name="uni0404" unicode="&#x404;" horiz-adv-x="764" 
d="M746 258c-12 -88.667 -47.665 -155.999 -106.998 -201.999s-137 -69 -233 -69c-124.667 0 -218.834 32.667 -282.501 98s-95.5 154.666 -95.5 267.999v8c0 109.333 34.833 197.5 104.5 264.5s158.167 100.5 265.5 100.5c199.333 0 312 -88 338 -264h-234
c-10 58 -44.333 87 -103 87c-66 0 -107.333 -36 -124 -108h219v-159h-221c15.333 -76.667 58.666 -115 129.999 -115c66 0 105 30.333 117 91h226z" />
    <glyph glyph-name="uni0405" unicode="&#x405;" horiz-adv-x="653" 
d="M334 -13c-204.667 0 -309.668 80.666 -315.001 241.999h215c3.33301 -54.667 36.666 -82 99.999 -82c26 0 45.667 5.33301 59 16s20 25 20 43s-7.16699 31.333 -21.5 40s-41.166 15.667 -80.499 21c-103.333 12 -175.166 34.833 -215.499 68.5s-60.5 87.5 -60.5 161.5
c0 67.333 25.667 122.166 77 164.499s121 63.5 209 63.5c180.667 0 276.667 -76 288 -228h-210c-5.33301 46 -31.333 69 -78 69c-22.667 0 -40.167 -4.66699 -52.5 -14s-18.5 -22 -18.5 -38c0 -18 6.83301 -31.167 20.5 -39.5s40.167 -15.166 79.5 -20.499
c96.667 -10 167.5 -31 212.5 -63s67.5 -85.667 67.5 -161c0 -69.333 -26.333 -127.166 -79 -173.499s-125 -69.5 -217 -69.5z" />
    <glyph glyph-name="uni0406" unicode="&#x406;" horiz-adv-x="366" 
d="M68 715h229v-715h-229v715z" />
    <glyph glyph-name="uni0407" unicode="&#x407;" horiz-adv-x="366" 
d="M68 715h229v-715h-229v715zM69 752c-25.333 0 -46.833 8.66699 -64.5 26s-26.5 38.333 -26.5 63s8.83301 45.667 26.5 63s39.167 26 64.5 26c26 0 47.833 -8.5 65.5 -25.5s26.5 -38.167 26.5 -63.5c0 -24.667 -8.83301 -45.667 -26.5 -63s-39.5 -26 -65.5 -26zM296 752
c-25.333 0 -46.833 8.66699 -64.5 26s-26.5 38.333 -26.5 63s8.83301 45.667 26.5 63s39.167 26 64.5 26c26 0 47.833 -8.5 65.5 -25.5s26.5 -38.167 26.5 -63.5c0 -24.667 -8.83301 -45.667 -26.5 -63s-39.5 -26 -65.5 -26z" />
    <glyph glyph-name="uni0408" unicode="&#x408;" horiz-adv-x="489" 
d="M168 -9c-56 0 -101.333 8.33301 -136 25v167c28.667 -8.66699 57 -13 85 -13c60 0 90 31 90 93v452h227v-453c0 -180.667 -88.667 -271 -266 -271z" />
    <glyph glyph-name="uni0409" unicode="&#x409;" horiz-adv-x="1056" 
d="M464 540l-132 -0.000976562c-4.66699 -129.333 -8.33398 -207.333 -11.001 -234c-8.66699 -104.667 -30 -184 -64 -238s-88 -81 -162 -81c-8.66699 0 -17.167 0.5 -25.5 1.5s-15.5 2 -21.5 3s-11.333 2.16699 -16 3.5s-8 2.33301 -10 3l-4 2v172l6 -3
c6.66699 -1.33301 13.334 -2 20.001 -2c24.667 0 43.167 14.167 55.5 42.5s21.5 71.833 27.5 130.5c6 56 9 181 9 375h555v-239h60c93.333 0 164 -19.667 212 -59s72 -96.666 72 -171.999v-4c0 -160.667 -98 -241 -294 -241h-277v540zM730 166.999
c30.667 0 53.333 5.5 68 16.5s22 29.833 22 56.5v4c0 52 -30.333 78 -91 78h-38v-155h39z" />
    <glyph glyph-name="uni040A" unicode="&#x40a;" horiz-adv-x="1070" 
d="M744 167c31.333 0 54.167 5.5 68.5 16.5s21.5 29.833 21.5 56.5v4c0 52 -30.333 78 -91 78h-38v-155h39zM479.001 275l-186 -0.000976562v-275h-228v715h228v-264h186v264h226v-239h60c93.333 0 164 -19.667 212 -59s72 -96.666 72 -171.999v-4
c0 -160.667 -98 -241 -294 -241h-276v275z" />
    <glyph glyph-name="uni040B" unicode="&#x40b;" horiz-adv-x="865" 
d="M428 410c12 6.66699 25.999 13.668 41.999 21.001c36 14.667 76 22 120 22c80 0 139.5 -22.5 178.5 -67.5s58.5 -108.833 58.5 -191.5v-194h-226v186c0 33.333 -6.33301 57.666 -19 72.999s-35 23 -67 23c-22 0 -43.667 -5 -65 -15
c-7.33301 -3.33301 -14.666 -8 -21.999 -14v-253h-228v541h-180v174h589v-174h-181v-131z" />
    <glyph glyph-name="uni040C" unicode="&#x40c;" horiz-adv-x="746" 
d="M352 906h201l-103 -149h-149zM65 715h227v-271l198 271h235l-251 -330l265 -385h-261l-186 286v-286h-227v715z" />
    <glyph glyph-name="uni040D" unicode="&#x40d;" horiz-adv-x="809" 
d="M65 0v715h228v-412l227 412h224v-715h-227v416l-227 -416h-225zM239 906h202l47 -149h-149z" />
    <glyph glyph-name="uni040E" unicode="&#x40e;" horiz-adv-x="679" 
d="M357 749c-53.333 0 -94.667 13.667 -124 41s-45.666 66 -48.999 116h130c3.33301 -32.667 17.666 -49 42.999 -49c24 0 38.667 16.333 44 49h129c-4 -50 -21 -88.667 -51 -116s-70.667 -41 -122 -41zM203.999 -11c-39.333 0 -70.667 5 -94 15v173c14 -6 35 -9 63 -9
c29.333 0 54 13.667 74 41l-241 506h235l118 -273l107 273h213l-219 -511c-33.333 -76.667 -68 -131.667 -104 -165s-86.667 -50 -152 -50z" />
    <glyph glyph-name="uni040F" unicode="&#x40f;" horiz-adv-x="784" 
d="M65 0v715h228v-540h199v540h227v-715h-231l-5 -130h-185l-5 130h-228z" />
    <glyph glyph-name="uni0410" unicode="&#x410;" horiz-adv-x="760" 
d="M234 715h293l224 -715h-240l-33 119h-226l-32 -119h-211zM295 273h141l-70 259z" />
    <glyph glyph-name="uni0411" unicode="&#x411;" horiz-adv-x="670" 
d="M651 232c0 -154.667 -94 -232 -282 -232h-304v715h515v-174h-291v-87h85c91.333 0 160.333 -19 207 -57s70 -91.667 70 -161v-4zM344 160c58.667 0 88 24 88 72v4c0 48.667 -29.667 73 -89 73h-54v-149h55z" />
    <glyph glyph-name="uni0412" unicode="&#x412;" horiz-adv-x="690" 
d="M65 715l338 -0.000976562c83.333 0 144.833 -17 184.5 -51s59.5 -79.333 59.5 -136v-4c0 -83.333 -41.333 -134.666 -124 -153.999c44 -8 78.833 -25.833 104.5 -53.5s38.5 -65.5 38.5 -113.5v-4c0 -132.667 -88.333 -199 -265 -199h-336v715zM358 148.999
c56.667 0 85 25 85 75v4c0 48.667 -30 73 -90 73h-67v-152h72zM355 435.999c28 0 48 5 60 15s18 26 18 48v4c0 42.667 -26.333 64 -79 64h-68v-131h69z" />
    <glyph glyph-name="uni0413" unicode="&#x413;" horiz-adv-x="574" 
d="M65 715h485v-175h-257v-540h-228v715z" />
    <glyph glyph-name="uni0414" unicode="&#x414;" horiz-adv-x="776" 
d="M304 322c-8 -68 -19.332 -117 -33.999 -147h194v366h-149c-4.66699 -120.667 -8.33398 -193.667 -11.001 -219zM189.001 -130l-196.001 0.000976562v305h47c36.667 17.333 60.334 73.666 71.001 168.999c6 49.333 9 173 9 371h569v-540h87v-305h-196l-7 130h-377z" />
    <glyph glyph-name="uni0415" unicode="&#x415;" horiz-adv-x="620" 
d="M65 715h508v-174h-282v-101h224v-159h-224v-107h298v-174h-524v715z" />
    <glyph glyph-name="uni0416" unicode="&#x416;" horiz-adv-x="1045" 
d="M411 300l-166 -300h-237l225 377l-215 338h227l166 -285v285h221v-283l167 283h224l-216 -327l230 -388h-247l-158 299v-299h-221v300z" />
    <glyph glyph-name="uni0417" unicode="&#x417;" horiz-adv-x="668" 
d="M330 -12c-88.667 0 -160.834 22 -216.501 66s-88.5 108.667 -98.5 194h214c12 -59.333 45.667 -89 101 -89c54.667 0 82 23.333 82 70c0 44 -25 66 -75 66h-68v144h66c23.333 0 40.333 4.66699 51 14s16 24.666 16 45.999c0 18.667 -6.5 32.834 -19.5 42.501
s-29.833 14.5 -50.5 14.5c-52.667 0 -83.667 -29 -93 -87h-209c10 83.333 41.667 147 95 191s125 66 215 66c86 0 155 -19 207 -57s78 -85.667 78 -143c0 -84 -41 -136.333 -123 -157c44 -6.66699 78.833 -23.667 104.5 -51s38.5 -64.333 38.5 -111
c0 -66 -29.167 -119 -87.5 -159s-134.166 -60 -227.499 -60z" />
    <glyph glyph-name="uni0418" unicode="&#x418;" horiz-adv-x="809" 
d="M65 0v715h228v-412l227 412h224v-715h-227v416l-227 -416h-225z" />
    <glyph glyph-name="uni0419" unicode="&#x419;" horiz-adv-x="809" 
d="M399 749c-52.667 0 -93.668 13.667 -123.001 41s-45.666 66 -48.999 116h130c3.33301 -32.667 17.333 -49 42 -49c25.333 0 40 16.333 44 49h129c-4 -50 -21 -88.667 -51 -116s-70.667 -41 -122 -41zM64.999 0v715h228v-412l227 412h224v-715h-227v416l-227 -416h-225z
" />
    <glyph glyph-name="uni041A" unicode="&#x41a;" horiz-adv-x="746" 
d="M65 715h227v-271l198 271h235l-251 -330l265 -385h-261l-186 286v-286h-227v715z" />
    <glyph glyph-name="uni041B" unicode="&#x41b;" horiz-adv-x="760" 
d="M317 268c-11.333 -92.667 -33.667 -162.667 -67 -210s-85 -71 -155 -71c-8.66699 0 -17.167 0.5 -25.5 1.5s-15.5 2 -21.5 3s-11.333 2.16699 -16 3.5s-8 2.33301 -10 3l-4 2v172l6 -3c6.66699 -1.33301 13.334 -2 20.001 -2c23.333 0 41.166 13 53.499 39
s21.5 66 27.5 120c7.33301 70.667 11 200.334 11 389.001h559v-715h-227v540h-136c-4 -126.667 -9 -217.334 -15 -272.001z" />
    <glyph glyph-name="uni041C" unicode="&#x41c;" horiz-adv-x="958" 
d="M65 715h294l121 -347l123 347h288v-715h-225v422l-163 -422h-76l-160 422v-422h-202v715z" />
    <glyph glyph-name="uni041D" unicode="&#x41d;" horiz-adv-x="794" 
d="M65 715h227v-264h210v264h227v-715h-227v275h-210v-275h-227v715z" />
    <glyph glyph-name="uni041E" unicode="&#x41e;" horiz-adv-x="820" 
d="M411 165c44.667 0 80.167 16.6689 106.5 50.002s39.5 79.666 39.5 138.999v8c0 60 -13.167 106.167 -39.5 138.5s-62.5 48.5 -108.5 48.5c-44.667 0 -80 -16 -106 -48s-39 -78.333 -39 -139v-8c0 -60.667 13 -107.334 39 -140.001s62 -49 108 -49zM405 -12.998
c-116 0 -208.001 33.5 -276.001 100.5s-102 155.5 -102 265.5v8c0 108.667 36.333 196.667 109 264s163.667 101 273 101c112.667 0 204.834 -32.167 276.501 -96.5s107.5 -151.833 107.5 -262.5v-8c0 -112 -35.333 -202 -106 -270s-164.667 -102 -282 -102z" />
    <glyph glyph-name="uni041F" unicode="&#x41f;" horiz-adv-x="784" 
d="M492 539h-199v-539h-228v715h654v-715h-227v539z" />
    <glyph glyph-name="uni0420" unicode="&#x420;" horiz-adv-x="665" 
d="M65 715h285c196 0 294 -81.667 294 -245v-4c0 -75.333 -24.167 -133 -72.5 -173s-118.833 -60 -211.5 -60h-69v-233h-226v715zM338 385c60.667 0 91.001 26.667 91.001 80v4c0 27.333 -7.33301 47 -22 59s-37.334 18 -68.001 18h-48v-161h47z" />
    <glyph glyph-name="uni0421" unicode="&#x421;" horiz-adv-x="764" 
d="M408 -13c-126 0 -220.833 32.668 -284.5 98.001s-95.5 154.666 -95.5 267.999v8c0 109.333 34.833 197.5 104.5 264.5s158.167 100.5 265.5 100.5c99.333 0 178.833 -23.5 238.5 -70.5s93.5 -117.5 101.5 -211.5h-234c-7.33301 68.667 -42.333 103 -105 103
c-42 0 -74.5 -15.833 -97.5 -47.5s-34.5 -77.5 -34.5 -137.5v-8c0 -60 11.667 -105.833 35 -137.5s57 -47.5 101 -47.5c70.667 0 110 35 118 105h226c-6.66699 -92 -40.5 -162.833 -101.5 -212.5s-140.167 -74.5 -237.5 -74.5z" />
    <glyph glyph-name="uni0422" unicode="&#x422;" horiz-adv-x="629" 
d="M200 541h-180v174h589v-174h-181v-541h-228v541z" />
    <glyph glyph-name="uni0423" unicode="&#x423;" horiz-adv-x="679" 
d="M204 -11c-39.333 0 -70.667 5 -94 15v173c14 -6 35 -9 63 -9c29.333 0 54 13.667 74 41l-241 506h235l118 -273l107 273h213l-219 -511c-33.333 -76.667 -68 -131.667 -104 -165s-86.667 -50 -152 -50z" />
    <glyph glyph-name="uni0424" unicode="&#x424;" horiz-adv-x="940" 
d="M583 649c101.333 -2.66699 182.168 -29 242.501 -79s90.5 -118.333 90.5 -205v-8c0 -86 -31.333 -153.667 -94 -203s-142.334 -75.333 -239.001 -78v-86h-226v86c-102 2.66699 -183 28.667 -243 78s-90 117.666 -90 204.999v8c0 86 31.5 153.833 94.5 203.5
s142.5 75.834 238.5 78.501v86h226v-86zM357.002 494c-33.333 -1.33301 -60.833 -12.667 -82.5 -34s-32.5 -52 -32.5 -92v-8c0 -42 10.667 -73.5 32 -94.5s49 -32.167 83 -33.5v262zM583.002 229.999c33.333 1.33301 60.833 12.667 82.5 34s32.5 52 32.5 92v8
c0 42 -10.5 73.5 -31.5 94.5s-48.833 32.167 -83.5 33.5v-262z" />
    <glyph glyph-name="uni0425" unicode="&#x425;" horiz-adv-x="773" 
d="M236 368l-202 347h259l100 -201l98 201h232l-187 -339l219 -376h-258l-123 235l-123 -235h-233z" />
    <glyph glyph-name="uni0426" unicode="&#x426;" horiz-adv-x="805" 
d="M609 -130l-7 130h-537v715h228v-540h199v540h227v-540h86v-305h-196z" />
    <glyph glyph-name="uni0427" unicode="&#x427;" horiz-adv-x="753" 
d="M462 0l0.00195312 266c-0.666992 -0.666992 -4.33398 -2.5 -11.001 -5.5s-13.834 -6 -21.501 -9s-17 -6.16699 -28 -9.5s-24 -6 -39 -8s-30.5 -3 -46.5 -3c-93.333 0 -162.333 24.5 -207 73.5s-67 123.833 -67 224.5v186h226v-192c0 -43.333 8 -74.5 24 -93.5
s41.667 -28.5 77 -28.5c32 0 63 9 93 27v287h226v-715h-226z" />
    <glyph glyph-name="uni0428" unicode="&#x428;" horiz-adv-x="1087" 
d="M65 715h224v-540h143v540h224v-540h143v540h223v-715h-957v715z" />
    <glyph glyph-name="uni0429" unicode="&#x429;" horiz-adv-x="1112" 
d="M916 -130l-7 130h-844v715h224v-540h143v540h224v-540h143v540h223v-540h90v-305h-196z" />
    <glyph glyph-name="uni042A" unicode="&#x42a;" horiz-adv-x="776" 
d="M177 541l-159 -0.000976562v174h385v-232h69c92.667 0 163 -20.167 211 -60.5s72 -98.166 72 -173.499v-4c0 -163.333 -97.667 -245 -293 -245h-285v541zM451 166.999c60 0 90 25.667 90 77v4c0 53.333 -30.333 80 -91 80h-47v-161h48z" />
    <glyph glyph-name="uni042B" unicode="&#x42b;" horiz-adv-x="965" 
d="M899 0h-224v715h224v-715zM65 715l224.999 -0.000976562v-232h61c92.667 0 162.834 -20.167 210.501 -60.5s71.5 -98.166 71.5 -173.499v-4c0 -163.333 -97.333 -245 -292 -245h-276v715zM329.999 166.999c30 0 52.333 6 67 18s22 31.667 22 59v4c0 53.333 -30 80 -90 80
h-39v-161h40z" />
    <glyph glyph-name="uni042C" unicode="&#x42c;" horiz-adv-x="665" 
d="M65 715l226 -0.000976562v-232h69c92.667 0 163.167 -20.167 211.5 -60.5s72.5 -98.166 72.5 -173.499v-4c0 -163.333 -98 -245 -294 -245h-285v715zM339 166.999c60 0 90 25.667 90 77v4c0 53.333 -30.333 80 -91 80h-47v-161h48z" />
    <glyph glyph-name="uni042D" unicode="&#x42d;" horiz-adv-x="763" 
d="M358 -13c-94 0 -171.334 23.166 -232.001 69.499s-97 113.5 -109 201.5h226c12 -60.667 51.333 -91 118 -91c69.333 0 112.333 38 129 114h-221v159h222c-14.667 72.667 -55 109 -121 109c-61.333 0 -97.666 -29 -108.999 -87h-232c24 176 138.333 264 343 264
c104 0 190.5 -32.667 259.5 -98s103.5 -150.333 103.5 -255v-8c0 -117.333 -31.667 -209.666 -95 -276.999s-157.333 -101 -282 -101z" />
    <glyph glyph-name="uni042E" unicode="&#x42e;" horiz-adv-x="1104" 
d="M702 -13c-98 0 -178.333 26 -241 78s-101 122.667 -115 212h-54v-277h-227v715h227v-268h57c17.333 84.667 58.666 152.167 123.999 202.5s143 75.5 233 75.5c108 0 196.833 -32 266.5 -96s104.5 -151.333 104.5 -262v-8c0 -112 -34.167 -202 -102.5 -270
s-159.166 -102 -272.499 -102zM706 165c42 0 75 16.6689 99 50.002s36 80 36 140v8c0 59.333 -12.333 105.166 -37 137.499s-57.667 48.5 -99 48.5s-73.833 -16 -97.5 -48s-35.5 -78.333 -35.5 -139v-8c0 -60.667 12 -107.334 36 -140.001s56.667 -49 98 -49z" />
    <glyph glyph-name="uni042F" unicode="&#x42f;" horiz-adv-x="714" 
d="M369 548c-60.667 0 -91 -25 -91 -75v-4c0 -54 30.667 -81 92 -81h55v160h-56zM249 0l-234.999 -0.00292969l176 293c-38.667 10.667 -69.834 32.334 -93.501 65.001s-35.5 72.334 -35.5 119.001v4c0 76.667 25 134.834 75 174.501s124 59.5 222 59.5h291v-715h-224v246
h-40z" />
    <glyph glyph-name="uni0430" unicode="&#x430;" horiz-adv-x="585" 
d="M198 -13c-51.333 0 -93.834 13.167 -127.501 39.5s-50.5 65.833 -50.5 118.5c0 60 23.5 103.5 70.5 130.5s117.167 40.5 210.5 40.5h45v9c0 25.333 -4 44.333 -12 57s-24.333 19 -49 19c-37.333 0 -58 -18.667 -62 -56h-184c4 62.667 28.833 110.5 74.5 143.5
s106.834 49.5 183.501 49.5c78 0 138.167 -16.667 180.5 -50s63.5 -83.333 63.5 -150v-338h-190v60c-27.333 -48.667 -78.333 -73 -153 -73zM268.999 119c22.667 0 41.166 5.83301 55.499 17.5s21.5 27.167 21.5 46.5v27h-42c-33.333 0 -56.666 -3.66699 -69.999 -11
s-20 -20.333 -20 -39c0 -27.333 18.333 -41 55 -41z" />
    <glyph glyph-name="uni0431" unicode="&#x431;" horiz-adv-x="626" 
d="M313 -13c-193.333 0 -290 111.998 -290 335.998v21c0 254 108 387 324 399l49 2c74.667 3.33301 126 10 154 20v-146c-34 -16 -87.333 -25.667 -160 -29l-40 -2c-55.333 -3.33301 -97.5 -18.666 -126.5 -45.999s-47.5 -66.666 -55.5 -117.999h6
c37.333 60.667 99 91 185 91c72.667 0 131.667 -24 177 -72s68 -110 68 -186v-8c0 -80 -27.5 -143.667 -82.5 -191s-124.5 -71 -208.5 -71zM314 128.998c60 0 90 39.333 90 118v8c0 78 -30 117 -90 117c-61.333 0 -92 -38.333 -92 -115v-7c0 -80.667 30.667 -121 92 -121z
" />
    <glyph glyph-name="uni0432" unicode="&#x432;" horiz-adv-x="573" 
d="M48 523h296c64 0 111.667 -11.5 143 -34.5s47 -55.167 47 -96.5v-2c0 -62.667 -34.333 -101.667 -103 -117c80 -12 120 -52 120 -120v-2c0 -100.667 -67 -151 -201 -151h-302v523zM242 413v-95h44c38 0 57 16.333 57 49v1c0 30 -20.667 45 -62 45h-39zM242 218v-109h50
c43.333 0 65 18 65 54v1c0 36 -19.667 54 -59 54h-56z" />
    <glyph glyph-name="uni0433" unicode="&#x433;" horiz-adv-x="456" 
d="M244 386v-386h-196v523h392v-137h-196z" />
    <glyph glyph-name="uni0434" unicode="&#x434;" horiz-adv-x="631" 
d="M255 258c-4 -50.667 -12.333 -91 -25 -121h127v251h-97c-1.33301 -60.667 -3 -104 -5 -130zM180 -127h-170v264h27c28 15.333 45.667 61 53 137c4.66699 52 7 135 7 249h454v-386h70v-264h-170l-2 127h-267z" />
    <glyph glyph-name="uni0435" unicode="&#x435;" horiz-adv-x="604" 
d="M311 -13c-86 0 -155.832 23.667 -209.499 71s-80.5 113 -80.5 197v8c0 83.333 27.667 150 83 200s124.333 75 207 75c78.667 0 143.667 -23 195 -69s77 -113.667 77 -203v-48h-363c2.66699 -31.333 12.5 -55.333 29.5 -72s39.833 -25 68.5 -25c46 0 73.333 18.667 82 56
h184c-8 -61.333 -34.833 -108.333 -80.5 -141s-109.834 -49 -192.501 -49zM393.001 321c-3.33301 60 -30.666 89.999 -81.999 89.999c-24.667 0 -44.834 -7.66699 -60.501 -23s-25.5 -37.666 -29.5 -66.999h172z" />
    <glyph glyph-name="uni0436" unicode="&#x436;" horiz-adv-x="818" 
d="M313 224l-103 -224h-204l146 280l-138 243h196l103 -210v210h190v-210l102 210h194l-137 -236l150 -287h-210l-99 223v-223h-190v224z" />
    <glyph glyph-name="uni0437" unicode="&#x437;" horiz-adv-x="547" 
d="M510 392c0 -65.333 -35 -104.667 -105 -118c78.667 -12 118 -51.333 118 -118v-3c0 -48 -21.833 -87.667 -65.5 -119s-104.167 -47 -181.5 -47c-152.667 0 -239.334 67 -260.001 201h173c12 -46 39.333 -69 82 -69c36 0 54 16.333 54 49v3c0 28.667 -19 43 -57 43h-56
v107h52c33.333 0 50 13 50 39v3c0 24 -16.333 36 -49 36c-36.667 0 -59.667 -19 -69 -57h-171c8 64 34.333 112.667 79 146s101.334 50 170.001 50c74 0 131.833 -13.333 173.5 -40s62.5 -61 62.5 -103v-3z" />
    <glyph glyph-name="uni0438" unicode="&#x438;" horiz-adv-x="631" 
d="M48 0v523h195v-292l148 292h192v-523h-195v291l-148 -291h-192z" />
    <glyph glyph-name="uni0439" unicode="&#x439;" horiz-adv-x="631" 
d="M313 582c-52.667 0 -93.499 14 -122.499 42s-45.167 67.333 -48.5 118h129c4 -36 18 -54 42 -54c25.333 0 40 18 44 54h129c-4.66699 -50.667 -21.834 -90 -51.501 -118s-70.167 -42 -121.5 -42zM48.001 0v523h195v-292l148 292h192v-523h-195v291l-148 -291h-192z" />
    <glyph glyph-name="uni043A" unicode="&#x43a;" horiz-adv-x="588" 
d="M244 215v-215h-197v523h197v-201l127 201h202l-161 -236l174 -287h-218z" />
    <glyph glyph-name="uni043B" unicode="&#x43b;" horiz-adv-x="605" 
d="M265 231c-6.66699 -83.333 -23.332 -144.667 -49.999 -184s-69.667 -59 -129 -59c-20 0 -36 1.66699 -48 5c-6 2 -11.333 4 -16 6v139l5 -2c1.33301 -0.666992 6.66602 -1 15.999 -1c17.333 0 30.333 9.83301 39 29.5s14.667 51.5 18 95.5c3.33301 35.333 5 87 5 155
l2 108h450v-523h-196v386h-88c-1.33301 -66 -4 -117.667 -8 -155z" />
    <glyph glyph-name="uni043C" unicode="&#x43c;" horiz-adv-x="760" 
d="M206 320v-320h-158v523h251l84 -241l91 241h238v-523h-190v320l-125 -320h-73z" />
    <glyph glyph-name="uni043D" unicode="&#x43d;" horiz-adv-x="625" 
d="M381 196h-137v-196h-196v523h196v-190h137v190h196v-523h-196v196z" />
    <glyph glyph-name="uni043E" unicode="&#x43e;" horiz-adv-x="626" 
d="M314 132c60 0 90 42.333 90 127v7c0 84 -30 126 -90 126c-62 0 -93 -41 -93 -123v-8c0 -86 31 -129 93 -129zM313 -13c-84.667 0 -154.333 23.833 -209 71.5s-82 113.167 -82 196.5v8c0 83.333 27.5 149.833 82.5 199.5s124.833 74.5 209.5 74.5
c84 0 153.333 -24.333 208 -73s82 -114 82 -196v-8c0 -84 -27.5 -150.5 -82.5 -199.5s-124.5 -73.5 -208.5 -73.5z" />
    <glyph glyph-name="uni043F" unicode="&#x43f;" horiz-adv-x="615" 
d="M371 386h-127v-386h-196v523h519v-523h-196v386z" />
    <glyph glyph-name="uni0440" unicode="&#x440;" horiz-adv-x="646" 
d="M47 523l197.002 -0.000976562v-76c35.333 60 88.666 90 159.999 90c63.333 0 115.666 -23.5 156.999 -70.5s62 -114.167 62 -201.5v-8c0 -87.333 -20.667 -154.166 -62 -200.499s-94 -69.5 -158 -69.5c-74.667 0 -127.667 29.333 -159 88v-249h-197v697zM331.002 136.999
c61.333 0 92 40.667 92 122v8c0 82.667 -31 124 -93 124c-29.333 0 -51.833 -10.667 -67.5 -32s-23.5 -52 -23.5 -92v-8c0 -81.333 30.667 -122 92 -122z" />
    <glyph glyph-name="uni0441" unicode="&#x441;" horiz-adv-x="585" 
d="M300 -13c-82 0 -148.83 23 -200.497 69s-77.5 112 -77.5 198v8c0 86 26.667 153.333 80 202s121 73 203 73c72.667 0 133.167 -17.5 181.5 -52.5s75.166 -90.833 80.499 -167.5h-185c-4 23.333 -11.333 40.666 -22 51.999s-27.334 17 -50.001 17
c-58.667 0 -88 -40 -88 -120v-8c0 -85.333 30.333 -128 91 -128c22.667 0 41 6.83301 55 20.5s22.333 33.167 25 58.5h177c-2.66699 -69.333 -26.834 -123.666 -72.501 -162.999s-111.5 -59 -197.5 -59z" />
    <glyph glyph-name="uni0442" unicode="&#x442;" horiz-adv-x="509" 
d="M495 386h-143v-386h-195v386h-143v137h481v-137z" />
    <glyph glyph-name="uni0443" unicode="&#x443;" 
d="M214 52l-209 471h213l99 -261l92 261h186l-279 -697h-187z" />
    <glyph glyph-name="uni0444" unicode="&#x444;" horiz-adv-x="830" 
d="M511 537c86 -4 156.001 -28.833 210.001 -74.5s81 -109.834 81 -192.501v-8c0 -82.667 -27.333 -148.334 -82 -197.001s-124.334 -74.334 -209.001 -77.001v-162h-192v162c-86.667 4 -156.834 28.833 -210.501 74.5s-80.5 109.834 -80.5 192.501v8
c0 82.667 27.333 148.334 82 197.001s124.334 74.334 209.001 77.001v212h192v-212zM511.001 125c30 3.33301 53.667 16.5 71 39.5s26 53.5 26 91.5v8c0 84 -32.333 129.667 -97 137v-276zM319.001 400c-30.667 -3.33301 -54.5 -16.5 -71.5 -39.5s-25.5 -53.5 -25.5 -91.5
v-8c0 -84 32.333 -129.667 97 -137v276z" />
    <glyph glyph-name="uni0445" unicode="&#x445;" horiz-adv-x="613" 
d="M180 265l-161 258h226l71 -128l71 128h201l-163 -243l180 -280h-226l-84 146l-88 -146h-199z" />
    <glyph glyph-name="uni0446" unicode="&#x446;" horiz-adv-x="647" 
d="M470 -127l-6 127h-416v523h196v-386h127v386h196v-386h70v-264h-167z" />
    <glyph glyph-name="uni0447" unicode="&#x447;" horiz-adv-x="602" 
d="M357 0l0.000976562 214.001c-40.667 -40.667 -92.667 -61 -156 -61c-52 0 -92.5 16.167 -121.5 48.5s-43.5 80.5 -43.5 144.5v177h197v-145c0 -26.667 4.16699 -46.334 12.5 -59.001s23.166 -19 44.499 -19c28.667 0 51 9.66699 67 29v194h197v-523h-197z" />
    <glyph glyph-name="uni0448" unicode="&#x448;" horiz-adv-x="860" 
d="M48 523h194v-386h91v386h194v-386h92v386h193v-523h-764v523z" />
    <glyph glyph-name="uni0449" unicode="&#x449;" horiz-adv-x="894" 
d="M718 -127l-6 127h-664v523h194v-386h91v386h194v-386h92v386h193v-386h72v-264h-166z" />
    <glyph glyph-name="uni044A" unicode="&#x44a;" horiz-adv-x="646" 
d="M134 388h-120v135h314v-154h83c68.667 0 121.5 -16.333 158.5 -49s55.5 -77.334 55.5 -134.001v-3c0 -57.333 -18.333 -102.166 -55 -134.499s-91 -48.5 -163 -48.5h-273v388zM366 125c44.667 0 67 19 67 57v3c0 39.333 -22.333 59 -67 59h-38v-119h38z" />
    <glyph glyph-name="uni044B" unicode="&#x44b;" horiz-adv-x="803" 
d="M562 523h193v-523h-193v523zM48 523h195v-154h75c68 0 120.5 -16.333 157.5 -49s55.5 -77.334 55.5 -134.001v-3c0 -57.333 -18.333 -102.166 -55 -134.499s-91 -48.5 -163 -48.5h-265v523zM274 125c44.667 0 67 19 67 57v3c0 39.333 -22.333 59 -67 59h-31v-119h31z" />
    <glyph glyph-name="uni044C" unicode="&#x44c;" horiz-adv-x="561" 
d="M48 523h195v-154h83c68.667 0 121.5 -16.333 158.5 -49s55.5 -77.334 55.5 -134.001v-3c0 -57.333 -18.5 -102.166 -55.5 -134.499s-91.5 -48.5 -163.5 -48.5h-273v523zM280 125c44.667 0 67 19 67 57v3c0 39.333 -22.333 59 -67 59h-37v-119h37z" />
    <glyph glyph-name="uni044D" unicode="&#x44d;" horiz-adv-x="585" 
d="M285 -13c-162.667 0 -252.331 69 -268.998 207h177c13.333 -45.333 40.333 -68 81 -68c45.333 0 73.666 26.667 84.999 80h-146v112h146c-8 48 -34.667 72 -80 72c-38.667 0 -63.334 -19.333 -74.001 -58h-185c7.33301 70 35.333 121.833 84 155.5s108 50.5 178 50.5
c82 0 149.5 -23.667 202.5 -71s79.5 -113.666 79.5 -198.999v-8c0 -86.667 -26 -153.834 -78 -201.501s-119 -71.5 -201 -71.5z" />
    <glyph glyph-name="uni044E" unicode="&#x44e;" horiz-adv-x="862" 
d="M557 -12c-69.333 0 -127.832 16.834 -175.499 50.501s-78.5 81.167 -92.5 142.5c-0.666992 1.33301 -2 6.66602 -4 15.999h-42v-197h-195v523h195v-191h44c13.333 64 44.666 114.333 93.999 151s108.333 55 177 55c82.667 0 150.5 -24.333 203.5 -73s79.5 -114 79.5 -196
v-8c0 -84 -26.833 -150.5 -80.5 -199.5s-121.5 -73.5 -203.5 -73.5zM558.001 133.001c55.333 0 83 42 83 126v8c0 84 -27.667 126 -83 126s-83 -41.333 -83 -124v-8c0 -85.333 27.667 -128 83 -128z" />
    <glyph glyph-name="uni044F" unicode="&#x44f;" horiz-adv-x="572" 
d="M291 397c-46 0 -69 -17.667 -69 -53v-3c0 -37.333 23 -56 69 -56h39v112h-39zM204 0l-203 0.000976562l118 208c-59.333 25.333 -89 71.333 -89 138v3c0 53.333 18.5 95.666 55.5 126.999s89.833 47 158.5 47h280v-523h-194v167h-41z" />
    <glyph glyph-name="uni0451" unicode="&#x451;" horiz-adv-x="604" 
d="M311 -13c-86 0 -155.832 23.667 -209.499 71s-80.5 113 -80.5 197v8c0 83.333 27.667 150 83 200s124.333 75 207 75c78.667 0 143.667 -23 195 -69s77 -113.667 77 -203v-48h-363c2.66699 -31.333 12.5 -55.333 29.5 -72s39.833 -25 68.5 -25c46 0 73.333 18.667 82 56
h184c-8 -61.333 -34.833 -108.333 -80.5 -141s-109.834 -49 -192.501 -49zM393.001 321c-3.33301 60 -30.666 89.999 -81.999 89.999c-24.667 0 -44.834 -7.66699 -60.501 -23s-25.5 -37.666 -29.5 -66.999h172zM197.001 569.999c-25.333 0 -46.833 8.66699 -64.5 26
s-26.5 38.333 -26.5 63s8.83301 45.667 26.5 63s39.167 26 64.5 26c26 0 47.833 -8.66699 65.5 -26s26.5 -38.333 26.5 -63s-8.83301 -45.667 -26.5 -63s-39.5 -26 -65.5 -26zM414.001 569.999c-25.333 0 -46.666 8.66699 -63.999 26s-26 38.333 -26 63
s8.66699 45.667 26 63s38.666 26 63.999 26c26 0 47.833 -8.66699 65.5 -26s26.5 -38.333 26.5 -63s-8.83301 -45.667 -26.5 -63s-39.5 -26 -65.5 -26z" />
    <glyph glyph-name="uni0452" unicode="&#x452;" horiz-adv-x="629" 
d="M389 300c0 53.333 -22.332 80 -66.999 80c-52 0 -78 -30.333 -78 -91v-289h-197v582h-53v102h53v65h197v-65h151v-102h-151v-143c34 66 91.667 99 173 99c51.333 0 92.166 -16.5 122.499 -49.5s45.5 -81.167 45.5 -144.5v-302c0 -78.667 -18.667 -136.334 -56 -173.001
s-104.333 -55 -201 -55v141c21.333 1.33301 36.833 7.33301 46.5 18s14.5 29.334 14.5 56.001v271z" />
    <glyph glyph-name="uni0453" unicode="&#x453;" horiz-adv-x="456" 
d="M244 386v-386h-196v523h392v-137h-196zM228 747h193l-104 -169h-141z" />
    <glyph glyph-name="uni0454" unicode="&#x454;" horiz-adv-x="585" 
d="M569 194c-16.667 -138 -106.332 -207 -268.999 -207c-82 0 -149 23 -201 69s-78 112.333 -78 199v8c0 85.333 27 152.5 81 201.5s121.667 73.5 203 73.5c70 0 129 -16.833 177 -50.5s75.667 -85.5 83 -155.5h-185c-9.33301 38.667 -33.333 58 -72 58
c-42.667 0 -69.667 -24 -81 -72h146v-112h-147c11.333 -53.333 39.666 -80 84.999 -80c42 0 69 22.667 81 68h177z" />
    <glyph glyph-name="uni0455" unicode="&#x455;" horiz-adv-x="523" 
d="M261 -13c-77.333 0 -137.334 15.502 -180.001 46.502s-64.667 75.833 -66 134.5h180c4 -18.667 10.5 -32.334 19.5 -41.001s24.167 -13 45.5 -13c36.667 0 55 12.333 55 37c0 12 -6.66699 21.167 -20 27.5s-37.333 11.833 -72 16.5c-72.667 8 -124.667 24 -156 48
s-47 63.333 -47 118c0 57.333 21.833 101.166 65.5 131.499s99.5 45.5 167.5 45.5c72 0 128.333 -13.5 169 -40.5s64 -71.167 70 -132.5h-177c-7.33301 32.667 -27 49 -59 49c-34.667 0 -52 -12 -52 -36c0 -12 6.16699 -20.833 18.5 -26.5s33.5 -10.167 63.5 -13.5
c79.333 -10 136 -26.833 170 -50.5s51 -62.5 51 -116.5c0 -62 -21.667 -108.167 -65 -138.5s-103.666 -45.5 -180.999 -45.5z" />
    <glyph glyph-name="uni0456" unicode="&#x456;" horiz-adv-x="302" 
d="M53 523h196v-523h-196v523zM151 562c-30.667 0 -56.167 9.33301 -76.5 28s-30.5 42.334 -30.5 71.001c0 29.333 10.167 53.333 30.5 72s45.833 28 76.5 28c30 0 55.167 -9.33301 75.5 -28s30.5 -42.667 30.5 -72c0 -28.667 -10.167 -52.334 -30.5 -71.001
s-45.5 -28 -75.5 -28z" />
    <glyph glyph-name="uni0457" unicode="&#x457;" horiz-adv-x="302" 
d="M43 570c-25.333 0 -46.833 8.66699 -64.5 26s-26.5 38.333 -26.5 63s8.83301 45.667 26.5 63s39.167 26 64.5 26c26 0 47.833 -8.66699 65.5 -26s26.5 -38.333 26.5 -63s-8.83301 -45.667 -26.5 -63s-39.5 -26 -65.5 -26zM258 570c-25.333 0 -46.666 8.66699 -63.999 26
s-26 38.333 -26 63s8.66699 45.667 26 63s38.666 26 63.999 26c26 0 47.833 -8.66699 65.5 -26s26.5 -38.333 26.5 -63s-8.83301 -45.667 -26.5 -63s-39.5 -26 -65.5 -26zM53 523h196v-523h-196v523z" />
    <glyph glyph-name="uni0458" unicode="&#x458;" horiz-adv-x="302" 
d="M-9 -42c22 1.33301 37.667 6.33301 47 15s14 23 14 43v507h197v-512c0 -63.333 -19 -111.5 -57 -144.5s-105 -49.5 -201 -49.5v141zM151 562c-30.667 0 -56.167 9.33301 -76.5 28s-30.5 42.334 -30.5 71.001c0 29.333 10.167 53.333 30.5 72s45.833 28 76.5 28
c30 0 55.167 -9.33301 75.5 -28s30.5 -42.667 30.5 -72c0 -28.667 -10.167 -52.334 -30.5 -71.001s-45.5 -28 -75.5 -28z" />
    <glyph glyph-name="uni0459" unicode="&#x459;" horiz-adv-x="853" 
d="M350 386l-76.999 0.000976562c-1.33301 -54 -3.33301 -101.333 -6 -142c-6.66699 -88 -23.5 -152.667 -50.5 -194s-70.5 -62 -130.5 -62c-20 0 -36 1.66699 -48 5c-6 2 -11.333 4 -16 6v139l5 -2c1.33301 -0.666992 6.66602 -1 15.999 -1c17.333 0 30.5 10.667 39.5 32
s15.167 55.666 18.5 102.999c3.33301 50.667 5 135 5 253h439v-154h73c68.667 0 121.5 -16.333 158.5 -49s55.5 -77.334 55.5 -134.001v-3c0 -57.333 -18.5 -102.166 -55.5 -134.499s-91.5 -48.5 -163.5 -48.5h-263v386zM573.001 125.001c44 0 66 19 66 57v3
c0 39.333 -22 59 -66 59h-28v-119h28z" />
    <glyph glyph-name="uni045A" unicode="&#x45a;" horiz-adv-x="873" 
d="M593 125c44.667 0 67 19 67 57v3c0 39.333 -22.333 59 -67 59h-28v-119h28zM371 196h-127v-196h-196v523h196v-190h127v190h194v-154h73c68.667 0 121.5 -16.333 158.5 -49s55.5 -77.334 55.5 -134.001v-3c0 -57.333 -18.333 -102.166 -55 -134.499s-91 -48.5 -163 -48.5
h-263v196z" />
    <glyph glyph-name="uni045B" unicode="&#x45b;" horiz-adv-x="629" 
d="M-6 684h53.001v66h197v-66h151v-103h-151v-142c34 65.333 91.667 98 173 98c51.333 0 92.166 -16.333 122.499 -49s45.5 -80.667 45.5 -144v-344h-197v300c0 53.333 -22 80 -66 80c-52 0 -78 -30.333 -78 -91v-289h-197v581h-53v103z" />
    <glyph glyph-name="uni045C" unicode="&#x45c;" horiz-adv-x="588" 
d="M283 747h193l-104 -169h-141zM244 215v-215h-197v523h197v-201l127 201h202l-161 -236l174 -287h-218z" />
    <glyph glyph-name="uni045D" unicode="&#x45d;" horiz-adv-x="631" 
d="M48 0v523h195v-292l148 292h192v-523h-195v291l-148 -291h-192zM150 747h193l52 -169h-141z" />
    <glyph glyph-name="uni045E" unicode="&#x45e;" 
d="M314 582c-52.667 0 -93.5 14 -122.5 42s-45.167 67.333 -48.5 118h129c4 -36 18 -54 42 -54c25.333 0 40 18 44 54h128c-4 -50.667 -20.833 -90 -50.5 -118s-70.167 -42 -121.5 -42zM214 52l-209 471h213l99 -261l92 261h186l-279 -697h-187z" />
    <glyph glyph-name="uni045F" unicode="&#x45f;" horiz-adv-x="615" 
d="M48 0v523h196v-386h127v386h196v-523h-175l-2 -127h-163l-3 127h-176z" />
    <glyph glyph-name="uni0490" unicode="&#x490;" horiz-adv-x="580" 
d="M293 539v-539h-228v715h284l7 134h196v-310h-259z" />
    <glyph glyph-name="uni0491" unicode="&#x491;" horiz-adv-x="456" 
d="M244 386v-386h-196v523h213l5 134h167v-271h-189z" />
    <glyph glyph-name="Wgrave" unicode="&#x1e80;" horiz-adv-x="1009" 
d="M10 715h229l82 -427l86 427h197l97 -432l87 432h210l-166 -715h-229l-100 427l-101 -427h-226zM340 906h202l47 -149h-149z" />
    <glyph glyph-name="wgrave" unicode="&#x1e81;" horiz-adv-x="854" 
d="M5 523h205l68 -293l80 293h158l70 -293l79 293h184l-166 -523h-185l-73 273l-72 -273h-191zM265 747h193l52 -169h-141z" />
    <glyph glyph-name="Wacute" unicode="&#x1e82;" horiz-adv-x="1009" 
d="M10 715h229l82 -427l86 427h197l97 -432l87 432h210l-166 -715h-229l-100 427l-101 -427h-226zM478 906h201l-103 -149h-149z" />
    <glyph glyph-name="wacute" unicode="&#x1e83;" horiz-adv-x="854" 
d="M5 523h205l68 -293l80 293h158l70 -293l79 293h184l-166 -523h-185l-73 273l-72 -273h-191zM419 747h193l-104 -169h-141z" />
    <glyph glyph-name="Wdieresis" unicode="&#x1e84;" horiz-adv-x="1009" 
d="M10 715h229l82 -427l86 427h197l97 -432l87 432h210l-166 -715h-229l-100 427l-101 -427h-226zM393 752c-25.333 0 -46.833 8.66699 -64.5 26s-26.5 38.333 -26.5 63s8.83301 45.667 26.5 63s39.167 26 64.5 26c26 0 47.833 -8.5 65.5 -25.5s26.5 -38.167 26.5 -63.5
c0 -24.667 -8.83301 -45.667 -26.5 -63s-39.5 -26 -65.5 -26zM620 752c-25.333 0 -46.833 8.66699 -64.5 26s-26.5 38.333 -26.5 63s8.83301 45.667 26.5 63s39.167 26 64.5 26c26 0 47.833 -8.5 65.5 -25.5s26.5 -38.167 26.5 -63.5c0 -24.667 -8.83301 -45.667 -26.5 -63
s-39.5 -26 -65.5 -26z" />
    <glyph glyph-name="wdieresis" unicode="&#x1e85;" horiz-adv-x="854" 
d="M5 523h205l68 -293l80 293h158l70 -293l79 293h184l-166 -523h-185l-73 273l-72 -273h-191zM327 570c-25.333 0 -46.833 8.66699 -64.5 26s-26.5 38.333 -26.5 63s8.83301 45.667 26.5 63s39.167 26 64.5 26c26 0 47.833 -8.66699 65.5 -26s26.5 -38.333 26.5 -63
s-8.83301 -45.667 -26.5 -63s-39.5 -26 -65.5 -26zM544 570c-25.333 0 -46.666 8.66699 -63.999 26s-26 38.333 -26 63s8.66699 45.667 26 63s38.666 26 63.999 26c26 0 47.833 -8.66699 65.5 -26s26.5 -38.333 26.5 -63s-8.83301 -45.667 -26.5 -63s-39.5 -26 -65.5 -26z
" />
    <glyph glyph-name="Ygrave" unicode="&#x1ef2;" horiz-adv-x="692" 
d="M237 305l-232 410h246l109 -224l110 224h217l-222 -409v-306h-228v305zM188 906h202l47 -149h-149z" />
    <glyph glyph-name="ygrave" unicode="&#x1ef3;" 
d="M214 52l-209 471h213l99 -261l92 261h186l-279 -697h-187zM141 747h193l52 -169h-141z" />
    <glyph glyph-name="uni2009" unicode="&#x2009;" horiz-adv-x="83" 
 />
    <glyph glyph-name="endash" unicode="&#x2013;" horiz-adv-x="543" 
d="M46 351h451v-112h-451v112z" />
    <glyph glyph-name="emdash" unicode="&#x2014;" horiz-adv-x="958" 
d="M46 351h866v-112h-866v112z" />
    <glyph glyph-name="quoteleft" unicode="&#x2018;" horiz-adv-x="321" 
d="M28 473l141 255l110 -40l-78 -271z" />
    <glyph glyph-name="quoteright" unicode="&#x2019;" horiz-adv-x="321" 
d="M42 459l78 269l171 -55l-140 -256z" />
    <glyph glyph-name="quotesinglbase" unicode="&#x201a;" horiz-adv-x="319" 
d="M38 -63l78 270l172 -56l-141 -256z" />
    <glyph glyph-name="quotedblleft" unicode="&#x201c;" horiz-adv-x="555" 
d="M28 473l141 255l110 -40l-78 -271zM265 473l140 255l109 -40l-78 -271z" />
    <glyph glyph-name="quotedblright" unicode="&#x201d;" horiz-adv-x="555" 
d="M42 459l78 269l171 -55l-140 -256zM277 459l78 269l173 -55l-141 -256z" />
    <glyph glyph-name="quotedblbase" unicode="&#x201e;" horiz-adv-x="555" 
d="M38 -63l78 270l172 -56l-141 -256zM273 -63l78 270l173 -56l-141 -256z" />
    <glyph glyph-name="dagger" unicode="&#x2020;" horiz-adv-x="411" 
d="M127 464h-105v136h105v115h157v-115h105v-136h-105v-251h-157v251z" />
    <glyph glyph-name="daggerdbl" unicode="&#x2021;" horiz-adv-x="411" 
d="M127 497h-105v123h105v95h157v-95h105v-123h-105v-66h105v-123h-105v-95h-157v95h-105v123h105v66z" />
    <glyph glyph-name="bullet" unicode="&#x2022;" horiz-adv-x="379" 
d="M189 150c-42.667 0 -78.5 14.833 -107.5 44.5s-43.5 65.5 -43.5 107.5s14.5 77.833 43.5 107.5s64.833 44.5 107.5 44.5c43.333 0 79.5 -14.667 108.5 -44s43.5 -65.333 43.5 -108s-14.5 -78.667 -43.5 -108s-65.167 -44 -108.5 -44z" />
    <glyph glyph-name="ellipsis" unicode="&#x2026;" horiz-adv-x="909" 
d="M150 -12c-31.333 0 -57.5 10.5 -78.5 31.5s-31.5 46.5 -31.5 76.5s10.333 55.333 31 76s47 31 79 31s58.667 -10.333 80 -31s32 -46 32 -76s-10.667 -55.5 -32 -76.5s-48 -31.5 -80 -31.5zM453 -12c-32 0 -58.167 10.333 -78.5 31s-30.5 46.334 -30.5 77.001
s10.333 56.167 31 76.5s46.667 30.5 78 30.5c32 0 58.667 -10.333 80 -31s32 -46 32 -76c0 -30.667 -10.667 -56.334 -32 -77.001s-48 -31 -80 -31zM756 -12c-32 0 -58.167 10.333 -78.5 31s-30.5 46.334 -30.5 77.001s10.167 56.167 30.5 76.5s46.5 30.5 78.5 30.5
s58.833 -10.333 80.5 -31s32.5 -46 32.5 -76c0 -30.667 -10.667 -56.334 -32 -77.001s-48.333 -31 -81 -31z" />
    <glyph glyph-name="perthousand" unicode="&#x2030;" horiz-adv-x="1240" 
d="M216 475c34.667 0 52 23.666 52 70.999c0 46 -17.333 69 -52 69c-16 0 -28.667 -6.16699 -38 -18.5s-14 -29.166 -14 -50.499c0 -22.667 4.66699 -40.167 14 -52.5s22 -18.5 38 -18.5zM216 362.999c-60 0 -107.167 17 -141.5 51s-51.5 77.667 -51.5 131
c0 50.667 18.333 93 55 127s82.667 51 138 51s101.333 -16.333 138 -49s55 -74.334 55 -125.001c0 -53.333 -17.5 -97.666 -52.5 -132.999s-81.833 -53 -140.5 -53zM620 714.999h102l-508 -715h-101zM613 98.999c34.667 0 52 23.666 52 70.999c0 46 -17.333 69 -52 69
c-16 0 -28.667 -6.16699 -38 -18.5s-14 -29.166 -14 -50.499c0 -22.667 4.66699 -40.167 14 -52.5s22 -18.5 38 -18.5zM613 -13.002c-60 0 -107.167 16.999 -141.5 50.999s-51.5 77.667 -51.5 131c0 51.333 18.333 94 55 128s82.667 51 138 51
c56 0 102.167 -16.333 138.5 -49s54.5 -74.667 54.5 -126c0 -53.333 -17.5 -97.666 -52.5 -132.999s-81.833 -53 -140.5 -53zM1024 98.9971c34.667 0 52 23.666 52 70.999c0 46 -17.333 69 -52 69c-16.667 0 -29.5 -6.16699 -38.5 -18.5s-13.5 -29.166 -13.5 -50.499
c0 -47.333 17.333 -71 52 -71zM1023 -13.0039c-60 0 -107 16.999 -141 50.999s-51 77.667 -51 131c0 51.333 18.333 94 55 128s82.667 51 138 51s101.333 -16.333 138 -49s55 -74.667 55 -126c0 -53.333 -17.667 -97.666 -53 -132.999s-82.333 -53 -141 -53z" />
    <glyph glyph-name="uni2032" unicode="&#x2032;" horiz-adv-x="256" 
d="M52 715h183l-63 -281h-139z" />
    <glyph glyph-name="uni2033" unicode="&#x2033;" horiz-adv-x="478" 
d="M52 715h183l-63 -281h-139zM274 715h183l-64 -281h-139z" />
    <glyph glyph-name="guilsinglleft" unicode="&#x2039;" horiz-adv-x="304" 
d="M25 261l124 194h129l-119 -194l119 -194h-129z" />
    <glyph glyph-name="guilsinglright" unicode="&#x203a;" horiz-adv-x="304" 
d="M145 261l-119 194h129l124 -194l-124 -194h-129z" />
    <glyph glyph-name="fraction" unicode="&#x2044;" horiz-adv-x="178" 
d="M324 715h99l-569 -715h-100z" />
    <glyph glyph-name="Euro" unicode="&#x20ac;" horiz-adv-x="728" 
d="M21 452h61.002c14 82 49.333 148.167 106 198.5s127.667 75.5 213 75.5c90 0 160.333 -22.167 211 -66.5s80 -110.5 88 -198.5h-209c-6.66699 62.667 -37.334 94 -92.001 94c-52.667 0 -85 -34.333 -97 -103h139l-13 -74h-131v-46h123l-12 -74h-107
c6 -32.667 16.667 -57 32 -73s37.666 -24 66.999 -24c31.333 0 54.333 8.5 69 25.5s24 44.167 28 81.5h208c-22 -187.333 -125.667 -281 -311 -281c-90.667 0 -162.667 24.5 -216 73.5s-85.333 114.833 -96 197.5h-61v74h56v46h-56v74z" />
    <glyph glyph-name="uni20B4" unicode="&#x20b4;" horiz-adv-x="670" 
d="M334 -13c-92 0 -162.836 19.001 -212.503 57.001s-74.5 89.667 -74.5 155c0 24 3.66699 46 11 66h-38v73h94c20.667 16.667 49.334 32.667 86.001 48h-180v73h367c14.667 14 22 32 22 54c0 35.333 -21 53 -63 53c-43.333 0 -67.666 -23 -72.999 -69h-210
c14 152 108 228 282 228c86 0 153.333 -17.5 202 -52.5s73 -82.5 73 -142.5c0 -27.333 -3.33301 -51 -10 -71h41v-73h-87c-18 -18 -41.333 -34 -70 -48h157v-73h-353c-24.667 -14.667 -37 -35.334 -37 -62.001c0 -37.333 23.667 -56 71 -56c32 0 54.333 7.16699 67 21.5
s20.334 34.5 23.001 60.5h214c-8 -161.333 -108.667 -242 -302 -242z" />
    <glyph glyph-name="uni20B8" unicode="&#x20b8;" horiz-adv-x="609" 
d="M20 642v73h569v-73h-569zM190 415h-170v174h569v-174h-171v-415h-228v415z" />
    </font>
</defs>
</svg>
