<svg xmlns="http://www.w3.org/2000/svg" width="568.091" height="252.148" viewBox="0 0 568.091 252.148">
  <defs>
    <style>
      .cls-1 {
        fill: #f8da70;
      }
    </style>
  </defs>
  <g id="Слой_2" data-name="Слой 2" transform="translate(-76.43 -260.614)">
    <g id="OBJECTS" transform="translate(76.43 260.614)">
      <path id="Path_5909" data-name="Path 5909" class="cls-1" d="M77.048,451.134l-.618-45.1,103.52-142.89,44.037-.584,1.956,145.979,32.264-.412.549,40.571-32.264.412.755,56.188-46.818.618-.755-56.154Zm99.916-126.208-61.783,85.088,63.842-.824-1.1-84.3Z" transform="translate(-76.43 -255.88)"/>
      <path id="Path_5910" data-name="Path 5910" class="cls-1" d="M139.416,327.429a107.2,107.2,0,0,1,18.706-38.923,68.888,68.888,0,0,1,28.008-21.178,93.43,93.43,0,0,1,34.049-6.693,94.7,94.7,0,0,1,34.6,5.766,70.5,70.5,0,0,1,28.729,20.423,105.925,105.925,0,0,1,19.942,38.408,213.5,213.5,0,0,1,7.894,59.38,221.87,221.87,0,0,1-6.281,60.959,105.547,105.547,0,0,1-18.912,39.266A70.261,70.261,0,0,1,258,506.049a95.316,95.316,0,0,1-34.324,6.693,93.7,93.7,0,0,1-34.324-5.766,69.023,69.023,0,0,1-28.523-20.594,106.4,106.4,0,0,1-19.77-38.751,220.052,220.052,0,0,1-7.929-60.753A213.287,213.287,0,0,1,139.416,327.429Zm43.969,84.059a135.126,135.126,0,0,0,4.7,28.386,60.48,60.48,0,0,0,11.945,23.237,27.837,27.837,0,0,0,23,9.4,28.866,28.866,0,0,0,23.306-10.023,59.86,59.86,0,0,0,11.464-23.58,136.054,136.054,0,0,0,3.947-28.489c.343-9.817.446-18.192.378-25.159,0-4.153-.206-9.164-.378-15.068a172.924,172.924,0,0,0-5.183-36.692,56.836,56.836,0,0,0-6.865-16.372A36.487,36.487,0,0,0,238.1,305.5a30.343,30.343,0,0,0-17.162-4.29,29.587,29.587,0,0,0-16.75,4.737,36.28,36.28,0,0,0-10.949,11.945,63.053,63.053,0,0,0-6.522,16.544,127.847,127.847,0,0,0-3.226,18.6c-.618,6.247-.927,12.322-.961,18.226s0,10.915,0,15.1q-.069,10.4.858,25.125Z" transform="translate(61.172 -260.614)"/>
      <path id="Path_5911" data-name="Path 5911" class="cls-1" d="M189.438,449.634l-.618-45.1,103.52-142.89,44.072-.584,1.956,145.979,32.23-.412.549,40.571-32.23.446.755,56.154-46.852.652-.721-56.188Zm99.916-126.208-61.748,85.02,63.808-.858-1.133-84.265Z" transform="translate(196.944 -259.529)"/>
    </g>
  </g>
</svg>
