<svg xmlns="http://www.w3.org/2000/svg" width="23.279" height="18.953" viewBox="0 0 23.279 18.953">
    <g data-name="Group 2836">
        <path d="M15.954 17.239h5.583c-.024-2.694-.269-5.412-2.865-5.583a7.834 7.834 0 0 1-3.183 1.616 4.538 4.538 0 0 0-.931-1.641c1.028.049 2.032-.539 3.526-1.714 5.608 0 5.191 4.873 5.191 9.036h-7.321v-1.714z" data-name="Path 17703"/>
        <path d="M14.652 0a5.167 5.167 0 0 1 0 10.334 4.928 4.928 0 0 1-2.669-.759 5.578 5.578 0 0 0 .735-1.592 3.382 3.382 0 0 0 1.959.612 3.453 3.453 0 1 0-2.963-5.24 2.785 2.785 0 0 0-.367-.392 5.655 5.655 0 0 0-.956-.763A5.217 5.217 0 0 1 14.652 0z" data-name="Path 17704"/>
        <path d="M1.551 17.411h12.268c-.024-2.4-.245-4.824-2.571-4.971-2.645 2.032-4.506 2.032-7.15 0-2.327.147-2.523 2.571-2.547 4.971zM.008 18.953c0-3.7-.416-8.056 4.6-8.056 2.6 2.057 3.526 2.057 6.122 0 5.02 0 4.628 4.334 4.628 8.056z" data-name="Path 17705"/>
        <path d="M7.669 2.057a4.6 4.6 0 1 1-4.6 4.6 4.6 4.6 0 0 1 4.6-4.6zm0 1.543a3.061 3.061 0 1 0 3.065 3.057A3.062 3.062 0 0 0 7.669 3.6z" data-name="Path 17706"/>
    </g>
</svg>
