<svg xmlns="http://www.w3.org/2000/svg" id="prefix__Лого" width="174.466" height="56.5" viewBox="0 0 174.466 56.5">
    <defs>
        <style>
            .prefix__cls-1{fill:#e7e6e1}
        </style>
    </defs>
    <g id="prefix__Group_134" data-name="Group 134">
        <g id="prefix__Group_133" data-name="Group 133">
            <g id="prefix__Group_132" data-name="Group 132">
                <g id="prefix__Group_123" data-name="Group 123" transform="translate(26.043 26.153)">
                    <path id="prefix__Path_4381" d="M44.908 25.7a2.1 2.1 0 0 0-2.1-2.1H30.783v2.207a5.063 5.063 0 0 1-5.076 5.076H23.5V42.8a2.1 2.1 0 0 0 2.1 2.1h11.8v-2.43a5.063 5.063 0 0 1 5.076-5.076h2.428z" class="prefix__cls-1" data-name="Path 4381" transform="translate(-23.5 -23.6)"/>
                </g>
                <g id="prefix__Group_124" data-name="Group 124" transform="translate(9.049 9.049)">
                    <path id="prefix__Path_4382" d="M8.1 15.6v11.812a2.1 2.1 0 0 0 2.1 2.1h12.025V27.3a5.063 5.063 0 0 1 5.075-5.075h2.207V10.2a2.1 2.1 0 0 0-2.1-2.1H15.6v2.428a5.063 5.063 0 0 1-5.072 5.072z" class="prefix__cls-1" data-name="Path 4382" transform="translate(-8.1 -8.1)"/>
                </g>
                <g id="prefix__Group_125" data-name="Group 125" transform="translate(.11)">
                    <path id="prefix__Path_4383" d="M6.069 11.046a5.063 5.063 0 0 1 5.076-5.076h2.428A6.052 6.052 0 0 0 7.5-.1H3.531A3.652 3.652 0 0 0 0 3.542v3.972a6.123 6.123 0 0 0 6.069 6.069z" class="prefix__cls-1" data-name="Path 4383" transform="translate(0 .1)"/>
                </g>
                <g id="prefix__Group_126" data-name="Group 126" transform="translate(16.553 .11)">
                    <path id="prefix__Path_4384" d="M51.206 0H20.969A6.052 6.052 0 0 0 14.9 6.069h11.808a5.063 5.063 0 0 1 5.076 5.076v12.029H43.7a5.063 5.063 0 0 1 5.076 5.076v11.808a6.123 6.123 0 0 0 6.069-6.069V3.531A3.652 3.652 0 0 0 51.206 0z" class="prefix__cls-1" data-name="Path 4384" transform="translate(-14.9)"/>
                </g>
                <g id="prefix__Group_127" data-name="Group 127" transform="translate(0 16.553)">
                    <path id="prefix__Path_4385" d="M28.15 48.778a5.063 5.063 0 0 1-5.076-5.078V31.673H11.046A5.063 5.063 0 0 1 5.969 26.6V14.9A6.052 6.052 0 0 0-.1 20.969v30.237a3.652 3.652 0 0 0 3.642 3.531h30.236a6.052 6.052 0 0 0 6.069-6.069l-11.7.11z" class="prefix__cls-1" data-name="Path 4385" transform="translate(.1 -14.9)"/>
                </g>
                <g id="prefix__Group_128" data-name="Group 128" transform="translate(42.927 42.927)">
                    <path id="prefix__Path_4386" d="M46.3 41.228a5.063 5.063 0 0 1-5.072 5.072H38.8a6.052 6.052 0 0 0 6.069 6.069h3.973a3.486 3.486 0 0 0 3.531-3.531v-3.969A6.123 6.123 0 0 0 46.3 38.8z" class="prefix__cls-1" data-name="Path 4386" transform="translate(-38.8 -38.8)"/>
                </g>
                <g id="prefix__Group_129" data-name="Group 129" transform="translate(26.153 26.153)">
                    <path id="prefix__Path_4387" d="M27.9 25.807V23.6h-2.2a2.1 2.1 0 0 0-2.1 2.1v2.2h2.207a2.171 2.171 0 0 0 2.093-2.093z" class="prefix__cls-1" data-name="Path 4387" transform="translate(-23.6 -23.6)"/>
                </g>
                <g id="prefix__Group_130" data-name="Group 130" transform="translate(9.049 9.049)">
                    <path id="prefix__Path_4388" d="M12.735 10.638V8.1H10.2a2.171 2.171 0 0 0-2.1 2.1v2.428h2.428a2.035 2.035 0 0 0 2.207-1.99z" class="prefix__cls-1" data-name="Path 4388" transform="translate(-8.1 -8.1)"/>
                </g>
                <g id="prefix__Group_131" data-name="Group 131" transform="translate(42.927 42.927)">
                    <path id="prefix__Path_4389" d="M38.8 40.9v2.428h2.428a2.1 2.1 0 0 0 2.1-2.1V38.8H40.9a2.029 2.029 0 0 0-2.1 2.1z" class="prefix__cls-1" data-name="Path 4389" transform="translate(-38.8 -38.8)"/>
                </g>
            </g>
        </g>
    </g>
    <g id="prefix__Group_135" data-name="Group 135" transform="translate(68.418 12.801)">
        <path id="prefix__Path_4390" d="M77.018 26.918H73.6V18.09l-3.862 6.4h-.441l-3.973-6.4v8.828H61.9V11.8h3.421l4.079 6.731 4.087-6.731h3.421v15.118z" class="prefix__cls-1" data-name="Path 4390" transform="translate(-61.9 -11.469)"/>
        <path id="prefix__Path_4391" d="M81.421 11.8v15.118H78V11.8z" class="prefix__cls-1" data-name="Path 4391" transform="translate(-60.233 -11.469)"/>
        <path id="prefix__Path_4392" d="M95.308 11.8v15.118H92.77l-5.849-8.166v8.166H83.5V11.8h2.538l5.849 8.166V11.8h3.421z" class="prefix__cls-1" data-name="Path 4392" transform="translate(-59.664 -11.469)"/>
        <path id="prefix__Path_4393" d="M100.021 11.8v15.118H96.6V11.8z" class="prefix__cls-1" data-name="Path 4393" transform="translate(-58.308 -11.469)"/>
        <path id="prefix__Path_4394" d="M113.918 11.8v15.118h-2.538l-5.849-8.166v8.166H102V11.8h2.538l5.849 8.166V11.8h3.531z" class="prefix__cls-1" data-name="Path 4394" transform="translate(-57.749 -11.469)"/>
        <path id="prefix__Path_4395" d="M130.16 19.776a7.006 7.006 0 0 1-7.394 7.394 7.874 7.874 0 0 1-8.166-7.835 7.752 7.752 0 0 1 7.945-7.835 7.933 7.933 0 0 1 6.621 3.421l-2.979 1.655a4.488 4.488 0 0 0-8.056 2.759c0 2.538 1.766 4.414 4.745 4.414a3.786 3.786 0 0 0 3.862-2.317h-4.083v-2.98h7.614v1.324z" class="prefix__cls-1" data-name="Path 4395" transform="translate(-56.445 -11.5)"/>
        <path id="prefix__Path_4396" d="M135.2 22.063V11.8h3.421v9.932c0 1.1.552 2.1 2.428 2.1s2.428-.993 2.428-2.1V11.8h3.423v10.263c0 3.2-2.538 5.187-5.849 5.187s-5.851-1.987-5.851-5.187z" class="prefix__cls-1" data-name="Path 4396" transform="translate(-54.312 -11.469)"/>
        <path id="prefix__Path_4397" d="M159.035 16.987a5.205 5.205 0 0 1-5.3 5.187h-2.317v4.745H148V11.8h5.738a5.205 5.205 0 0 1 5.297 5.187zm-3.421 0A1.887 1.887 0 0 0 153.738 15h-2.317v3.862h2.317a1.739 1.739 0 0 0 1.876-1.875z" class="prefix__cls-1" data-name="Path 4397" transform="translate(-52.987 -11.469)"/>
    </g>
    <g id="prefix__Group_136" data-name="Group 136" transform="translate(68.308 34.099)">
        <path id="prefix__Path_4398" d="M62.572 30.8v9.932H61.8V30.8z" class="prefix__cls-1" data-name="Path 4398" transform="translate(-61.8 -30.8)"/>
        <path id="prefix__Path_4399" d="M70.952 31.562h-3.09v9.27h-.772v-9.27H64V30.9h7.063v.662z" class="prefix__cls-1" data-name="Path 4399" transform="translate(-61.572 -30.79)"/>
        <path id="prefix__Path_4400" d="M71.3 30.8h.772l-.11 2.648h-.552z" class="prefix__cls-1" data-name="Path 4400" transform="translate(-60.817 -30.8)"/>
        <path id="prefix__Path_4401" d="M73.2 38.635l.662-.331a2.762 2.762 0 0 0 2.979 1.986c1.655 0 2.538-.883 2.538-1.986 0-1.214-1.1-1.655-2.538-2.1-1.655-.552-3.2-.993-3.2-2.759a2.7 2.7 0 0 1 2.98-2.645 3.353 3.353 0 0 1 3.2 2.1l-.662.331a2.588 2.588 0 0 0-2.538-1.766c-1.435 0-2.207.772-2.207 1.876 0 1.214.993 1.545 2.428 1.986 1.766.552 3.311 1.1 3.311 2.869 0 1.655-1.324 2.759-3.311 2.759a3.834 3.834 0 0 1-3.642-2.32z" class="prefix__cls-1" data-name="Path 4401" transform="translate(-60.62 -30.8)"/>
        <path id="prefix__Path_4402" d="M83.7 30.8h.883l3.311 9.049L91.2 30.8h.772l-3.752 9.932h-.772z" class="prefix__cls-1" data-name="Path 4402" transform="translate(-59.533 -30.8)"/>
        <path id="prefix__Path_4403" d="M98.238 40.07v.662H92.5V30.8h5.628v.662h-4.966v3.973h4.524v.665h-4.524v3.97h5.076z" class="prefix__cls-1" data-name="Path 4403" transform="translate(-58.622 -30.8)"/>
        <path id="prefix__Path_4404" d="M103.273 36.649h-3.2v4.083H99.3V30.8h3.973a2.975 2.975 0 0 1 .772 5.849l2.428 4.193h-.883zm-3.2-.662h3.2a2.207 2.207 0 0 0 0-4.414h-3.2z" class="prefix__cls-1" data-name="Path 4404" transform="translate(-57.918 -30.8)"/>
        <path id="prefix__Path_4405" d="M110.414 36.649v4.083h-.772v-4.083L106 30.8h.883l3.2 5.187 3.2-5.187h.883z" class="prefix__cls-1" data-name="Path 4405" transform="translate(-57.225 -30.8)"/>
        <path id="prefix__Path_4406" d="M117.4 38.635l.662-.331a2.762 2.762 0 0 0 2.979 1.986c1.655 0 2.538-.883 2.538-1.986 0-1.214-1.1-1.655-2.538-2.1-1.655-.552-3.2-.993-3.2-2.759a2.7 2.7 0 0 1 2.979-2.648 3.353 3.353 0 0 1 3.2 2.1l-.662.331a2.588 2.588 0 0 0-2.538-1.766c-1.435 0-2.207.772-2.207 1.876 0 1.214.993 1.545 2.428 1.986 1.766.552 3.311 1.1 3.311 2.869 0 1.655-1.324 2.759-3.311 2.759a3.834 3.834 0 0 1-3.641-2.317z" class="prefix__cls-1" data-name="Path 4406" transform="translate(-56.045 -30.8)"/>
        <path id="prefix__Path_4407" d="M126.072 30.8v9.932h-.772V30.8z" class="prefix__cls-1" data-name="Path 4407" transform="translate(-55.227 -30.8)"/>
        <path id="prefix__Path_4408" d="M137.238 40.832h-.772V32l-3.642 6.18h-.11L129.072 32v8.828h-.772V30.9h.993l3.531 5.959 3.531-5.959h.993v9.932z" class="prefix__cls-1" data-name="Path 4408" transform="translate(-54.916 -30.79)"/>
        <path id="prefix__Path_4409" d="M145.211 33.88a3.017 3.017 0 0 1-3.09 3.09h-2.648v3.862h-.773V30.9h3.421a2.867 2.867 0 0 1 3.09 2.98zm-.772 0a2.291 2.291 0 0 0-2.317-2.428h-2.648V36.2h2.648a2.144 2.144 0 0 0 2.316-2.32z" class="prefix__cls-1" data-name="Path 4409" transform="translate(-53.84 -30.79)"/>
        <path id="prefix__Path_4410" d="M151.718 40.07v.662H146.2V30.8h.772v9.27h4.745z" class="prefix__cls-1" data-name="Path 4410" transform="translate(-53.063 -30.8)"/>
        <path id="prefix__Path_4411" d="M158.338 40.07v.662H152.6V30.8h5.628v.662h-4.966v3.973h4.524v.665h-4.524v3.97h5.076z" class="prefix__cls-1" data-name="Path 4411" transform="translate(-52.401 -30.8)"/>
    </g>
</svg>
