<svg xmlns="http://www.w3.org/2000/svg" width="104.154" height="85.451" viewBox="0 0 104.154 85.451">
    <defs>
        <style>
            .prefix__cls-1{fill:#ddbe82}
        </style>
    </defs>
    <g id="prefix__Слой_2" data-name="Слой 2">
        <g id="prefix__Layer_1" data-name="Layer 1">
            <path id="prefix__Path_21032" d="M2.964 53.855a1.749 1.749 0 0 1-.86-.207 1.808 1.808 0 0 1-.919-1.778L2.7 37.583a6.787 6.787 0 0 0-.711-3.853A19.5 19.5 0 0 1 0 25.283C0 11.352 15.561 0 34.678 0s34.679 11.352 34.679 25.283-15.531 25.282-34.679 25.282a45.289 45.289 0 0 1-17.1-3.142 6.936 6.936 0 0 0-7.025 1.008l-6.463 4.92a1.719 1.719 0 0 1-1.126.5zM34.678 3.468c-17.132.119-31.092 9.87-31.092 21.815a15.828 15.828 0 0 0 1.63 6.876 10.789 10.789 0 0 1 1.067 5.928L5.217 48.105l3.112-2.49A10.492 10.492 0 0 1 18.94 44.1a41.673 41.673 0 0 0 15.739 2.964c17.161 0 31.092-9.722 31.092-21.7S51.84 3.586 34.678 3.586z" class="prefix__cls-1" data-name="Path 21032"/>
            <circle id="prefix__Ellipse_1441" cx="4.238" cy="4.238" r="4.238" class="prefix__cls-1" data-name="Ellipse 1441" transform="translate(15.027 21.37)"/>
            <circle id="prefix__Ellipse_1442" cx="4.238" cy="4.238" r="4.238" class="prefix__cls-1" data-name="Ellipse 1442" transform="translate(30.232 21.37)"/>
            <circle id="prefix__Ellipse_1443" cx="4.238" cy="4.238" r="4.238" class="prefix__cls-1" data-name="Ellipse 1443" transform="translate(45.467 21.37)"/>
            <circle id="prefix__Ellipse_1444" cx="4.238" cy="4.238" r="4.238" class="prefix__cls-1" data-name="Ellipse 1444" transform="translate(80.679 52.936)"/>
            <circle id="prefix__Ellipse_1445" cx="4.238" cy="4.238" r="4.238" class="prefix__cls-1" data-name="Ellipse 1445" transform="translate(65.444 52.936)"/>
            <circle id="prefix__Ellipse_1446" cx="4.238" cy="4.238" r="4.238" class="prefix__cls-1" data-name="Ellipse 1446" transform="translate(50.21 52.936)"/>
            <path id="prefix__Path_21033" d="M78.133 64.437a1.838 1.838 0 0 1-1.126-.415l-6.461-5.009A6.906 6.906 0 0 0 63.55 58a45.437 45.437 0 0 1-17.132 3.29C27.3 61.295 11.74 49.943 11.74 35.983a19.621 19.621 0 0 1 2.342-9.1 1.838 1.838 0 0 1 1.423-.948c11.559-1.008 21.252-6.4 25.283-14.079a1.838 1.838 0 0 1 1.452-.948c1.571-.148 2.964-.207 4.179-.207C65.536 10.7 81.1 22.052 81.1 35.983a19 19 0 0 1-1.986 8.21 7.38 7.38 0 0 0-.711 3.853l1.512 14.316a1.749 1.749 0 0 1-.919 1.749 1.779 1.779 0 0 1-.863.326zm-11.856-10.7a10.67 10.67 0 0 1 6.61 2.312l2.964 2.49-1.1-10.018a10.759 10.759 0 0 1 1.037-5.928 15.413 15.413 0 0 0 1.63-6.876c0-11.856-13.931-21.7-31.092-21.7h-2.96c-4.713 8.032-14.82 13.694-26.676 15a15.531 15.531 0 0 0-1.215 6.817c0 11.856 13.96 21.7 31.092 21.7a41.673 41.673 0 0 0 15.739-2.964 10.611 10.611 0 0 1 3.883-.83z" class="prefix__cls-1" data-name="Path 21033" transform="translate(23.057 21.014)"/>
            <path id="prefix__Path_21034" d="M37.65 16.3a1.838 1.838 0 0 1-1.126-.415c-.86-.682-1.808-1.363-2.757-2.015a1.778 1.778 0 0 1-.5-2.49 1.838 1.838 0 0 1 2.49-.5 33.575 33.575 0 0 1 2.96 2.22 1.807 1.807 0 0 1-1.067 3.2z" class="prefix__cls-1" data-name="Path 21034" transform="translate(64.726 20.806)"/>
            <path id="prefix__Path_21035" d="M37.313 14.542a1.541 1.541 0 0 1-.711 0 49.557 49.557 0 0 0-7.143-2.519 1.838 1.838 0 0 1-1.274-2.193 1.867 1.867 0 0 1 2.223-1.275 58.271 58.271 0 0 1 7.647 2.7 1.808 1.808 0 0 1 .919 2.371 1.778 1.778 0 0 1-1.66.919z" class="prefix__cls-1" data-name="Path 21035" transform="translate(55.252 16.699)"/>
            <path id="prefix__Path_21036" d="M29.793 11.772h-.237q-1.689-.237-3.468-.356a1.808 1.808 0 1 1 .326-3.586 25.329 25.329 0 0 1 3.675.385 1.782 1.782 0 1 1-.237 3.557z" class="prefix__cls-1" data-name="Path 21036" transform="translate(47.685 15.319)"/>
        </g>
    </g>
</svg>
