<svg xmlns="http://www.w3.org/2000/svg" width="137.999" height="92.34" viewBox="0 0 137.999 92.34">
    <defs>
        <style>
            .prefix__cls-1{fill:#153156}
        </style>
    </defs>
    <g id="prefix__Слой_2" data-name="Слой 2" transform="translate(.085)">
        <g id="prefix__Layer_1" data-name="Layer 1" transform="translate(-.085)">
            <path id="prefix__Path_20989" d="M67.621 72.852H36.086a2.077 2.077 0 0 1-2.106-2.106V64.4a2.106 2.106 0 0 1 4.183 0v4.385h27.351V14.542H38.163v7.069a2.106 2.106 0 1 1-4.183 0v-9.175a2.106 2.106 0 0 1 2.106-2.106h31.535a2.106 2.106 0 0 1 2.106 2.106v58.425a2.106 2.106 0 0 1-2.106 1.991z" class="prefix__cls-1" data-name="Path 20989" transform="translate(64.276 19.474)"/>
            <path id="prefix__Path_20990" d="M51.271 38.661a2.048 2.048 0 0 1-1.125-.346 27.092 27.092 0 0 0-29.284 0 2.077 2.077 0 0 1-3.231-1.76V2.106A2.106 2.106 0 0 1 19.736 0h31.535a2.106 2.106 0 0 1 2.049 2.106v34.449a2.106 2.106 0 0 1-2.106 2.106zM35.518 29.8a31.189 31.189 0 0 1 13.676 3.174V4.126H21.843v28.851A31.1 31.1 0 0 1 35.518 29.8z" class="prefix__cls-1" data-name="Path 20990" transform="translate(33.481)"/>
            <path id="prefix__Path_20991" d="M135.562 34.743H2.267a2.106 2.106 0 1 1 0-4.183h133.295a2.106 2.106 0 1 1 0 4.184z" class="prefix__cls-1" data-name="Path 20991" transform="translate(.085 57.582)"/>
            <path id="prefix__Path_20992" d="M35.113 72.852H3.376a2.106 2.106 0 0 1-2.106-2.107V12.436a2.106 2.106 0 0 1 2.106-2.106h31.737a2.106 2.106 0 0 1 2.106 2.106v9.175a2.106 2.106 0 1 1-4.212 0v-7.069H5.54v54.242h27.351V64.4a2.106 2.106 0 0 1 4.212 0v6.463a2.106 2.106 0 0 1-1.991 1.991z" class="prefix__cls-1" data-name="Path 20992" transform="translate(2.64 19.474)"/>
            <path id="prefix__Path_20993" d="M44.322 72.946a31.333 31.333 0 1 1 31.3-31.189 31.333 31.333 0 0 1-31.3 31.189zm0-58.425a27.061 27.061 0 1 1 0 .115z" class="prefix__cls-1" data-name="Path 20993" transform="translate(24.677 19.379)"/>
            <path id="prefix__Path_20994" d="M37.016 62.73a31.737 31.737 0 0 1-9.925-1.616 2.106 2.106 0 0 1-1.414-1.991V41h-6.751a2.106 2.106 0 0 1-1.9-1.212 2.135 2.135 0 0 1 .317-2.25L35.4 16.394a2.193 2.193 0 0 1 3.2 0l18.09 21.148a2.135 2.135 0 0 1 .289 2.25A2.048 2.048 0 0 1 55.077 41h-6.722v18.239a2.106 2.106 0 0 1-1.443 1.991 31.449 31.449 0 0 1-9.9 1.5zm-7.155-5.164a26.659 26.659 0 0 0 14.282 0V38.812a2.106 2.106 0 0 1 2.02-2.048h4.3L36.93 20.924 23.485 36.763h4.27a2.077 2.077 0 0 1 2.106 2.106z" class="prefix__cls-1" data-name="Path 20994" transform="translate(31.984 29.596)"/>
            <path id="prefix__Path_20995" d="M21.987 28.684a2.077 2.077 0 0 1-2.077-2.077v-2.02a2.106 2.106 0 1 1 4.183 0v2.02a2.077 2.077 0 0 1-2.106 2.077z" class="prefix__cls-1" data-name="Path 20995" transform="translate(37.752 41.916)"/>
            <path id="prefix__Path_20996" d="M28.376 28.523a2.106 2.106 0 0 1-2.106-2.078v-2.019a2.106 2.106 0 0 1 4.212 0v2.02a2.106 2.106 0 0 1-2.106 2.077z" class="prefix__cls-1" data-name="Path 20996" transform="translate(49.769 42.077)"/>
            <path id="prefix__Path_20997" d="M25.206 44.037a2.106 2.106 0 0 1-2.106-2.106V22.456a2.092 2.092 0 1 1 4.183 0v19.475a2.106 2.106 0 0 1-2.078 2.106z" class="prefix__cls-1" data-name="Path 20997" transform="translate(43.794 38.363)"/>
        </g>
    </g>
</svg>
