<svg xmlns="http://www.w3.org/2000/svg" width="80.617" height="75.086" viewBox="0 0 80.617 75.086">
    <defs>
        <style>
            .prefix__cls-1{fill:#ddbe82}
        </style>
    </defs>
    <g id="prefix__Слой_2" data-name="Слой 2" transform="translate(.01 .019)">
        <g id="prefix__Layer_1" data-name="Layer 1" transform="translate(-.01 -.019)">
            <path id="prefix__Path_18097" d="M37.528 75.056h-5.074a3.5 3.5 0 0 1-3.519-3.5v-5.438a30.083 30.083 0 0 1-5.545-2.293l-3.849 3.833a3.5 3.5 0 0 1-4.948 0L7.4 60.479a3.519 3.519 0 0 1 0-4.964l3.849-3.849a29.093 29.093 0 0 1-2.309-5.545H3.5a3.5 3.5 0 0 1-3.5-3.5V32.454a3.519 3.519 0 0 1 3.5-3.519h5.438a29.517 29.517 0 0 1 2.309-5.545L7.4 19.542a3.5 3.5 0 0 1 0-4.948L14.593 7.4a3.5 3.5 0 0 1 4.948 0l3.849 3.849a29.093 29.093 0 0 1 5.545-2.309V3.5A3.5 3.5 0 0 1 32.454 0h5.074a1.367 1.367 0 0 1 1.382 1.382v72.26a1.367 1.367 0 0 1-1.382 1.414zM23.155 60.73a1.241 1.241 0 0 1 .691.188 27.019 27.019 0 0 0 6.818 2.812 1.382 1.382 0 0 1 1.036 1.336v6.488a.738.738 0 0 0 .754.738h3.676V2.765h-3.676a.738.738 0 0 0-.754.735v6.491a1.382 1.382 0 0 1-1.037 1.335 26.5 26.5 0 0 0-6.818 2.812 1.382 1.382 0 0 1-1.665-.22l-4.586-4.493a.754.754 0 0 0-1.052 0l-7.117 7.116a.754.754 0 0 0 0 1.052l4.587 4.587a1.382 1.382 0 0 1 .126 1.665 26.956 26.956 0 0 0-2.828 6.818A1.382 1.382 0 0 1 9.975 31.7H3.5a.738.738 0 0 0-.738.754v10.164a.738.738 0 0 0 .738.738h6.491a1.382 1.382 0 0 1 1.335 1.037 26.5 26.5 0 0 0 2.812 6.818 1.414 1.414 0 0 1-.22 1.681l-4.493 4.571a.754.754 0 0 0 0 1.052l7.195 7.195a.723.723 0 0 0 1.052 0l4.587-4.587a1.351 1.351 0 0 1 .896-.393z" class="prefix__cls-1" data-name="Path 18097" transform="translate(.016 .029)"/>
            <path id="prefix__Path_18098" d="M34.737 64.6a29.847 29.847 0 0 1 0-59.693 1.382 1.382 0 0 1 1.382 1.382v56.885a1.367 1.367 0 0 1-1.382 1.43zm-1.4-56.96a27.113 27.113 0 0 0 0 54.164z" class="prefix__cls-1" data-name="Path 18098" transform="translate(2.807 2.832)"/>
            <path id="prefix__Path_18099" d="M31.042 49.974a19.133 19.133 0 1 1 0-38.251 1.367 1.367 0 0 1 1.382 1.367v35.5a1.382 1.382 0 0 1-1.382 1.384zm-1.4-35.439a16.369 16.369 0 0 0 0 32.611z" class="prefix__cls-1" data-name="Path 18099" transform="translate(6.501 6.717)"/>
            <path id="prefix__Path_18100" d="M47.077 75.067a1.382 1.382 0 0 1-1.32-1.382V37.46a1.382 1.382 0 0 1 1.382-1.382H59.2L30.269 2.288A1.382 1.382 0 1 1 32.374.5l30.821 36.13a1.4 1.4 0 0 1-1.052 2.278H48.46v34.777a1.367 1.367 0 0 1-1.382 1.382z" class="prefix__cls-1" data-name="Path 18100" transform="translate(17.093 .019)"/>
            <path id="prefix__Path_18101" d="M79.225 48.8H1.388a1.4 1.4 0 0 1 0-2.8h77.837a1.382 1.382 0 0 1 0 2.765z" class="prefix__cls-1" data-name="Path 18101" transform="translate(.01 26.29)"/>
            <path id="prefix__Path_18102" d="M41.342 27.232a1.382 1.382 0 0 1-1.382-1.382V21.7a1.382 1.382 0 1 1 2.765 0v4.147a1.367 1.367 0 0 1-1.382 1.382z" class="prefix__cls-1" data-name="Path 18102" transform="translate(22.828 11.63)"/>
            <path id="prefix__Path_18103" d="M32.712 31.587A1.367 1.367 0 0 1 31.33 30.2v-1.928a1.382 1.382 0 1 1 2.765 0V30.2a1.382 1.382 0 0 1-1.382 1.382z" class="prefix__cls-1" data-name="Path 18103" transform="translate(17.901 15.38)"/>
            <path id="prefix__Path_18104" d="M34.579 50.062a6.283 6.283 0 0 1-6.519-6.174 1.382 1.382 0 0 1 2.765 0 3.77 3.77 0 1 0 3.754-3.388 6.189 6.189 0 1 1 6.521-6.178 1.382 1.382 0 1 1-2.765 0 3.77 3.77 0 1 0-3.754 3.425 6.189 6.189 0 1 1 0 12.347z" class="prefix__cls-1" data-name="Path 18104" transform="translate(16.034 16.086)"/>
            <path id="prefix__Path_18105" d="M32.712 45.294a1.367 1.367 0 0 1-1.382-1.382v-2.2a1.382 1.382 0 1 1 2.765 0v2.2a1.382 1.382 0 0 1-1.383 1.382z" class="prefix__cls-1" data-name="Path 18105" transform="translate(17.901 23.053)"/>
            <path id="prefix__Path_18106" d="M32.15 15.116a1.367 1.367 0 0 1-1.367-1.367v-1.193a1.382 1.382 0 1 1 2.749 0v1.225a1.367 1.367 0 0 1-1.382 1.335z" class="prefix__cls-1" data-name="Path 18106" transform="translate(17.584 6.324)"/>
            <path id="prefix__Path_18107" d="M33.32 26.627a4.493 4.493 0 0 1-4.587-4.383 1.382 1.382 0 1 1 2.749 0 1.869 1.869 0 1 0 1.838-1.571 4.383 4.383 0 1 1 4.6-4.383 1.382 1.382 0 1 1-2.749 0 1.854 1.854 0 0 0-3.692 0 1.744 1.744 0 0 0 1.838 1.571 4.383 4.383 0 0 1 0 8.765z" class="prefix__cls-1" data-name="Path 18107" transform="translate(16.414 6.83)"/>
            <path id="prefix__Path_18108" d="M32.15 23.715a1.367 1.367 0 0 1-1.367-1.382v-1.367a1.382 1.382 0 1 1 2.749 0v1.367a1.367 1.367 0 0 1-1.382 1.382z" class="prefix__cls-1" data-name="Path 18108" transform="translate(17.584 11.125)"/>
        </g>
    </g>
</svg>
