<svg xmlns="http://www.w3.org/2000/svg" id="prefix__Слой_2" width="80.725" height="80.779" data-name="Слой 2" viewBox="0 0 80.725 80.779">
    <defs>
        <style>
            .prefix__cls-1{fill:#ddbe82}
        </style>
    </defs>
    <g id="prefix___1" data-name="1">
        <path id="prefix__Path_18067" d="M37.106 19.116a1.494 1.494 0 0 1-1.052-2.545l2.179-2.179a1.524 1.524 0 0 1 2.1 2.1l-2.179 2.179a1.524 1.524 0 0 1-1.048.445z" class="prefix__cls-1" data-name="Path 18067" transform="translate(18.623 7.421)"/>
        <path id="prefix__Path_18068" d="M31.93 36.036a7.62 7.62 0 0 1-7.468-7.209 6.675 6.675 0 0 1 1.936-5 1.524 1.524 0 1 1 2.1 2.1 3.688 3.688 0 0 0-1.052 2.789 4.42 4.42 0 0 0 1.326 3.048 3.917 3.917 0 1 0 5.517-5.517 7.087 7.087 0 0 1-.274-10 7.087 7.087 0 0 1 10 .274 7.514 7.514 0 0 1 2.21 4.923 6.66 6.66 0 0 1-1.936 4.984 1.493 1.493 0 0 1-2.118-2.1 3.673 3.673 0 0 0 1.052-2.789 4.42 4.42 0 0 0-1.323-3.045 4.13 4.13 0 0 0-5.791-.274 4.1 4.1 0 0 0 .274 5.791 7.087 7.087 0 0 1 .274 10 6.645 6.645 0 0 1-4.727 2.025z" class="prefix__cls-1" data-name="Path 18068" transform="translate(12.765 7.51)"/>
        <path id="prefix__Path_18069" d="M25.5 30.957a1.524 1.524 0 0 1-1.052-2.545l2.439-2.439a1.524 1.524 0 1 1 2.1 2.1l-2.439 2.439a1.524 1.524 0 0 1-1.048.445z" class="prefix__cls-1" data-name="Path 18069" transform="translate(12.553 13.244)"/>
        <path id="prefix__Path_18070" d="M34.137 68.584a.99.99 0 0 1-.3 0 1.524 1.524 0 0 1-1.082-.914 42.125 42.125 0 0 0-23.81-23.776 1.511 1.511 0 0 1-.518-2.454l20.91-20.956A70.336 70.336 0 0 1 75.059 0a1.417 1.417 0 0 1 1.128.442 1.524 1.524 0 0 1 .4 1.082 70.336 70.336 0 0 1-20.442 45.723L35.189 68.2a1.524 1.524 0 0 1-1.052.384zM12.1 41.989A44.991 44.991 0 0 1 34.64 64.53l19.4-19.4A67.318 67.318 0 0 0 73.535 3.049 67.257 67.257 0 0 0 31.5 22.557z" class="prefix__cls-1" data-name="Path 18070" transform="translate(4.141 .002)"/>
        <path id="prefix__Path_18071" d="M39.538 52.746a23.273 23.273 0 0 1-23-26.549 1.524 1.524 0 0 1 .427-.853l8.017-8.078a70.655 70.655 0 0 1 14.19-10.927 1.372 1.372 0 0 1 .777-.2A23.272 23.272 0 0 1 62.81 29.078a1.357 1.357 0 0 1-.2.762 70.107 70.107 0 0 1-10.819 14.189l-8.078 8.062a1.524 1.524 0 0 1-.853.427 24.507 24.507 0 0 1-3.322.229zM19.42 27.1a20.3 20.3 0 0 0 22.541 22.537l7.727-7.727A67.7 67.7 0 0 0 59.93 28.788a20.285 20.285 0 0 0-19.584-19.66 67.2 67.2 0 0 0-13.2 10.257z" class="prefix__cls-1" data-name="Path 18071" transform="translate(8.495 3.221)"/>
        <path id="prefix__Path_18072" d="M9.756 48.971a1.433 1.433 0 0 1-1.056-.442 1.524 1.524 0 0 1 0-2.1l9.464-9.464a1.524 1.524 0 0 1 2.1 2.1L10.8 48.529a1.433 1.433 0 0 1-1.044.442z" class="prefix__cls-1" data-name="Path 18072" transform="translate(4.29 19.249)"/>
        <path id="prefix__Path_18073" d="M1.506 44.021a1.524 1.524 0 0 1-1.052-.442 1.524 1.524 0 0 1 0-2.1l9.434-9.464a1.524 1.524 0 0 1 2.1 2.1l-9.461 9.464a1.524 1.524 0 0 1-1.021.442z" class="prefix__cls-1" data-name="Path 18073" transform="translate(-.034 16.655)"/>
        <path id="prefix__Path_18074" d="M14.7 57.211a1.524 1.524 0 0 1-1.052-2.545L23.11 45.2a1.524 1.524 0 0 1 2.1 2.1l-9.464 9.464a1.524 1.524 0 0 1-1.046.447z" class="prefix__cls-1" data-name="Path 18074" transform="translate(6.893 23.568)"/>
    </g>
</svg>
