<svg xmlns="http://www.w3.org/2000/svg" id="prefix__Слой_2" width="80.842" height="73.305" data-name="Слой 2" viewBox="0 0 80.842 73.305">
    <defs>
        <style>
            .prefix__cls-1{fill:#ddbe82}
        </style>
    </defs>
    <g id="prefix__Layer_1" data-name="Layer 1">
        <path id="prefix__Path_18075" d="M36.833 53.777H25.915a1.317 1.317 0 0 1-1.332-1.332V30.859a3.907 3.907 0 0 1-1.1.161h-.22a3.746 3.746 0 0 1-3.746-3.746V15.317a6.117 6.117 0 0 1 6.1-6.117h11.5a6.117 6.117 0 0 1 6.1 6.117V27.3a3.746 3.746 0 0 1-3.746 3.746h-.234a3.908 3.908 0 0 1-1.1-.161v21.56a1.332 1.332 0 0 1-1.317 1.332zm-9.586-2.663H35.5V27.3a1.332 1.332 0 1 1 2.663 0 1.1 1.1 0 0 0 1.1 1.083h.22a1.083 1.083 0 0 0 1.082-1.083V15.317a3.454 3.454 0 0 0-3.439-3.483h-11.5a3.454 3.454 0 0 0-3.439 3.454v11.986a1.083 1.083 0 0 0 1.083 1.083h.22a1.1 1.1 0 0 0 1.1-1.083 1.332 1.332 0 0 1 2.663 0z" class="prefix__cls-1" data-name="Path 18075" transform="translate(9.047 3.971)"/>
        <path id="prefix__Path_18076" d="M24.312 25.9a1.332 1.332 0 0 1-1.332-1.332v-8.146a1.332 1.332 0 1 1 2.663 0v8.151a1.332 1.332 0 0 1-1.331 1.327z" class="prefix__cls-1" data-name="Path 18076" transform="translate(10.65 6.701)"/>
        <path id="prefix__Path_18077" d="M31.772 25.9a1.332 1.332 0 0 1-1.332-1.332v-8.146a1.332 1.332 0 1 1 2.663 0v8.151a1.332 1.332 0 0 1-1.331 1.327z" class="prefix__cls-1" data-name="Path 18077" transform="translate(14.108 6.701)"/>
        <path id="prefix__Path_18078" d="M29.632 13.181a6.5 6.5 0 0 1-6.352-6.63 6.351 6.351 0 0 1 12.7 0 6.5 6.5 0 0 1-6.348 6.63zm0-10.61a3.849 3.849 0 0 0-3.688 3.981 3.7 3.7 0 1 0 7.317 0 3.849 3.849 0 0 0-3.629-3.981z" class="prefix__cls-1" data-name="Path 18078" transform="translate(10.789 -.2)"/>
        <path id="prefix__Path_18079" d="M28.042 46.366a1.332 1.332 0 0 1-1.332-1.332V26.522a1.332 1.332 0 1 1 2.663 0v18.513a1.332 1.332 0 0 1-1.331 1.331z" class="prefix__cls-1" data-name="Path 18079" transform="translate(12.379 11.382)"/>
        <path id="prefix__Path_18080" d="M49.574 60.078a15.454 15.454 0 1 1 15.454-15.454 15.454 15.454 0 0 1-15.454 15.454zm0-28.245a12.78 12.78 0 1 1 0 .015z" class="prefix__cls-1" data-name="Path 18080" transform="translate(15.813 13.226)"/>
        <path id="prefix__Path_18081" d="M48.054 38.374a1.332 1.332 0 0 1-1.332-1.332V17.753h-7.99a1.332 1.332 0 1 1 0-2.663h9.322a1.332 1.332 0 0 1 1.332 1.332v20.605a1.332 1.332 0 0 1-1.332 1.346z" class="prefix__cls-1" data-name="Path 18081" transform="translate(17.333 6.701)"/>
        <path id="prefix__Path_18082" d="M43.886 18.28h-5.152a1.332 1.332 0 0 1-1.01-2.21l1.463-1.654a1.317 1.317 0 0 1 1.873-.132 1.346 1.346 0 0 1 .424 1.332H43.9a1.332 1.332 0 0 1 0 2.663z" class="prefix__cls-1" data-name="Path 18082" transform="translate(17.331 6.175)"/>
        <path id="prefix__Path_18083" d="M40.188 19.367a1.361 1.361 0 0 1-1.01-.454l-1.463-1.653a1.332 1.332 0 0 1 1.01-2.21h5.151a1.332 1.332 0 0 1 0 2.663h-2.4a1.3 1.3 0 0 1-.424 1.317 1.244 1.244 0 0 1-.863.337z" class="prefix__cls-1" data-name="Path 18083" transform="translate(17.326 6.682)"/>
        <path id="prefix__Path_18084" d="M42.522 51.256a1.332 1.332 0 0 1-1.332-1.332v-5.546a1.332 1.332 0 0 1 2.649 0V50a1.332 1.332 0 0 1-1.317 1.259z" class="prefix__cls-1" data-name="Path 18084" transform="translate(19.09 19.722)"/>
        <path id="prefix__Path_18085" d="M47.682 51.3a1.332 1.332 0 0 1-1.332-1.332v-5.546a1.332 1.332 0 0 1 2.663 0v5.62a1.332 1.332 0 0 1-1.331 1.258z" class="prefix__cls-1" data-name="Path 18085" transform="translate(21.481 19.678)"/>
        <path id="prefix__Path_18086" d="M46.311 41.829a5.005 5.005 0 1 1 4.859-4.99 4.9 4.9 0 0 1-4.859 4.99zm0-7.317a2.342 2.342 0 1 0 2.137 2.342 2.254 2.254 0 0 0-2.137-2.354z" class="prefix__cls-1" data-name="Path 18086" transform="translate(19.076 14.455)"/>
        <path id="prefix__Path_18087" d="M47.39 55.522a15.5 15.5 0 0 1-4.127-.571 1.288 1.288 0 0 1-.483-.263 1.2 1.2 0 0 1-.556 0 15.7 15.7 0 0 1-2.751-1.288 1.346 1.346 0 0 1-.629-.907 3.409 3.409 0 0 1 0-.556V43.6a4.639 4.639 0 0 1 4.624-4.6H51.4a4.639 4.639 0 0 1 4.639 4.639v8.269a3.408 3.408 0 0 1 0 .556 1.346 1.346 0 0 1-.629.907 15.7 15.7 0 0 1-2.751 1.288 1 1 0 0 1-.541 0 1.464 1.464 0 0 1-.5.263 15.5 15.5 0 0 1-4.229.6zm-2.458-2.912a12.483 12.483 0 0 0 4.888 0v-.746a1.332 1.332 0 0 1 1.332-1.332 1.346 1.346 0 0 1 1.332 1.244 8.446 8.446 0 0 0 .82-.4V43.6a1.976 1.976 0 0 0-1.976-1.976h-7.86a1.976 1.976 0 0 0-1.976 1.976v7.786l.834.4a1.346 1.346 0 0 1 1.332-1.244 1.332 1.332 0 0 1 1.332 1.332z" class="prefix__cls-1" data-name="Path 18087" transform="translate(17.997 17.782)"/>
        <path id="prefix__Path_18088" d="M15.454 60.078a15.454 15.454 0 1 1 15.454-15.454 15.454 15.454 0 0 1-15.454 15.454zm0-28.245a12.782 12.782 0 1 1 0 .015z" class="prefix__cls-1" data-name="Path 18088" transform="translate(0 13.226)"/>
        <path id="prefix__Path_18089" d="M10.982 38.374a1.332 1.332 0 0 1-1.332-1.332v-20.62a1.332 1.332 0 0 1 1.332-1.332H20.3a1.332 1.332 0 0 1 0 2.663h-7.99v19.274a1.332 1.332 0 0 1-1.332 1.346z" class="prefix__cls-1" data-name="Path 18089" transform="translate(4.472 6.701)"/>
        <path id="prefix__Path_18090" d="M18.983 18.278h-5.151a1.332 1.332 0 0 1 0-2.663h2.415a1.346 1.346 0 0 1 .424-1.332 1.332 1.332 0 0 1 1.873.132l1.463 1.654A1.332 1.332 0 0 1 19 18.278z" class="prefix__cls-1" data-name="Path 18090" transform="translate(5.793 6.177)"/>
        <path id="prefix__Path_18091" d="M17.534 19.367a1.244 1.244 0 0 1-.863-.337 1.3 1.3 0 0 1-.424-1.317h-2.415a1.332 1.332 0 1 1 0-2.663h5.151a1.332 1.332 0 0 1 1.01 2.21l-1.463 1.654a1.361 1.361 0 0 1-.996.453z" class="prefix__cls-1" data-name="Path 18091" transform="translate(5.793 6.682)"/>
        <path id="prefix__Path_18092" d="M13.562 51.3a1.332 1.332 0 0 1-1.332-1.332v-5.546a1.332 1.332 0 0 1 2.663 0v5.62a1.332 1.332 0 0 1-1.331 1.258z" class="prefix__cls-1" data-name="Path 18092" transform="translate(5.668 19.678)"/>
        <path id="prefix__Path_18093" d="M8.422 51.3a1.332 1.332 0 0 1-1.332-1.332v-5.546a1.332 1.332 0 0 1 2.663 0v5.62A1.332 1.332 0 0 1 8.422 51.3z" class="prefix__cls-1" data-name="Path 18093" transform="translate(3.286 19.678)"/>
        <path id="prefix__Path_18094" d="M12.059 41.825a5.005 5.005 0 0 1 0-10 5.005 5.005 0 0 1 0 10zm0-7.317a2.342 2.342 0 0 0 0 4.668 2.342 2.342 0 0 0 0-4.668z" class="prefix__cls-1" data-name="Path 18094" transform="translate(3.395 14.459)"/>
        <path id="prefix__Path_18095" d="M13.27 55.522a15.5 15.5 0 0 1-4.127-.571 1.463 1.463 0 0 1-.5-.263 1.156 1.156 0 0 1-.541 0A15.234 15.234 0 0 1 5.353 53.4a1.346 1.346 0 0 1-.629-.893 3.776 3.776 0 0 1 0-.571V43.6A4.639 4.639 0 0 1 9.3 39h7.932a4.625 4.625 0 0 1 4.625 4.639v8.269a3.747 3.747 0 0 1 0 .571 1.463 1.463 0 0 1-.629.893 15.7 15.7 0 0 1-2.751 1.288 1.039 1.039 0 0 1-.556 0 1.463 1.463 0 0 1-.483.263 15.5 15.5 0 0 1-4.171.6zM10.826 52.6a12.483 12.483 0 0 0 4.888 0v-.746a1.332 1.332 0 0 1 2.59-.073 8.7 8.7 0 0 0 .834-.4V43.6a1.961 1.961 0 0 0-1.961-1.976H9.3A1.961 1.961 0 0 0 7.328 43.6v7.786q.424.22.834.4a1.332 1.332 0 1 1 2.663.088z" class="prefix__cls-1" data-name="Path 18095" transform="translate(2.184 17.782)"/>
        <path id="prefix__Path_18096" d="M42.3 40.5H20.582a1.332 1.332 0 0 1 0-2.663H42.3a1.332 1.332 0 0 1 0 2.663z" class="prefix__cls-1" data-name="Path 18096" transform="translate(8.922 17.245)"/>
    </g>
</svg>
