<svg xmlns="http://www.w3.org/2000/svg" width="83" height="87.316" viewBox="0 0 83 87.316">
    <defs>
        <style>
            .prefix__cls-1{fill:#ddbe82}
        </style>
    </defs>
    <g id="prefix__Слой_2" data-name="Слой 2">
        <g id="prefix__Layer_1" data-name="Layer 1">
            <path id="prefix__Path_20998" d="M24.076 61.181a1.483 1.483 0 0 1-1.516-1.516V46.92a7.68 7.68 0 0 1 7.68-7.68h22.225a1.5 1.5 0 0 1 .816 2.766L24.959 60.931a1.483 1.483 0 0 1-.883.25zm6.164-18.909a4.648 4.648 0 0 0-4.648 4.648v9.913L47.45 42.272z" class="prefix__cls-1" data-name="Path 20998" transform="translate(15.025 26.134)"/>
            <path id="prefix__Path_20999" d="M49.673 15.366H9.156A1.516 1.516 0 0 1 7.64 13.85V7.286A1.516 1.516 0 0 1 9.156 5.77h40.517a1.516 1.516 0 0 1 1.516 1.516v6.564a1.516 1.516 0 0 1-1.516 1.516zm-39-3.032h37.551V8.8H10.672z" class="prefix__cls-1" data-name="Path 20999" transform="translate(5.088 3.843)"/>
            <path id="prefix__Path_21000" d="M29.934 17.672H17.606a1.516 1.516 0 1 1 0-3.032h12.328a1.516 1.516 0 0 1 0 3.032z" class="prefix__cls-1" data-name="Path 21000" transform="translate(10.716 9.75)"/>
            <path id="prefix__Path_21001" d="M50.023 22.6H9.156a1.516 1.516 0 0 1 0-3.032h40.867a1.516 1.516 0 0 1 0 3.032z" class="prefix__cls-1" data-name="Path 21001" transform="translate(5.088 13.034)"/>
            <path id="prefix__Path_21002" d="M41.986 27.549H9.1a1.533 1.533 0 0 1 0-3.049h32.886a1.533 1.533 0 0 1 0 3.049z" class="prefix__cls-1" data-name="Path 21002" transform="translate(5.145 16.317)"/>
            <path id="prefix__Path_21003" d="M33.463 32.472H9.156a1.516 1.516 0 0 1 0-3.032h24.307a1.516 1.516 0 0 1 0 3.032z" class="prefix__cls-1" data-name="Path 21003" transform="translate(5.088 19.607)"/>
            <path id="prefix__Path_21004" d="M25.25 37.4H9.156a1.516 1.516 0 0 1 0-3.032H25.25a1.516 1.516 0 1 1 0 3.032z" class="prefix__cls-1" data-name="Path 21004" transform="translate(5.088 22.89)"/>
            <path id="prefix__Path_21005" d="M22.65 63.072a1.483 1.483 0 0 1-1.066-.433l-6.3-6.3a1.533 1.533 0 0 1 0-2.149L57.1 12.376a1.533 1.533 0 0 1 2.149 0l6.3 6.331a1.533 1.533 0 0 1 0 2.149L51.238 35.15a1.516 1.516 0 0 1-2.149-2.132l13.328-13.245-4.148-4.148-39.834 39.734 4.148 4.148 20.425-20.442a1.516 1.516 0 0 1 2.149 0 1.483 1.483 0 0 1 0 2.132L23.732 62.639a1.5 1.5 0 0 1-1.083.433z" class="prefix__cls-1" data-name="Path 21005" transform="translate(9.887 7.949)"/>
            <path id="prefix__Path_21006" d="M47.75 22.847a1.5 1.5 0 0 1-1.066-.433l-6.3-6.3a1.533 1.533 0 0 1 0-2.149l3.982-3.982a1.533 1.533 0 0 1 2.149 0l6.3 6.3a1.533 1.533 0 0 1 0 2.149l-3.982 3.982a1.516 1.516 0 0 1-1.083.433zM43.6 15.05l4.15 4.15 1.85-1.85-4.15-4.15z" class="prefix__cls-1" data-name="Path 21006" transform="translate(26.604 6.358)"/>
            <path id="prefix__Path_21007" d="M49.065 19.012a1.483 1.483 0 0 1-1.065-.45l-4.748-4.748a1.483 1.483 0 0 1 0-2.132l2.216-2.232A4.348 4.348 0 0 1 48.8 8.183a5.081 5.081 0 0 1 4.8 4.8 4.432 4.432 0 0 1-1.266 3.332l-2.2 2.249a1.483 1.483 0 0 1-1.066.45zm-2.6-6.264l2.6 2.6 1.15-1.15a1.4 1.4 0 0 0 .383-1.066 2.066 2.066 0 0 0-1.916-1.916 1.349 1.349 0 0 0-1.066.383z" class="prefix__cls-1" data-name="Path 21007" transform="translate(28.504 5.445)"/>
            <path id="prefix__Path_21008" d="M14.605 49.254a1.449 1.449 0 0 1-1.066-.45 1.516 1.516 0 0 1-.383-1.516l2.9-9.2a1.516 1.516 0 0 1 1.083-1.016 1.566 1.566 0 0 1 1.433.4l6.3 6.3a1.566 1.566 0 0 1 .4 1.433 1.516 1.516 0 0 1-1.016 1.083l-9.2 2.9a2.1 2.1 0 0 1-.45.067zm3.582-7.864l-1.266 4.032 4.032-1.266z" class="prefix__cls-1" data-name="Path 21008" transform="translate(8.718 24.666)"/>
            <path id="prefix__Path_21009" d="M39.1 74.1H7.68A7.68 7.68 0 0 1 0 66.421v-3a1.516 1.516 0 1 1 3.032 0v3a4.648 4.648 0 0 0 4.648 4.648h30.954l27.34-18.209v-31.5a1.516 1.516 0 1 1 3.032 0v32.32a1.533 1.533 0 0 1-.683 1.249L39.984 73.852a1.483 1.483 0 0 1-.883.25z" class="prefix__cls-1" data-name="Path 21009" transform="translate(0 13.213)"/>
            <path id="prefix__Path_21010" d="M1.516 68.606A1.516 1.516 0 0 1 0 67.09V7.68A7.7 7.7 0 0 1 7.68 0h53.645a7.7 7.7 0 0 1 7.68 7.68v6.664a1.516 1.516 0 1 1-3.032 0V7.68a4.665 4.665 0 0 0-4.648-4.648H7.68A4.648 4.648 0 0 0 3.032 7.68v59.41a1.516 1.516 0 0 1-1.516 1.516z" class="prefix__cls-1" data-name="Path 21010"/>
            <path id="prefix__Path_21011" d="M47.606 22.721a1.516 1.516 0 0 1-1.516-1.516v-1.066a1.533 1.533 0 0 1 3.049 0v1.066a1.533 1.533 0 0 1-1.533 1.516z" class="prefix__cls-1" data-name="Path 21011" transform="translate(30.696 12.498)"/>
            <path id="prefix__Path_21012" d="M49.936 23.6h-1.05a1.516 1.516 0 1 1 0-3.032h1.05a1.516 1.516 0 1 1 0 3.032z" class="prefix__cls-1" data-name="Path 21012" transform="translate(31.548 13.7)"/>
            <path id="prefix__Path_21013" d="M47.606 25.861a1.516 1.516 0 0 1-1.516-1.516v-1.066a1.533 1.533 0 0 1 3.049 0v1.066a1.533 1.533 0 0 1-1.533 1.516z" class="prefix__cls-1" data-name="Path 21013" transform="translate(30.696 14.589)"/>
            <path id="prefix__Path_21014" d="M46.8 23.6h-1.05a1.516 1.516 0 1 1 0-3.032h1.05a1.516 1.516 0 0 1 0 3.032z" class="prefix__cls-1" data-name="Path 21014" transform="translate(29.457 13.7)"/>
            <path id="prefix__Path_21015" d="M42.086 47.112A1.516 1.516 0 0 1 40.57 45.6v-1.05a1.516 1.516 0 1 1 3.032 0v1.05a1.516 1.516 0 0 1-1.516 1.516z" class="prefix__cls-1" data-name="Path 21015" transform="translate(27.02 28.658)"/>
            <path id="prefix__Path_21016" d="M44.345 47.959h-1.066a1.533 1.533 0 0 1 0-3.049h1.066a1.533 1.533 0 0 1 0 3.049z" class="prefix__cls-1" data-name="Path 21016" transform="translate(27.909 29.91)"/>
            <path id="prefix__Path_21017" d="M42.086 50.252a1.516 1.516 0 0 1-1.516-1.516v-1.05a1.516 1.516 0 1 1 3.032 0v1.05a1.516 1.516 0 0 1-1.516 1.516z" class="prefix__cls-1" data-name="Path 21017" transform="translate(27.02 30.749)"/>
            <path id="prefix__Path_21018" d="M41.205 47.959h-1.066a1.533 1.533 0 0 1 0-3.049h1.066a1.533 1.533 0 0 1 0 3.049z" class="prefix__cls-1" data-name="Path 21018" transform="translate(25.818 29.91)"/>
        </g>
    </g>
</svg>
