<svg xmlns="http://www.w3.org/2000/svg" id="prefix__tg1" width="19.565" height="25.379" viewBox="0 0 19.565 25.379">
    <defs>
        <style>
            .prefix__cls-1{fill:#636363}
        </style>
    </defs>
    <path id="prefix__TG" d="M4.735 19.117l2.412 6.075 3.127-3.127 5.45 4.288L19.565 9.2 0 17.33zm9.2-5l-5.986 5.45-.715 2.859L5.9 19.027z" class="prefix__cls-1" transform="translate(0 -.974)"/>
    <g id="prefix__Group_1922" data-name="Group 1922" transform="translate(.266)">
        <path id="prefix__Path_9872" d="M.3 2.5A2.412 2.412 0 0 1 2.891 0a2.4 2.4 0 0 1 2.054 1.161l-.893.447A1.631 1.631 0 0 0 2.891.893 1.528 1.528 0 0 0 1.372 2.5a1.528 1.528 0 0 0 1.519 1.609 1.2 1.2 0 0 0 1.161-.715l.893.447A2.223 2.223 0 0 1 2.891 5 2.412 2.412 0 0 1 .3 2.5z" class="prefix__cls-1" data-name="Path 9872" transform="translate(-.298 .008)"/>
        <path id="prefix__Path_9873" d="M9.495 4.924V2.869H7.172v2.055H6.1V.1h1.072v1.876h2.323V.1h.983v4.824z" class="prefix__cls-1" data-name="Path 9873" transform="translate(-.916 -.004)"/>
        <path id="prefix__Path_9874" d="M15.352 4.924l-.268-.8h-2.055l-.268.8H11.6L13.476.1h1.34l1.876 4.824zm-1.34-3.842L13.3 3.138h1.519z" class="prefix__cls-1" data-name="Path 9874" transform="translate(-1.503 -.004)"/>
        <path id="prefix__Path_9875" d="M18.729 4.924V.993H17.3V.1h3.842v.893h-1.43v3.931z" class="prefix__cls-1" data-name="Path 9875" transform="translate(-2.111 -.004)"/>
    </g>
</svg>
