<svg xmlns="http://www.w3.org/2000/svg" id="prefix__Слой_2" width="80.107" height="63.222" data-name="Слой 2" viewBox="0 0 80.107 63.222">
    <defs>
        <style>
            .prefix__cls-1{fill:#ddbe82}
        </style>
    </defs>
    <g id="prefix___1" data-name="1">
        <path id="prefix__Path_18055" d="M24.944 38.448a1.423 1.423 0 0 1-1.423-1.423V26.067a1.423 1.423 0 1 1 2.775 0v10.958a1.423 1.423 0 0 1-1.352 1.423z" class="prefix__cls-1" data-name="Path 18055" transform="translate(9.937 10.294)"/>
        <path id="prefix__Path_18056" d="M14.4 42.487H9.594a4.924 4.924 0 0 1-4.924-4.924V22.208a6.959 6.959 0 0 1 4.6-6.489l2.021-.726a1.423 1.423 0 1 1 .968 2.619l-2.021.726a4.17 4.17 0 0 0-2.789 3.871v15.354a2.163 2.163 0 0 0 2.149 2.149H14.4a1.423 1.423 0 1 1 0 2.846z" class="prefix__cls-1" data-name="Path 18056" transform="translate(1.976 6.255)"/>
        <path id="prefix__Path_18057" d="M32.518 27.9a1.423 1.423 0 0 1-1.423-1.423L31 21.386a4.027 4.027 0 0 0-2.747-3.2l-1.281-.342a1.423 1.423 0 1 1 .939-2.619l1.324.47a6.8 6.8 0 0 1 4.6 5.806l.085 5.052a1.423 1.423 0 0 1-1.423 1.423z" class="prefix__cls-1" data-name="Path 18057" transform="translate(10.887 6.35)"/>
        <path id="prefix__Path_18058" d="M38.339 39.906H1.423a1.423 1.423 0 0 1 0-2.846h37a1.423 1.423 0 0 1 0 2.846z" class="prefix__cls-1" data-name="Path 18058" transform="translate(0 15.681)"/>
        <path id="prefix__Path_18059" d="M33.892 38.354H11.933a1.423 1.423 0 0 1-1.423-1.423V25.973a1.423 1.423 0 0 1 2.846 0v9.606h20.536a1.423 1.423 0 0 1 0 2.846z" class="prefix__cls-1" data-name="Path 18059" transform="translate(4.447 10.388)"/>
        <path id="prefix__Path_18060" d="M20.962 19.924a9.962 9.962 0 1 1 9.962-9.962 9.962 9.962 0 0 1-9.962 9.962zm0-17.077a7.116 7.116 0 1 0 7.116 7.116 7.116 7.116 0 0 0-7.116-7.116z" class="prefix__cls-1" data-name="Path 18060" transform="translate(4.654)"/>
        <path id="prefix__Path_18061" d="M19.483 33.619a1.423 1.423 0 0 1-.982-.4l-3.6-3.615a1.423 1.423 0 0 1-.4-1.138l1.153-10.147a1.423 1.423 0 1 1 2.761.3l-1.067 9.506 2.135 2.149 2.234-2.174-.811-9.492a1.365 1.365 0 1 1 2.718-.242l.954 10.134a1.324 1.324 0 0 1-.413 1.124l-3.7 3.615a1.423 1.423 0 0 1-.982.38z" class="prefix__cls-1" data-name="Path 18061" transform="translate(6.133 7.082)"/>
        <path id="prefix__Path_18062" d="M49.8 48.5a1.423 1.423 0 0 1-1.423-1.423V36.123a1.423 1.423 0 1 1 2.846 0v10.958A1.423 1.423 0 0 1 49.8 48.5z" class="prefix__cls-1" data-name="Path 18062" transform="translate(20.471 14.682)"/>
        <path id="prefix__Path_18063" d="M39.264 52.639h-4.8a4.938 4.938 0 0 1-4.938-4.924V32.4a6.959 6.959 0 0 1 4.611-6.532l2.007-.726a1.423 1.423 0 1 1 .939 2.619l-2.007.726a4.17 4.17 0 0 0-2.757 3.913v15.315a2.163 2.163 0 0 0 2.149 2.149h4.8a1.423 1.423 0 1 1 0 2.775z" class="prefix__cls-1" data-name="Path 18063" transform="translate(12.495 10.548)"/>
        <path id="prefix__Path_18064" d="M60.2 52.5H36.793a1.423 1.423 0 0 1-1.423-1.423V40.121a1.423 1.423 0 1 1 2.846 0V49.7H60.2a2.163 2.163 0 0 0 2.163-2.163V32.28a4.184 4.184 0 0 0-2.761-3.928l-1.338-.47a1.423 1.423 0 0 1 .939-2.619l1.338.47a6.959 6.959 0 0 1 4.6 6.546v15.285A4.938 4.938 0 0 1 60.2 52.5z" class="prefix__cls-1" data-name="Path 18064" transform="translate(14.966 10.684)"/>
        <path id="prefix__Path_18065" d="M45.842 30.054a9.962 9.962 0 1 1 9.958-9.962 9.962 9.962 0 0 1-9.958 9.962zm0-17.077a2.95 2.95 0 1 0 0-.028z" class="prefix__cls-1" data-name="Path 18065" transform="translate(15.182 4.286)"/>
        <path id="prefix__Path_18066" d="M22.03 35.1H1.423a1.423 1.423 0 0 1 0-2.846h20.635a1.423 1.423 0 1 1 0 2.846z" class="prefix__cls-1" data-name="Path 18066" transform="translate(0 13.646)"/>
    </g>
</svg>
