<svg width="40" height="40" viewBox="0 0 40 40" fill="none" xmlns="http://www.w3.org/2000/svg">
<path d="M39.9988 16.5155C39.9829 16.15 39.7792 15.4723 38.5945 15.0411L7.0075 3.55575C5.38836 2.96661 3.59148 3.80427 3.00211 5.42349L2.14703 7.77263C2.14703 7.77263 2.14695 7.77286 2.14687 7.77302L0.223203 13.0584C-0.366094 14.6777 0.471719 16.4744 2.09117 17.0639L11.2971 20.4107C11.1222 21.4747 11.414 22.5261 12.0491 23.3304L10.088 28.7181C9.99781 28.9661 9.75969 29.1327 9.49555 29.1327H3.75V27.2577C3.75 26.2239 2.90891 25.3827 1.875 25.3827H0.625C0.279844 25.3827 0 25.6625 0 26.0077V36.0077C0 36.3529 0.279844 36.6327 0.625 36.6327H1.875C2.90891 36.6327 3.75 35.7915 3.75 34.7577V32.8827H9.49555C11.3305 32.8827 12.9848 31.7243 13.6119 30.0002L15.5317 24.7257C16.6304 24.5715 17.6288 23.93 18.2215 22.9281L28.9795 26.8392C29.3312 26.9672 29.691 27.0279 30.0452 27.0279C31.1195 27.0278 32.1403 26.4693 32.712 25.5372L33.9465 25.9865C34.0859 26.0372 34.2305 26.0625 34.3746 26.0625C34.5545 26.0625 34.7338 26.0232 34.9017 25.9449C35.2041 25.8039 35.4335 25.5535 35.5476 25.24L37.2583 20.5399C37.4663 19.9683 37.2289 19.3418 36.7248 19.0408L38.7284 18.1066C39.871 17.5738 40.0148 16.8811 39.9988 16.5155ZM2.5 34.7577C2.5 35.1023 2.21961 35.3827 1.875 35.3827H1.25V26.6327H1.875C2.21961 26.6327 2.5 26.9131 2.5 27.2577V34.7577ZM12.4373 29.5728C11.9891 30.8049 10.8069 31.6327 9.49555 31.6327H3.75V30.3827H9.49555C10.2832 30.3827 10.9933 29.8856 11.2627 29.1457L13.0568 24.2165C13.2627 24.3401 13.4832 24.4463 13.7174 24.5315C13.8837 24.5921 14.0514 24.64 14.2195 24.6763L12.4373 29.5728ZM15.0863 23.5091C15.0718 23.509 15.0574 23.509 15.043 23.5099C14.7454 23.5139 14.4417 23.465 14.1449 23.3569C13.7975 23.2304 13.4945 23.0358 13.2463 22.7934C13.2236 22.7658 13.1984 22.7401 13.1708 22.7166C12.7053 22.2208 12.4561 21.5478 12.5033 20.8492L17.0156 22.4897C16.5591 23.1167 15.8444 23.4858 15.0863 23.5091ZM36.0838 20.1124L34.3742 24.812L33.1987 24.3842L34.8203 19.929L35.1523 19.7742L36.0838 20.1124ZM38.2002 16.9737L34.8591 18.5317C34.8587 18.5318 34.8584 18.532 34.858 18.5322L34.0579 18.9053C34.0576 18.9054 34.0573 18.9055 34.057 18.9057L33.1189 19.3431C32.018 19.8565 30.1234 19.9391 28.9816 19.5236L10.9027 12.9547C10.5784 12.837 10.2198 13.0043 10.1019 13.3287C9.98398 13.6532 10.1514 14.0117 10.4759 14.1297L28.5544 20.6983C29.1834 20.9273 29.9588 21.0388 30.7501 21.0388C31.6152 21.0388 32.4984 20.9048 33.2295 20.6454L31.8105 24.5439C31.457 25.5154 30.3788 26.0181 29.4071 25.6644L2.51844 15.8892C1.54688 15.5356 1.04422 14.4575 1.39781 13.486L2.46719 10.5479C2.82383 11.0961 3.35422 11.5376 4.01484 11.7781L4.60234 11.9918C4.92641 12.11 5.28531 11.9426 5.40336 11.6183C5.52141 11.294 5.35414 10.9353 5.02977 10.8172L4.44234 10.6035C3.47094 10.2499 2.9682 9.17208 3.32156 8.2006L3.53547 7.61286C3.53547 7.61286 3.53555 7.61271 3.53555 7.61263L4.17672 5.85099C4.53039 4.87942 5.60844 4.37653 6.58016 4.73036L38.1671 16.2158C38.5684 16.3618 38.7168 16.514 38.747 16.5701C38.7218 16.6287 38.5873 16.7932 38.2002 16.9737Z" fill="#FECA36"/>
<path d="M8.55376 12.0997L7.379 11.6721C7.0547 11.5539 6.69603 11.7213 6.5779 12.0456C6.45986 12.3699 6.62704 12.7286 6.95142 12.8467L8.12619 13.2743C8.19673 13.3 8.26892 13.3121 8.33994 13.3121C8.59525 13.3121 8.83486 13.1545 8.92728 12.9007C9.04541 12.5765 8.87814 12.2179 8.55376 12.0997Z" fill="#FECA36"/>
</svg>
