<svg width="40" height="40" viewBox="0 0 40 40" fill="none" xmlns="http://www.w3.org/2000/svg">
<path d="M34.2927 39.9927H30.1329C29.7049 39.9927 29.3579 39.6457 29.3579 39.2177V35.7263H10.6422V39.2177C10.6422 39.6457 10.2952 39.9927 9.86726 39.9927H5.70747C5.27949 39.9927 4.93251 39.6457 4.93251 39.2177V35.7263H2.45437C2.0264 35.7263 1.67941 35.3793 1.67941 34.9514V25.2132C1.67941 23.2527 3.07957 21.6131 4.9327 21.2423V19.1429C4.9327 15.0397 8.27084 11.7016 12.3739 11.7016H27.6265C31.7297 11.7016 35.0676 15.0397 35.0676 19.1429V21.2421C36.9206 21.6131 38.3207 23.2525 38.3207 25.213V34.9512C38.3207 35.3791 37.9737 35.7261 37.5458 35.7261H35.0676V39.2175C35.0676 39.6457 34.7206 39.9927 34.2927 39.9927ZM30.9078 38.4427H33.5177V35.7263H30.9078V38.4427ZM6.48243 38.4427H9.0923V35.7263H6.48243V38.4427ZM34.2927 34.1764H36.7708V25.2132C36.7708 23.8349 35.6496 22.7136 34.2714 22.7136H5.72878C4.35051 22.7136 3.22914 23.8349 3.22914 25.2132V34.1764H34.2927ZM30.1255 21.1636H33.5177V19.1429C33.5177 15.8943 30.8749 13.2515 27.6265 13.2515H12.3737C9.12524 13.2515 6.48243 15.8943 6.48243 19.1429V21.1636H22.2422C22.6043 19.3185 24.2341 17.922 26.1839 17.922C28.1337 17.922 29.7634 19.3185 30.1255 21.1636ZM23.8417 21.1636H28.526C28.2003 20.182 27.2735 19.4719 26.1839 19.4719C25.0943 19.4719 24.1674 20.182 23.8417 21.1636ZM32.2127 32.1301C30.6385 32.1301 29.3579 30.8495 29.3579 29.2752C29.3579 27.701 30.6385 26.4204 32.2127 26.4204C33.7868 26.4204 35.0674 27.701 35.0674 29.2752C35.0676 30.8495 33.7868 32.1301 32.2127 32.1301ZM32.2127 27.9703C31.4931 27.9703 30.9078 28.5556 30.9078 29.2752C30.9078 29.9947 31.4931 30.5802 32.2127 30.5802C32.9322 30.5802 33.5175 29.9949 33.5175 29.2752C33.5177 28.5558 32.9322 27.9703 32.2127 27.9703ZM27.3085 32.1301H12.6914C12.2634 32.1301 11.9165 31.7831 11.9165 31.3552C11.9165 30.9272 12.2634 30.5802 12.6914 30.5802H27.3083C27.7363 30.5802 28.0833 30.9272 28.0833 31.3552C28.0833 31.7831 27.7365 32.1301 27.3085 32.1301ZM7.78727 32.1301C6.21313 32.1301 4.93251 30.8495 4.93251 29.2752C4.93251 27.701 6.21313 26.4204 7.78727 26.4204C9.36141 26.4204 10.642 27.701 10.642 29.2752C10.6422 30.8495 9.36141 32.1301 7.78727 32.1301ZM7.78727 27.9703C7.06772 27.9703 6.48243 28.5556 6.48243 29.2752C6.48243 29.9947 7.06772 30.5802 7.78727 30.5802C8.50682 30.5802 9.09211 29.9949 9.09211 29.2752C9.0923 28.5558 8.50682 27.9703 7.78727 27.9703ZM27.3085 27.9703H12.6914C12.2634 27.9703 11.9165 27.6233 11.9165 27.1954C11.9165 26.7674 12.2634 26.4204 12.6914 26.4204H27.3083C27.7363 26.4204 28.0833 26.7674 28.0833 27.1954C28.0833 27.6233 27.7365 27.9703 27.3085 27.9703ZM39.2245 9.6948C39.1238 9.6948 39.0215 9.67503 38.9227 9.63338L20.0001 1.62416L1.07727 9.63319C0.683007 9.80019 0.228299 9.61556 0.0614883 9.22149C-0.105322 8.82742 0.0789249 8.37252 0.473186 8.20571L19.698 0.0686178C19.7966 0.0269637 19.8991 0.00720215 19.9997 0.00720215C19.9999 0.00720215 19.9999 0.00720215 20.0001 0.00720215C20.0001 0.00720215 20.0003 0.00720215 20.0005 0.00720215C20.0936 0.00720215 20.1884 0.0240576 20.28 0.0597058C20.2885 0.0629993 20.2969 0.0662929 20.3052 0.069974L39.527 8.20571C39.921 8.37252 40.1053 8.82723 39.9385 9.22149C39.8135 9.51714 39.5264 9.6948 39.2245 9.6948Z" fill="#FECA36"/>
</svg>
