<svg width="40" height="40" viewBox="0 0 40 40" fill="none" xmlns="http://www.w3.org/2000/svg">
<path d="M38 9.33333H36.6667V6C36.6667 4.89733 35.7693 4 34.6667 4H32C30.8973 4 30 4.89733 30 6V11.3333H28.4307L28.284 10.96C27.5773 9.162 25.8727 8 23.9407 8H23.8773C23.6013 7.226 22.868 6.66667 22 6.66667C21.486 6.66667 21.0213 6.86733 20.6667 7.18667C20.312 6.86667 19.8473 6.66667 19.3333 6.66667C18.8193 6.66667 18.3547 6.86733 18 7.18667C17.6453 6.86667 17.1807 6.66667 16.6667 6.66667C16.1527 6.66667 15.688 6.86733 15.3333 7.18667C14.9787 6.86667 14.514 6.66667 14 6.66667C12.8973 6.66667 12 7.564 12 8.66667V11.3333H10V6C10 4.89733 9.10267 4 8 4H5.33333C4.23067 4 3.33333 4.89733 3.33333 6V9.33333H2C0.897333 9.33333 0 10.2307 0 11.3333V18C0 19.1027 0.897333 20 2 20H3.33333V23.3333C3.33333 24.436 4.23067 25.3333 5.33333 25.3333H8C9.10267 25.3333 10 24.436 10 23.3333V18H11.512L12.0313 19.6433C12.0547 19.718 12.0913 19.788 12.1393 19.8507L13.9187 22.1527L12.7787 34.13C12.7327 34.608 12.8913 35.086 13.2147 35.4413C13.538 35.796 13.998 36 14.4787 36H23.516C23.998 36 24.4593 35.7953 24.782 35.438C25.1053 35.0807 25.2633 34.6013 25.2153 34.1213L24.0507 22.474C24.038 22.352 24.0867 22.232 24.1793 22.1527L27.8373 19.0173C28.1573 18.7427 28.382 18.388 28.5187 18H30V23.3333C30 24.436 30.8973 25.3333 32 25.3333H34.6667C35.7693 25.3333 36.6667 24.436 36.6667 23.3333V20H38C39.1027 20 40 19.1027 40 18V11.3333C40 10.2307 39.1027 9.33333 38 9.33333ZM3.33333 18.6667H2C1.632 18.6667 1.33333 18.3673 1.33333 18V11.3333C1.33333 10.966 1.632 10.6667 2 10.6667H3.33333V18.6667ZM8.66667 12V17.3333V23.3333C8.66667 23.7007 8.368 24 8 24H5.33333C4.96533 24 4.66667 23.7007 4.66667 23.3333V19.3333V10V6C4.66667 5.63267 4.96533 5.33333 5.33333 5.33333H8C8.368 5.33333 8.66667 5.63267 8.66667 6V12ZM21.3333 8.66667C21.3333 8.29933 21.632 8 22 8C22.368 8 22.6667 8.29933 22.6667 8.66667V12V12.5953C22.6667 12.8487 22.5427 13.0773 22.3627 13.2107C22.3433 13.224 22.3253 13.2387 22.3047 13.25C22.2693 13.2707 22.2307 13.282 22.192 13.294C22.1493 13.3073 22.106 13.3167 22.06 13.3207C22.006 13.3247 21.9533 13.3207 21.9013 13.3127C21.8627 13.3067 21.824 13.302 21.788 13.29C21.7347 13.272 21.6853 13.2427 21.6373 13.2107C21.6087 13.1913 21.5773 13.1767 21.552 13.1533C21.5047 13.11 21.47 13.0567 21.4373 13.0027C21.4233 12.9793 21.4033 12.9607 21.392 12.9353C21.3553 12.852 21.3333 12.7607 21.3333 12.6667V8.66667ZM18.6667 8.66667C18.6667 8.29933 18.9653 8 19.3333 8C19.7013 8 20 8.29933 20 8.66667V12.6667C20 13.034 19.7013 13.3333 19.3333 13.3333C18.9653 13.3333 18.6667 13.034 18.6667 12.6667V8.66667ZM16 8.66667C16 8.29933 16.2987 8 16.6667 8C17.0347 8 17.3333 8.29933 17.3333 8.66667V12.6667C17.3333 13.034 17.0347 13.3333 16.6667 13.3333C16.2987 13.3333 16 13.034 16 12.6667V8.66667ZM13.3333 12V8.66667C13.3333 8.29933 13.632 8 14 8C14.368 8 14.6667 8.29933 14.6667 8.66667V12.6667C14.6667 12.7607 14.6447 12.852 14.6073 12.936C14.596 12.9613 14.576 12.98 14.562 13.0033C14.5293 13.0573 14.4947 13.11 14.4473 13.154C14.4227 13.1767 14.3913 13.192 14.3633 13.2107C14.3147 13.2427 14.2653 13.2727 14.2107 13.2907C14.176 13.3027 14.138 13.3067 14.1013 13.3127C14.048 13.3207 13.9947 13.3253 13.9393 13.3207C13.894 13.3167 13.8507 13.3073 13.8087 13.294C13.7693 13.2813 13.7307 13.27 13.6947 13.2493C13.674 13.2387 13.6567 13.224 13.638 13.2107C13.458 13.0773 13.3333 12.848 13.3333 12.5947V12ZM10 16.6667V12.6667H12C12 13.3987 12.3993 14.0327 12.9873 14.3813C13.0233 14.4033 13.0607 14.4213 13.098 14.4413C13.158 14.472 13.2173 14.5027 13.28 14.5267C13.35 14.5547 13.4233 14.5747 13.4973 14.594C13.5413 14.6053 13.584 14.62 13.6293 14.6287C13.6433 14.6313 13.6553 14.6367 13.6693 14.6393C13.716 14.6473 13.762 14.6427 13.8087 14.6473C13.8727 14.6533 13.9347 14.6667 14 14.6667C14.0193 14.6667 14.0373 14.6613 14.056 14.6607C14.1173 14.6587 14.1767 14.6493 14.2367 14.6427C14.3167 14.6333 14.3953 14.6227 14.472 14.604C14.5293 14.59 14.584 14.5707 14.64 14.552C14.7147 14.5267 14.788 14.4987 14.8587 14.4653C14.9127 14.4393 14.9647 14.41 15.0167 14.3793C15.0833 14.3393 15.1467 14.2967 15.2087 14.2493C15.2367 14.228 15.2687 14.2133 15.2953 14.1907C15.3087 14.1793 15.3213 14.1687 15.334 14.1573C15.3727 14.192 15.418 14.2193 15.4593 14.2507C15.5007 14.2827 15.5407 14.3153 15.5847 14.344C15.6473 14.3847 15.7147 14.4173 15.782 14.4513C15.8267 14.4733 15.8687 14.4987 15.9147 14.5173C15.992 14.5487 16.074 14.5707 16.1553 14.592C16.1967 14.6027 16.2353 14.6187 16.278 14.6273C16.404 14.652 16.5333 14.6667 16.6667 14.6667C16.8 14.6667 16.9293 14.652 17.0553 14.6273C17.0987 14.6187 17.138 14.6027 17.18 14.5913C17.2607 14.5693 17.342 14.5487 17.4187 14.5173C17.466 14.498 17.5087 14.4727 17.554 14.45C17.6207 14.4167 17.6873 14.384 17.7493 14.344C17.794 14.3153 17.834 14.282 17.8753 14.25C17.9167 14.2187 17.9613 14.1913 18 14.1567C18.0387 14.1913 18.0833 14.218 18.1247 14.25C18.1667 14.282 18.2067 14.316 18.2513 14.3447C18.3133 14.3847 18.38 14.4173 18.4467 14.4507C18.492 14.4733 18.5347 14.4987 18.582 14.518C18.6587 14.5493 18.7393 14.5707 18.8207 14.592C18.8627 14.6033 18.9027 14.6193 18.9453 14.628C19.0707 14.652 19.2 14.6667 19.3333 14.6667C19.4667 14.6667 19.596 14.652 19.722 14.6273C19.764 14.6187 19.8033 14.6033 19.8447 14.592C19.9267 14.57 20.008 14.5487 20.0853 14.5173C20.132 14.4987 20.174 14.4733 20.2187 14.4507C20.286 14.4173 20.3527 14.384 20.4153 14.3433C20.4593 14.3147 20.4987 14.282 20.5407 14.25C20.582 14.2187 20.6273 14.1913 20.666 14.1567C20.6787 14.168 20.6913 14.1793 20.7047 14.19C20.7313 14.2127 20.7633 14.2273 20.7907 14.2487C20.8527 14.296 20.9167 14.3393 20.9847 14.38C21.0353 14.41 21.086 14.4387 21.1393 14.464C21.2127 14.4993 21.288 14.5273 21.366 14.554C21.4187 14.572 21.4707 14.59 21.5247 14.6033C21.606 14.6233 21.6893 14.634 21.7733 14.644C21.8293 14.6507 21.884 14.6593 21.9407 14.6607C21.9607 14.6613 21.9793 14.6667 22 14.6667C22.0667 14.6667 22.13 14.6533 22.1947 14.6467C22.24 14.6427 22.2853 14.6467 22.3313 14.6393C22.3467 14.6367 22.3607 14.6313 22.376 14.6287C22.406 14.6227 22.4347 14.614 22.464 14.6067C22.5493 14.586 22.632 14.5613 22.712 14.5293C22.756 14.5127 22.7987 14.4947 22.8407 14.4747C22.8873 14.452 22.9327 14.4267 22.9773 14.4007C23.4647 14.1247 23.8273 13.6573 23.9507 13.0953C23.98 13.17 24 13.2493 24 13.3333V15.724L23.0573 16.6667H10ZM27.3333 17.214C27.3333 17.5187 27.2007 17.8067 26.97 18.0053L23.3127 21.14C22.8887 21.5033 22.6687 22.0513 22.724 22.6073L23.8887 34.2547C23.9027 34.3993 23.8353 34.498 23.7933 34.544C23.752 34.5893 23.66 34.6667 23.5153 34.6667H14.4787C14.3347 34.6667 14.2427 34.59 14.2013 34.544C14.16 34.498 14.092 34.4 14.1053 34.256L15.2707 22.016C15.2867 21.8473 15.238 21.6793 15.1347 21.5447L13.2667 19.1287L12.91 18H23.0573C23.408 18 23.752 17.858 24 17.6093L24.9427 16.6667C25.1947 16.4147 25.3333 16.08 25.3333 15.724V13.3333C25.3333 12.4653 24.774 11.732 24 11.456V9.334C25.3553 9.35733 26.5453 10.1813 27.0427 11.4473L27.2933 12.0773C27.3193 12.13 27.3333 12.188 27.3333 12.2453V17.214ZM30 16.6667H28.6667V12.6667H30V16.6667ZM35.3333 10V19.3333V23.3333C35.3333 23.7007 35.0347 24 34.6667 24H32C31.632 24 31.3333 23.7007 31.3333 23.3333V17.3333V12V6C31.3333 5.63267 31.632 5.33333 32 5.33333H34.6667C35.0347 5.33333 35.3333 5.63267 35.3333 6V10ZM38.6667 18C38.6667 18.3673 38.368 18.6667 38 18.6667H36.6667V10.6667H38C38.368 10.6667 38.6667 10.966 38.6667 11.3333V18Z" fill="#FECA36"/>
</svg>
