<svg width="40" height="40" viewBox="0 0 40 40" fill="none" xmlns="http://www.w3.org/2000/svg">
<path d="M27.9697 35.6319C27.4522 34.1494 26.051 33.125 24.4378 33.125C24.0003 33.125 23.581 33.2062 23.1878 33.3456V27.5C23.1878 27.155 22.9085 26.875 22.5628 26.875H21.9378V16.6481C25.5153 15.7981 28.1878 12.5844 28.1878 8.75C28.1878 4.27 24.5428 0.625 20.0628 0.625C15.5828 0.625 11.9378 4.27 11.9378 8.75C11.9378 12.5837 14.6103 15.7981 18.1878 16.6481V26.875H17.5628C17.2172 26.875 16.9378 27.155 16.9378 27.5V33.3456C16.5447 33.2062 16.1253 33.125 15.6878 33.125C14.0753 33.125 12.6741 34.1488 12.1566 35.6319C10.2935 35.5144 8.63034 36.8162 8.26346 38.6256C8.22596 38.8094 8.27409 39 8.39221 39.1456C8.51034 39.2906 8.68784 39.375 8.87534 39.375H31.2503C31.4378 39.375 31.6153 39.2906 31.7341 39.1456C31.8522 39.0006 31.9003 38.8094 31.8628 38.6256C31.496 36.8156 29.8335 35.5125 27.9697 35.6319ZM13.1878 8.75C13.1878 4.95937 16.2722 1.875 20.0628 1.875C23.8535 1.875 26.9378 4.95937 26.9378 8.75C26.9378 12.5406 23.8535 15.625 20.0628 15.625C16.2722 15.625 13.1878 12.5406 13.1878 8.75ZM19.4378 16.8431C19.6447 16.8587 19.8516 16.875 20.0628 16.875C20.2741 16.875 20.481 16.8594 20.6878 16.8431V26.875H19.4378V16.8431ZM18.1878 28.125H21.9378V34.0931C21.4797 34.5069 21.1172 35.0281 20.9066 35.6319C20.6235 35.6144 20.3422 35.6306 20.0628 35.6769C19.7841 35.63 19.5028 35.6138 19.2197 35.6319C19.0091 35.0281 18.646 34.5062 18.1878 34.0931V28.125ZM9.77284 38.125C10.2097 37.3706 11.0285 36.875 11.9378 36.875C12.1103 36.875 12.2891 36.8963 12.4828 36.9394C12.6485 36.9762 12.8235 36.9437 12.9653 36.8488C13.1072 36.7544 13.2041 36.6056 13.2335 36.4375C13.4447 35.2425 14.4766 34.375 15.6878 34.375C16.8991 34.375 17.9316 35.2425 18.1428 36.4375C18.1722 36.6056 18.2691 36.7537 18.411 36.8488C18.5528 36.9437 18.7272 36.9756 18.8935 36.9394C19.2766 36.855 19.6041 36.8587 19.9391 36.9256C20.021 36.9419 20.1053 36.9419 20.1866 36.9256C20.5222 36.8581 20.8503 36.8544 21.2328 36.9394C21.3978 36.9762 21.5735 36.9437 21.7153 36.8488C21.8572 36.7544 21.9541 36.6056 21.9835 36.4375C22.1947 35.2425 23.2266 34.375 24.4378 34.375C25.6491 34.375 26.6816 35.2425 26.8928 36.4375C26.9222 36.6056 27.0191 36.7537 27.161 36.8488C27.3028 36.9437 27.4778 36.9756 27.6435 36.9394C27.8372 36.8963 28.0153 36.875 28.1878 36.875C29.0972 36.875 29.9166 37.3706 30.3535 38.125H9.77284Z" fill="#FECA36"/>
<path d="M25.6875 8.75C25.6875 5.64875 23.1644 3.125 20.0625 3.125C16.9606 3.125 14.4375 5.64875 14.4375 8.75C14.4375 11.8512 16.9606 14.375 20.0625 14.375C23.1644 14.375 25.6875 11.8512 25.6875 8.75ZM15.6875 8.75C15.6875 6.3375 17.6506 4.375 20.0625 4.375C22.4744 4.375 24.4375 6.3375 24.4375 8.75C24.4375 11.1625 22.4744 13.125 20.0625 13.125C17.6506 13.125 15.6875 11.1625 15.6875 8.75Z" fill="#FECA36"/>
<path d="M21.875 7.5C21.875 6.46625 21.0338 5.625 20 5.625H18.75C18.4044 5.625 18.125 5.905 18.125 6.25V11.875H19.375V9.375H20C21.0338 9.375 21.875 8.53375 21.875 7.5ZM20 8.125H19.375V6.875H20C20.345 6.875 20.625 7.15562 20.625 7.5C20.625 7.84437 20.345 8.125 20 8.125Z" fill="#FECA36"/>
<path d="M9.19187 10.8081L8.82562 10.4419C8.37375 9.98998 8.125 9.38873 8.125 8.74998C8.125 8.11123 8.37375 7.50998 8.82562 7.0581L9.19187 6.69185L8.30812 5.80811L7.94187 6.17435C7.25375 6.86185 6.875 7.77685 6.875 8.74998C6.875 9.7231 7.25375 10.6381 7.94187 11.3256L8.30812 11.6919L9.19187 10.8081Z" fill="#FECA36"/>
<path d="M5.625 8.75C5.625 7.305 6.1875 5.94625 7.20875 4.92437L7.31625 4.8175L6.43375 3.9325L6.32562 4.04C5.0675 5.29875 4.375 6.97125 4.375 8.75C4.375 10.5287 5.0675 12.2012 6.32625 13.4606L6.43375 13.5675L7.31625 12.6825L7.20937 12.5762C6.1875 11.5537 5.625 10.195 5.625 8.75Z" fill="#FECA36"/>
<path d="M32.0586 6.17435L31.6923 5.80811L30.8086 6.69185L31.1748 7.0581C31.6267 7.50998 31.8755 8.11123 31.8755 8.74998C31.8755 9.38873 31.6267 9.98998 31.1748 10.4419L30.8086 10.8081L31.6923 11.6919L32.0586 11.3256C32.7467 10.6381 33.1255 9.7231 33.1255 8.74998C33.1255 7.77685 32.7467 6.86185 32.0586 6.17435Z" fill="#FECA36"/>
<path d="M33.6736 4.03937L33.5661 3.9325L32.6836 4.8175L32.7905 4.92375C33.8123 5.94625 34.3748 7.305 34.3748 8.75C34.3748 10.195 33.8123 11.5537 32.7911 12.5756L32.6836 12.6825L33.5661 13.5675L33.6742 13.46C34.9323 12.2012 35.6248 10.5287 35.6248 8.75C35.6248 6.97125 34.9323 5.29875 33.6736 4.03937Z" fill="#FECA36"/>
</svg>
