<svg width="40" height="40" viewBox="0 0 40 40" fill="none" xmlns="http://www.w3.org/2000/svg">
<path d="M4.24286 40H32.2415L35.4691 19.4751H1.01562L4.24286 40ZM31.2396 38.8281H5.24475L2.38617 20.647H34.0982L31.2396 38.8281Z" fill="#FECA36"/>
<path d="M16.165 4.81439C16.165 5.95941 17.0967 6.89111 18.2418 6.89111C19.3868 6.89111 20.3185 5.95941 20.3185 4.81439C20.3185 3.66907 19.3868 2.73767 18.2418 2.73767C17.0967 2.73767 16.165 3.66907 16.165 4.81439ZM19.1466 4.81439C19.1466 5.31335 18.7407 5.71924 18.2418 5.71924C17.7428 5.71924 17.3369 5.31335 17.3369 4.81439C17.3369 4.31543 17.7428 3.90955 18.2418 3.90955C18.7407 3.90955 19.1466 4.31543 19.1466 4.81439Z" fill="#FECA36"/>
<path d="M4.73109 14.5786L5.55965 13.75L4.73384 12.9239C4.29225 12.4826 4.29225 11.7679 4.73384 11.3263L8.76399 7.29614C9.66335 6.39679 9.66365 4.9408 8.76399 4.04144L7.93788 3.21533L7.10933 4.04388L7.93544 4.87C8.37672 5.31128 8.37672 6.026 7.93544 6.46729L3.90498 10.4977C3.00563 11.3971 3.00563 12.8531 3.90498 13.7524L4.73109 14.5786Z" fill="#FECA36"/>
<path d="M11.0983 9.62982L7.06818 13.66C6.16883 14.5593 6.16853 16.0153 7.06818 16.915L7.89429 17.7408L8.72285 16.9122L7.89704 16.0864C7.45545 15.6448 7.45515 14.9304 7.89704 14.4888L11.9272 10.4584C12.8244 9.56116 12.8244 8.10089 11.9272 7.20367L11.1011 6.37756L10.2722 7.20642L11.0983 8.03223C11.5387 8.4726 11.5387 9.18945 11.0983 9.62982Z" fill="#FECA36"/>
<path d="M12.0127 18.0332L12.7253 18.9636C14.766 17.4002 15.9363 15.0311 15.9363 12.4637V12.1149C15.9363 10.137 15.5601 8.09877 14.8179 6.05683C14.6732 5.6595 14.6 5.2414 14.6 4.81416C14.6 2.76124 16.3016 1.08918 18.393 1.17494C20.2573 1.24971 21.7893 2.76765 21.8806 4.63044C21.9053 5.13856 21.8281 5.63356 21.6505 6.10231C20.9196 8.03224 20.5488 10.0549 20.5488 12.1143V12.4637C20.5488 15.0311 21.7191 17.4002 23.7598 18.9636L24.4724 18.0332C22.7238 16.6937 21.7206 14.6637 21.7206 12.4637V12.1143C21.7206 10.1972 22.0658 8.31422 22.7463 6.51734C22.9813 5.89723 23.0839 5.24293 23.0509 4.57307C22.9304 2.10969 20.9049 0.10255 18.44 0.00397861C15.6895 -0.104359 13.4281 2.08375 13.4281 4.81416C13.4281 5.37843 13.5251 5.9311 13.7165 6.45722C14.4117 8.37037 14.7645 10.2738 14.7645 12.1149V12.4637C14.7645 14.6637 13.7614 16.6934 12.0127 18.0332Z" fill="#FECA36"/>
<path d="M37.8773 4.51481C36.8553 3.9246 35.55 4.27403 34.9598 5.29667L27.5068 18.2056L28.5219 18.7915L35.9749 5.88261C36.241 5.42118 36.83 5.2631 37.2914 5.52982C37.7528 5.79594 37.9106 6.38493 37.6442 6.84635L31.0859 18.2056L32.101 18.7915L38.6592 7.43229C39.2494 6.41026 38.9 5.10502 37.8773 4.51481Z" fill="#FECA36"/>
<path d="M7.3252 21.6824L8.49127 21.5662L10.109 37.7948L8.94293 37.9111L7.3252 21.6824Z" fill="#FECA36"/>
<path d="M26.376 37.792L27.9937 21.5634L29.1598 21.6796L27.5421 37.9083L26.376 37.792Z" fill="#FECA36"/>
<path d="M13.8906 21.6439L15.0616 21.6012L15.6512 37.8286L14.4799 37.8713L13.8906 21.6439Z" fill="#FECA36"/>
<path d="M20.8301 37.8298L21.4197 21.6024L22.5906 21.6451L22.0013 37.8726L20.8301 37.8298Z" fill="#FECA36"/>
<path d="M30.6497 37.5518L29.4922 37.3699L30.5884 30.3985L31.7459 30.5807L30.6497 37.5518ZM31.8674 29.8089L30.7095 29.6267L30.8917 28.4692L32.0493 28.6511L31.8674 29.8089ZM32.1707 27.8793L31.0129 27.6974L31.1951 26.5396L32.3526 26.7217L32.1707 27.8793Z" fill="#FECA36"/>
<path d="M20.5601 18.4548C19.6187 17.1737 18.9854 15.671 18.7294 14.1097L19.886 13.9199C20.1121 15.2999 20.6718 16.6277 21.5043 17.7606L20.5601 18.4548ZM18.629 13.2867C18.607 13.0148 18.5957 12.738 18.5957 12.4636V12.0672L19.7676 12.0703V12.4636C19.7676 12.7065 19.7776 12.9519 19.7969 13.1924L18.629 13.2867ZM19.7856 11.3137L18.6149 11.2612C18.6329 10.8596 18.6641 10.454 18.7077 10.0558L19.8726 10.183C19.8317 10.5566 19.8024 10.9371 19.7856 11.3137Z" fill="#FECA36"/>
<path d="M30.6625 18.1833L29.6475 17.5974L32.1807 13.2095L33.1957 13.7955L30.6625 18.1833ZM33.5864 13.1186L32.5713 12.5327L33.1573 11.5179L34.1723 12.1039L33.5864 13.1186ZM34.5629 11.4273L33.5479 10.8414L34.1338 9.82666L35.1489 10.4126L34.5629 11.4273Z" fill="#FECA36"/>
</svg>
