<svg width="40" height="40" viewBox="0 0 40 40" fill="none" xmlns="http://www.w3.org/2000/svg">
<g clip-path="url(#clip0)">
<path d="M28.6758 13.3136C27.8542 13.2851 27.112 12.9193 26.586 12.2838C26.2021 11.82 25.4971 11.8209 25.114 12.2838C23.9736 13.6617 21.8747 13.6593 20.7365 12.2838C20.348 11.8145 19.6424 11.8274 19.2644 12.2838C18.1244 13.6614 16.0258 13.6598 14.887 12.2837C14.5025 11.8193 13.7976 11.8216 13.4151 12.2837C12.889 12.9193 12.1469 13.285 11.3253 13.3136C11.0019 13.3248 10.7488 13.5961 10.7601 13.9195C10.7714 14.243 11.0409 14.4954 11.3661 14.4847C12.4259 14.4479 13.4275 13.9904 14.1509 13.2201C15.735 14.9099 18.4141 14.9121 20.0005 13.2202C21.5847 14.91 24.2639 14.9119 25.8501 13.2201C26.5737 13.9904 27.5751 14.4479 28.635 14.4847C28.9569 14.4964 29.2298 14.243 29.2409 13.9195C29.2523 13.5961 28.9992 13.3248 28.6758 13.3136Z" fill="#FECA36"/>
<path d="M26.5853 17.0905C26.2014 16.6266 25.4964 16.6276 25.1133 17.0905C23.973 18.4683 21.8742 18.466 20.7359 17.0905C20.3474 16.6212 19.6417 16.634 19.2638 17.0905C18.1235 18.4685 16.0246 18.4659 14.8864 17.0904C14.5032 16.6277 13.7983 16.6265 13.4144 17.0905C12.7899 17.845 11.8377 18.222 10.8666 18.0994C10.5463 18.0588 10.2524 18.286 10.2117 18.6071C10.171 18.9281 10.3985 19.2213 10.7195 19.2619C12.0071 19.4251 13.2709 18.9655 14.1504 18.0269C15.7346 19.7166 18.4135 19.7187 19.9999 18.0269C21.5839 19.7165 24.2631 19.7188 25.8493 18.0269C26.7289 18.9655 27.9928 19.4251 29.2802 19.2619C29.6012 19.2213 29.8286 18.9282 29.7879 18.6071C29.7472 18.286 29.4528 18.0587 29.1331 18.0994C28.1616 18.2219 27.2098 17.8451 26.5853 17.0905Z" fill="#FECA36"/>
<path d="M28.1859 8.4141C27.5545 8.28105 27.001 7.94535 26.5853 7.44324C26.2014 6.97941 25.4964 6.98035 25.1133 7.44324C23.9729 8.82113 21.8741 8.81871 20.7359 7.44324C20.3474 6.97395 19.6417 6.98684 19.2638 7.44324C18.1238 8.82082 16.0251 8.81926 14.8863 7.44316C14.5018 6.97871 13.7969 6.98106 13.4144 7.44316C12.9988 7.94527 12.4453 8.28105 11.8139 8.4141C11.4972 8.48082 11.2946 8.7916 11.3613 9.10824C11.4281 9.42488 11.7395 9.62754 12.0555 9.56074C12.8667 9.3898 13.5861 8.9834 14.1505 8.37973C15.735 10.0696 18.4139 10.071 19.9999 8.37965C21.5839 10.0692 24.2629 10.0715 25.8492 8.3798C26.4137 8.98347 27.1332 9.38996 27.9443 9.56074C28.2606 9.62754 28.5717 9.4248 28.6385 9.10816C28.7051 8.79152 28.5025 8.48074 28.1859 8.4141Z" fill="#FECA36"/>
<path d="M4.29523 33.537H17.5555V38.9728C17.5555 39.5392 18.0163 40 18.5828 40H20.5509C21.1173 40 21.5781 39.5392 21.5781 38.9728V38.8584H27.3749V38.9728C27.3749 39.5392 27.8357 40 28.4022 40H30.3703C30.9367 40 31.3975 39.5392 31.3975 38.9728V33.537H35.7037C37.5881 33.537 39.0694 31.9052 38.88 30.0248C38.8797 30.0216 38.8794 30.0185 38.879 30.0154L37.8606 21.2992C37.823 20.9778 37.5313 20.7475 37.2107 20.7852C36.8893 20.8228 36.6591 21.1138 36.6967 21.4352L37.7147 30.1464C37.8287 31.3052 36.9261 32.365 35.7039 32.365H31.3977V30.8761H34.9084C35.6483 30.8761 36.2272 30.2362 36.1534 29.4998C36.153 29.4965 36.1526 29.4931 36.1522 29.4898L33.1244 3.78086C33.0571 3.14188 32.5232 2.66078 31.8801 2.66078H21.3667C21.043 2.66078 20.7808 2.92312 20.7808 3.24672C20.7808 3.57031 21.043 3.83266 21.3667 3.83266H31.8801C31.9209 3.83266 31.9548 3.86336 31.959 3.90406C31.9593 3.90734 31.9597 3.91055 31.9601 3.91383L34.9874 29.6196C34.9889 29.6411 34.9816 29.6623 34.9671 29.6783C34.9522 29.6948 34.9307 29.7043 34.9084 29.7043H31.3976V27.9159C31.3976 24.8317 28.8776 22.4202 25.9019 22.4202C23.8099 22.4202 21.9217 23.6069 20.9926 25.4471C20.0545 23.5899 18.1235 22.3807 15.9766 22.4212C13.0312 22.4766 10.5869 24.8895 10.5869 27.9159V29.7044H5.09062C5.06827 29.7044 5.04687 29.6948 5.03179 29.6782C5.01734 29.6623 5.01015 29.641 5.01156 29.6195L8.03906 3.91391C8.03945 3.91062 8.03984 3.90734 8.04015 3.90398C8.04429 3.86336 8.07812 3.83273 8.11906 3.83273H18.6323C18.956 3.83273 19.2183 3.57039 19.2183 3.2468C19.2183 2.9232 18.956 2.66086 18.6323 2.66086H8.11906C7.47585 2.66086 6.94195 3.14211 6.87476 3.78109L3.84687 29.4899C3.84648 29.4933 3.84609 29.4966 3.8457 29.5C3.77179 30.2361 4.3507 30.8763 5.09062 30.8763H17.5555V32.3652H4.29523C3.13491 32.3652 2.16406 31.3666 2.28437 30.1465L5.45695 2.99937C5.45734 2.99625 5.45765 2.99312 5.45796 2.99008C5.56234 1.95352 6.42663 1.17188 7.46843 1.17188H32.5308C33.5726 1.17188 34.4368 1.95352 34.5412 2.99C34.5415 2.99312 34.5418 2.99625 34.5422 2.99937L36.3771 18.7009C36.4147 19.0223 36.7066 19.2527 37.027 19.2148C37.3484 19.1773 37.5786 18.8862 37.541 18.5648L35.7066 2.86781C35.5396 1.2325 34.1751 0 32.5308 0H7.46843C5.82398 0 4.45937 1.23258 4.29249 2.86797L1.11984 30.0155C1.11945 30.0186 1.11913 30.0217 1.11882 30.0248C0.930149 31.8998 2.40523 33.537 4.29523 33.537ZM24.4291 27.9665C24.4291 27.1598 25.0636 26.4595 25.8744 26.4444C26.7089 26.4284 27.3751 27.1077 27.3751 27.9159V29.7044H24.4291V27.9665ZM21.5782 33.537H27.375V35.0259H21.5782V33.537ZM27.6887 30.8762C28.1238 30.8762 28.4711 31.2526 28.4297 31.691C28.3927 32.0726 28.0711 32.365 27.6887 32.365H21.5782V30.8761C23.6182 30.8762 25.6537 30.8762 27.6887 30.8762ZM21.5782 36.1977H27.6887C28.1213 36.1977 28.4712 36.5724 28.4297 37.0126C28.3928 37.3934 28.0713 37.6866 27.6887 37.6866H21.5782V36.1977ZM30.2259 38.8281H28.5469V38.6552C29.9543 37.9422 29.9574 35.9437 28.5469 35.2291V33.3337C29.9609 32.6173 29.9507 30.6187 28.5469 29.9076V27.9159C28.5469 26.3155 27.1249 25.063 25.5162 25.2995C24.2386 25.487 23.2572 26.5906 23.2572 27.9159V29.7044H21.5783V27.9984C21.5783 25.6115 23.4892 23.616 25.8612 23.5932C28.3001 23.5727 30.2259 25.5509 30.2259 27.9159V38.8281ZM11.7589 29.7043V27.9982C11.7589 25.4807 13.8445 23.4995 16.258 23.5965C18.5614 23.6905 20.4064 25.5889 20.4064 27.9158V38.828H18.7275C18.7275 37.7016 18.7275 29.37 18.7275 27.9158C18.7275 26.5134 17.6287 25.353 16.2341 25.2755C14.7282 25.1899 13.4378 26.3897 13.4378 27.9158V29.7042H11.7589V29.7043ZM14.6097 29.7043V27.9664C14.6097 27.2301 15.138 26.5817 15.8501 26.463C16.7594 26.3184 17.5555 27.0284 17.5555 27.9159V29.7043H14.6097Z" fill="#FECA36"/>
</g>
<defs>
<clipPath id="clip0">
<rect width="40" height="40" fill="white"/>
</clipPath>
</defs>
</svg>
