<svg width="40" height="40" viewBox="0 0 40 40" fill="none" xmlns="http://www.w3.org/2000/svg">
<g clip-path="url(#clip0)">
<path d="M39.3332 17.6403H37.9999V5.26057C37.9996 3.26106 36.3785 1.64089 34.3793 1.64119C33.0807 1.6415 31.8817 2.33699 31.2375 3.46431L30.6 4.57973C30.2243 2.61684 28.3286 1.33022 26.3657 1.70558C25.3278 1.90425 24.4284 2.54695 23.9041 3.46431L19.9487 10.3872C19.5456 11.0922 19.3335 11.8902 19.3332 12.7023V17.6403H0.666809C0.298462 17.6403 0 17.9388 0 18.3071V37.6403C0 38.0087 0.298462 38.3071 0.666809 38.3071H39.3332C39.7015 38.3071 40 38.0087 40 37.6403V18.3071C40 17.9388 39.7015 17.6403 39.3332 17.6403ZM30.6668 7.15114L32.3953 4.12563C33.0212 3.02913 34.4174 2.64766 35.5139 3.27358C36.2271 3.68068 36.6672 4.43904 36.6666 5.26027V17.6403H30.6668V7.15114ZM21.106 11.0491L25.062 4.12563C25.6879 3.02943 27.084 2.64766 28.1805 3.27358C28.8937 3.68068 29.3338 4.43904 29.3332 5.26057V6.79378L27.2821 10.3872C26.9482 10.9765 26.7471 11.6317 26.6928 12.3071H20.6927C20.7446 11.8643 20.8853 11.4364 21.106 11.0491ZM29.3332 9.48451V17.6403H27.9999V12.7023C28.0002 12.1225 28.1516 11.5527 28.4393 11.0491L29.3332 9.48451ZM20.6668 13.6404H26.6666V14.9737H20.6668V13.6404ZM20.6668 16.307H26.6666V17.6403H20.6668V16.307ZM20.6668 18.9736H26.6666V20.307H20.6668V18.9736ZM20.6668 21.6403H26.6666V22.9739H20.6668V21.6403ZM20.6668 24.3072H26.6666V25.6405H20.6668V24.3072ZM20.6668 26.9738H26.6666V28.7304C26.0559 28.6172 25.5334 28.4771 25.0067 28.3303C23.598 27.9061 22.1378 27.6779 20.6668 27.6525V26.9738ZM1.33331 26.9738H3.33344C3.70148 26.9738 3.99994 26.6754 3.99994 26.307C3.99994 25.939 3.70148 25.6405 3.33344 25.6405H1.33331V24.3072H3.33344C3.70148 24.3072 3.99994 24.0087 3.99994 23.6404C3.99994 23.2724 3.70148 22.9739 3.33344 22.9739H1.33331V21.6403H3.33344C3.70148 21.6403 3.99994 21.3418 3.99994 20.9738C3.99994 20.6054 3.70148 20.307 3.33344 20.307H1.33331V18.9736H19.3332V27.6525C17.8598 27.6773 16.3968 27.9055 14.986 28.3313C13.4787 28.7896 11.9086 29.0066 10.3333 28.9736C8.75732 29.0066 7.18597 28.7896 5.6781 28.3313C4.26788 27.9058 2.80579 27.6776 1.33331 27.6525V26.9738ZM38.6667 36.9738H1.33331V32.983C2.68585 33.0078 4.02832 33.2208 5.32196 33.6163C6.94611 34.1067 8.63708 34.3396 10.3333 34.3072C12.0288 34.3396 13.7186 34.1064 15.3421 33.6163C16.8494 33.1579 18.4195 32.9409 19.9948 32.9739C21.5714 32.9409 23.1436 33.1579 24.6527 33.6163C26.2778 34.1067 27.9697 34.3399 29.6667 34.3072C31.3632 34.3396 33.0542 34.1067 34.6786 33.6163C35.9723 33.2211 37.3145 33.0081 38.6667 32.983V36.9738ZM38.6667 31.6525C37.1939 31.6775 35.7315 31.9061 34.3213 32.3312C32.8134 32.7896 31.2424 33.0062 29.6667 32.9736C28.0899 33.0065 26.5182 32.7896 25.0095 32.3312C23.3841 31.8408 21.6919 31.6076 19.9948 31.6403C18.2993 31.6079 16.6092 31.8411 14.986 32.3312C13.4787 32.7896 11.9086 33.0065 10.3333 32.9736C8.75732 33.0065 7.18597 32.7899 5.6781 32.3312C4.26788 31.9058 2.80579 31.6775 1.33331 31.6525V28.9859C2.68585 29.0103 4.02832 29.2236 5.32196 29.6191C6.94641 30.1083 8.63708 30.3405 10.3333 30.307C12.0288 30.3396 13.7186 30.1065 15.3421 29.6163C16.8494 29.158 18.4195 28.941 19.9948 28.9736C21.5714 28.941 23.1436 29.1577 24.6527 29.6163C26.2778 30.1068 27.9697 30.3399 29.6667 30.307C31.3632 30.3396 33.0542 30.1065 34.6786 29.6163C35.9723 29.2211 37.3145 29.0078 38.6667 28.9831V31.6525ZM38.6667 21.6403H34.6667C34.2984 21.6403 33.9999 21.939 33.9999 22.3071C33.9999 22.6754 34.2984 22.9739 34.6667 22.9739H38.6667V27.6525C37.1939 27.6776 35.7315 27.9061 34.3213 28.3313C32.8134 28.7896 31.2424 29.0063 29.6667 28.9736C29.0286 28.9736 28.4866 28.9483 27.9999 28.9071V18.9736H38.6667V21.6403Z" fill="#FECA36"/>
<path d="M31.3335 22.974H32.0003C32.3683 22.974 32.6668 22.6755 32.6668 22.3072C32.6668 21.9391 32.3683 21.6404 32.0003 21.6404H31.3335C30.9655 21.6404 30.667 21.9391 30.667 22.3072C30.667 22.6755 30.9655 22.974 31.3335 22.974Z" fill="#FECA36"/>
</g>
<defs>
<clipPath id="clip0">
<rect width="40" height="40" fill="white"/>
</clipPath>
</defs>
</svg>
