<svg width="40" height="42" viewBox="0 0 40 42" fill="none" xmlns="http://www.w3.org/2000/svg">
<g clip-path="url(#clip0)">
<path d="M35.999 3.14483V1.37144C35.9983 0.614726 35.4018 0.00153555 34.6657 0.000732422H2.66657C1.93049 0.00145524 1.33403 0.614726 1.33324 1.37144V20.5609H0.666622C0.298429 20.5609 0 20.8677 0 21.2462C0 21.6247 0.298429 21.9315 0.666622 21.9315H1.33324V39.7504C1.33395 40.5071 1.93049 41.1203 2.66657 41.1211H34.6657C35.4018 41.1203 35.9982 40.5071 35.999 39.7504V21.9316H36.6656C37.0338 21.9316 37.3323 21.6248 37.3323 21.2463C37.3323 20.8678 37.0338 20.561 36.6656 20.561H35.999V14.956C36.0306 14.9436 36.0635 14.9387 36.095 14.9256C36.8858 14.6098 37.6037 14.1277 38.2027 13.5101C38.8025 12.8997 39.27 12.1657 39.5744 11.3564C39.682 11.0868 39.7662 10.8079 39.826 10.5231C40.5598 7.42119 38.9133 4.24689 35.999 3.14483ZM30.6658 1.37144H34.6657V2.80712C33.275 2.61862 31.8633 2.92542 30.6658 3.67642V1.37144ZM7.99978 1.37144H29.3326V4.81213C27.8606 6.47711 27.3627 8.82209 28.026 10.9662H7.99978V1.37144ZM7.99978 12.3368H17.9995V20.5609H7.99978V12.3368ZM7.99978 21.9316H17.9995V30.1557H7.99978V21.9316ZM6.66646 39.7504H2.66657V21.9316H6.66646V39.7504ZM6.66646 20.5609H2.66657V1.37144H6.66646V20.5609ZM29.3326 39.7504H7.99978V31.5263H29.3326V39.7504ZM29.3326 30.1557H19.3328V21.9316H29.3326V30.1557ZM29.3326 20.5609H19.3328V12.3368H28.636C28.8383 12.6762 29.0716 12.995 29.3326 13.2889V20.5609ZM34.6657 39.7504H30.6658V21.9316H34.6657V39.7504ZM34.6657 20.5609H30.6658V14.4282C31.8553 15.1999 33.2742 15.5082 34.6657 15.2973V20.5609ZM36.2303 13.3395C35.7639 12.412 34.8471 11.8151 33.8321 11.7779C32.5722 11.7273 31.5616 10.6895 31.5109 9.39432C31.4846 8.65287 31.7573 7.9331 32.2645 7.4052C32.7739 6.87899 33.4753 6.59773 34.1967 6.6305C35.4581 6.68142 36.4691 7.7214 36.5179 9.01813C36.5544 10.062 37.1359 11.0044 38.0388 11.4832C37.6151 12.2626 36.989 12.9053 36.2303 13.3395ZM38.531 10.1937C38.1267 9.92567 37.8733 9.47343 37.8505 8.97942C37.774 6.96011 36.2 5.34075 34.2358 5.2606C33.148 5.21852 32.0924 5.6441 31.3224 6.43518C30.5525 7.22627 30.1379 8.31122 30.1782 9.4295C30.2553 11.4491 31.8299 13.0682 33.7944 13.148C34.2752 13.171 34.7155 13.4315 34.9766 13.8472C33.3591 14.2561 31.6515 13.763 30.4776 12.5482L30.4604 12.5305C28.5977 10.5985 28.6065 7.48134 30.4802 5.56057C32.3539 3.6398 35.3861 3.63956 37.2601 5.56009C38.4463 6.76768 38.9288 8.52686 38.531 10.1937Z" fill="#FECA36"/>
</g>
<defs>
<clipPath id="clip0">
<rect width="40" height="41.1215" fill="white"/>
</clipPath>
</defs>
</svg>
