<svg width="146" height="11" viewBox="0 0 146 11" fill="none" xmlns="http://www.w3.org/2000/svg">
<path d="M9.82516 3.26546V7.88625H12.4687C13.0415 7.88625 13.438 7.84306 13.7464 7.75669C14.0548 7.67032 14.2311 7.49758 14.3192 7.23847C14.4514 6.97936 14.4954 6.63388 14.4954 6.11566V5.1656C14.4954 4.64738 14.4514 4.25872 14.2751 3.99961C14.143 3.7405 13.9227 3.56776 13.6583 3.4382C13.3499 3.30865 12.9534 3.26546 12.4247 3.26546H9.82516ZM7.26974 0.372075H9.82516V1.19259H13.1296C14.0548 1.19259 14.8038 1.32214 15.3766 1.49488C15.9053 1.71081 16.3459 2.09947 16.6103 2.66087C16.8746 3.17909 17.0068 3.95642 17.0068 4.90649V6.37477C17.0068 7.06573 16.9627 7.62714 16.8306 8.05898C16.6984 8.49083 16.4781 8.8795 16.2137 9.13861C15.9053 9.4409 15.5088 9.61364 15.0241 9.74319C14.5395 9.87275 13.8786 9.95912 13.1296 9.95912H9.82516V10.9092H7.26974V9.95912H3.92126C3.17226 9.95912 2.55544 9.87275 2.02673 9.74319C1.49802 9.61364 1.10148 9.39772 0.837129 9.13861C0.528716 8.83631 0.352479 8.49083 0.220302 8.0158C0.088125 7.58395 0 6.97936 0 6.33159V4.8633C0 3.91324 0.132184 3.13591 0.396538 2.61769C0.660892 2.05629 1.1015 1.66762 1.63021 1.4517C2.20297 1.23577 2.95196 1.1494 3.8772 1.1494H7.22569V0.372075H7.26974ZM7.26974 3.26546H4.67028C4.14157 3.26546 3.70096 3.30865 3.43661 3.4382C3.1282 3.52457 2.95196 3.7405 2.81978 3.99961C2.6876 4.25872 2.64354 4.64738 2.64354 5.1656V6.11566C2.64354 6.5907 2.6876 6.97936 2.81978 7.23847C2.95196 7.49758 3.1282 7.67032 3.39256 7.75669C3.70097 7.84306 4.09751 7.88625 4.67028 7.88625H7.31381V3.26546H7.26974ZM32.824 10.9092V0.372075H28.5062L21.9414 8.83631H21.5889V0.372075H19.0335V10.9524H23.4835L29.9601 2.48813H30.3126V10.9524H32.824V10.9092ZM34.366 0.372075H45.9976V2.48813H41.4595V10.9524H38.8601V2.44495H34.366V0.372075ZM47.055 10.9092V0.372075H49.6105V4.43145H56.2634V0.372075H58.8629V10.9524H56.2634V6.50433H49.6105V10.9092H47.055ZM60.7133 10.9092V0.372075H71.7281V2.35858H63.2688V4.69056H71.4637V6.54751H63.2688V8.96587H71.7281V10.9524H60.7133V10.9092ZM82.126 10.9092H77.3236C76.3102 10.9092 75.5172 10.7796 74.9444 10.5637C74.3716 10.3478 73.9751 9.95912 73.7548 9.39772C73.5345 8.8795 73.4023 8.10217 73.4023 7.1521V4.17235C73.4023 3.13591 73.5345 2.35858 73.7989 1.79718C74.0632 1.23577 74.4597 0.847109 75.0766 0.631185C75.6493 0.41526 76.4865 0.285706 77.5879 0.285706H81.8176C82.7429 0.285706 83.4918 0.372075 84.1087 0.588C84.7255 0.803924 85.1661 1.1494 85.5185 1.71081C85.871 2.22903 86.0032 2.96317 86.0032 3.91324H83.3156C83.3156 3.35183 83.1834 2.96317 82.875 2.74724C82.5666 2.53132 82.082 2.40176 81.377 2.40176H78.0726C77.4558 2.40176 77.0152 2.44495 76.7508 2.53132C76.4424 2.61769 76.2662 2.79043 76.134 3.00635C76.0459 3.26546 75.9577 3.65413 75.9577 4.21553V6.84981C75.9577 7.36803 76.0459 7.79988 76.1781 8.05898C76.3102 8.31809 76.5305 8.53402 76.8389 8.62039C77.1473 8.70676 77.5439 8.74994 78.0726 8.74994H81.377C81.9057 8.74994 82.3022 8.70676 82.5666 8.62039C82.8309 8.53402 83.0512 8.40446 83.1834 8.18854C83.3156 7.97261 83.3597 7.62714 83.3597 7.19529H86.0473C86.0473 8.14535 85.9151 8.92268 85.7389 9.4409C85.5186 9.95912 85.122 10.3046 84.5933 10.5637C84.0205 10.8228 83.1834 10.9092 82.126 10.9092ZM93.0967 10.9092V0.372075H95.6521V4.34508H97.1501L101.864 0.372075H105.742L99.3972 5.33834L106.006 10.9524H102.217L97.2383 6.41796H95.6521V10.9524H93.0967V10.9092ZM119.312 0.372075V10.9524H116.756V2.44495H110.72V7.06573C110.72 9.61364 109.707 10.9092 107.636 10.9092H106.535V8.79313C106.975 8.79313 107.328 8.74994 107.548 8.62039C107.768 8.49083 107.945 8.31809 107.989 8.0158C108.077 7.71351 108.121 7.32484 108.121 6.76344V0.372075H110.103H116.756H119.312ZM130.283 0.372075H133.323L128.3 8.31809C127.903 8.92268 127.551 9.4409 127.287 9.74319C127.022 10.0455 126.758 10.3046 126.493 10.4773C126.229 10.6501 125.965 10.7796 125.656 10.8228C125.348 10.866 124.907 10.9092 124.379 10.9092H123.365V8.92268H123.894C124.907 8.92268 125.392 8.70676 125.392 8.27491C125.392 8.14536 125.348 7.97262 125.216 7.79988L120.237 0.372075H123.277L126.89 6.33159L130.283 0.372075ZM134.777 0.372075H144.91V2.35858H137.376V4.51782H142.311C143.192 4.51782 143.853 4.60419 144.381 4.82012C144.91 4.99286 145.307 5.33834 145.527 5.81337C145.791 6.2884 145.923 6.97936 145.923 7.79988C145.923 8.5772 145.791 9.22498 145.527 9.65683C145.263 10.0887 144.866 10.4342 144.381 10.6069C143.853 10.7796 143.192 10.9092 142.311 10.9092H134.732V0.372075H134.777ZM137.332 6.50433V8.92268H141.782C142.222 8.92268 142.575 8.8795 142.795 8.79313C143.016 8.70676 143.192 8.5772 143.236 8.40446C143.28 8.23172 143.324 7.97261 143.324 7.62714C143.324 7.32484 143.28 7.10892 143.236 6.93618C143.148 6.76344 143.016 6.63388 142.795 6.54751C142.575 6.46114 142.267 6.41796 141.826 6.41796H137.332V6.50433Z" fill="white"/>
</svg>
