<svg id="noun_Quote_2898429" xmlns="http://www.w3.org/2000/svg" width="215.732" height="136.984" viewBox="0 0 215.732 136.984">
  <defs>
    <style>
      .cls-1 {
        fill: #f1f1f1;
      }
    </style>
  </defs>
  <g id="Group_140" data-name="Group 140">
    <path id="Path_4412" data-name="Path 4412" class="cls-1" d="M61.4,22.6a48.8,48.8,0,0,0-6.588,97.16c2.639,19.973-14.034,36.964-14.207,37.137a1.574,1.574,0,0,0,1.536,2.629c70.389-19.554,68.173-85.886,68.069-88.154A48.866,48.866,0,0,0,61.4,22.6Z" transform="translate(-12.595 -22.6)"/>
    <path id="Path_4413" data-name="Path 4413" class="cls-1" d="M140.213,71.372a48.809,48.809,0,1,0-55.4,48.388c2.639,19.973-14.034,36.964-14.207,37.137a1.574,1.574,0,0,0,1.536,2.629C142.533,139.971,140.317,73.64,140.213,71.372Z" transform="translate(75.491 -22.6)"/>
  </g>
</svg>
